<?xml version="1.0" encoding="utf-8"?>
<!-- Generator: Adobe Illustrator 23.1.0, SVG Export Plug-In . SVG Version: 6.00 Build 0)  -->
<svg version="1.1"
	 id="Capa_1" xmlns:cc="http://creativecommons.org/ns#" xmlns:dc="http://purl.org/dc/elements/1.1/" xmlns:rdf="http://www.w3.org/1999/02/22-rdf-syntax-ns#"
	 xmlns="http://www.w3.org/2000/svg" xmlns:xlink="http://www.w3.org/1999/xlink" x="0px" y="0px" viewBox="0 0 150 149.98"
	 style="enable-background:new 0 0 150 149.98;" xml:space="preserve">
<style type="text/css">
	.st0{fill:none;stroke:#7E2347;stroke-width:3;stroke-miterlimit:10;}
</style>
<g>
	<path class="st0" d="M132.06,90.55V50.27c0-4.73-3.83-9-8.56-9H52.56c-4.73,0-8.68,4.27-8.68,9v65.43c0,4.73,3.95,8.57,8.68,8.57
		h19.85"/>
	<path class="st0" d="M95.75,72.4c0-2.86,2.32-5.19,5.19-5.19s5.19,2.32,5.19,5.19v24.66l20.58,5.96c3.39,0.98,5.43,4.44,4.63,7.89
		l-0.44,1.91l-3.97,21.83H95.18l-15.87-23.81C73,101.2,88.59,97.96,95.75,114V72.4z"/>
	<line class="st0" x1="43.88" y1="56.84" x2="132.06" y2="56.84"/>
	<path class="st0" d="M30.91,43.87c0-8.6,6.96-15.56,15.56-15.56"/>
	<path class="st0" d="M17.95,43.87c0-15.76,12.77-28.53,28.53-28.53"/>
</g>
</svg>
