<?xml version="1.0" encoding="utf-8"?>
<!-- Generator: Adobe Illustrator 23.0.0, SVG Export Plug-In . SVG Version: 6.00 Build 0)  -->
<svg version="1.1" id="Capa_1" xmlns="http://www.w3.org/2000/svg" xmlns:xlink="http://www.w3.org/1999/xlink" x="0px" y="0px"
	 viewBox="0 0 24 24" style="enable-background:new 0 0 24 24;" xml:space="preserve">
<style type="text/css">
	.st0{fill:none;}
	.st1{fill:#CD0D08;}
</style>
<path class="st0" d="M0,0h24v24H0V0z"/>
<path class="st1" d="M11,15.1H13v2.1H11V15.1z M11,6.8H13V13H11V6.8z M12,1.6C6.2,1.6,1.6,6.2,1.6,12S6.2,22.4,12,22.4
	c5.8,0,10.4-4.7,10.4-10.4S17.8,1.6,12,1.6z M12,20.3c-4.6,0-8.3-3.7-8.3-8.3S7.4,3.7,12,3.7s8.3,3.7,8.3,8.3S16.6,20.3,12,20.3z"/>
</svg>
