<?xml version="1.0" encoding="utf-8"?>
<!-- Generator: Adobe Illustrator 23.0.0, SVG Export Plug-In . SVG Version: 6.00 Build 0)  -->
<svg version="1.1" id="Capa_1" xmlns="http://www.w3.org/2000/svg" xmlns:xlink="http://www.w3.org/1999/xlink" x="0px" y="0px"
	 viewBox="0 0 24 24" style="enable-background:new 0 0 24 24;" xml:space="preserve">
<style type="text/css">
	.st0{fill:none;}
	.st1{fill:#218633;}
</style>
<path class="st0" d="M0,0h24v24H0V0z"/>
<path class="st1" d="M16.8,7.4l-6.9,6.9l-3.7-3.7L4.7,12l5.2,5.2l8.3-8.3L16.8,7.4z M12,1.6C6.2,1.6,1.6,6.2,1.6,12
	S6.2,22.4,12,22.4S22.4,17.8,22.4,12S17.8,1.6,12,1.6z M12,20.3c-4.6,0-8.3-3.7-8.3-8.3S7.4,3.7,12,3.7s8.3,3.7,8.3,8.3
	S16.6,20.3,12,20.3z"/>
</svg>
