<?xml version="1.0" encoding="UTF-8"?>
<!-- Created with Inkscape (http://www.inkscape.org/) -->
<svg width="52.917mm" height="52.911mm" version="1.1" viewBox="0 0 52.917 52.911" xmlns="http://www.w3.org/2000/svg" xmlns:cc="http://creativecommons.org/ns#" xmlns:dc="http://purl.org/dc/elements/1.1/" xmlns:rdf="http://www.w3.org/1999/02/22-rdf-syntax-ns#">
 <metadata>
  <rdf:RDF>
   <cc:Work rdf:about="">
    <dc:format>image/svg+xml</dc:format>
    <dc:type rdf:resource="http://purl.org/dc/dcmitype/StillImage"/>
    <dc:title/>
   </cc:Work>
  </rdf:RDF>
 </metadata>
 <g transform="translate(-23.684 -23.092)">
  <path d="m49.567 23.092c-14.527 0.31582-26.091 12.307-25.88 26.836 0.21055 14.529 12.117 26.179 26.647 26.074 14.53-0.1053 26.267-11.927 26.267-26.458a0.62415 0.62415 0 1 0-1.2483 0c0 13.859-11.169 25.109-25.027 25.209-13.859 0.10043-25.19-10.987-25.39-24.844-0.20082-13.858 10.804-25.268 24.66-25.569a0.6241 0.6241 0 1 0-0.02758-1.2478zm-10.235 11.636c-0.85535 0-1.5512 0.69584-1.5512 1.5512v22.18c0 0.85541 0.69584 1.5512 1.5512 1.5512h8.9778c0.2734 0 0.49504-0.22156 0.49504-0.49503 0-0.2734-0.22157-0.49518-0.49504-0.49518h-8.9778c-0.30941 0-0.56118-0.25162-0.56118-0.56104v-22.18c0-0.30942 0.25177-0.56103 0.56118-0.56103h17.956c0.30941 0 0.56118 0.25161 0.56118 0.56103v16.371c0 0.2734 0.22157 0.49519 0.49503 0.49519 0.2734 0 0.49519-0.22172 0.49519-0.49519v-16.371c-6.2e-5 -0.85541-0.69599-1.5512-1.5514-1.5512zm3.6968 4.753c-1.1466 0-2.0794 0.93282-2.0794 2.0794 0 1.1466 0.93282 2.0794 2.0794 2.0794s2.0794-0.9328 2.0794-2.0794c6.3e-5 -0.2734-0.22164-0.49504-0.49503-0.49504-0.27341 0-0.49504 0.22157-0.49504 0.49504 0 0.6006-0.48869 1.0893-1.0893 1.0893s-1.0893-0.48869-1.0893-1.0893c0-0.60058 0.48869-1.0891 1.0893-1.0891 0.2734 0 0.49504-0.22173 0.49504-0.49519s-0.22157-0.49503-0.49504-0.49503zm3.6968 0.52811c-0.2734 0-0.49519 0.22156-0.49519 0.49503s0.22172 0.49519 0.49519 0.49519h6.3371c0.27339 0 0.49518-0.22172 0.49518-0.49519s-0.22173-0.49503-0.49518-0.49503zm0 2.1124c-0.2734 0-0.49519 0.22157-0.49519 0.49503 0 0.27347 0.22172 0.49519 0.49519 0.49519h8.4496c0.2734 0 0.49518-0.22172 0.49519-0.49519 0-0.27346-0.22179-0.49503-0.49519-0.49503zm-3.6968 3.1685c-1.1466 0-2.0794 0.93283-2.0794 2.0794s0.93282 2.0795 2.0794 2.0795 2.0794-0.93298 2.0794-2.0795c6.3e-5 -0.27335-0.22164-0.49504-0.49503-0.49504-0.27341 0-0.49504 0.22173-0.49504 0.49519 0 0.60061-0.48869 1.0891-1.0893 1.0891s-1.0893-0.48853-1.0893-1.0891c0-0.6006 0.48869-1.0893 1.0893-1.0893 0.2734 0 0.49504-0.22157 0.49504-0.49504s-0.22157-0.49519-0.49504-0.49519zm3.6968 0.52811c-0.2734 0-0.49519 0.22172-0.49519 0.49519 0 0.27346 0.22172 0.49503 0.49519 0.49503h3.6966c0.2734 0 0.49519-0.22157 0.49519-0.49503 0-0.27347-0.22173-0.49519-0.49519-0.49519zm7.1356 0c-0.06376 0-0.1277 3e-3 -0.19174 9e-3 -0.91396 0.0915-1.6299 0.91791-1.6299 1.8814v6.321l-1.4554 1.4554c-0.7734 0.77338-1.0856 1.8706-0.83506 2.9353l1.105 4.696c0.44768 1.9028 2.1256 3.2317 4.0804 3.2317h4.4655c2.3114 0 4.1918-1.8803 4.1918-4.1918v-5.4698c6.5e-5 -0.96361-0.71578-1.79-1.6297-1.8815-0.46016-0.0459-0.92007 0.0846-1.2841 0.36091-0.28995-0.48652-0.7844-0.83171-1.3565-0.88901-0.46028-0.0458-0.92013 0.0846-1.2841 0.36091-0.28996-0.48652-0.7844-0.83169-1.3565-0.88902-0.3514-0.0351-0.70228 0.0327-1.0106 0.1896v-6.3051c0-0.51191-0.21788-1.0026-0.59776-1.3462-0.33206-0.30047-0.7651-0.46638-1.2114-0.46882zm-0.0045 0.98991c0.20525 0 0.39855 0.0747 0.55158 0.21324 0.17274 0.15628 0.27175 0.37938 0.27175 0.61208v8.7137c0 0.2734 0.22172 0.49503 0.49519 0.49503s0.49504-0.22158 0.49504-0.49503v-0.79225c0-0.2327 0.0991-0.45577 0.2719-0.61208 0.17503-0.15836 0.4023-0.23261 0.64013-0.20866 0.41402 0.0415 0.73844 0.43499 0.73844 0.89604v1.2449c0 0.2734 0.22157 0.49503 0.49503 0.49503 0.2734 0 0.49519-0.22157 0.49519-0.49503v-0.79224c0-0.2327 0.09895-0.45578 0.27175-0.61209 0.17502-0.15835 0.40236-0.23257 0.64013-0.20865 0.41403 0.0414 0.73844 0.43502 0.73844 0.89603v1.2449c0 0.2734 0.22172 0.49519 0.49519 0.49519 0.2734 0 0.49503-0.22172 0.49503-0.49519v-0.79208c0-0.23271 0.09895-0.45592 0.27175-0.61224 0.17502-0.15827 0.40233-0.23251 0.64028-0.2085 0.41402 0.0414 0.73828 0.43502 0.73828 0.89603v5.4699h-2.95e-4c0 1.7654-1.4362 3.2016-3.2016 3.2016h-4.4655c-1.493 0-2.7746-1.015-3.1165-2.4683l-1.105-4.696c-0.17144-0.72843 0.04225-1.4792 0.5714-2.0083l0.7552-0.75536v1.7095c0 0.27341 0.22157 0.49503 0.49504 0.49503 0.27346 0 0.49519-0.22157 0.49519-0.49503v-9.4306c0-0.46102 0.32434-0.85465 0.73844-0.89603 0.02972-3e-3 0.05923-4e-3 0.08854-4e-3zm-7.1312 1.1224c-0.2734 0-0.49519 0.22157-0.49519 0.49503 0 0.27347 0.22172 0.49504 0.49519 0.49504h3.6966c0.2734 0 0.49519-0.22157 0.49519-0.49504 0-0.27346-0.22173-0.49503-0.49519-0.49503zm-3.6968 3.1685c-1.1466 0-2.0794 0.93279-2.0794 2.0794 0 1.1465 0.93282 2.0794 2.0794 2.0794 1.1465 0 2.0794-0.93282 2.0794-2.0794 6.2e-5 -0.2734-0.22164-0.49503-0.49503-0.49503-0.27341 0-0.49504 0.22172-0.49504 0.49519 0 0.60057-0.48869 1.0891-1.0893 1.0891-0.6006 0-1.0893-0.48856-1.0893-1.0891 0-0.60061 0.48869-1.0893 1.0893-1.0893 0.2734 0 0.49504-0.22172 0.49504-0.49518 0-0.27347-0.22157-0.49503-0.49504-0.49503zm3.6968 0.5281c-0.2734 0-0.49519 0.22173-0.49519 0.49519s0.22172 0.49503 0.49519 0.49503h3.6966c0.2734 0 0.49519-0.22157 0.49519-0.49503s-0.22173-0.49519-0.49519-0.49519zm0 2.1124c-0.2734 0-0.49519 0.22154-0.49519 0.49504 0 0.27346 0.22172 0.49519 0.49519 0.49519h2.6405c0.2734 0 0.49503-0.22173 0.49503-0.49519 0-0.2735-0.22164-0.49504-0.49503-0.49504z" fill="#7e2347" stroke-width=".061758"/>
 </g>
</svg>
