<?xml version="1.0" encoding="UTF-8"?>
<svg width="82" height="82" version="1.1" viewBox="0 0 21.696 21.696" xmlns="http://www.w3.org/2000/svg" xmlns:cc="http://creativecommons.org/ns#" xmlns:dc="http://purl.org/dc/elements/1.1/" xmlns:rdf="http://www.w3.org/1999/02/22-rdf-syntax-ns#">
 <metadata>
  <rdf:RDF>
   <cc:Work rdf:about="">
    <dc:format>image/svg+xml</dc:format>
    <dc:type rdf:resource="http://purl.org/dc/dcmitype/StillImage"/>
    <dc:title/>
   </cc:Work>
  </rdf:RDF>
 </metadata>
 <path d="m10.741 0.2646c-0.6186 0-0.97249 0.043001-1.4492 0.20531-0.47666 0.16234-1.0774 0.4355-2.2772 0.90836-2.3305 0.91854-5.2745 0.5973-5.2745 0.5973l-0.24194-0.027334-0.01 0.24329s-0.15284 3.8304 0.92043 8.1404c1.0732 4.31 3.3841 9.1401 8.3406 11.067l0.082 0.03183 0.082-0.03183c4.9565-1.9274 7.2759-6.7595 8.3578-11.072 1.0819-4.3123 0.93791-8.1453 0.93791-8.1453l-0.01-0.25562-0.25256 0.040668s-2.8427 0.45015-5.4797-0.58912c-1.0483-0.41315-1.6509-0.68687-2.1632-0.86344-0.51226-0.1766-0.93719-0.25022-1.5632-0.25022z" style="color-rendering:auto;color:#000000;dominant-baseline:auto;fill:#fefefe;font-feature-settings:normal;font-variant-alternates:normal;font-variant-caps:normal;font-variant-ligatures:normal;font-variant-numeric:normal;font-variant-position:normal;image-rendering:auto;isolation:auto;mix-blend-mode:normal;shape-padding:0;shape-rendering:auto;solid-color:#000000;stroke-width:.22981;text-decoration-color:#000000;text-decoration-line:none;text-decoration-style:solid;text-indent:0;text-orientation:mixed;text-transform:none;white-space:normal"/>
 <path d="m10.955 3.344c-0.015-9.167e-4 -0.02767 0.00167-0.0395 0.01-0.19839 0.12267-0.66577 1.0326-0.86754 1.6892-0.10834 0.35278-0.22396 0.72017-0.25669 0.81636-0.035834 0.10517-0.14867-0.061168-0.28307-0.41703-0.70857-1.8763-3.118-2.8144-3.1631-1.2314v0.017834a0.63794 0.62813 0 0 0-0.011667 0.118 0.63794 0.62813 0 0 0 0.63793 0.62815 0.63794 0.62813 0 0 0 0.63795-0.62815 0.63794 0.62813 0 0 0-0.1055-0.34491c0.086002 0.0016 0.25377 0.15717 0.38253 0.40828 0.13034 0.25426 0.17715 0.77242 0.18362 2.0323 0.01 2.0338 4.334e-4 1.9543 0.25374 2.0119 0.11217 0.025501 0.30131-0.00137 0.42014-0.060168 0.19604-0.096836 0.21179-0.23264 0.16997-1.4665-0.040668-1.2015-0.083002-1.4311-0.36379-1.9721-0.36054-0.6948-0.18614-0.86254 0.22942-0.22067 0.41621 0.64288 0.62303 1.4265 0.62303 2.3608 0 1.0132 0.12484 1.3294 0.52478 1.3294 0.40271 0 0.4847-0.24224 0.57197-1.691 0.08533-1.4171 0.25992-2.4672 0.4274-2.5706 0.20437-0.12634 0.35374 0.575 0.46931 2.2028 0.0635 0.89427 0.16762 1.7233 0.23134 1.8424 0.1525 0.28496 0.64895 0.27936 0.80332-0.00833 0.06634-0.124 0.12067-0.61432 0.12067-1.0894 0-0.97641 0.20557-1.7826 0.60367-2.3672 0.41326-0.60692 0.6018-0.49773 0.26674 0.1545-0.33816 0.65822-0.57978 2.1437-0.46891 2.8829 0.09217 0.61505 0.37244 0.84531 0.71945 0.59123 0.19929-0.14584 0.22019-0.33133 0.22019-1.953 0-1.5185 0.0315-1.84 0.20672-2.1084 0.15117-0.23147 0.28262-0.33274 0.34748-0.30139a0.63794 0.62813 0 0 0-0.10034 0.33813 0.63794 0.62813 0 0 0 0.63793 0.62817 0.63794 0.62813 0 0 0 0.63793-0.62817 0.63794 0.62813 0 0 0-0.04433-0.22831c-0.063173-0.71149-0.68569-0.90241-1.5851-0.467-0.63087 0.30539-1.1616 0.90788-1.5286 1.7351l-0.28722 0.64767-0.25962-0.89751c-0.25459-0.88002-0.74539-1.7802-0.96223-1.7926zm-2.3741 5.4032a0.577 0.5681 0 0 0-0.57697 0.56807 0.577 0.5681 0 0 0 0.57697 0.56813 0.577 0.5681 0 0 0 0.57698-0.56813 0.577 0.5681 0 0 0-0.57698-0.56807zm1.6318 0a0.577 0.5681 0 0 0-0.57707 0.56807 0.577 0.5681 0 0 0 0.57707 0.56813 0.577 0.5681 0 0 0 0.57697-0.56813 0.577 0.5681 0 0 0-0.57697-0.56807zm1.6021 0a0.577 0.5681 0 0 0-0.57698 0.56807 0.577 0.5681 0 0 0 0.57698 0.56813 0.577 0.5681 0 0 0 0.57697-0.56813 0.577 0.5681 0 0 0-0.57697-0.56807zm1.5427 0a0.577 0.5681 0 0 0-0.57697 0.56807 0.577 0.5681 0 0 0 0.57697 0.56813 0.577 0.5681 0 0 0 0.57708-0.56813 0.577 0.5681 0 0 0-0.57708-0.56807zm-3.2582 1.5437c-0.36103 0-0.46373 0.37754-0.46373 1.7049 0 1.5541-0.21747 2.1076-1.0309 2.6235-0.76005 0.48201-0.92829 0.42436-0.43688-0.14967 0.75792-0.88548 1.1633-2.4497 0.89361-3.4478-0.138-0.51045-0.44425-0.7802-0.75182-0.66217-0.24867 0.0955-0.26156 0.25646-0.14467 1.8093 0.11367 1.5099 0.045835 1.8476-0.47671 2.3702-0.4505 0.4505-0.99501 0.58697-1.4604 0.36611-0.43481-0.20634-0.60887-0.43726-0.72369-0.95998l-0.067335-0.30674a0.72019 0.70909 0 0 0 0.55928 0.26322 0.72019 0.70909 0 0 0 0.72025-0.70912 0.72019 0.70909 0 0 0-0.51688-0.6797c-0.16417-0.07767-0.36649-0.09-0.58017-0.0083-0.36723 0.13967-0.53186 0.45766-0.53186 1.0274 0 1.4457 2.0004 2.2656 3.5921 1.4724 0.83179-0.41448 1.3776-1.0883 1.6751-2.0675 0.21792-0.71747 0.26156-0.78194 0.4211-0.6224 0.1595 0.1595 0.14984 0.24212-0.09367 0.79764-0.35604 0.81242-0.35393 1.598 0.0067 2.421l0.27814 0.63492 0.26027-0.57658c0.34099-0.75535 0.35611-1.7852 0.03667-2.4895-0.22232-0.49001-0.21737-0.94443 0.01-0.94443 0.05867 0 0.1375 0.14434 0.17524 0.32076 0.37021 1.7301 1.5849 2.828 3.1291 2.828 1.2469 0 2.1228-0.63808 2.2578-1.6447 0.07884-0.58767-0.12634-0.98806-0.58902-1.1493-0.28859-0.10067-0.53138-0.06433-0.68807 0.07767a0.72019 0.70909 0 0 0-0.34331 0.6032 0.72019 0.70909 0 0 0 0.7202 0.7091 0.72019 0.70909 0 0 0 0.5302-0.23031c0.0655 0.0705 0.01333 0.21392-0.1085 0.50103-0.47296 1.1174-1.7312 1.1186-2.4212 0.0017-0.23842-0.38579-0.24741-0.49458-0.17069-2.0723 0.07184-1.4771 0.0595-1.6733-0.10884-1.7379-0.5471-0.20994-0.93568 0.58612-0.84394 1.7289 0.06584 0.82046 0.40344 1.669 0.92148 2.3162 0.19594 0.24479 0.32963 0.47175 0.29709 0.50428-0.07367 0.07367-0.76439-0.27057-1.0555-0.52605-0.5329-0.46775-0.70072-1.0539-0.68702-2.3992 0.01333-1.3354-0.07567-1.6977-0.4184-1.6977-0.31278 0-0.48571 0.23796-0.48571 0.66845 0 0.21374-0.08 0.58043-0.17804 0.81487-0.16034 0.38371-0.196 0.40836-0.35758 0.24681-0.09867-0.09867-0.21816-0.46411-0.26537-0.81199-0.10234-0.75355-0.18912-0.91814-0.48461-0.91814zm0.91272 3.0252c0.08117 5e-3 0.15667 0.103 0.20664 0.32771 0.03933 0.17639 0.09434 0.40653 0.12234 0.51138 0.02817 0.10484 0.0011 0.41294-0.06 0.68465-0.2039 0.90752-0.53361 0.83667-0.66798-0.14367-0.09534-0.69597 0.17429-1.3937 0.39886-1.3801z" style="fill:#485a80;paint-order:stroke fill markers;stroke-width:.22981"/>
</svg>
