<svg id="svg877" width="250" height="200" version="1.1" viewBox="0 0 66.146 52.917" xmlns="http://www.w3.org/2000/svg">
 <g id="layer1" transform="translate(0 -244.08)">
  <path id="path1456" transform="matrix(.26458 0 0 .26458 0 244.08)" d="m188.16 1.8965c-1.1555-0.015118-2.2928 0.2865-3.2812 0.88477l-158.38 96.516c-6.989 4.2548-0.60482 14.733 6.3848 10.479 123.29-75.298 87.217-0.69748 186.13-1.5801 8.2921 0.11755 8.2921-12.381 0-12.264-20.87 0-31.539-5.3952-37.102-12.383-5.5624-6.9874-6.7303-16.839-5.2344-27.666 2.9917-21.654 16.646-44.682 16.646-44.682 2.4521-4.0544-0.42364-9.2386-5.1621-9.3047zm-135.84 126.53v10.473h11.838v-10.473h-11.838zm126.54 16.848c-3.582 0-6.9213 0.6663-10.018 2.002-3.0356 1.3356-5.6756 3.1578-7.9219 5.4648-2.1856 2.2463-3.9165 4.9174-5.1914 8.0137-1.2142 3.0356-1.8223 6.2545-1.8223 9.6543v0.18164c0 3.3998 0.60804 6.6168 1.8223 9.6523 1.2749 3.0356 3.0058 5.6775 5.1914 7.9238 2.2463 2.2463 4.8863 4.0374 7.9219 5.373 3.0356 1.2749 6.3438 1.9121 9.9258 1.9121 4.6748 0 8.5308-0.81978 11.566-2.459 3.0356-1.6999 5.7377-3.8853 8.1055-6.5566l-6.6484-6.5566c-1.7606 1.7606-3.643 3.2176-5.6465 4.3711-1.9428 1.0928-4.2195 1.6387-6.8301 1.6387-2.1249 0-4.0675-0.39435-5.8281-1.1836-1.7606-0.84996-3.2778-1.9728-4.5527-3.3691-1.2749-1.3964-2.2773-3.0359-3.0059-4.918-0.66782-1.882-1.002-3.8849-1.002-6.0098v-0.18359c0-2.0642 0.33413-4.0359 1.002-5.918 0.72854-1.8821 1.6998-3.4925 2.9141-4.8281 1.2142-1.3964 2.6712-2.4881 4.3711-3.2773 1.6999-0.84997 3.5512-1.2754 5.5547-1.2754 2.7927 0 5.1316 0.57696 7.0137 1.7305 1.9428 1.0928 3.763 2.5187 5.4629 4.2793l6.8301-7.375c-2.2463-2.4892-4.8863-4.4939-7.9219-6.0117-2.9748-1.5178-6.7396-2.2754-11.293-2.2754zm-156.68 0.18164c-2.3677 0-4.6134 0.33412-6.7383 1.002-2.0642 0.66782-3.8864 1.6391-5.4648 2.9141-1.5178 1.2749-2.7319 2.8232-3.6426 4.6445-0.84996 1.8214-1.2734 3.8553-1.2734 6.1016v0.18165c0 2.307 0.45457 4.2496 1.3652 5.8281 0.91067 1.5785 2.0646 2.915 3.4609 4.0078 1.4571 1.0321 3.0655 1.881 4.8262 2.5488 1.8213 0.66782 3.6124 1.2448 5.373 1.7305 1.3964 0.42497 2.7309 0.85039 4.0059 1.2754 1.3356 0.42497 2.4896 0.87954 3.4609 1.3652 1.0321 0.4857 1.8227 1.0627 2.3691 1.7305 0.60711 0.66782 0.91016 1.4565 0.91016 2.3672v0.18359c0 1.5785-0.66826 2.8529-2.0039 3.8242-1.2749 0.91067-3.0971 1.3652-5.4648 1.3652-2.4892 0-5.0981-0.48567-7.8301-1.457-2.6713-1.0321-5.3132-2.5182-7.9238-4.4609l-4.918 7.4668c3.0356 2.3677 6.3147 4.1588 9.8359 5.373 3.582 1.2142 7.1039 1.8203 10.564 1.8203v0.00196c2.4892 0 4.8261-0.30499 7.0117-0.91211 2.1856-0.66782 4.068-1.6081 5.6465-2.8223 1.6392-1.2749 2.9135-2.8543 3.8242-4.7363 0.91067-1.8821 1.3652-4.0966 1.3652-6.6465v-0.18359c0-2.1856-0.45457-4.0369-1.3652-5.5547-0.91067-1.5178-2.0957-2.7921-3.5527-3.8242-1.3964-1.0928-2.9738-2.0039-4.7344-2.7324-1.7606-0.72854-3.5206-1.3657-5.2812-1.9121-1.3964-0.425-2.764-0.85042-4.0996-1.2754-1.2749-0.4857-2.4269-0.97134-3.459-1.457-0.97138-0.5464-1.762-1.1234-2.3691-1.7305-0.60711-0.66782-0.91016-1.4274-0.91016-2.2774v-0.18164c0-1.3964 0.57696-2.5503 1.7305-3.4609 1.2142-0.91067 2.8829-1.3652 5.0078-1.3652 2.0035 0 4.1889 0.42543 6.5566 1.2754 2.3677 0.78924 4.7066 1.881 7.0137 3.2774l4.3711-7.832c-2.5499-1.6999-5.3725-3.0345-8.4688-4.0059s-6.1637-1.457-9.1992-1.457zm205.52 0.0918c-3.9462 0-7.3147 0.36326-10.107 1.0918-2.7927 0.72852-5.526 1.6998-8.1973 2.9141l3.0059 8.834c2.1856-0.91067 4.34-1.6392 6.4648-2.1856 2.1249-0.54642 4.5551-0.82031 7.2871-0.82031 3.8248 0 6.7387 0.87999 8.7422 2.6406 2.0642 1.7606 3.0957 4.3113 3.0957 7.6504v0.91016c-1.882-0.60712-3.8557-1.0928-5.9199-1.457-2.0035-0.36427-4.4609-0.54688-7.375-0.54688-2.7927 0-5.4036 0.33411-7.832 1.002-2.3677 0.6071-4.4327 1.5784-6.1934 2.9141-1.6999 1.2749-3.0345 2.9145-4.0059 4.918-0.97138 1.9428-1.457 4.2506-1.457 6.9219v0.18164c0 2.4284 0.45457 4.5848 1.3652 6.4668 0.97138 1.8213 2.2166 3.3676 3.7344 4.6426 1.5785 1.2142 3.3987 2.1253 5.4629 2.7324 2.0642 0.66784 4.2496 1.002 6.5566 1.002 3.6427 0 6.7392-0.66824 9.2891-2.0039 2.5499-1.3356 4.644-2.9732 6.2832-4.916v5.918h10.928v-28.504c0-6.4354-1.7289-11.414-5.1894-14.936-3.4605-3.582-8.7736-5.3711-15.938-5.3711zm-122 0.54492-10.654 33.148-9.6543-32.965h-11.291l15.572 48.447h9.834l10.838-32.875 10.746 32.875h9.834l15.756-48.447h-11.02l-9.8359 32.965-10.746-33.148h-9.3789zm-52.924 0.1836v48.082h11.018v-48.082h-11.018zm174.37 26.045c2.1249 0 4.1297 0.18065 6.0117 0.54492 1.9428 0.36427 3.6114 0.8208 5.0078 1.3672v2.7324c0 1.5178-0.33413 2.9126-1.002 4.1875-0.60711 1.2142-1.4871 2.2768-2.6406 3.1875-1.1535 0.84997-2.5192 1.5182-4.0976 2.0039-1.5178 0.48569-3.1865 0.72851-5.0078 0.72851-2.6106 0-4.8271-0.6061-6.6484-1.8203-1.7606-1.2142-2.6406-2.9762-2.6406-5.2832v-0.18164c0-2.307 0.97131-4.1292 2.9141-5.4648 1.9428-1.3356 4.643-2.002 8.1035-2.002z" style="fill:#fff;font-feature-settings:normal;font-variant-caps:normal;font-variant-ligatures:normal;font-variant-numeric:normal"/>
 </g>
</svg>
