<?xml version="1.0" encoding="UTF-8"?>
<svg width="89.913" height="47.999" version="1.1" viewBox="0 0 23.789 12.7" xmlns="http://www.w3.org/2000/svg" xmlns:cc="http://creativecommons.org/ns#" xmlns:dc="http://purl.org/dc/elements/1.1/" xmlns:rdf="http://www.w3.org/1999/02/22-rdf-syntax-ns#">
 <metadata>
  <rdf:RDF>
   <cc:Work rdf:about="">
    <dc:format>image/svg+xml</dc:format>
    <dc:type rdf:resource="http://purl.org/dc/dcmitype/StillImage"/>
    <dc:title/>
   </cc:Work>
  </rdf:RDF>
 </metadata>
 <g transform="translate(-1.4363 -.021009)">
  <path d="m15.935 4.5255v3.8943h0.90125v-3.8943zm1.8247 0v3.8943h0.90122v-1.0733h0.78446c0.34494 0 0.64333-0.055642 0.89554-0.16692 0.25593-0.11498 0.45241-0.27848 0.58965-0.48989 0.13721-0.21512 0.20619-0.46526 0.20619-0.75086 0-0.2893-0.06898-0.53996-0.20619-0.75137-0.13724-0.21142-0.33372-0.3744-0.58965-0.48938-0.2522-0.11498-0.5506-0.1726-0.89554-0.1726zm4.0168 0v3.8943h0.90125v-1.0847h0.82889l0.75086 1.0847h0.9684l-0.87384-1.2516c0.25593-0.11127 0.45291-0.27082 0.59015-0.47852 0.14094-0.21141 0.21135-0.46155 0.21135-0.75086 0-0.2893-0.06895-0.53996-0.20619-0.75137-0.13721-0.21142-0.33369-0.3744-0.58962-0.48938-0.2522-0.11498-0.55062-0.1726-0.89556-0.1726zm-3.1156 0.73432h0.73432c0.27078 0 0.47659 0.059597 0.61754 0.17828 0.14094 0.11498 0.21135 0.28192 0.21135 0.50075 0 0.21513-0.07041 0.38206-0.21135 0.50075-0.14094 0.11498-0.34676 0.17208-0.61754 0.17208h-0.73432zm4.0168 0h0.73432c0.27075 0 0.47657 0.059597 0.61754 0.17828 0.14092 0.11498 0.21135 0.28192 0.21135 0.50075 0 0.21513-0.07043 0.38206-0.21135 0.50075-0.14097 0.11869-0.34679 0.17777-0.61754 0.17777h-0.73432z" style="fill:#a11216;stroke-width:.13909"/>
  <g transform="matrix(.13788 0 0 .13788 -30.893 20.973)">
   <path d="m274.77-151.96c-2.6919 0-4.2318 0.18684-6.306 0.89344s-4.6884 1.895-9.9093 3.9527c-10.141 3.997-22.952 2.5991-22.952 2.5991l-1.0528-0.11926-0.0419 1.0587s-0.6647 16.668 4.0052 35.423 14.726 39.773 36.294 48.16l0.35677 0.1388 0.35697-0.1388c21.568-8.387 31.661-29.414 36.369-48.179s4.0813-35.444 4.0813-35.444l-0.0415-1.1124-1.099 0.17706s-12.37 1.9588-23.845-2.5635c-4.5614-1.7978-7.1839-2.9889-9.4131-3.7573-2.2291-0.76847-4.0782-1.0888-6.8022-1.0888z" style="color-rendering:auto;color:#000000;dominant-baseline:auto;fill:#16429f;font-feature-settings:normal;font-variant-alternates:normal;font-variant-caps:normal;font-variant-ligatures:normal;font-variant-numeric:normal;font-variant-position:normal;image-rendering:auto;isolation:auto;mix-blend-mode:normal;shape-padding:0;shape-rendering:auto;solid-color:#000000;text-decoration-color:#000000;text-decoration-line:none;text-decoration-style:solid;text-indent:0;text-orientation:mixed;text-transform:none;white-space:normal"/>
   <path d="m275.7-138.56c-0.0629-4e-3 -0.12029 0.01-0.17199 0.0419-0.86328 0.53354-2.8971 4.4936-3.7751 7.3504-0.47179 1.5351-0.97452 3.1338-1.117 3.5524-0.15576 0.45764-0.64695-0.26609-1.2318-1.8147-3.0833-8.1647-13.568-12.247-13.764-5.3585v0.0776a2.776 2.7333 0 0 0-0.0517 0.51357 2.776 2.7333 0 0 0 2.776 2.7334 2.776 2.7333 0 0 0 2.776-2.7334 2.776 2.7333 0 0 0-0.4588-1.5009c0.37435 7e-3 1.1043 0.68361 1.6646 1.7766 0.56715 1.1064 0.77084 3.3612 0.79898 8.8436 0.0454 8.85 2e-3 8.5039 1.1042 8.7549 0.48844 0.11124 1.3111-6e-3 1.8282-0.26217 0.85312-0.42147 0.92166-1.0123 0.73969-6.3815-0.1772-5.2284-0.36144-6.2273-1.5831-8.5815-1.5689-3.0234-0.80992-3.7533 0.99839-0.96023 1.8111 2.7975 2.7111 6.2074 2.7111 10.273 1e-5 4.409 0.54306 5.785 2.2836 5.785 1.7524 0 2.1091-1.0541 2.4889-7.3584 0.3714-6.1664 1.131-10.736 1.8598-11.186 0.88927-0.54959 1.5393 2.5021 2.0422 9.5854 0.27629 3.8914 0.72941 7.4991 1.0067 8.0172 0.66362 1.24 2.8239 1.2156 3.4956-0.0396 0.28895-0.53987 0.52538-2.6732 0.52538-4.7405 0-4.2489 0.89456-7.7571 2.6269-10.301 1.7983-2.641 2.6187-2.1659 1.1607 0.67207-1.4715 2.8642-2.5229 9.3281-2.0405 12.545 0.40136 2.6764 1.6207 3.6784 3.1307 2.5728 0.86725-0.63494 0.95816-1.4418 0.95816-8.4986 0-6.6077 0.13699-8.0067 0.89956-9.1745 0.6577-1.0072 1.2298-1.4479 1.512-1.3115a2.776 2.7333 0 0 0-0.43694 1.4714 2.776 2.7333 0 0 0 2.776 2.7334 2.776 2.7333 0 0 0 2.776-2.7334 2.776 2.7333 0 0 0-0.1928-0.99354c-0.27479-3.096-2.9838-3.9268-6.8975-2.0321-2.7452 1.3289-5.0549 3.9506-6.6516 7.5505l-1.2498 2.8183-1.1298-3.9055c-1.1078-3.8294-3.2435-7.7467-4.1871-7.8005zm-10.331 23.512a2.5108 2.4721 0 0 0-2.5107 2.4719 2.5108 2.4721 0 0 0 2.5107 2.4722 2.5108 2.4721 0 0 0 2.5107-2.4722 2.5108 2.4721 0 0 0-2.5107-2.4719zm7.1007 0a2.5108 2.4721 0 0 0-2.5111 2.4719 2.5108 2.4721 0 0 0 2.5111 2.4722 2.5108 2.4721 0 0 0 2.5107-2.4722 2.5108 2.4721 0 0 0-2.5107-2.4719zm6.9714 0a2.5108 2.4721 0 0 0-2.5107 2.4719 2.5108 2.4721 0 0 0 2.5107 2.4722 2.5108 2.4721 0 0 0 2.5107-2.4722 2.5108 2.4721 0 0 0-2.5107-2.4719zm6.713 0a2.5108 2.4721 0 0 0-2.5107 2.4719 2.5108 2.4721 0 0 0 2.5107 2.4722 2.5108 2.4721 0 0 0 2.5111-2.4722 2.5108 2.4721 0 0 0-2.5111-2.4719zm-14.178 6.7172c-1.571 0-2.0179 1.6429-2.0179 7.4187-2e-5 6.7625-0.94636 9.171-4.486 11.416-3.3074 2.0975-4.0395 1.8466-1.9011-0.65161 3.2981-3.8531 5.0623-10.66 3.8885-15.003-0.60033-2.2212-1.9331-3.395-3.2715-2.8814-1.0821 0.41526-1.1382 1.116-0.62941 7.873 0.49481 6.5704 0.19925 8.04-2.0744 10.314-1.9603 1.9603-4.3298 2.5542-6.3551 1.5931-1.8921-0.89787-2.6495-1.9027-3.1491-4.1773l-0.29303-1.3348a3.1339 3.0856 0 0 0 2.4337 1.1454 3.1339 3.0856 0 0 0 3.1342-3.0857 3.1339 3.0856 0 0 0-2.2492-2.9577c-0.71415-0.33788-1.5948-0.39165-2.5246-0.03807-1.598 0.60758-2.3144 1.9915-2.3144 4.4707 0 6.2907 8.7048 9.8587 15.631 6.4071 3.6195-1.8036 5.9947-4.7357 7.289-8.9969 0.94831-3.1221 1.1382-3.4026 1.8324-2.7084 0.69417 0.69418 0.65192 1.0536-0.40747 3.4709-1.5493 3.5353-1.5401 6.9538 0.0284 10.535l1.2103 2.7628 1.1326-2.509c1.4838-3.2869 1.5496-7.7684 0.15917-10.833-0.96744-2.1323-0.94589-4.1097 0.0451-4.1097 0.25498 0 0.59837 0.62823 0.76259 1.3958 1.6109 7.5287 6.8968 12.306 13.616 12.306 5.4258 0 9.2375-2.7766 9.825-7.1569 0.343-2.5572-0.55007-4.2995-2.5631-5.0013-1.2558-0.43777-2.3123-0.27964-2.9941 0.33812a3.1339 3.0856 0 0 0-1.4939 2.6248 3.1339 3.0856 0 0 0 3.1339 3.0857 3.1339 3.0856 0 0 0 2.3072-1.0022c0.28492 0.30673 0.0568 0.93088-0.47197 2.1802-2.0581 4.8625-7.5334 4.8678-10.536 0.0099-1.0375-1.6788-1.0766-2.1522-0.74281-9.0174 0.31247-6.4274 0.25883-7.2813-0.47337-7.5623-2.3807-0.91356-4.0716 2.5505-3.6724 7.5231 0.28659 3.5702 1.7556 7.2626 4.0098 10.079 0.85263 1.0652 1.4344 2.0528 1.2928 2.1944-0.3206 0.3206-3.3262-1.1774-4.5928-2.2891-2.3189-2.0354-3.0492-4.5859-2.9896-10.44 0.0592-5.8112-0.32919-7.3875-1.8206-7.3875-1.3611 0-2.1136 1.0355-2.1136 2.9088 0 0.93006-0.34848 2.5257-0.77471 3.5459-0.69764 1.6697-0.85296 1.777-1.556 1.074-0.42953-0.42957-0.94935-2.0196-1.1548-3.5334-0.44499-3.2791-0.82297-3.9953-2.1088-3.9953zm3.9717 13.164c0.35346 0.02133 0.68153 0.44794 0.8992 1.426 0.1708 0.76757 0.4104 1.769 0.53265 2.2253 0.12228 0.45634 5e-3 1.7969-0.26077 2.9792-0.88731 3.9491-2.322 3.6408-2.9067-0.62491-0.41511-3.0285 0.75841-6.0647 1.7356-6.0056z" style="fill:#fff;paint-order:stroke fill markers"/>
  </g>
 </g>
</svg>
