<?xml version="1.0" encoding="UTF-8"?>
<svg width="250" height="48" version="1.1" viewBox="0 0 66.146 12.7" xmlns="http://www.w3.org/2000/svg" xmlns:cc="http://creativecommons.org/ns#" xmlns:dc="http://purl.org/dc/elements/1.1/" xmlns:rdf="http://www.w3.org/1999/02/22-rdf-syntax-ns#">
 <metadata>
  <rdf:RDF>
   <cc:Work rdf:about="">
    <dc:format>image/svg+xml</dc:format>
    <dc:type rdf:resource="http://purl.org/dc/dcmitype/StillImage"/>
    <dc:title/>
   </cc:Work>
  </rdf:RDF>
 </metadata>
 <g transform="translate(-248.39 -213.72)">
  <path transform="matrix(.26458 0 0 .26458 0 87)" d="m1097.4 495.15v6.6445c-0.4626-0.71493-1.0582-1.2547-1.7872-1.6191-0.7149-0.37848-1.5207-0.56836-2.4179-0.56836-1.0374 0-1.9753 0.23822-2.8164 0.71485-0.8411 0.46258-1.5 1.1214-1.9766 1.9766-0.4766 0.8551-0.7148 1.8304-0.7148 2.9238 0 1.0934 0.2382 2.0668 0.7148 2.9219 0.4766 0.85511 1.1355 1.5214 1.9766 1.998 0.8411 0.47662 1.779 0.71484 2.8164 0.71484 0.9252 0 1.7534-0.19537 2.4824-0.58789 0.743-0.39252 1.3385-0.96017 1.7871-1.7031v2.1855h1.4297v-15.602zm18.357 0v15.602h1.4941v-15.602zm26.264 0v15.602h1.4922v-15.602zm-143.03 0.88281v14.719h3.4063v-14.719zm6.8965 0v14.719h3.4062v-4.0566h2.9649c1.3037 0 2.4315-0.2103 3.3847-0.63086 0.9673-0.43457 1.7099-1.0525 2.2286-1.8516 0.5186-0.81305 0.7793-1.7585 0.7793-2.8379 0-1.0934-0.2607-2.0408-0.7793-2.8398-0.5187-0.79905-1.2613-1.415-2.2286-1.8496-0.9532-0.43457-2.081-0.65235-3.3847-0.65235zm15.182 0v14.719h3.4063v-4.0996h3.1328l2.8379 4.0996h3.6601l-3.3027-4.7305c0.9673-0.42056 1.7118-1.0236 2.2305-1.8086 0.5327-0.79902 0.7988-1.7444 0.7988-2.8379 0-1.0934-0.2606-2.0408-0.7793-2.8398-0.5186-0.79905-1.2612-1.415-2.2285-1.8496-0.9532-0.43457-2.0811-0.65235-3.3848-0.65235zm21.615 0v14.719h1.4941v-11.711l5.7813 9.8398h0.7363l5.7832-9.9043v11.775h1.4922v-14.719h-1.2832l-6.3282 10.914-6.3925-10.914zm84.551 0v14.719h1.5567v-4.6465h3.9531c1.8785 0 3.3506-0.44107 4.416-1.3242 1.0654-0.89718 1.5977-2.1311 1.5977-3.7012s-0.5323-2.804-1.5977-3.7012c-1.0654-0.89719-2.5375-1.3457-4.416-1.3457zm33.098 1.2402v2.4199h-1.9766v1.2617h1.9766v6.6855c0 1.0234 0.2811 1.8162 0.8418 2.377s1.3591 0.83984 2.3965 0.83984c0.4486 0 0.8767-0.0632 1.2832-0.18945 0.4205-0.1402 0.7704-0.33557 1.0508-0.58789l-0.5254-1.0723c-0.2103 0.18235-0.4635 0.32191-0.7578 0.41992-0.2804 0.098-0.5744 0.14844-0.8829 0.14844-0.6168 0-1.0932-0.1694-1.4296-0.50586-0.3225-0.35044-0.4844-0.8548-0.4844-1.5137v-6.6016h3.3652v-1.2617h-3.3652v-2.4199zm-31.541 0.10547h3.9121c1.4579 0 2.5708 0.32196 3.3418 0.96679 0.771 0.63083 1.1582 1.5428 1.1582 2.7344 0 1.1635-0.3872 2.068-1.1582 2.7129-0.771 0.63083-1.8839 0.94531-3.3418 0.94531h-3.9121zm-119.5 1.4297h2.7754c1.0234 0 1.8013 0.22525 2.334 0.67383 0.5327 0.43457 0.7988 1.0655 0.7988 1.8926 0 0.81308-0.2661 1.444-0.7988 1.8926-0.5327 0.43457-1.3106 0.65039-2.334 0.65039h-2.7754zm15.182 0h2.7754c1.0233 0 1.8012 0.22525 2.334 0.67383 0.5326 0.43457 0.7988 1.0655 0.7988 1.8926 0 0.81308-0.2662 1.444-0.7988 1.8926-0.5328 0.44858-1.3107 0.67187-2.334 0.67187h-2.7754zm41.844 0.79883c-0.8691 0-1.6954 0.13406-2.4804 0.40039-0.7851 0.25235-1.4588 0.61713-2.0196 1.0938l0.6739 1.1133c0.4626-0.40657 1.0153-0.72106 1.6601-0.94531 0.6449-0.23836 1.3186-0.35742 2.0195-0.35742 1.0234 0 1.8013 0.25122 2.334 0.75586 0.5327 0.49063 0.7989 1.2128 0.7989 2.166v0.67383h-3.5118c-1.4859 0-2.5728 0.28657-3.2597 0.86133-0.6729 0.57474-1.0078 1.3323-1.0078 2.2715 0 0.96729 0.3628 1.7452 1.0918 2.334 0.7289 0.58877 1.7117 0.88281 2.9453 0.88281 0.8972 0 1.6676-0.16 2.3125-0.48242 0.6588-0.32242 1.1557-0.77096 1.4922-1.3457v1.7226h1.4296v-6.8535c0-1.4158-0.3852-2.4823-1.1562-3.1973-0.771-0.72894-1.8784-1.0938-3.3223-1.0938zm14.109 0c-1.0233 0-1.885 0.18988-2.5859 0.56836-0.6869 0.37851-1.2062 0.93869-1.5567 1.6816v-2.166h-1.4297v11.061h1.4942v-5.6367c0-1.2897 0.3294-2.2909 0.9883-3.0058 0.6588-0.71492 1.5689-1.0723 2.7324-1.0723l0.3574 0.0215zm26.916 0c-1.0233 0-1.9483 0.23822-2.7754 0.71485-0.813 0.47662-1.4589 1.1429-1.9355 1.998-0.4626 0.85511-0.6934 1.8229-0.6934 2.9024 0 1.0794 0.2457 2.0472 0.7364 2.9023 0.4906 0.85511 1.1699 1.527 2.039 2.0176 0.8832 0.47662 1.8919 0.71484 3.0274 0.71484 0.8831 0 1.689-0.15448 2.4179-0.46289 0.743-0.30838 1.361-0.75693 1.8516-1.3457l-0.8418-0.9668c-0.4205 0.47662-0.9174 0.84143-1.4922 1.0938-0.5747 0.23836-1.2057 0.35742-1.8926 0.35742-1.2196 0-2.2283-0.34985-3.0273-1.0508-0.799-0.71491-1.242-1.6474-1.3262-2.7969h9.252l0.021-0.46289c0-1.0934-0.2307-2.0612-0.6933-2.9024-0.4626-0.8551-1.101-1.5214-1.9141-1.998-0.813-0.47663-1.7305-0.71485-2.7539-0.71485zm44.199 0c-0.8691 0-1.6974 0.13406-2.4824 0.40039-0.785 0.25235-1.4568 0.61713-2.0176 1.0938l0.6719 1.1133c0.4626-0.40657 1.0173-0.72106 1.6621-0.94531 0.6449-0.23836 1.3187-0.35742 2.0196-0.35742 1.0233 0 1.8013 0.25122 2.3339 0.75586 0.5327 0.49063 0.7989 1.2128 0.7989 2.166v0.67383h-3.5118c-1.4859 0-2.5728 0.28657-3.2597 0.86133-0.6729 0.57474-1.0098 1.3323-1.0098 2.2715 0 0.96729 0.3648 1.7452 1.0938 2.334 0.7289 0.58877 1.7097 0.88281 2.9433 0.88281 0.8972 0 1.6696-0.16 2.3145-0.48242 0.6588-0.32242 1.1557-0.77096 1.4922-1.3457v1.7226h1.4297v-6.8535c0-1.4158-0.3853-2.4823-1.1563-3.1973-0.771-0.72894-1.8784-1.0938-3.3223-1.0938zm20.943 0c-0.8691 0-1.6974 0.13406-2.4824 0.40039-0.7851 0.25235-1.4569 0.61713-2.0176 1.0938l0.6719 1.1133c0.4626-0.40657 1.0172-0.72106 1.6621-0.94531 0.6448-0.23836 1.3166-0.35742 2.0176-0.35742 1.0233 0 1.8012 0.25122 2.3339 0.75586 0.5327 0.49063 0.8008 1.2128 0.8008 2.166v0.67383h-3.5117c-1.486 0-2.5729 0.28657-3.2598 0.86133-0.6728 0.57474-1.0097 1.3323-1.0097 2.2715 0 0.96729 0.3648 1.7452 1.0937 2.334 0.729 0.58877 1.7098 0.88281 2.9434 0.88281 0.8971 0 1.6676-0.16 2.3125-0.48242 0.6589-0.32242 1.1577-0.77096 1.4941-1.3457v1.7226h1.4297v-6.8535c0-1.4158-0.3852-2.4823-1.1562-3.1973-0.7711-0.72894-1.8784-1.0938-3.3223-1.0938zm-65.143 1.2832c1.0794 1e-5 1.9765 0.34436 2.6914 1.0313 0.7291 0.67288 1.1422 1.555 1.2403 2.6484h-7.8438c0.098-1.0934 0.5058-1.9756 1.2207-2.6484 0.729-0.6869 1.626-1.0313 2.6914-1.0313zm-14.025 0.0215c0.7711 0 1.4653 0.1824 2.0821 0.54687 0.6308 0.35044 1.1202 0.8548 1.4707 1.5137 0.3644 0.65884 0.5468 1.4089 0.5468 2.25 0 0.84109-0.1824 1.5911-0.5468 2.25-0.3505 0.65884-0.8399 1.1707-1.4707 1.5352-0.6168 0.35047-1.311 0.52539-2.0821 0.52539-0.785 0-1.4941-0.17492-2.125-0.52539-0.6168-0.36447-1.1062-0.87631-1.4707-1.5352-0.3504-0.65888-0.5254-1.4089-0.5254-2.25 0-0.8411 0.175-1.5912 0.5254-2.25 0.3645-0.65888 0.8539-1.1632 1.4707-1.5137 0.6309-0.36447 1.34-0.54687 2.125-0.54687zm-27.482 4.7109h3.4688v1.8066c-0.2944 0.72894-0.743 1.2911-1.3457 1.6836-0.6028 0.37848-1.325 0.56641-2.1661 0.56641-0.8831 0-1.5699-0.18241-2.0605-0.54688-0.4906-0.37848-0.7363-0.88836-0.7363-1.5332 0-1.3177 0.9473-1.9766 2.8398-1.9766zm85.223 0h3.4707v1.8066c-0.2944 0.72894-0.743 1.2911-1.3457 1.6836-0.6028 0.37848-1.325 0.56641-2.1661 0.56641-0.8831 0-1.5699-0.18241-2.0605-0.54688-0.4907-0.37848-0.7363-0.88836-0.7363-1.5332 0-1.3177 0.9454-1.9766 2.8379-1.9766zm20.943 0h3.4707v1.8066c-0.2943 0.72894-0.7429 1.2911-1.3457 1.6836-0.6028 0.37848-1.3249 0.56641-2.166 0.56641-0.8831 0-1.5699-0.18241-2.0605-0.54688-0.4907-0.37848-0.7364-0.88836-0.7364-1.5332 0-1.3177 0.9455-1.9766 2.8379-1.9766z" style="fill:#a11216;stroke-width:.52569"/>
  <g transform="matrix(.13788 0 0 .13788 217.5 234.69)">
   <path d="m274.77-151.96c-2.6919 0-4.2318 0.18684-6.306 0.89344s-4.6884 1.895-9.9093 3.9527c-10.141 3.997-22.952 2.5991-22.952 2.5991l-1.0528-0.11926-0.0419 1.0587s-0.6647 16.668 4.0052 35.423 14.726 39.773 36.294 48.16l0.35677 0.1388 0.35697-0.1388c21.568-8.387 31.661-29.414 36.369-48.179s4.0813-35.444 4.0813-35.444l-0.0415-1.1124-1.099 0.17706s-12.37 1.9588-23.845-2.5635c-4.5614-1.7978-7.1839-2.9889-9.4131-3.7573-2.2291-0.76847-4.0782-1.0888-6.8022-1.0888z" style="color-rendering:auto;color:#000000;dominant-baseline:auto;fill:#16429f;font-feature-settings:normal;font-variant-alternates:normal;font-variant-caps:normal;font-variant-ligatures:normal;font-variant-numeric:normal;font-variant-position:normal;image-rendering:auto;isolation:auto;mix-blend-mode:normal;shape-padding:0;shape-rendering:auto;solid-color:#000000;text-decoration-color:#000000;text-decoration-line:none;text-decoration-style:solid;text-indent:0;text-orientation:mixed;text-transform:none;white-space:normal"/>
   <path d="m275.7-138.56c-0.0629-4e-3 -0.12029 0.01-0.17199 0.0419-0.86328 0.53354-2.8971 4.4936-3.7751 7.3504-0.47179 1.5351-0.97452 3.1338-1.117 3.5524-0.15576 0.45764-0.64695-0.26609-1.2318-1.8147-3.0833-8.1647-13.568-12.247-13.764-5.3585v0.0776a2.776 2.7333 0 0 0-0.0517 0.51357 2.776 2.7333 0 0 0 2.776 2.7334 2.776 2.7333 0 0 0 2.776-2.7334 2.776 2.7333 0 0 0-0.4588-1.5009c0.37435 7e-3 1.1043 0.68361 1.6646 1.7766 0.56715 1.1064 0.77084 3.3612 0.79898 8.8436 0.0454 8.85 2e-3 8.5039 1.1042 8.7549 0.48844 0.11124 1.3111-6e-3 1.8282-0.26217 0.85312-0.42147 0.92166-1.0123 0.73969-6.3815-0.1772-5.2284-0.36144-6.2273-1.5831-8.5815-1.5689-3.0234-0.80992-3.7533 0.99839-0.96023 1.8111 2.7975 2.7111 6.2074 2.7111 10.273 1e-5 4.409 0.54306 5.785 2.2836 5.785 1.7524 0 2.1091-1.0541 2.4889-7.3584 0.3714-6.1664 1.131-10.736 1.8598-11.186 0.88927-0.54959 1.5393 2.5021 2.0422 9.5854 0.27629 3.8914 0.72941 7.4991 1.0067 8.0172 0.66362 1.24 2.8239 1.2156 3.4956-0.0396 0.28895-0.53987 0.52538-2.6732 0.52538-4.7405 0-4.2489 0.89456-7.7571 2.6269-10.301 1.7983-2.641 2.6187-2.1659 1.1607 0.67207-1.4715 2.8642-2.5229 9.3281-2.0405 12.545 0.40136 2.6764 1.6207 3.6784 3.1307 2.5728 0.86725-0.63494 0.95816-1.4418 0.95816-8.4986 0-6.6077 0.13699-8.0067 0.89956-9.1745 0.6577-1.0072 1.2298-1.4479 1.512-1.3115a2.776 2.7333 0 0 0-0.43694 1.4714 2.776 2.7333 0 0 0 2.776 2.7334 2.776 2.7333 0 0 0 2.776-2.7334 2.776 2.7333 0 0 0-0.1928-0.99354c-0.27479-3.096-2.9838-3.9268-6.8975-2.0321-2.7452 1.3289-5.0549 3.9506-6.6516 7.5505l-1.2498 2.8183-1.1298-3.9055c-1.1078-3.8294-3.2435-7.7467-4.1871-7.8005zm-10.331 23.512a2.5108 2.4721 0 0 0-2.5107 2.4719 2.5108 2.4721 0 0 0 2.5107 2.4722 2.5108 2.4721 0 0 0 2.5107-2.4722 2.5108 2.4721 0 0 0-2.5107-2.4719zm7.1007 0a2.5108 2.4721 0 0 0-2.5111 2.4719 2.5108 2.4721 0 0 0 2.5111 2.4722 2.5108 2.4721 0 0 0 2.5107-2.4722 2.5108 2.4721 0 0 0-2.5107-2.4719zm6.9714 0a2.5108 2.4721 0 0 0-2.5107 2.4719 2.5108 2.4721 0 0 0 2.5107 2.4722 2.5108 2.4721 0 0 0 2.5107-2.4722 2.5108 2.4721 0 0 0-2.5107-2.4719zm6.713 0a2.5108 2.4721 0 0 0-2.5107 2.4719 2.5108 2.4721 0 0 0 2.5107 2.4722 2.5108 2.4721 0 0 0 2.5111-2.4722 2.5108 2.4721 0 0 0-2.5111-2.4719zm-14.178 6.7172c-1.571 0-2.0179 1.6429-2.0179 7.4187-2e-5 6.7625-0.94636 9.171-4.486 11.416-3.3074 2.0975-4.0395 1.8466-1.9011-0.65161 3.2981-3.8531 5.0623-10.66 3.8885-15.003-0.60033-2.2212-1.9331-3.395-3.2715-2.8814-1.0821 0.41526-1.1382 1.116-0.62941 7.873 0.49481 6.5704 0.19925 8.04-2.0744 10.314-1.9603 1.9603-4.3298 2.5542-6.3551 1.5931-1.8921-0.89787-2.6495-1.9027-3.1491-4.1773l-0.29303-1.3348a3.1339 3.0856 0 0 0 2.4337 1.1454 3.1339 3.0856 0 0 0 3.1342-3.0857 3.1339 3.0856 0 0 0-2.2492-2.9577c-0.71415-0.33788-1.5948-0.39165-2.5246-0.03807-1.598 0.60758-2.3144 1.9915-2.3144 4.4707 0 6.2907 8.7048 9.8587 15.631 6.4071 3.6195-1.8036 5.9947-4.7357 7.289-8.9969 0.94831-3.1221 1.1382-3.4026 1.8324-2.7084 0.69417 0.69418 0.65192 1.0536-0.40747 3.4709-1.5493 3.5353-1.5401 6.9538 0.0284 10.535l1.2103 2.7628 1.1326-2.509c1.4838-3.2869 1.5496-7.7684 0.15917-10.833-0.96744-2.1323-0.94589-4.1097 0.0451-4.1097 0.25498 0 0.59837 0.62823 0.76259 1.3958 1.6109 7.5287 6.8968 12.306 13.616 12.306 5.4258 0 9.2375-2.7766 9.825-7.1569 0.343-2.5572-0.55007-4.2995-2.5631-5.0013-1.2558-0.43777-2.3123-0.27964-2.9941 0.33812a3.1339 3.0856 0 0 0-1.4939 2.6248 3.1339 3.0856 0 0 0 3.1339 3.0857 3.1339 3.0856 0 0 0 2.3072-1.0022c0.28492 0.30673 0.0568 0.93088-0.47197 2.1802-2.0581 4.8625-7.5334 4.8678-10.536 0.0099-1.0375-1.6788-1.0766-2.1522-0.74281-9.0174 0.31247-6.4274 0.25883-7.2813-0.47337-7.5623-2.3807-0.91356-4.0716 2.5505-3.6724 7.5231 0.28659 3.5702 1.7556 7.2626 4.0098 10.079 0.85263 1.0652 1.4344 2.0528 1.2928 2.1944-0.3206 0.3206-3.3262-1.1774-4.5928-2.2891-2.3189-2.0354-3.0492-4.5859-2.9896-10.44 0.0592-5.8112-0.32919-7.3875-1.8206-7.3875-1.3611 0-2.1136 1.0355-2.1136 2.9088 0 0.93006-0.34848 2.5257-0.77471 3.5459-0.69764 1.6697-0.85296 1.777-1.556 1.074-0.42953-0.42957-0.94935-2.0196-1.1548-3.5334-0.44499-3.2791-0.82297-3.9953-2.1088-3.9953zm3.9717 13.164c0.35346 0.02133 0.68153 0.44794 0.8992 1.426 0.1708 0.76757 0.4104 1.769 0.53265 2.2253 0.12228 0.45634 5e-3 1.7969-0.26077 2.9792-0.88731 3.9491-2.322 3.6408-2.9067-0.62491-0.41511-3.0285 0.75841-6.0647 1.7356-6.0056z" style="fill:#fff;paint-order:stroke fill markers"/>
  </g>
 </g>
</svg>
