<svg width="210.08mm" height="210.08mm" version="1.1" viewBox="0 0 210.08 210.08" xmlns="http://www.w3.org/2000/svg" xmlns:xlink="http://www.w3.org/1999/xlink">
 <defs>
  <linearGradient id="linearGradient11024" x1="-754.22" x2="-446.54" y1="-395.91" y2="-153.45" gradientTransform="matrix(.53915 0 0 .53915 434.81 272.91)" gradientUnits="userSpaceOnUse">
   <stop stop-color="#9c22a2" offset="0"/>
   <stop stop-color="#291f71" offset="1"/>
  </linearGradient>
  <linearGradient id="linearGradient11026" x1="-2472.3" x2="-2690.7" y1="-1578.9" y2="-1967.2" gradientTransform="matrix(.47709 0 0 .47709 1381.8 1088.3)" gradientUnits="userSpaceOnUse">
   <stop stop-color="#b3b3b3" offset="0"/>
   <stop stop-color="#b3b3b3" stop-opacity="0" offset="1"/>
  </linearGradient>
 </defs>
 <g transform="translate(-.70752 -20.201)">
  <g>
   <path d="m105.76 41.22c-5.3424 7.5665-47.084 12.056-78.105 21.502-0.97958 0.31024-2.0254 0.46974-2.9356 0.96427-0.9426 0.52217-1.558 1.5414-1.5788 2.6195-0.07136 1.2539 0.29168 2.4772 0.39793 3.7196 3.151 22.826 9.6135 45.188 19.128 66.176 8.3879 18.534 19.162 35.983 31.965 51.792 8.6582 10.698 18.24 20.648 28.607 29.701 1.2175 1.4346 3.6872 1.4617 4.9326 0.047 11.34-9.8573 21.707-20.827 30.978-32.649 16.038-20.465 28.752-43.54 37.367-68.075 5.7412-16.288 9.7268-33.198 11.85-50.337 0.0795-1.504-0.94959-3.0139-2.4324-3.3791-1.5245-0.52115-3.0952-0.89157-4.633-1.3705-32.299-9.7939-69.614-13.293-75.541-20.711z" fill="url(#linearGradient11024)"/>
   <path d="m26.212 66.356c6.4283 51.991 30.007 90.287 67.439 127.72 3.9069 3.907 7.9366 7.6631 12.08 11.264 4.1432-3.6014 8.173-7.3575 12.08-11.264 37.431-37.431 61.01-75.727 67.439-127.72-44.252-13.346-91.854-18.522-159.04 0z" fill="#fff"/>
   <path d="m180.43 72.281c-48.686 7.4568-94.146 33.74-124.91 72.206 13.47 21.769 30.724 41.06 49.788 58.068 28.009-25.117 52.855-55.272 65.718-91.048 4.589-12.67 7.6644-25.871 9.4005-39.226z" fill="url(#linearGradient11026)"/>
   <text x="94.460815" y="182.20302" fill="#cccccc" font-family="'Open Sans'" font-size="12.676px" font-weight="800" stroke-width="1.0563" style="line-height:38.0265px" xml:space="preserve"><tspan x="94.460815" y="182.20302" fill="#cccccc" font-family="Vollkorn" font-weight="normal" stroke-width="1.0563">1971</tspan></text>
   <path d="m108.12 74.376c-0.0721 0-0.10421 0.03813-0.10517 0.11013l-0.0693 5.3589c0 0.07213 0.0305 0.11216 0.10238 0.11299l3.0683 0.04004c0.0722 0 0.11217-0.03813 0.11312-0.11013l6e-3 -0.31087c0-0.07213-0.0318-0.10403-0.10263-0.10492l-2.5676-0.03305 0.026-1.9856 2.1452 0.02733c0.0713 0 0.11178-0.0305 0.1126-0.10238l6e-3 -0.31888c0-0.07213-0.0388-0.10428-0.11013-0.10524l-2.1452-0.02732 0.026-2.0176 2.5598 0.03304c0.0715 0 0.11216-0.0305 0.11292-0.10238l6e-3 -0.31106c0-0.07213-0.0299-0.11191-0.10237-0.1128zm-4.6484 0.01144-1.6346 0.01843c-0.0722 0-0.10346 0.04131-0.1027 0.11273l0.0591 5.3589c0 0.07213 0.0331 0.1114 0.10498 0.11064l0.40671-0.0064c0.072 0 0.11121-0.04131 0.11038-0.1128l-0.0216-1.9618 1.1881-0.01335c1.1801-0.01335 1.9076-0.60319 1.8949-1.7515-0.0134-1.1723-0.75342-1.7703-2.0053-1.7565zm10.616 0.09767c-0.0714 0-0.10523 0.03622-0.10803 0.10784l-0.20545 5.3552c-6e-3 0.07213 0.0273 0.11261 0.0995 0.11534l0.40619 0.01589c0.0713 0 0.11312-0.03495 0.11585-0.10733l0.0844-2.1993 1.0362 0.04003c0.71726 0.02733 0.96415 0.87479 1.2651 1.5567 0.21371 0.46313 0.58203 0.84448 1.116 0.86494 0.13555 7e-3 0.22331 0 0.27218-0.02161 0.0727-0.02097 0.114-0.0591 0.11584-0.10727l0.01-0.2289c6e-3 -0.07136-0.028-0.10511-0.0994-0.10778l-0.11966-7e-3c-0.4775-0.03495-0.7334-0.64266-0.96764-1.1943-0.15296-0.38103-0.39367-0.7653-0.65174-0.90294 0.64361-0.13498 1.125-0.61914 1.1547-1.3922 0.0419-1.0998-0.56646-1.6737-1.8335-1.7223zm-18.859 0.10879-0.41401 0.02097c-0.08776 7e-3 -0.14158 0.04702-0.1773 0.12894l-1.6249 3.9646h-0.01652l-2.0225-3.7774c-0.04385-0.07766-0.10206-0.11438-0.18956-0.10987l-0.4461 0.02288c-0.0713 7e-3 -0.1013 0.04512-0.09754 0.11667l0.2751 5.3537c0.0064 0.07143 0.03749 0.10962 0.10936 0.10593l0.4062-0.02097c0.07143-7e-3 0.10943-0.04512 0.10568-0.11712l-0.21752-4.245 1.7918 3.3257c0.06228 0.11655 0.17654 0.17463 0.32784 0.16688 0.15131-0.0083 0.24377-0.07638 0.2934-0.19865l1.4417-3.4918 0.21784 4.245c0.0064 0.07143 0.04512 0.10943 0.11718 0.10574l0.40645-0.02097c0.07143-7e-3 0.10136-0.04512 0.09761-0.11693l-0.27466-5.3521c-0.0064-0.07136-0.03749-0.10994-0.1093-0.10625zm8.2089 0.3206c0.91711-0.01017 1.393 0.46313 1.4015 1.2367 8e-3 0.80534-0.4414 1.2092-1.3586 1.2193l-1.0922 0.01207-0.0273-2.4566zm20.958 0.10148c-0.0715-7e-3 -0.1067 0.03114-0.11255 0.10288l-0.43898 5.3399c-6e-3 0.07136 0.0222 0.11394 0.0942 0.11979l0.40543 0.03304c0.0713 7e-3 0.11439-0.0305 0.12023-0.10206l0.34831-4.2365 1.3339 3.5345c0.0464 0.12379 0.15182 0.19642 0.30287 0.20882 0.15105 0.01207 0.25171-0.04321 0.31716-0.15779l1.8931-3.2695-0.3483 4.2367c-6e-3 0.07136 0.0311 0.11432 0.10199 0.1203l0.40537 0.03305c0.0714 7e-3 0.10663-0.03114 0.11248-0.10282l0.4393-5.3412c6e-3 -0.07136-0.0222-0.11388-0.0943-0.11972l-0.41325-0.03368c-0.0874-7e-3 -0.14635 0.02796-0.19261 0.10415l-2.1376 3.7134h-0.0159l-1.5026-4.0126c-0.0331-0.08274-0.0856-0.12709-0.17317-0.13428zm-9.8105 0.01779 1.1397 0.04385c0.82071 0.03177 1.274 0.48773 1.247 1.189-0.0267 0.70137-0.59239 1.0867-1.3893 1.0561l-1.0839-0.04194zm-27.392 0.02478-0.40569 0.03177c-0.0713 7e-3 -0.10803 0.0483-0.10225 0.11998l0.25381 3.2128c0.0924 1.1686-0.33083 1.7859-1.269 1.86-0.93815 0.07416-1.4529-0.46898-1.5452-1.6377l-0.25425-3.2119c-0.0064-0.07136-0.0483-0.10816-0.11991-0.10256l-0.40543 0.03177c-0.07143 7e-3 -0.10028 0.04766-0.09449 0.11953l0.25127 3.1802c0.12252 1.5504 0.85916 2.2681 2.2108 2.1612 1.3515-0.10682 1.9664-0.93142 1.8439-2.4818l-0.25127-3.1801c-0.0064-0.07143-0.04004-0.10886-0.11222-0.10314zm-8.1524 0.69368c-0.13866-0.0064-0.28438 0-0.43511 0.01779-0.595 0.06101-1.0562 0.25305-1.3672 0.58171-0.31087 0.32854-0.44089 0.70252-0.39596 1.1388 0.22439 2.1817 3.4465 0.61584 3.6163 2.266 0.06228 0.60294-0.41554 1.0287-1.2486 1.1144-0.47591 0.04893-0.9269-0.04893-1.2249-0.21867-0.29969-0.18569-0.43886-0.29162-0.5575-0.43168-0.04512-0.05147-0.09278-0.04703-0.14266 0.01462l-0.2153 0.24663c-0.05147 0.04512-0.05529 0.0938-0.0095 0.14527 0.12042 0.15595 0.27942 0.30007 0.62283 0.52122 0.35066 0.2125 0.94006 0.32829 1.5825 0.26226 0.64266-0.06641 1.1118-0.25877 1.4226-0.58743 0.31106-0.3286 0.4482-0.71141 0.4034-1.1477-0.04194-0.40467-0.19236-0.70182-0.44604-0.90822-0.25368-0.2064-0.54708-0.32854-0.88039-0.37436-0.33337-0.04639-0.67398-0.08299-1.0058-0.11305-0.33166-0.0305-0.62791-0.1039-0.87346-0.23093-0.24561-0.12716-0.37963-0.33782-0.40975-0.63141-0.05656-0.54733 0.38357-1.0255 1.2166-1.1113 0.57104-0.05846 1.0891 0.14463 1.2753 0.31793 0.09627 0.07829 0.16961 0.16707 0.23411 0.24866 0.03686 0.04385 0.08464 0.04766 0.13612 0l0.25807-0.22496c0.0591-0.04639 0.06101-0.10263 0.01398-0.17005-0.11235-0.15671-0.25432-0.29429-0.56989-0.47826-0.23125-0.14463-0.58362-0.23627-0.99954-0.24682zm54.968 0.15804c-0.0559-7e-3 -0.10771 0.02796-0.14038 0.10466l-2.5779 5.0957c-0.0305 0.06037 0.0267 0.11534 0.0986 0.12334l0.39635 0.04512c0.0715 0.0083 0.11425-0.0197 0.13719-0.0807l0.71504-1.4367 2.2983 0.25807 0.38687 1.5591c0.01 0.06488 0.0451 0.10136 0.11611 0.10936l0.39628 0.04512c0.0714 0.0083 0.13999-0.03241 0.11534-0.09945l-1.3768-5.5393c-0.0153-0.08191-0.0572-0.1269-0.11318-0.13307zm-59.763 0.38478-3.0626 0.38014c-0.07143 0.0089-0.09825 0.05274-0.08935 0.12347l0.66007 5.3185c0.0083 0.07143 0.04512 0.10676 0.11661 0.09793l3.0554-0.37912c0.07136-0.0083 0.106-0.05338 0.0971-0.12443l-0.03813-0.30878c-0.0083-0.07143-0.04385-0.09901-0.11559-0.09011l-2.5484 0.31634-0.24447-1.9707 2.1288-0.26423c0.0713-0.0089 0.10689-0.04512 0.09805-0.11642l-0.04003-0.31659c-0.0083-0.07143-0.05274-0.09818-0.12341-0.08935l-2.129 0.26429-0.24872-2.0023 2.5407-0.31532c0.0713-0.0083 0.10663-0.04512 0.09786-0.11661l-0.03813-0.30878c-0.0083-0.07136-0.04512-0.10676-0.11661-0.09793zm64.923 0.23621c-0.0715-0.01017-0.10796 0.02542-0.11794 0.09602l-0.74084 5.3079c-0.01 0.07136 0.0159 0.11502 0.0873 0.12493l0.40276 0.05592c0.0712 0.01017 0.11604-0.02351 0.12608-0.09507l0.30407-2.18 1.0269 0.14317c0.71097 0.09926 0.87155 0.96726 1.1029 1.676 0.16624 0.4822 0.49459 0.89837 1.0238 0.97221 0.13421 0.01843 0.22222 0.02351 0.27287 7e-3 0.0744-0.01335 0.11972-0.04766 0.12627-0.09526l0.0318-0.23017c0.0108-0.07143-0.0171-0.10701-0.0882-0.11693l-0.11839-0.01652c-0.47184-0.08191-0.66579-0.71288-0.84334-1.2852-0.11407-0.39438-0.31513-0.80082-0.55801-0.96357 0.65384-0.06997 1.1814-0.50368 1.2882-1.2699 0.15213-1.09-0.39603-1.7221-1.6518-1.8973zm-5.0326 0.24339 0.67424 2.716-1.9259-0.21612zm-66.041 0.3159-0.4027 0.05783c-0.07136 0.01017-0.09678 0.05402-0.08668 0.12519l0.54752 3.8369c0.10479 0.7341-0.16707 1.1435-0.81436 1.2359-0.33172 0.04703-0.64285-0.04512-0.9337-0.27758-0.05402-0.04004-0.10174-0.03368-0.1412 0.02796l-0.22807 0.32257c-0.03368 0.04512-0.01843 0.09113 0.02605 0.125 0.38808 0.29098 0.83921 0.40391 1.3524 0.33064 0.93961-0.13408 1.5058-0.79504 1.3479-1.9004l-0.54098-3.7893c-0.0108-0.07143-0.05529-0.10504-0.12633-0.09481zm71.514 0.03368 1.1295 0.15779c0.8136 0.1135 1.219 0.61298 1.122 1.3081-0.097 0.69508-0.69845 1.0218-1.4883 0.91159l-1.0741-0.14997zm6.2987 0.40384c-0.0407 0.0083-0.0646 0.04067-0.0731 0.09367l-0.8481 5.2918c-0.0121 0.07073 0.0133 0.1154 0.0846 0.12678l0.40149 0.06412c0.0707 0.01144 0.1168-0.02161 0.12812-0.09246l0.84797-5.292c0.0121-0.07066-0.0216-0.11648-0.0923-0.12792l-0.40181-0.06399c-0.0178-0.0064-0.0331-0.0064-0.047 0zm5.0831 0.85325c-0.0547-0.01017-0.10917 0.02097-0.14679 0.095l-2.912 4.9127c-0.035 0.05846 0.0197 0.11686 0.0901 0.12964l0.39234 0.07054c0.0707 0.01335 0.11572-0.01144 0.14279-0.0713l0.8089-1.3857 2.2761 0.41039 0.2819 1.5825c6e-3 0.06564 0.0375 0.10409 0.10866 0.11686l0.39234 0.07085c0.0706 0.01335 0.14197-0.02351 0.12182-0.09138l-1.0045-5.6191c-0.01-0.08274-0.0496-0.13046-0.10434-0.14031zm-92.922 0.31532c-0.17666 0.0064-0.35917 0.02097-0.54778 0.05338l-1.3123 0.22629c-0.07066 0.01207-0.09557 0.05719-0.08331 0.12779l0.91076 5.2813c0.01207 0.07073 0.05084 0.10473 0.12099 0.09246l1.5879-0.27395c1.446-0.24936 2.2307-1.283 1.9175-3.0984-0.16668-0.96668-0.58737-1.6711-1.1583-2.0259-0.42831-0.26601-0.90542-0.39145-1.4354-0.38268zm-0.01207 0.53189c1.0204-0.0064 1.7462 0.65003 1.9751 1.9772 0.24796 1.4382-0.29245 2.2922-1.3849 2.4805l-1.0687 0.18435-0.77-4.464 0.7939-0.13694c0.15709-0.02732 0.30897-0.04067 0.45462-0.04131zm93.003 0.02478 0.4918 2.755-1.9072-0.34424zm4.9941 0.08725c-0.0413 0.0064-0.0664 0.03749-0.0773 0.0903l-1.0949 5.243c-0.0146 0.06997 8e-3 0.11585 0.0787 0.13046l0.39806 0.08306c0.07 0.01462 0.11769-0.01652 0.13224-0.08642l0.86838-4.1612 0.88731 3.6722c0.0305 0.12856 0.12659 0.21377 0.27497 0.24478 0.14826 0.03114 0.25489-0.01207 0.33395-0.11769l2.2822-3.0107-0.86838 4.1613c-0.0146 0.0699 0.0165 0.11737 0.0864 0.13199l0.39819 0.08306c0.0699 0.01462 0.10962-0.01843 0.12417-0.08801l1.0951-5.2465c0.0146-0.0699-8e-3 -0.11572-0.0787-0.1304l-0.4062-0.08465c-0.0858-0.01779-0.14845 0.0095-0.2038 0.07969l-2.5796 3.421h-0.0159l-0.99579-4.1672c-0.0222-0.08623-0.0693-0.13669-0.15518-0.15468l-0.43727-0.09113c-0.0178-0.0064-0.0331-0.0064-0.047 0zm-104.43 0.49886h-0.04067l-0.44629 0.08643c-0.05465 0.0108-0.0945 0.0591-0.10282 0.14165l-0.94101 5.6326c-0.01207 0.06704 0.06037 0.10193 0.13078 0.08827l0.39158-0.07556c0.0706-0.01335 0.10346-0.05274 0.10701-0.11845l0.25406-1.584 2.2708-0.43949 0.83412 1.3736c0.02796 0.05973 0.07321 0.0835 0.14355 0.07003l0.39158-0.07568c0.0706-0.01335 0.12404-0.07283 0.08051-0.12945l-2.966-4.8767c-0.02923-0.05529-0.06698-0.08604-0.1072-0.09348zm-0.10727 0.87403 1.4536 2.3915-1.9027 0.36813z" fill="#725193" stroke-width=".6646"/>
  </g>
  <g fill="#ccc">
   <g transform="matrix(.50384 0 0 .50384 1766.9 1090.1)">
    <path d="m-3322.6-2025.5-5.1478-2.3156-4.8259 2.9278 0.6117-5.6113-4.2759-3.685 5.5256-1.1525 2.1835-5.2052 2.8035 4.8991 5.6251 0.468-3.7929 4.1803z"/>
    <path d="m-3382.9-2020.7-4.2122-1.3264-3.4806 2.7178-0.04-4.4158-3.6603-2.4704 4.1874-1.4026 1.2181-4.2447 2.628 3.5489 4.4136-0.1528-2.5632 3.5959z"/>
    <path d="m-3353.7-2024.1-4.5814-1.767-4.0529 2.7719 0.2649-4.9031-3.8888-2.9979 4.745-1.2631 1.6496-4.625 2.6676 4.1224 4.9083 0.1403-3.0965 3.8109z"/>
    <path d="m-3290.6-2026.8-5.8646-2.9375-5.7446 3.1659 0.9815-6.4854-4.7861-4.4853 6.4711-1.0706 2.7867-5.9379 3.018 5.8237 6.5084 0.8155-4.606 4.6699z"/>
    <path d="m-3183-2016.7 3.67-0.9266 2.8438 2.498 0.2528-3.7767 3.2546-1.9326-3.5137-1.4076-0.8323-3.6925-2.4245 2.9067-3.7692-0.3494 2.0155 3.204z"/>
    <path d="m-3409.8-2016.4-3.6701-0.9265-2.8438 2.4979-0.2528-3.7766-3.2546-1.9328 3.5137-1.4075 0.8323-3.6925 2.4245 2.9067 3.7692-0.3494-2.0154 3.204z"/>
    <path d="m-3210.5-2021.3 4.2122-1.3264 3.4805 2.7179 0.04-4.4159 3.6604-2.4703-4.1874-1.4027-1.2183-4.2447-2.628 3.5489-4.4133-0.1528 2.5631 3.596z"/>
    <path d="m-3240.5-2024.9 4.5812-1.7672 4.053 2.7721-0.2649-4.9031 3.8888-2.9979-4.745-1.2632-1.6496-4.625-2.6676 4.1225-4.9083 0.1403 3.0964 3.8109z"/>
    <path d="m-3161.1-2012.1 3.1673-0.7996 2.4542 2.1558 0.2183-3.2594 2.8089-1.6679-3.0326-1.2148-0.7183-3.1869-2.0923 2.5087-3.253-0.3015 1.7393 2.7652z"/>
    <path d="m-3431.4-2012.1-3.1672-0.7996-2.4544 2.1558-0.2181-3.2594-2.8089-1.6679 3.0324-1.2148 0.7183-3.1869 2.0925 2.5087 3.2529-0.3015-1.7393 2.7652z"/>
    <path d="m-3269.9-2026.3 5.1478-2.3156 4.8259 2.9279-0.6117-5.6114 4.2759-3.685-5.5256-1.1524-2.1835-5.2052-2.8035 4.8991-5.6251 0.4679 3.7929 4.1803z"/>
   </g>
   <path d="m108.68 91.896-2.1577-1.0808-2.1135 1.1648 0.36114-2.386-1.7608-1.6501 2.3807-0.39393 1.0252-2.1846 1.1103 2.1427 2.3946 0.30001-1.6946 1.7181z"/>
   <path d="m89.678 98.582c0 0.82847 0.07359 1.4886 0.22598 1.9799 1.1047 0 1.902 0.24904 2.3921 0.74096 0.4909 0.49199 0.73461 1.3363 0.7313 2.5329 0 0.46027-0.01716 0.82866-0.0483 1.1048l-1.5054 16.382c-0.18785 1.8714-0.42088 3.2673-0.69877 4.1872-0.24733 0.88935-0.60148 1.5023-1.0624 1.839-0.46097 0.33661-1.1211 0.54994-1.9805 0.64024-0.15594 0.52134-0.23404 1.181-0.23404 1.9788 1.2583-0.0893 2.7927-0.13224 4.6031-0.12887 1.8103 6e-3 3.4516 0.0527 4.9243 0.14788 0-0.79778-0.07384-1.4577-0.22623-1.9796-1.1351-0.0944-1.9473-0.4027-2.4372-0.92532-0.45983-0.55324-0.6879-1.5357-0.6846-2.9471 0-0.67506 0.04893-1.4726 0.14266-2.3931l1.5024-14.771 10.678 23.311c0.73645 0 1.3658-0.10441 1.8878-0.31812l9.5732-22.994 1.6254 15.79c0.0891 0.92074 0.13358 1.6879 0.13358 2.3016 0 1.074-0.20297 1.8098-0.60269 2.208-0.39965 0.39806-1.1829 0.65733-2.349 0.77776-0.18677 0.5826-0.27993 1.242-0.27993 1.9785 1.565-0.0894 3.4368-0.13173 5.6153-0.12703 2.2707 6e-3 4.1117 0.0547 5.523 0.14921 0-0.82834-0.0737-1.5035-0.22598-2.0254-0.73638-0.0629-1.3189-0.26366-1.7479-0.60205-0.42888-0.33839-0.76531-0.90657-1.0092-1.7048-0.24377-0.82898-0.44077-2.0106-0.59131-3.5452l-1.623-16.895c-0.0292-0.27611-0.0439-0.65981-0.0439-1.1508 6e-3 -1.2887 0.26512-2.1932 0.78786-2.7139 0.55331-0.52179 1.3516-0.78106 2.3948-0.77769 0.15601-0.58273 0.23398-1.2422 0.23398-1.9785-1.2275 0.09068-2.3937 0.13428-3.4983 0.13091-1.35-0.0064-2.5466-0.05147-3.5896-0.14527l-10.085 25.433-11.456-25.476c-1.197 0.09075-2.363 0.13459-3.4984 0.13123-1.4115-0.0064-2.5772-0.05147-3.4975-0.14533zm-13.882 0.40073c-0.18607 0-0.37302 0.0064-0.56081 0.01398-2.8511 0.11871-5.0739 0.94838-6.668 2.4889-1.5942 1.5404-2.3377 3.5982-2.2304 6.1736 0.0741 1.7781 0.51918 3.249 1.3355 4.4127 0.8455 1.1318 1.8348 2.0273 2.9678 2.6865 1.1331 0.65918 2.638 1.3949 4.5143 2.2074 1.6248 0.66941 2.8933 1.2615 3.8053 1.7763 0.91076 0.48411 1.6898 1.1273 2.3375 1.9296 0.64742 0.80223 0.99611 1.8011 1.0461 2.9968 0.05974 1.4409-0.38211 2.6264-1.326 3.5564-0.91464 0.89799-2.3682 1.3883-4.3609 1.4713-2.3606 0.0983-4.135-0.47254-5.3229-1.713-1.1574-1.2416-1.8483-3.0863-2.0731-5.5338-0.95035 0.04-1.7742 0.16605-2.4716 0.37931 0.10968 2.6366 0.06228 4.819-0.14228 6.5472 1.667 0.94406 3.2159 1.6322 4.6466 2.064 1.4293 0.40111 3.0332 0.56462 4.8114 0.49059 2.33-0.097 4.2602-0.57657 5.7906-1.4388 1.5597-0.89412 2.6799-2.0159 3.3608-3.3647 0.71027-1.3809 1.0322-2.8683 0.96573-4.4625-0.06895-1.6555-0.51035-3.0345-1.3239-4.137-0.81366-1.1024-1.7871-1.9831-2.9201-2.6422-1.1023-0.66051-2.5756-1.3822-4.4202-2.1652-1.6275-0.73073-2.9126-1.353-3.8553-1.8666-0.9121-0.5148-1.7078-1.1878-2.3873-2.0195-0.64869-0.83286-0.9982-1.8473-1.0482-3.0429-0.05973-1.4409 0.35332-2.579 1.2397-3.4145 0.88668-0.83527 2.1423-1.2868 3.767-1.3546 1.4716-0.0616 2.6558 0.35008 3.5526 1.2341 0.89545 0.85332 1.6103 2.528 2.1442 5.0241 1.0422-0.0432 1.8949-0.21695 2.5578-0.52096-0.23868-1.3106-0.41477-3.3303-0.52852-6.0588-0.88261-0.5467-2.0216-0.97552-3.4166-1.2859-1.2217-0.29848-2.4839-0.44229-3.7868-0.43174zm70.033 0.47152c-0.47807 0-0.91489 0.03432-1.3102 0.1065l-10.746 23.929c-0.82973 1.8323-1.4908 3.0587-1.9829 3.679-0.49218 0.62035-1.1405 0.98721-1.9449 1.1003-0.24085 0.5101-0.38053 1.1481-0.41916 1.9142 1.7514-6e-3 3.0258 0.0146 3.8225 0.0547 1.8694 0.0943 3.3226 0.21358 4.3599 0.35796 0.04-0.79669-0.0337-1.461-0.2221-1.9928-0.8244-0.10295-1.4288-0.30236-1.8133-0.5983-0.35225-0.32498-0.51283-0.7939-0.48188-1.4068 0.0368-0.73557 0.33305-1.7347 0.88833-2.9971l1.4011-3.1091c3.2239 0.04 7.2722 0.18238 12.145 0.42799l1.7862 4.7908c0.40245 1.1571 0.59442 1.9193 0.57593 2.2871-0.0216 0.42894-0.22108 0.72615-0.59804 0.8915-0.34646 0.16675-0.95074 0.27466-1.8135 0.32333-0.23614 0.41821-0.37677 1.0716-0.42151 1.9603 1.8433 0 3.5772 0.0419 5.2014 0.12398 1.6548 0.0834 3.3994 0.21752 5.2334 0.40225 0.0349-0.70468-0.0235-1.368-0.17634-1.99-0.69864-0.15817-1.2639-0.52477-1.6957-1.0996-0.40124-0.57326-0.94152-1.7373-1.6212-3.4921l-9.675-25.65c-0.16853-0.0083-0.33248-0.01335-0.49179-0.01335zm-84.686 0.527c-1.8307 0.21561-3.6796 0.38636-5.5471 0.51212-2.0206 0.13631-3.876 0.21518-5.5659 0.23672 0.05973 0.88776 0.1806 1.541 0.36273 1.9592 1.2287-0.021 2.0758 0.22922 2.5416 0.75145 0.49434 0.48951 0.79282 1.4995 0.89596 3.0302l1.3058 19.379c0.10307 1.5307-0.05656 2.5871-0.47832 3.1692-0.39349 0.54931-1.2007 0.89564-2.4211 1.0394-0.12424 0.43886-0.15658 1.1024-0.09672 1.9902 1.5553-0.19706 3.4044-0.36775 5.5474-0.51213 1.8675-0.12551 3.7228-0.20443 5.5659-0.23665-0.05974-0.88782-0.18079-1.5408-0.36273-1.959-1.2287 0.021-2.09-0.21301-2.5843-0.70251-0.4658-0.52224-0.75043-1.5487-0.85357-3.0794l-1.3057-19.379c-0.10314-1.5308 0.04258-2.5707 0.43581-3.12 0.42221-0.58203 1.2434-0.94489 2.4639-1.0886 0.12424-0.43886 0.1562-1.1024 0.09634-1.9902zm82.762 5.3553c0.3673 1.2474 0.95708 2.9516 1.7698 5.1126l3.0812 8.3583-10.435-0.52592 3.5867-8.0686c0.94178-2.226 1.6076-3.8515 1.9972-4.8764z" stroke-width="3.8355"/>
  </g>
  <g fill="none" stroke-width=".50384">
   <path d="m119.7 150.23h28.695" stroke="#b3b3b3"/>
   <path d="m63.52 150.23h28.695" stroke="#b3b3b3"/>
   <path d="m119.7 150.9h28.695" stroke="#e6e6e6"/>
   <path d="m63.52 150.9h28.695" stroke="#e6e6e6"/>
  </g>
  <g>
   <text x="93.927429" y="181.00343" fill="#ffffff" font-family="'Open Sans'" font-size="12.676px" font-weight="800" stroke-width="1.0563" style="line-height:38.0265px" xml:space="preserve"><tspan x="93.927429" y="181.00343" fill="#ffffff" font-family="Vollkorn" font-weight="normal" stroke-width="1.0563">1971</tspan></text>
   <text x="94.060699" y="181.53651" fill="#725193" font-family="'Open Sans'" font-size="12.676px" font-weight="800" stroke-width="1.0563" style="line-height:38.0265px" xml:space="preserve"><tspan x="94.060699" y="181.53651" fill="#725193" font-family="Vollkorn" font-weight="normal" stroke-width="1.0563">1971</tspan></text>
   <path d="m108.41 91.496-2.1577-1.0808-2.1135 1.1648 0.36114-2.3861-1.7608-1.6501 2.3808-0.39393 1.0252-2.1846 1.1103 2.1426 2.3946 0.30001-1.6946 1.7181z" fill="#725193"/>
   <path d="m87.959 96.149c0 0.82847 0.07359 1.4886 0.22597 1.9799 1.1047 0 1.902 0.24911 2.3921 0.74096 0.4909 0.49198 0.73461 1.3363 0.7313 2.5329 0 0.46027-0.01716 0.82866-0.0483 1.1048l-1.5054 16.382c-0.18785 1.8714-0.42088 3.2673-0.69877 4.1872-0.24733 0.88935-0.60154 1.5024-1.0624 1.839-0.46097 0.33661-1.1211 0.54994-1.9805 0.64031-0.15594 0.52128-0.23411 1.181-0.23411 1.9787 1.2583-0.0893 2.7927-0.13225 4.6032-0.12888 1.8103 6e-3 3.4516 0.0528 4.9243 0.14788 0-0.79778-0.07384-1.4577-0.22623-1.9795-1.1351-0.0944-1.9473-0.40276-2.4372-0.92537-0.45983-0.55325-0.6879-1.5357-0.6846-2.9472 0-0.67506 0.04893-1.4726 0.14266-2.3931l1.5024-14.771 10.678 23.31c0.73639 0 1.3658-0.10441 1.8878-0.31812l9.5731-22.994 1.6255 15.79c0.0891 0.92074 0.13358 1.688 0.13358 2.3017 0 1.0739-0.20304 1.8098-0.60269 2.2079-0.39965 0.39806-1.1829 0.65734-2.349 0.77776-0.18676 0.58266-0.27992 1.2421-0.27992 1.9785 1.565-0.0893 3.4368-0.13173 5.6153-0.12703 2.2707 6e-3 4.1116 0.0546 5.523 0.14921 0-0.82834-0.0737-1.5035-0.22591-2.0254-0.73639-0.0629-1.3189-0.2636-1.748-0.60199-0.42882-0.33845-0.76524-0.90663-1.0091-1.7049-0.24383-0.82892-0.44083-2.0106-0.59131-3.5452l-1.623-16.895c-0.0292-0.27611-0.0439-0.65981-0.0439-1.1508 6e-3 -1.2887 0.26512-2.1931 0.78786-2.7138 0.55331-0.52179 1.3516-0.78106 2.3948-0.77776 0.15601-0.58273 0.23392-1.2422 0.23392-1.9785-1.2274 0.09068-2.3936 0.13428-3.4983 0.13091-1.35-0.0064-2.5465-0.05084-3.5895-0.14527l-10.085 25.433-11.456-25.476c-1.197 0.09075-2.363 0.13459-3.4985 0.13122-1.4115-0.0064-2.5771-0.05147-3.4975-0.14533zm-13.882 0.40079c-0.18607 0-0.37302 0.0064-0.56087 0.01398-2.851 0.11871-5.0738 0.94832-6.668 2.4888-1.5942 1.5405-2.3377 3.5983-2.2303 6.1736 0.0741 1.7781 0.51918 3.249 1.3354 4.4127 0.84556 1.1318 1.8349 2.0273 2.9679 2.6865 1.1331 0.65918 2.6379 1.395 4.5143 2.2074 1.6248 0.66941 2.8933 1.2615 3.8053 1.7763 0.91076 0.48416 1.6898 1.1273 2.3375 1.9296 0.64736 0.80222 0.99611 1.8011 1.0461 2.9968 0.06037 1.4409-0.38205 2.6264-1.326 3.5564-0.91464 0.89799-2.3682 1.3883-4.3609 1.4713-2.3606 0.0983-4.135-0.47253-5.3229-1.713-1.1573-1.2416-1.8483-3.0863-2.073-5.5338-0.95035 0.04-1.7742 0.16605-2.4717 0.37931 0.10968 2.6366 0.06228 4.819-0.14222 6.5473 1.667 0.94406 3.2159 1.6322 4.6466 2.064 1.4293 0.40111 3.0332 0.56455 4.8114 0.49052 2.33-0.097 4.2602-0.57657 5.7905-1.4388 1.5598-0.89411 2.6799-2.0158 3.3609-3.3647 0.71027-1.3809 1.0322-2.8683 0.96567-4.4624-0.06889-1.6555-0.51029-3.0346-1.3239-4.137-0.81372-1.1024-1.7871-1.9831-2.9201-2.6422-1.1023-0.66051-2.5756-1.3822-4.4202-2.1652-1.6275-0.73074-2.9126-1.3531-3.8553-1.8666-0.9121-0.5148-1.7078-1.1878-2.3873-2.0194-0.64869-0.83285-0.99827-1.8473-1.0482-3.043-0.05974-1.4409 0.35326-2.579 1.2397-3.4144 0.88668-0.83527 2.1423-1.2869 3.767-1.3547 1.4716-0.06164 2.6558 0.35015 3.5526 1.2341 0.89545 0.85332 1.6102 2.528 2.1442 5.0241 1.0422-0.0432 1.8949-0.21702 2.5578-0.52096-0.23875-1.3107-0.41484-3.3303-0.52852-6.0589-0.88267-0.54664-2.0216-0.97545-3.4166-1.2859-1.2217-0.29842-2.4839-0.44229-3.7868-0.43168zm70.033 0.47146c-0.47807 0-0.91489 0.03432-1.3102 0.1065l-10.746 23.929c-0.82974 1.8323-1.4908 3.0587-1.983 3.679-0.49211 0.62035-1.1404 0.98727-1.9449 1.1003-0.24078 0.51016-0.38045 1.1481-0.41909 1.9142 1.7514-6e-3 3.0257 0.0146 3.8225 0.0546 1.8693 0.0943 3.3226 0.21359 4.3599 0.35803 0.04-0.79676-0.0337-1.4611-0.2221-1.9928-0.8244-0.10301-1.4288-0.30242-1.8133-0.59836-0.35218-0.32498-0.51277-0.7939-0.48189-1.4068 0.0369-0.7355 0.33312-1.7347 0.88833-2.9971l1.4011-3.1091c3.224 0.04 7.2723 0.18238 12.145 0.42799l1.7862 4.7908c0.40245 1.1571 0.59443 1.9193 0.57587 2.2871-0.0216 0.42901-0.22102 0.72616-0.59798 0.89151-0.34652 0.16674-0.95073 0.27465-1.8135 0.32339-0.23614 0.41814-0.37677 1.0715-0.42157 1.9603 1.8434 0 3.5772 0.0419 5.2015 0.12392 1.6548 0.0834 3.3994 0.21759 5.2334 0.40225 0.035-0.70467-0.0235-1.368-0.17641-1.99-0.69857-0.15817-1.2639-0.52472-1.6956-1.0996-0.40124-0.57326-0.94158-1.7373-1.6212-3.4921l-9.675-25.65c-0.16852-0.0089-0.33248-0.01335-0.49179-0.01335zm-84.686 0.527c-1.8307 0.21562-3.6796 0.38637-5.5471 0.51213-2.0206 0.13631-3.876 0.21524-5.5659 0.23671 0.05973 0.88776 0.1806 1.541 0.36266 1.9592 1.2288-0.021 2.0759 0.22922 2.5417 0.75145 0.49434 0.48951 0.79282 1.4995 0.89596 3.0302l1.3058 19.379c0.10307 1.5307-0.05592 2.5872-0.47832 3.1692-0.39349 0.54936-1.2007 0.8957-2.4211 1.0394-0.1243 0.43886-0.15658 1.1024-0.09672 1.9902 1.5552-0.19707 3.4043-0.36775 5.5474-0.5122 1.8675-0.1255 3.7228-0.20437 5.5659-0.23665-0.05974-0.88782-0.18079-1.5408-0.36273-1.959-1.2288 0.021-2.09-0.21301-2.5843-0.70251-0.4658-0.52217-0.75037-1.5486-0.85351-3.0794l-1.3057-19.379c-0.10314-1.5307 0.04258-2.5707 0.43581-3.12 0.42221-0.58203 1.2434-0.94482 2.4639-1.0886 0.12424-0.43892 0.1562-1.1024 0.09634-1.9903zm82.762 5.3553c0.3673 1.2474 0.95702 2.9517 1.7698 5.1126l3.0812 8.3583-10.435-0.52592 3.5867-8.0686c0.9417-2.226 1.6076-3.8515 1.9972-4.8764z" fill="#f2f2f2" stroke-width="3.8355"/>
   <path d="m88.878 97.116c0 0.8284 0.07352 1.4885 0.22591 1.9798 1.1048 0 1.902 0.24904 2.3921 0.74103 0.49103 0.49192 0.73474 1.3362 0.73137 2.5328 0 0.46028-0.01716 0.82866-0.0483 1.1048l-1.5054 16.382c-0.18785 1.8713-0.42088 3.2673-0.69883 4.1873-0.24733 0.88928-0.60148 1.5023-1.0623 1.8389-0.46104 0.33662-1.1212 0.54994-1.9805 0.64025-0.15601 0.52134-0.23411 1.181-0.23411 1.9788 1.2583-0.0892 2.7927-0.13224 4.6032-0.12887 1.8103 6e-3 3.4516 0.0527 4.9243 0.14787 0-0.79777-0.07391-1.4576-0.22623-1.9796-1.1351-0.0944-1.9473-0.4027-2.4373-0.92531-0.45977-0.55325-0.68784-1.5357-0.68453-2.9471 0-0.675 0.04893-1.4726 0.14266-2.393l1.5024-14.772 10.678 23.311c0.73633 0 1.3657-0.10441 1.8877-0.31818l9.5732-22.994 1.6255 15.79c0.089 0.92074 0.13358 1.688 0.13358 2.3016-6e-3 1.074-0.2031 1.8099-0.60275 2.208-0.39965 0.39813-1.1828 0.65734-2.349 0.77776-0.18682 0.5826-0.27999 1.2421-0.27999 1.9786 1.565-0.0895 3.4368-0.1318 5.6154-0.12709 2.2706 6e-3 4.1116 0.0547 5.523 0.14921 0-0.82835-0.0737-1.5035-0.22598-2.0254-0.73632-0.0629-1.3189-0.2636-1.7479-0.60199-0.42888-0.33839-0.7653-0.90657-1.0091-1.7048-0.24383-0.82898-0.44089-2.0107-0.59137-3.5452l-1.623-16.895c-0.0292-0.27624-0.0438-0.65988-0.0438-1.1508 6e-3 -1.2888 0.26519-2.1932 0.78786-2.7139 0.55337-0.52179 1.3516-0.78106 2.3949-0.77769 0.15594-0.58273 0.23391-1.2422 0.23391-1.9786-1.2275 0.09074-2.3937 0.13434-3.4983 0.13097-1.35-0.0064-2.5465-0.05147-3.5895-0.14527l-10.085 25.433-11.456-25.476c-1.197 0.09075-2.3631 0.13459-3.4985 0.13123-1.4115-0.0064-2.5771-0.05147-3.4975-0.14527zm-13.882 0.40067c-0.18613 0-0.37302 0.0064-0.56087 0.01398-2.8511 0.11877-5.0738 0.94838-6.668 2.4888-1.5943 1.5406-2.3377 3.5983-2.2304 6.1736 0.0741 1.7782 0.51925 3.2491 1.3354 4.4127 0.84563 1.1318 1.8349 2.0273 2.9679 2.6865 1.1332 0.65917 2.6379 1.3949 4.5144 2.2074 1.6247 0.66941 2.8932 1.2615 3.8053 1.7763 0.91076 0.4841 1.6899 1.1274 2.3376 1.9296 0.6473 0.80222 0.99611 1.8011 1.0461 2.9968 0.05974 1.4409-0.38205 2.6265-1.326 3.5564-0.91458 0.89799-2.3682 1.3883-4.3609 1.4713-2.3607 0.0983-4.135-0.47254-5.3229-1.7129-1.1574-1.2417-1.8483-3.0864-2.073-5.5339-0.95035 0.04-1.7742 0.16605-2.4717 0.37932 0.10975 2.6366 0.06228 4.819-0.14222 6.5472 1.667 0.94406 3.2159 1.6322 4.6466 2.064 1.4294 0.40111 3.0332 0.56462 4.8114 0.49058 2.33-0.097 4.2602-0.57656 5.7905-1.4388 1.5597-0.89417 2.6799-2.0159 3.3608-3.3648 0.71027-1.3809 1.0323-2.8683 0.96567-4.4625-0.06888-1.6555-0.51029-3.0345-1.3238-4.137-0.81379-1.1024-1.7871-1.9831-2.9201-2.6422-1.1024-0.66051-2.5757-1.3822-4.4203-2.1652-1.6274-0.73074-2.9125-1.353-3.8552-1.8666-0.9121-0.5148-1.7078-1.1878-2.3874-2.0194-0.64869-0.83291-0.9982-1.8473-1.0482-3.0429-0.06037-1.4409 0.3532-2.5791 1.2397-3.4145 0.88661-0.83521 2.1423-1.2868 3.767-1.3546 1.4716-0.06164 2.6558 0.35008 3.5526 1.2341 0.89545 0.85331 1.6102 2.528 2.1441 5.0241 1.0422-0.0432 1.8949-0.21695 2.5578-0.52096-0.23881-1.3107-0.4149-3.3303-0.52859-6.0587-0.88267-0.54676-2.0216-0.97558-3.4166-1.286-1.2216-0.29842-2.4839-0.44223-3.7867-0.43168zm70.033 0.47152c-0.478 0-0.91489 0.03432-1.3102 0.10651l-10.746 23.929c-0.82974 1.8323-1.4908 3.0587-1.983 3.679-0.49217 0.62035-1.1404 0.98721-1.945 1.1003-0.24072 0.51016-0.38046 1.1481-0.4191 1.9142 1.7514-6e-3 3.0257 0.0146 3.8225 0.0547 1.8694 0.0942 3.3226 0.21358 4.3599 0.35802 0.04-0.79675-0.0337-1.4611-0.2221-1.9929-0.82433-0.10295-1.4288-0.30242-1.8133-0.5983-0.35224-0.32498-0.51283-0.7939-0.48194-1.4068 0.0375-0.73556 0.33318-1.7347 0.88839-2.9971l1.4011-3.1091c3.2239 0.04 7.2722 0.18238 12.145 0.428l1.7862 4.7908c0.40244 1.1571 0.59442 1.9193 0.57586 2.2871-0.0216 0.42895-0.22095 0.72616-0.59798 0.89151-0.34646 0.16675-0.9508 0.27465-1.8136 0.32333-0.23601 0.4182-0.37671 1.0717-0.42151 1.9603 1.8434 0 3.5773 0.0419 5.2015 0.12398 1.6549 0.0834 3.3993 0.21759 5.2334 0.40226 0.0356-0.70468-0.0235-1.368-0.17634-1.99-0.69864-0.15817-1.2639-0.52478-1.6957-1.0996-0.40124-0.57326-0.94152-1.7373-1.6212-3.4921l-9.675-25.65c-0.16853-0.0083-0.33255-0.01335-0.4918-0.01335zm-84.686 0.527c-1.8307 0.21562-3.6796 0.38637-5.5471 0.51213-2.0205 0.13631-3.8759 0.21517-5.5659 0.23672 0.05973 0.88776 0.18067 1.541 0.36273 1.9592 1.2288-0.021 2.0759 0.22921 2.5416 0.75144 0.49434 0.48951 0.79282 1.4994 0.89596 3.0301l1.3058 19.379c0.10307 1.5307-0.05656 2.5872-0.47826 3.1692-0.39355 0.5493-1.2007 0.89564-2.4212 1.0394-0.12424 0.43892-0.15645 1.1024-0.09659 1.9902 1.5551-0.19707 3.4043-0.36775 5.5474-0.51213 1.8675-0.12545 3.7227-0.20444 5.5659-0.23665-0.05973-0.88783-0.18073-1.5407-0.36273-1.959-1.2287 0.021-2.09-0.21301-2.5843-0.70252-0.46574-0.52223-0.75037-1.5486-0.85357-3.0794l-1.3056-19.379c-0.1032-1.5307 0.04258-2.5707 0.43574-3.12 0.42221-0.58204 1.2434-0.94489 2.4638-1.0886 0.1243-0.43885 0.15626-1.1024 0.0964-1.9902zm82.762 5.3553c0.36724 1.2474 0.95697 2.9517 1.7698 5.1126l3.0812 8.3583-10.435-0.52592 3.5867-8.0686c0.94165-2.226 1.6076-3.8515 1.9972-4.8764z" fill="#9c22a2" stroke-width="3.8355"/>
  </g>
  <g transform="matrix(.50384 0 0 .50384 1766.8 1089.4)" fill="#725193">
   <path d="m-3322.6-2025.5-5.1478-2.3156-4.8259 2.9278 0.6117-5.6113-4.2759-3.685 5.5256-1.1525 2.1835-5.2052 2.8035 4.8991 5.6251 0.468-3.7929 4.1803z"/>
   <path d="m-3382.9-2020.7-4.2122-1.3264-3.4806 2.7178-0.04-4.4158-3.6603-2.4704 4.1874-1.4026 1.2181-4.2447 2.628 3.5489 4.4136-0.1528-2.5632 3.5959z"/>
   <path d="m-3353.7-2024.1-4.5814-1.767-4.0529 2.7719 0.2649-4.9031-3.8888-2.9979 4.745-1.2631 1.6496-4.625 2.6676 4.1224 4.9083 0.1403-3.0965 3.8109z"/>
   <path d="m-3290.6-2026.8-5.8646-2.9375-5.7446 3.1659 0.9815-6.4854-4.7861-4.4853 6.4711-1.0706 2.7867-5.9379 3.018 5.8237 6.5084 0.8155-4.606 4.6699z"/>
   <path d="m-3183-2016.7 3.67-0.9266 2.8438 2.498 0.2528-3.7767 3.2546-1.9326-3.5137-1.4076-0.8323-3.6925-2.4245 2.9067-3.7692-0.3494 2.0155 3.204z"/>
   <path d="m-3409.8-2016.4-3.6701-0.9265-2.8438 2.4979-0.2528-3.7766-3.2546-1.9328 3.5137-1.4075 0.8323-3.6925 2.4245 2.9067 3.7692-0.3494-2.0154 3.204z"/>
   <path d="m-3210.5-2021.3 4.2122-1.3264 3.4805 2.7179 0.04-4.4159 3.6604-2.4703-4.1874-1.4027-1.2183-4.2447-2.628 3.5489-4.4133-0.1528 2.5631 3.596z"/>
   <path d="m-3240.5-2024.9 4.5812-1.7672 4.053 2.7721-0.2649-4.9031 3.8888-2.9979-4.745-1.2632-1.6496-4.625-2.6676 4.1225-4.9083 0.1403 3.0964 3.8109z"/>
   <path d="m-3161.1-2012.1 3.1673-0.7996 2.4542 2.1558 0.2183-3.2594 2.8089-1.6679-3.0326-1.2148-0.7183-3.1869-2.0923 2.5087-3.253-0.3015 1.7393 2.7652z"/>
   <path d="m-3431.4-2012.1-3.1672-0.7996-2.4544 2.1558-0.2181-3.2594-2.8089-1.6679 3.0324-1.2148 0.7183-3.1869 2.0925 2.5087 3.2529-0.3015-1.7393 2.7652z"/>
   <path d="m-3269.9-2026.3 5.1478-2.3156 4.8259 2.9279-0.6117-5.6114 4.2759-3.685-5.5256-1.1524-2.1835-5.2052-2.8035 4.8991-5.6251 0.4679 3.7929 4.1803z"/>
  </g>
  <g transform="matrix(.50384 0 0 .50384 1745.3 1163.1)">
   <path d="m-3257.5-2025.6v16.719h-12.562v12.761h12.562v27.642h14.064v-27.642h12.562v-12.761h-12.562v-9.3863z" fill="#fff"/>
   <path d="m-3260.1-2028v16.719h-12.562v12.761h12.562v27.642h14.064v-27.642h12.562v-12.761h-12.562v-9.3863z" fill="#ccc"/>
   <path d="m-3258.7-2026.7v16.719h-12.562v12.761h12.562v27.642h14.064v-27.642h12.562v-12.761h-12.562v-9.3863z" fill="#ececec"/>
  </g>
 </g>
</svg>
