<svg xmlns="http://www.w3.org/2000/svg" viewBox="0 0 81.783 65.556"><defs><style>.a{opacity:0.334;}.b{fill:#fff;}.c{fill:none;stroke:#fff;stroke-width:2px;}</style></defs><g class="a" transform="matrix(0.966, -0.259, 0.259, 0.966, -583.881, -1146.97)"><g transform="translate(263.479 1272.627)"><g transform="translate(0 0)"><path class="b" d="M59.18,29.443a5.553,5.553,0,0,0-4.652-5.509V9a3.767,3.767,0,0,0-2.2-3.428,3.971,3.971,0,0,0-4.04.367C38.367,13.65,26.125,21.975,21.595,21.975H9.352A4.65,4.65,0,0,0,4.7,26.627v5.632a4.515,4.515,0,0,0,3.918,4.53l4.04,18.731a3.691,3.691,0,0,0,3.673,2.938H20a3.911,3.911,0,0,0,2.938-1.347,3.461,3.461,0,0,0,.735-3.061L20,36.911h1.714c4.53,0,16.65,8.325,26.689,16.038a4.175,4.175,0,0,0,2.326.857,4.321,4.321,0,0,0,1.714-.367,3.767,3.767,0,0,0,2.2-3.428V35.075a5.678,5.678,0,0,0,4.53-5.632ZM6.536,32.381V26.75a2.979,2.979,0,0,1,2.938-2.938H20.86V35.2H9.352a2.848,2.848,0,0,1-2.816-2.816ZM21.962,54.541a1.766,1.766,0,0,1-.367,1.592,1.913,1.913,0,0,1-1.469.735H16.453A1.846,1.846,0,0,1,14.617,55.4l-4.04-18.364h7.59Zm30.851-4.53a2,2,0,0,1-1.224,1.836,2.056,2.056,0,0,1-2.2-.245c-6-4.775-20.323-15.426-26.811-16.405V23.689c6.489-.979,20.812-11.63,26.811-16.405a2.056,2.056,0,0,1,2.2-.245,2.143,2.143,0,0,1,1.224,1.836Zm1.714-16.772V25.77a3.842,3.842,0,0,1,0,7.468Zm0,0" transform="translate(-4.7 -5.187)"/><path class="b" d="M41.379,5.8a.946.946,0,0,0-.979.857V45.221a.857.857,0,1,0,1.714,0V6.657c0-.49-.245-.857-.735-.857Zm0,0" transform="translate(3.306 -5.05)"/><path class="b" d="M41.357,40.5a.837.837,0,0,0-.857.857v2.816a.857.857,0,1,0,1.714,0V41.357a.837.837,0,0,0-.857-.857Zm0,0" transform="translate(3.329 2.732)"/><path class="b" d="M8.057,23.6a.837.837,0,0,0-.857.857v1.836a.857.857,0,0,0,1.714,0V24.457a.837.837,0,0,0-.857-.857Zm0,0" transform="translate(-4.139 -1.058)"/><path class="b" d="M10.757,23.6a.837.837,0,0,0-.857.857v1.836a.857.857,0,0,0,1.714,0V24.457a.837.837,0,0,0-.857-.857Zm0,0" transform="translate(-3.534 -1.058)"/><path class="b" d="M13.357,23.6a.837.837,0,0,0-.857.857v1.836a.857.857,0,1,0,1.714,0V24.457a.837.837,0,0,0-.857-.857Zm0,0" transform="translate(-2.951 -1.058)"/><path class="b" d="M11.6,44.957a.837.837,0,0,0,.857.857h8.2a.857.857,0,1,0,0-1.714h-8.2a.837.837,0,0,0-.857.857Zm0,0" transform="translate(-3.153 3.539)"/></g></g><path class="c" d="M1427,1292.846c3.436,2.586,7.946,16.816,0,24.261" transform="translate(-1103.858 -9.26)"/><path class="c" d="M1427,1292.846c6.127,5.01,9.809,21.758,0,32.178" transform="translate(-1096.683 -12.906)"/></g></svg>