<?xml version="1.0" encoding="utf-8"?>
<!-- Generator: Adobe Illustrator 23.0.0, SVG Export Plug-In . SVG Version: 6.00 Build 0)  -->
<svg version="1.1" id="Capa_1" xmlns="http://www.w3.org/2000/svg" xmlns:xlink="http://www.w3.org/1999/xlink" x="0px" y="0px"
	 viewBox="0 0 64 64" style="enable-background:new 0 0 64 64;" xml:space="preserve">
<style type="text/css">
	.st0{fill:#7e2146;enable-background:new    ;}
	.st1{fill:#FFFFFF;}
	.st2{opacity:0.75;}
	.st3{fill:#C61E1E;}
	.st4{fill:#16BF31;}
	.st5{opacity:0.752;fill:#24B7DC;enable-background:new    ;}
</style>
<circle class="st0" cx="32" cy="32" r="32"/>
<g class="st2">
	<path class="st1" d="M49.4,12.6H28.7c-0.1,0-0.3,0.1-0.3,0.1l-7.8,7.8c-0.1,0.1-0.1,0.2-0.1,0.3v3.7c0,0.2-0.1,0.3-0.3,0.3h-0.9
		c-0.3,0-0.6,0.1-0.9,0.4l-6.9,6.9c-0.1,0.1-0.2,0.1-0.2,0.1H8.6c-0.3,0-0.5,0.2-0.5,0.5v13.7c0,0.3,0.2,0.5,0.5,0.5h11.5
		c0.2,0,0.4,0.2,0.4,0.4v1.6c0,0.3,0.2,0.5,0.5,0.5h28.5c0.3,0,0.5-0.2,0.5-0.5V13.1C49.9,12.9,49.7,12.6,49.4,12.6z M20.5,45.9
		l-11.4,0l0-12.7l2.7,0l7.3-7.3l1.3,0l0,9.7l-0.9,0.8l0.6,0.8l7.1-6c2.7-2,4.7,0.5,6,2L20.5,45.9z M21.4,48.4l0-2.1l8.5-8.5l4.2-4.2
		c0.2-0.2,0.2-0.5,0-0.6l-0.5-0.6c-2.4-3-4.7-4.5-8.4-1l-3.8,3.2l0-12.9l7.8,0c0.4,0,0.7-0.3,0.7-0.7l0-7.5l19,0l0,34.7L21.4,48.4z"
		/>
	
		<rect x="38.2" y="36.3" transform="matrix(-1.444454e-06 -1 1 -1.444454e-06 -5.4732 82.8508)" class="st1" width="1" height="15.7"/>
	
		<rect x="38.2" y="32.8" transform="matrix(-1.444454e-06 -1 1 -1.444454e-06 -1.9554 79.333)" class="st1" width="1" height="15.7"/>
	<path class="st1" d="M40.4,23c-1.4-0.6-1.9-0.9-1.9-1.6c0-0.5,0.4-1.1,1.5-1.1c1,0,1.7,0.4,1.7,0.4c0.1,0,0.2,0.1,0.2,0.1
		c0.2,0,0.4-0.1,0.5-0.3l0.3-0.7c0.1-0.2,0-0.5-0.2-0.5c-0.6-0.3-1.7-0.5-1.7-0.5c0,0-0.1,0-0.1-0.1l0-1c0-0.3-0.2-0.5-0.5-0.5h-0.5
		c-0.3,0-0.5,0.2-0.5,0.5l0,1c0,0.1-0.1,0.1-0.1,0.1c-1.5,0.3-2.4,1.4-2.4,2.7c0,1.7,1.4,2.4,2.9,3c1.2,0.5,1.7,0.9,1.7,1.6
		c0,0.8-0.7,1.3-1.7,1.3c-0.8,0-2-0.5-2-0.5c-0.1,0-0.2-0.1-0.2-0.1c-0.2,0-0.4,0.1-0.5,0.3L36.6,28c-0.1,0.3,0,0.5,0.2,0.6
		c0.7,0.4,2.1,0.6,2.1,0.6c0,0,0.1,0,0.1,0.1v1c0,0.3,0.2,0.5,0.5,0.5H40c0.3,0,0.5-0.2,0.5-0.5v-1.1c0-0.1,0.1-0.1,0.1-0.1
		c1.5-0.3,2.5-1.5,2.5-2.9C43.2,24.7,42.3,23.8,40.4,23z"/>
</g>
</svg>
