<svg id="icon" xmlns="http://www.w3.org/2000/svg" viewBox="0 0 24.11 24"><defs><style>.cls-1{fill:#ce426a;}</style></defs><title>icons</title><path class="cls-1" d="M17,10v9h-10V5h6V7.51A1.49,1.49,0,0,0,14.54,9H19V8.49a1,1,0,0,0-.36-.77l-5-4.22A2,2,0,0,0,12.33,3H7.08a2,2,0,0,0-2,2V19a2,2,0,0,0,2,2H17a2,2,0,0,0,2-2V10Z"/><path class="cls-1" d="M9.07,12h6a1,1,0,0,1,1,1h0a1,1,0,0,1-1,1h-6a1,1,0,0,1-1-1h0A1,1,0,0,1,9.07,12Z"/><path class="cls-1" d="M9.07,15h2a1,1,0,0,1,1,1h0a1,1,0,0,1-1,1h-2a1,1,0,0,1-1-1h0A1,1,0,0,1,9.07,15Z"/></svg>