<svg id="icon" xmlns="http://www.w3.org/2000/svg" viewBox="0 0 24.11 24"><defs><style>.cls-1{fill:#fff;}</style></defs><path class="cls-1" d="M15.06,10.8v5.41H9V7.79h3.62V9.28a.9.9,0,0,0,.9.91h2.71V9.87a.61.61,0,0,0-.22-.46L13,6.86a1.22,1.22,0,0,0-.78-.28H9a1.21,1.21,0,0,0-1.2,1.21v8.42A1.21,1.21,0,0,0,9,17.42h6a1.21,1.21,0,0,0,1.21-1.21V10.8Z"/><path class="cls-1" d="M10.25,12h3.61a.6.6,0,0,1,.6.6h0a.6.6,0,0,1-.6.6H10.25a.6.6,0,0,1-.6-.6h0A.6.6,0,0,1,10.25,12Z"/><path class="cls-1" d="M10.25,13.81h1.2a.6.6,0,0,1,.6.6h0a.6.6,0,0,1-.6.6h-1.2a.6.6,0,0,1-.6-.6h0A.6.6,0,0,1,10.25,13.81Z"/></svg>