<svg id="icon" xmlns="http://www.w3.org/2000/svg" viewBox="0 0 24.11 24"><defs><style>.cls-1{fill:#fff;}</style></defs><path class="cls-1" d="M15.06,10.8v5.41H9V7.79h3.62V9.28a.9.9,0,0,0,.9.91h2.71V9.87a.61.61,0,0,0-.22-.46L13,6.86a1.22,1.22,0,0,0-.78-.28H9a1.21,1.21,0,0,0-1.2,1.21v8.42A1.21,1.21,0,0,0,9,17.42h6a1.21,1.21,0,0,0,1.21-1.21V10.8Z"/><path class="cls-1" d="M10.25,12h3.61a.6.6,0,0,1,.6.6h0a.6.6,0,0,1-.6.6H10.25a.6.6,0,0,1-.6-.6h0A.6.6,0,0,1,10.25,12Z"/><path class="cls-1" d="M10.25,13.81h1.2a.6.6,0,0,1,.6.6h0a.6.6,0,0,1-.6.6h-1.2a.6.6,0,0,1-.6-.6h0A.6.6,0,0,1,10.25,13.81Z"/><path class="cls-1" d="M14,4.76h0a.64.64,0,0,1,.64.64h0A.64.64,0,0,1,14,6h0a.64.64,0,0,1-.64-.64h0A.64.64,0,0,1,14,4.76Z"/><path class="cls-1" d="M14,2.2h0a.64.64,0,0,1,.64.64v.64a.64.64,0,0,1-.64.64h0a.64.64,0,0,1-.64-.64V2.84A.64.64,0,0,1,14,2.2Z"/><path class="cls-1" d="M18.78,8.92h0a.64.64,0,0,1-.64.64H17.5a.64.64,0,0,1-.64-.64h0a.64.64,0,0,1,.64-.64h.64A.64.64,0,0,1,18.78,8.92Z"/><path class="cls-1" d="M17,6h0a.63.63,0,0,1,0,.9l-.45.46a.65.65,0,0,1-.91,0h0a.65.65,0,0,1,0-.91L16.05,6A.63.63,0,0,1,17,6Z"/><path class="cls-1" d="M18.42,4.48h0a.65.65,0,0,1,0,.91h0a.65.65,0,0,1-.91,0h0a.67.67,0,0,1,0-.91h0A.65.65,0,0,1,18.42,4.48Z"/></svg>