<svg id="icon" xmlns="http://www.w3.org/2000/svg" viewBox="0 0 24.11 24"><defs><style>.cls-1{fill:#fff;}</style></defs><path class="cls-1" d="M16.57,7.29h-9a.48.48,0,0,0-.48.48v5.8a.47.47,0,0,0,.48.48H12v2.14a.6.6,0,0,0,.35.48s.13,0,.18,0a.66.66,0,0,0,.39-.17L15,14.1h1.61a.49.49,0,0,0,.48-.48V7.81a.5.5,0,0,0-.47-.52Zm-.52,5.81H14.7a.61.61,0,0,0-.39.17L13,14.84V13.57a.49.49,0,0,0-.44-.52H8.06V8.29h8ZM9.36,10.58a.5.5,0,0,1,.48-.48h1.61a.48.48,0,0,1,0,1H9.84a.42.42,0,0,1-.47-.38.17.17,0,0,1,0-.1Zm3.48.39a.51.51,0,1,1,.35.14.56.56,0,0,1-.35-.13Z"/></svg>