<svg id="icon" xmlns="http://www.w3.org/2000/svg" viewBox="0 0 24.11 24"><defs><style>.cls-1{fill:#fff;}.cls-2{fill:#081A2B;}.cls-3{fill:#ebbd41;}</style></defs><title>icons</title><path class="cls-1" d="M20,15h.17A4.46,4.46,0,0,1,18,11.1V10a6,6,0,0,0-5-5.91V3a1,1,0,0,0-2,0V4.09A6,6,0,0,0,6,10v1.1A4.46,4.46,0,0,1,3.83,15H4a2,2,0,0,0,0,4H20a2,2,0,0,0,0-4Zm-2,2H4.67a5.79,5.79,0,0,0,1.15-.83,6.46,6.46,0,0,0,1.1-1.28A7.06,7.06,0,0,0,8,11.1S8,11,8,11H8V10a4,4,0,0,1,8,0v1h0s0,.07,0,.1a7.07,7.07,0,0,0,1.09,3.79,6.42,6.42,0,0,0,1.09,1.28,5.86,5.86,0,0,0,1.16.83Z"/><path class="cls-1" d="M10,20a2,2,0,0,0,4,0H10Z"/><circle class="cls-2" cx="18.05" cy="6.04" r="4"/><circle class="cls-3" cx="18.05" cy="6.04" r="3"/></svg>