<svg id="icon" xmlns="http://www.w3.org/2000/svg" viewBox="0 0 24 24"><defs><style>.cls-1{fill:#FFF;}</style></defs><title>icons</title><path class="cls-1" d="M3,20H21a1,1,0,0,1,1,.89V21h0a1,1,0,0,1-.89,1H3a1,1,0,0,1-1-.89V21H2a1,1,0,0,1,.89-1Z"/><path class="cls-1" d="M6,20V4h7V20h2V4a2,2,0,0,0-2-2H6A2,2,0,0,0,4,4V20Z"/><path class="cls-1" d="M18,10H16v2h2v8h2V12A2,2,0,0,0,18,10Z"/><circle class="cls-1" cx="8" cy="9" r="1"/><circle class="cls-1" cx="11" cy="9" r="1"/><circle class="cls-1" cx="8" cy="12" r="1"/><circle class="cls-1" cx="11" cy="12" r="1"/><circle class="cls-1" cx="8" cy="15" r="1"/><circle class="cls-1" cx="11" cy="15" r="1"/><circle class="cls-1" cx="8" cy="6" r="1"/><circle class="cls-1" cx="11" cy="6" r="1"/></svg>