<svg id="icon" xmlns="http://www.w3.org/2000/svg" viewBox="0 0 24.11 24"><defs><style>.cls-1{fill:#fff;}</style></defs><circle class="cls-1" cx="17.05" cy="8.04" r="1"/><path class="cls-1" d="M6.69,16.77H17.42a.55.55,0,0,1,.59.52v.07h0a.57.57,0,0,1-.53.6H6.69a.55.55,0,0,1-.59-.53.09.09,0,0,1,0-.07h0a.55.55,0,0,1,.52-.59Z"/><path class="cls-1" d="M8.48,16.77V7.23h4.17v9.54h1.19V7.23A1.19,1.19,0,0,0,12.65,6H8.48A1.19,1.19,0,0,0,7.29,7.23v9.54Z"/><path class="cls-1" d="M15.63,10.81H14.44V12h1.19v4.77h1.19V12A1.19,1.19,0,0,0,15.63,10.81Z"/><circle class="cls-1" cx="9.67" cy="10.21" r="0.6"/><circle class="cls-1" cx="11.46" cy="10.21" r="0.6"/><circle class="cls-1" cx="9.67" cy="12" r="0.6"/><circle class="cls-1" cx="11.46" cy="12" r="0.6"/><circle class="cls-1" cx="9.67" cy="13.79" r="0.6"/><circle class="cls-1" cx="11.46" cy="13.79" r="0.6"/><circle class="cls-1" cx="9.67" cy="8.42" r="0.6"/><circle class="cls-1" cx="11.46" cy="8.42" r="0.6"/></svg>