<svg id="icon" xmlns="http://www.w3.org/2000/svg" viewBox="0 0 24.11 24"><defs><style>.cls-1{fill:#fff;}</style></defs><path class="cls-1" d="M14.05,13.07c-.64,0-1,.36-2,.36s-1.35-.36-2-.36a3,3,0,0,0-3,3v.57a1.07,1.07,0,0,0,1.07,1.07H16a1.07,1.07,0,0,0,1.07-1.07v-.57A3,3,0,0,0,14.05,13.07ZM16,16.64H8.13v-.57a1.93,1.93,0,0,1,1.93-1.93,8.54,8.54,0,0,0,2,.36,8.54,8.54,0,0,0,2-.36A1.94,1.94,0,0,1,16,16.07Zm-3.93-3.93A3.21,3.21,0,1,0,8.84,9.5,3.21,3.21,0,0,0,12.05,12.71Zm0-5.35A2.14,2.14,0,1,1,9.91,9.5,2.14,2.14,0,0,1,12.05,7.36Z"/></svg>