<?xml version="1.0" encoding="UTF-8"?>
<svg id="icon" version="1.1" viewBox="0 0 24.11 24" xmlns="http://www.w3.org/2000/svg" xmlns:cc="http://creativecommons.org/ns#" xmlns:dc="http://purl.org/dc/elements/1.1/" xmlns:rdf="http://www.w3.org/1999/02/22-rdf-syntax-ns#">
 <metadata>
  <rdf:RDF>
   <cc:Work rdf:about="">
    <dc:format>image/svg+xml</dc:format>
    <dc:type rdf:resource="http://purl.org/dc/dcmitype/StillImage"/>
    <dc:title>icons</dc:title>
   </cc:Work>
  </rdf:RDF>
 </metadata>
 <defs>
  <style>.cls-1{fill:#fff;}.cls-2{fill:#081A2B;}.cls-3{fill:#ebbd41;}</style>
 </defs>
 <title>icons</title>
 <path d="m11.244 1.2715c-0.90285 0-1.6406 0.7378-1.6406 1.6406v0.55469c-0.66212 0.19003-1.296 0.45527-1.8945 0.79297l-0.38477-0.38477c-0.30874-0.30869-0.72442-0.48047-1.1621-0.48047-0.43801 0-0.85092 0.17232-1.1582 0.48047l-1.1055 1.1035c-0.63848 0.63843-0.63847 1.6818 0 2.3203l0.39648 0.39844c-0.33081 0.59679-0.58943 1.2264-0.77344 1.8809h-0.55469c-0.90288 0-1.6406 0.7378-1.6406 1.6406v1.5625c0 0.90284 0.73776 1.6406 1.6406 1.6406h0.55859c0.18743 0.66052 0.45205 1.2936 0.78711 1.8926l-0.39258 0.39258c-0.63771 0.63771-0.63766 1.6808 0 2.3203l1.1035 1.1035c0.30816 0.3082 0.72252 0.47852 1.1602 0.47852 0.43758 0 0.85192-0.17028 1.1602-0.47852l0.39258-0.39258c0.6011 0.33617 1.2352 0.60169 1.8965 0.78906v0.56055c0 0.90344 0.73788 1.6406 1.6406 1.6406h1.5625c0.90276 0 1.6406-0.7372 1.6406-1.6406v-0.56055c0.66377-0.18762 1.3002-0.45236 1.9023-0.78906l0.39258 0.39258c0.30819 0.30819 0.72281 0.47852 1.1602 0.47852 0.43725 0 0.85196-0.1704 1.1602-0.47852l1.1055-1.1035c0.63725-0.63912 0.63772-1.6826 0-2.3203l-0.39258-0.39258c0.33577-0.60046 0.59981-1.2332 0.78711-1.8926h0.55078c0.90348 0 1.6406-0.73788 1.6406-1.6406v-1.5625c9e-5 -0.90274-0.73716-1.6406-1.6406-1.6406h-0.54688c-0.18788-0.66597-0.4535-1.3044-0.79102-1.9082l0.39258-0.39258c0.63769-0.63769 0.63777-1.6807 0-2.3203l-1.1055-1.1035c-0.30824-0.30824-0.72289-0.47852-1.1602-0.47852-0.43736 0-0.85214 0.17049-1.1602 0.47852l-0.39258 0.39258c-0.61242-0.34248-1.2595-0.61072-1.9336-0.79883v-0.53516c0-0.90261-0.73583-1.6406-1.6387-1.6406h-1.5625zm0 1.1406h1.5625c0.27603 0 0.49805 0.22333 0.49805 0.5v0.97266c0 0.26645 0.18758 0.49866 0.44726 0.55664 0.85855 0.19173 1.6718 0.52747 2.4199 0.99805 0.22396 0.14098 0.5192 0.10943 0.70703-0.078125l0.70117-0.70117c0.09382-0.093821 0.2158-0.14453 0.35156-0.14453 0.13462 0 0.25698 0.051909 0.35156 0.14648l1.1055 1.1035c0.19572 0.19625 0.19524 0.50984 0 0.70508l-0.69922 0.69922c-0.18779 0.18785-0.21906 0.48311-0.078125 0.70703 0.46519 0.7393 0.79888 1.546 0.99219 2.3984 0.05879 0.25896 0.29118 0.44531 0.55664 0.44531h0.98242c0.27749 0 0.5 0.22178 0.5 0.49805v1.5625c0 0.27627-0.22251 0.49805-0.5 0.49805h-0.98633c-0.26546 0-0.49761 0.1847-0.55664 0.44336-0.19258 0.84391-0.52631 1.6466-0.99023 2.3848-0.14114 0.22465-0.10715 0.5197 0.080078 0.70703l0.69922 0.69922c0.19506 0.19507 0.19497 0.50953 0 0.70508l-1.1055 1.1055c-0.09388 0.09384-0.21585 0.14453-0.35156 0.14453-0.13474 0-0.25678-0.05176-0.35156-0.14648l-0.70117-0.69922c-0.18794-0.18761-0.48318-0.21915-0.70703-0.078125-0.7376 0.46445-1.5423 0.797-2.3926 0.99023-0.25891 0.05886-0.44531 0.29121-0.44531 0.55664v0.99609c0 0.2775-0.22172 0.5-0.49805 0.5h-1.5625c-0.27631 0-0.49805-0.22255-0.49805-0.5v-0.99609c0-0.26547-0.18653-0.49772-0.44531-0.55664-0.8468-0.1927-1.6485-0.52583-2.3867-0.99023-0.093473-0.05885-0.19953-0.087891-0.30469-0.087891-0.1464 0-0.29297 0.05658-0.40234 0.16602l-0.70117 0.70117c-0.093997 0.09397-0.21534 0.14453-0.35156 0.14453-0.13615 0-0.25763-0.05063-0.35156-0.14453l-1.1055-1.1055c-0.19574-0.19631-0.19526-0.50978 0-0.70508l0.69922-0.69922c0.18731-0.18731 0.22169-0.48234 0.080078-0.70703-0.46291-0.73479-0.79694-1.5378-0.99023-2.3848-0.058813-0.25766-0.28923-0.44336-0.55469-0.44336h-0.99414c-0.27669 0-0.49805-0.22136-0.49805-0.49805v-1.5625c0-0.27664 0.22137-0.49805 0.49805-0.49805h0.99023c0.26546 0 0.49812-0.18603 0.55664-0.44531 0.1894-0.84021 0.51796-1.6384 0.97656-2.373 0.14012-0.22453 0.10725-0.51971-0.080078-0.70703l-0.70508-0.70312c-0.19558-0.19558-0.19543-0.50965 0-0.70508l1.1055-1.1055c0.09361-0.093863 0.21583-0.14453 0.35156-0.14453 0.13499 0 0.25902 0.051992 0.35352 0.14648l0.69531 0.69336c0.18831 0.18837 0.48441 0.21896 0.70898 0.076172 0.73263-0.4657 1.5355-0.79903 2.3848-0.99609 0.25795-0.05983 0.44141-0.29221 0.44141-0.55664v-0.98828c0-0.27669 0.22191-0.5 0.49805-0.5zm0.80859 6.4668c-1.7235 0-3.1191 1.3992-3.1191 3.123s1.3953 3.1191 3.1191 3.1191c1.7237 0 3.123-1.3957 3.123-3.1191 0-1.7234-1.3996-3.123-3.123-3.123zm0 1.1328c1.0987 0 1.9922 0.88965 1.9922 1.9883 0 1.0987-0.89336 1.9883-1.9922 1.9883-1.0989 0-1.9863-0.8894-1.9863-1.9883 0-1.0989 0.88764-1.9883 1.9863-1.9883z" style="fill:#808080;stroke-width:.037548"/>
</svg>
