<svg width="512" height="512" enable-background="new 0 0 512 512" version="1.1" viewBox="0 0 512 512" xmlns="http://www.w3.org/2000/svg">
 <g transform="translate(2.1695 2.1695)" >
  <path d="m371 0c-8.284 0-15 6.716-15 15s6.716 15 15 15v44.992l-88.01-66.006c-15.893-11.904-38.089-11.906-53.988 0.00391l-210 157.5c-19.853 14.893-23.892 43.155-9.002 63.004 7.22 9.62 17.751 15.854 29.656 17.551 2.157 0.308 4.3112 0.45999 6.4512 0.45899 5.109 0 10.13-0.87646 14.891-2.5645v210.06c0 8.284 6.716 15 15 15h75v27c0 8.284 6.716 15 15 15h180c8.284 0 15-6.716 15-15v-27h75c8.284 0 15-6.716 15-15v-210.07c4.763 1.685 9.8035 2.5606 14.979 2.5606 14.1 0 27.564-6.729 36.021-18 14.888-19.846 10.848-48.109-9.0059-63.004l-31.994-23.996v-112.49c8.284 0 15-6.716 15-15s-6.716-15-15-15zm30 30h30v89.992l-30-22.5zm-145 0.01758c3.175 0 6.3491 0.99261 8.9961 2.9746l210 157.5c6.62 4.966 7.9688 14.386 3.0078 21-2.863 3.815-7.2444 6.0039-12.023 6.0039-3.26 0-6.3665-1.0361-8.9805-2.9961l-192-144c-5.333-4-12.667-4-18 0l-192.01 144.01c-3.193 2.398-7.1357 3.4078-11.098 2.8418-3.973-0.566-7.4885-2.6484-9.8965-5.8574-4.961-6.614-3.6121-16.035 3.0059-21l209.99-157.49c2.652-1.987 5.8308-2.9785 9.0078-2.9785zm-0.00195 71.227 165 123.75v215h-60v-93c0-8.284-6.716-15-15-15h-5v-35c0-46.869-38.131-85-85-85s-85 38.131-85 85v35h-5c-8.284 0-15 6.716-15 15v93h-60v-215zm0 140.76c30.327 0 55 24.673 55 55v35h-110v-35c0-30.327 24.673-55 55-55zm-75 120h150v120h-150z" style="fill:#4F4F77"/>
  <path d="m236 417h5v25c0 8.284 6.716 15 15 15s15-6.716 15-15v-25h5c8.284 0 15-6.716 15-15s-6.716-15-15-15h-40c-8.284 0-15 6.716-15 15s6.716 15 15 15z" style="fill:#4F4F77"/>
 </g>
</svg>
