<svg id="svg5" width="36" height="36" version="1.1" viewBox="0 0 36 36" xmlns="http://www.w3.org/2000/svg">
 <style id="style2351" type="text/css">.st0{fill:none;stroke:#4F4F77;stroke-linejoin:round;stroke-miterlimit:10;}</style>
 <path id="path2353" d="m8.4716-2.65e-7a1.0588 1.0588 0 0 0-1.0588 1.0588 1.0588 1.0588 0 0 0 1.0588 1.0588h2.5395v7.1491c-2.5991 1.0194-4.4462 3.5528-4.4462 6.508v8.7891c0 2.0478 0.8925 3.8864 2.3017 5.1659-2.1189 0.74339-3.679 2.8088-3.679 5.2114a1.0589 1.0589 0 0 0 1.0588 1.0588h23.507a1.0589 1.0589 0 0 0 1.0588-1.0588c0-2.4134-1.5913-4.487-3.7721-5.2217 1.4023-1.2791 2.2893-3.1136 2.2893-5.1556v-8.7891c0-2.9152-1.7972-5.4187-4.3408-6.4646v-7.1926h2.5416a1.0588 1.0588 0 0 0 1.0588-1.0588 1.0588 1.0588 0 0 0-1.0588-1.0588zm4.6572 2.1176h9.7424v6.69c-0.17477-0.013172-0.35134-0.020679-0.52941-0.020679h-3.2819v-2.2231h1.1643a1.0588 1.0588 0 0 0 1.0588-1.0588 1.0588 1.0588 0 0 0-1.0588-1.0588h-4.4483a1.0588 1.0588 0 0 0-1.0588 1.0588 1.0588 1.0588 0 0 0 1.0588 1.0588h1.1664v2.2231h-3.3895c-0.14216 0-0.28385 0.00402-0.42394 0.012409zm0.42394 8.787h3.9892a1.0588 1.0588 0 0 0 0.4591 0.10547 1.0588 1.0588 0 0 0 0.4591-0.10547h3.8817c2.7131 0 4.8702 2.1571 4.8702 4.8702v8.7891c0 2.7131-2.1571 4.8702-4.8702 4.8702h-8.7891c-2.7131 0-4.8702-2.1571-4.8702-4.8702v-8.7891c0-2.2253 1.4513-4.0737 3.4701-4.6675a1.0588 1.0588 0 0 0 0.33915-0.08686c0.34122-0.0743 0.6956-0.11581 1.0609-0.11581zm2.5395 1.5924a1.0589 1.0589 0 0 0-0.50666 1.917c0.82715 0.59082 1.1992 1.462 1.2946 2.3844 0.0092 0.08927-0.04202 0.12381-0.03929 0.21301a1.0589 1.0589 0 0 0-1.0526-0.2006c-2.3087 0.9721-3.6108 2.9526-3.6108 5.2114 0 3.2118 2.6118 5.8235 5.8235 5.8235 3.2118 0 5.8235-2.6118 5.8235-5.8235 0-4.4137-3.0642-8.4224-7.3683-9.4984a1.0589 1.0589 0 0 0-0.36397-0.02688zm2.7856 3.71c1.6926 1.4451 2.829 3.5457 2.829 5.8153 0 2.0824-1.6235 3.7059-3.7059 3.7059-2.0824 0-3.7059-1.6235-3.7059-3.7059 0-1.1698 0.5254-1.9544 1.4269-2.6098 0.2924 0.39141 0.6465 0.72246 0.96576 0.98851a1.0589 1.0589 0 0 0 1.5572-0.22541c0.62684-0.94025 0.88523-2.2157 0.74242-3.5963-0.01273-0.123-0.08891-0.24762-0.1096-0.37224zm-8.2886 15.345h14.716c1.4782 0 2.717 0.99398 3.1723 2.3307h-20.953c0.45786-1.3366 1.6923-2.3307 3.0648-2.3307z" style="-inkscape-stroke:none;color:black;fill:#4f4f77;solid-color:black;stroke-linecap:round;stroke-linejoin:round;stroke-width:1.0588"/>
</svg>
