<?xml version="1.0" encoding="UTF-8"?>
<svg width="48" height="48" version="1.1" viewBox="0 0 12.7 12.7" xmlns="http://www.w3.org/2000/svg" xmlns:cc="http://creativecommons.org/ns#" xmlns:dc="http://purl.org/dc/elements/1.1/" xmlns:rdf="http://www.w3.org/1999/02/22-rdf-syntax-ns#">
 <metadata>
  <rdf:RDF>
   <cc:Work rdf:about="">
    <dc:format>image/svg+xml</dc:format>
    <dc:type rdf:resource="http://purl.org/dc/dcmitype/StillImage"/>
    <dc:title/>
   </cc:Work>
  </rdf:RDF>
 </metadata>
 <circle cx="6.35" cy="6.35" r="6.2177" style="fill:#419991;stroke-linecap:round;stroke-linejoin:round;stroke-width:.18375"/>
 <path d="m6.7775 7.9311q0 0.40334 0.032268 0.63728 0.032268 0.23394 0.121 0.36301 0.096803 0.12907 0.26621 0.1694 0.17747 0.040335 0.45981 0.048402v0.30654h-2.6137v-0.30654q0.28234-0.0080625 0.45175-0.048402 0.17747-0.048401 0.27428-0.1694 0.096803-0.121 0.12907-0.33881 0.032268-0.22587 0.032268-0.60502v-3.2752q0-0.33881-0.032268-0.55662-0.0242-0.22587-0.11294-0.35494-0.080668-0.12907-0.24201-0.17747-0.16134-0.056468-0.41948-0.072602v-0.30654h2.4523v0.30654q-0.25814 0.00806-0.41948 0.064535-0.15327 0.05647-0.24201 0.19361-0.08067 0.12907-0.11294 0.36301-0.0242 0.23394-0.0242 0.59695z" style="fill:#fff;stroke-width:.20167"/>
</svg>
