<svg id="svg5" width="36" height="36" version="1.1" viewBox="0 0 36 36" xmlns="http://www.w3.org/2000/svg">
 <style id="style2351" type="text/css">.st0{fill:none;stroke:#4F4F77;stroke-linejoin:round;stroke-miterlimit:10;}</style>
 <style id="style1103" type="text/css">.st0{fill:none;stroke:#4F4F77;stroke-linejoin:round;stroke-miterlimit:10;}</style>
 <style id="style14856" type="text/css">.st0{fill:none;stroke:#4F4F77;stroke-linejoin:round;stroke-miterlimit:10;}</style>
 <path id="circle14858" d="m18.105-2.0577e-6a1.0526 1.0526 0 0 0-1.0509 1.0529v1.4737a1.0526 1.0526 0 0 0 1.0509 1.0529 1.0526 1.0526 0 0 0 1.0529-1.0529v-1.4737a1.0526 1.0526 0 0 0-1.0529-1.0529zm-10.419 4.3153a1.0526 1.0526 0 0 0-0.7458 0.30909 1.0526 1.0526 0 0 0 0 1.4876l1.0529 1.0529a1.0526 1.0526 0 0 0 1.4896 0 1.0526 1.0526 0 0 0 0-1.4876l-1.0529-1.0529a1.0526 1.0526 0 0 0-0.74381-0.30909zm10.316 0.10569c-6.266 0-11.369 5.1025-11.369 11.369 0 4.2833 2.3842 8.0229 5.8946 9.9607v3.3023a1.0527 1.0527 0 0 0 1.0509 1.0529h0.35097l-0.01396 1.9303a1.0527 1.0527 0 0 0 1.0449 1.0589l1.8825 0.01197v1.8406a1.0526 1.0526 0 0 0 1.0529 1.0529 1.0526 1.0526 0 0 0 1.0529-1.0529v-1.8246l1.9064 0.01197a1.0527 1.0527 0 0 0 1.0609-1.0449l0.01396-1.9842h0.49255a1.0527 1.0527 0 0 0 1.0509-1.0529v-3.3023c3.5099-1.9377 5.8946-5.6773 5.8946-9.9607 0-6.266-5.1005-11.369-11.367-11.369zm10.525 0a1.0526 1.0526 0 0 0-0.74381 0.30909l-1.0529 1.0509a1.0526 1.0526 0 0 0 0 1.4896 1.0526 1.0526 0 0 0 1.4896 0l1.0509-1.0529a1.0526 1.0526 0 0 0 0-1.4876 1.0526 1.0526 0 0 0-0.74381-0.30909zm-10.525 2.1058c5.1282 0 9.2627 4.1345 9.2627 9.2627 0 4.463-3.1318 8.1718-7.3244 9.0593l1.1825-5.0591h1.3002c1.3684 0 2.5246-1.1582 2.5246-2.5266s-1.1562-2.5266-2.5246-2.5266-2.4911 0.98872-2.8117 2.2713a1.0527 1.0527 0 0 0-4e-3 0.01596l-0.15355 0.66006h-2.9134l-0.14358-0.64809a1.0527 1.0527 0 0 0-6e-3 -0.02791c-0.32064-1.2826-1.4414-2.2713-2.8098-2.2713-1.3684 0-2.5266 1.1582-2.5266 2.5266s1.1582 2.5266 2.5266 2.5266h1.2683l1.1127 5.0352c-4.1416-0.9258-7.2247-4.6088-7.2247-9.0354 0-5.1282 4.1365-9.2627 9.2647-9.2627zm-14.737 8.1041a1.0526 1.0526 0 0 0-1.0529 1.0529 1.0526 1.0526 0 0 0 1.0529 1.0529h1.4737a1.0526 1.0526 0 0 0 1.0509-1.0529 1.0526 1.0526 0 0 0-1.0509-1.0529zm28 0.21138a1.0526 1.0526 0 0 0-1.0529 1.0529 1.0526 1.0526 0 0 0 1.0529 1.0509h1.4737a1.0526 1.0526 0 0 0 1.0509-1.0509 1.0526 1.0526 0 0 0-1.0509-1.0529zm-17.684 2.0001c0.31578 0 0.66734 0.27444 0.76774 0.67601l0.0359 0.16551h-0.80363c-0.31578 0-0.42276-0.10498-0.42276-0.42076 0-0.31578 0.10698-0.42076 0.42276-0.42076zm8.842 0c0.31578 0 0.42076 0.10498 0.42076 0.42076 0 0.31578-0.10498 0.42076-0.42076 0.42076h-0.80762l0.03788-0.16551c0.10039-0.40157 0.45395-0.67601 0.76973-0.67601zm-5.418 2.9473h1.9562l-1.005 4.3013zm-8.3714 4.3153a1.0526 1.0526 0 0 0-0.7458 0.30709l-1.0509 1.0529a1.0526 1.0526 0 0 0 0 1.4896 1.0526 1.0526 0 0 0 1.4876 0l1.0529-1.0529a1.0526 1.0526 0 0 0 0-1.4896 1.0526 1.0526 0 0 0-0.74381-0.30709zm18.643 0.10768a1.0526 1.0526 0 0 0-0.65208 0.3051 1.0526 1.0526 0 0 0 0 1.4896l1.0529 1.0529a1.0526 1.0526 0 0 0 1.4896 0 1.0526 1.0526 0 0 0 0-1.4896l-1.0529-1.0529a1.0526 1.0526 0 0 0-0.83754-0.3051zm-12.645 2.4348c1.0654 0.33161 2.1974 0.5105 3.3701 0.5105 1.172 0 2.3034-0.17925 3.3681-0.5105v1.352h-6.7382zm1.3999 3.5077 3.7908 0.02593-6e-3 0.83953-1.5594-0.01a1.0526 1.0526 0 0 0-0.36094-0.06381 1.0526 1.0526 0 0 0-0.33701 0.05982l-1.5335-0.01z" style="-inkscape-stroke:none;color:black;fill:#4f4f77;solid-color:black;stroke-linecap:round;stroke-linejoin:round;stroke-miterlimit:10;stroke-width:1.021"/>
</svg>
