<svg id="svg5" width="36" height="36" version="1.1" viewBox="0 0 36 36" xmlns="http://www.w3.org/2000/svg">
 <style id="style2351" type="text/css">.st0{fill:none;stroke:#4F4F77;stroke-linejoin:round;stroke-miterlimit:10;}</style>
 <style id="style1103" type="text/css">.st0{fill:none;stroke:#4F4F77;stroke-linejoin:round;stroke-miterlimit:10;}</style>
 <style id="style14856" type="text/css">.st0{fill:none;stroke:#4F4F77;stroke-linejoin:round;stroke-miterlimit:10;}</style>
 <style id="style15138" type="text/css">.st0{fill:none;stroke:#4F4F77;stroke-linejoin:round;stroke-miterlimit:10;}</style>
 <path id="path24758" d="m18 0c-9.9282 0-18 8.0718-18 18 1e-6 9.9282 8.0718 18 18 18 9.9282 0 18-8.0718 18-18 0-9.9282-8.0718-18-18-18zm0 2.1543c8.7641 0 15.846 7.0816 15.846 15.846 0 8.7641-7.0816 15.846-15.846 15.846-8.7641 0-15.848-7.0816-15.848-15.846 1e-6 -8.7641 7.0835-15.846 15.848-15.846zm0.38477 8.123c-1.3653 0-2.5256 0.2067-3.4785 0.61914-0.93866 0.41244-1.642 0.97444-2.1113 1.6855-0.46933 0.69689-0.70508 1.4781-0.70508 2.3457 0 0.99555 0.25753 1.7913 0.76953 2.3887 0.52622 0.59733 1.1516 1.0325 1.877 1.3027 0.72533 0.27022 1.6571 0.54032 2.7949 0.81055 0.73956 0.17067 1.3214 0.32653 1.748 0.46875 0.44089 0.14222 0.79618 0.33439 1.0664 0.57617 0.28444 0.22756 0.42773 0.51944 0.42774 0.875-1e-6 0.48356-0.23575 0.87516-0.70508 1.1738-0.46933 0.28444-1.1944 0.42578-2.1758 0.42578-0.88178 0-1.7628-0.14134-2.6445-0.42578-0.88178-0.28444-1.6432-0.66153-2.2832-1.1309l-1.1719 2.6016c0.66844 0.512 1.5494 0.93266 2.6445 1.2598 1.1093 0.31289 2.2532 0.46875 3.4336 0.46875 1.3653 0 2.5256-0.2067 3.4785-0.61914 0.95289-0.41244 1.6635-0.96718 2.1328-1.6641 0.48356-0.71111 0.72461-1.4924 0.72461-2.3457 0-0.99555-0.26284-1.786-0.78906-2.3691-0.512-0.58311-1.1301-1.0091-1.8555-1.2793-0.72533-0.27022-1.6571-0.54032-2.7949-0.81055-1.0951-0.24178-1.9127-0.48283-2.4531-0.72461-0.52622-0.256-0.78906-0.64034-0.78906-1.1523 0-0.512 0.22653-0.92539 0.68164-1.2383 0.46933-0.31289 1.1891-0.46875 2.1562-0.46875 1.3796 0 2.7591 0.39161 4.1387 1.1738l1.0664-2.625c-0.68266-0.42667-1.4804-0.75291-2.3906-0.98047-0.91022-0.22756-1.8401-0.3418-2.793-0.3418z" style="-inkscape-stroke:none;color:black;fill:#2c4b8f;solid-color:black;stroke-linecap:round;stroke-linejoin:round;stroke-miterlimit:10;stroke-width:.97902"/>
</svg>
