<svg xmlns="http://www.w3.org/2000/svg" viewBox="0 0 308.04 157.9"><defs><style>.cls-1{fill:#f5f5f5;}.cls-2{fill:#ed3f6b;}.cls-3{fill:#f0f0f0;}.cls-4{fill:#dfde43;}.cls-5{fill:#ef5a3f;}</style></defs><title>document-empty-state</title><g id="Capa_2" data-name="Capa 2"><g id="Capa_1-2" data-name="Capa 1"><path class="cls-1" d="M156.3,29.25c-11.06,7-23.88,2.83-36.17,3-10.61.15-34.28,12.9-31.55,43.86,2.82,31.95,23.7,59.58,56.26,65.85s35.4-15.74,54-17,42.88-23.24,40.72-55.24S214.14,10.45,185.5,15.63C170.78,18.29,164.82,23.86,156.3,29.25Z"/><path class="cls-2" d="M212.56,74.4h-18a8,8,0,0,1-8-8v-18h-39a8,8,0,0,0-8,8V141c1.43.37,2.88.71,4.36,1,32.57,6.27,35.39-15.74,54-17a34.6,34.6,0,0,0,14.63-4.71Z"/><path class="cls-2" d="M189.56,66.4a5,5,0,0,0,5,5h18v-.6a2.53,2.53,0,0,0-1-2.12L192.3,49.43a2.53,2.53,0,0,0-2.05-1h-.69Z"/><path class="cls-3" d="M64.82,2h-3a1,1,0,0,1,0-2h3a1,1,0,0,1,0,2Z"/><path class="cls-3" d="M92.56,92.21H86.38a1,1,0,0,1,0-2h6.18a1,1,0,0,1,0,2ZM74,92.21H67.85a1,1,0,0,1,0-2H74a1,1,0,0,1,0,2Zm-18.53,0H49.33a1,1,0,0,1,0-2H55.5a1,1,0,0,1,0,2ZM37,91.28a.65.65,0,0,1-.2,0,45.64,45.64,0,0,1-6.08-1.69,1,1,0,1,1,.67-1.89,43.12,43.12,0,0,0,5.81,1.62A1,1,0,0,1,38,90.49,1,1,0,0,1,37,91.28ZM20.17,84a1,1,0,0,1-.58-.18,47.73,47.73,0,0,1-4.89-4,1,1,0,0,1,1.37-1.47,43.73,43.73,0,0,0,4.68,3.81,1,1,0,0,1,.24,1.4A1,1,0,0,1,20.17,84ZM7.6,70.52A1,1,0,0,1,6.75,70a45.67,45.67,0,0,1-2.92-5.59,1,1,0,0,1,1.83-.81A44,44,0,0,0,8.45,69a1,1,0,0,1-.33,1.37A1,1,0,0,1,7.6,70.52ZM1.41,53.19a1,1,0,0,1-1-.86A46.35,46.35,0,0,1,0,46.1a1,1,0,0,1,1-1,1,1,0,0,1,1,1H1l1,0a45.73,45.73,0,0,0,.4,6,1,1,0,0,1-.85,1.12ZM2.7,34.85a1.26,1.26,0,0,1-.27,0,1,1,0,0,1-.69-1.24,45.13,45.13,0,0,1,2.14-5.93,1,1,0,0,1,1.83.8,42.72,42.72,0,0,0-2,5.68A1,1,0,0,1,2.7,34.85Zm8.55-16.29a1,1,0,0,1-.77-1.64,48,48,0,0,1,4.32-4.59,1,1,0,0,1,1.36,1.47A45.17,45.17,0,0,0,12,18.19,1,1,0,0,1,11.25,18.56ZM25.56,7a1,1,0,0,1-.89-.54A1,1,0,0,1,25.1,5.1a45,45,0,0,1,5.79-2.51,1,1,0,0,1,1.28.62,1,1,0,0,1-.62,1.27A45.13,45.13,0,0,0,26,6.87.91.91,0,0,1,25.56,7ZM43.29,2.09a1,1,0,0,1-.06-2C44.18,0,45.15,0,46.1,0h3.36a1,1,0,0,1,0,2H46.1c-.91,0-1.84,0-2.75.08Z"/><path class="cls-3" d="M108,92.21h-3a1,1,0,0,1,0-2h3a1,1,0,0,1,0,2Z"/><path class="cls-3" d="M243.23,67.69h3a1,1,0,0,0,0-2h-3a1,1,0,1,0,0,2Z"/><path class="cls-3" d="M214.48,156.9a1,1,0,0,1,1-1h6.18a1,1,0,0,1,0,2h-6.18A1,1,0,0,1,214.48,156.9Zm18.53,0a1,1,0,0,1,1-1h6.18a1,1,0,0,1,0,2H234A1,1,0,0,1,233,156.9Zm18.53,0a1,1,0,0,1,1-1h6.18a1,1,0,0,1,0,2h-6.18A1,1,0,0,1,251.54,156.9Zm18.49-.72a1,1,0,0,1,.77-1.19,43.12,43.12,0,0,0,5.81-1.62,1,1,0,1,1,.67,1.89,45.5,45.5,0,0,1-6.07,1.69.71.71,0,0,1-.2,0A1,1,0,0,1,270,156.18Zm17-7a1,1,0,0,1,.24-1.4A46.05,46.05,0,0,0,292,144a1,1,0,0,1,1.36,1.47,48,48,0,0,1-4.89,4,1,1,0,0,1-.58.18A1,1,0,0,1,287.06,149.22Zm12.86-13.16a1,1,0,0,1-.33-1.37,44,44,0,0,0,2.79-5.36,1,1,0,0,1,1.32-.51,1,1,0,0,1,.52,1.31,46.48,46.48,0,0,1-2.92,5.6,1,1,0,0,1-.86.48A1,1,0,0,1,299.92,136.06Zm6.58-17.19a1,1,0,0,1-.86-1.12,44.06,44.06,0,0,0,.4-6l1,0h-1a1,1,0,0,1,1-1,1,1,0,0,1,1,1,46.35,46.35,0,0,1-.42,6.23,1,1,0,0,1-1,.86Zm-2.12-19.06a44.23,44.23,0,0,0-2.05-5.68,1,1,0,0,1,.51-1.32,1,1,0,0,1,1.32.52,44.61,44.61,0,0,1,2.14,5.93,1,1,0,0,1-.69,1.24,1.24,1.24,0,0,1-.27,0A1,1,0,0,1,304.38,99.81ZM296,83.88a42.92,42.92,0,0,0-4.14-4.39,1,1,0,0,1-.05-1.42,1,1,0,0,1,1.41,0,46.93,46.93,0,0,1,4.33,4.59,1,1,0,0,1-.14,1.41,1,1,0,0,1-.64.23A1,1,0,0,1,296,83.88ZM282,72.56a45.13,45.13,0,0,0-5.54-2.39,1,1,0,0,1-.61-1.28,1,1,0,0,1,1.27-.61,47.15,47.15,0,0,1,5.8,2.5,1,1,0,0,1,.43,1.35,1,1,0,0,1-.89.54A1,1,0,0,1,282,72.56Zm-17.34-4.79c-.91,0-1.83-.08-2.75-.08h-3.36a1,1,0,0,1,0-2h3.36q1.44,0,2.88.09a1,1,0,0,1-.06,2Z"/><path class="cls-3" d="M200,157.9h3a1,1,0,0,0,0-2h-3a1,1,0,0,0,0,2Z"/><path class="cls-4" d="M245.39,108.34a1,1,0,0,0,1-1v-2.2h2.23a1,1,0,0,0,0-2h-2.23V101a1,1,0,1,0-2,0v2.19h-2.23a1,1,0,0,0,0,2h2.23v2.2A1,1,0,0,0,245.39,108.34Z"/><path class="cls-4" d="M46,41.91a1,1,0,0,0,1-1v-2.2h2.23a1,1,0,0,0,0-2H47v-2.2a1,1,0,1,0-2,0v2.2H42.81a1,1,0,0,0,0,2H45v2.2A1,1,0,0,0,46,41.91Z"/><path class="cls-4" d="M237.57,100a1,1,0,0,0,1-1v-2.2h2.22a1,1,0,0,0,0-2h-2.22v-2.2a1,1,0,0,0-2,0v2.2h-2.23a1,1,0,0,0,0,2h2.23V99A1,1,0,0,0,237.57,100Z"/><path class="cls-5" d="M208.34,46.1a1,1,0,0,0,1-1V42.91h2.22a1,1,0,0,0,0-2h-2.22v-2.2a1,1,0,0,0-2,0v2.2h-2.23a1,1,0,0,0,0,2h2.23V45.1A1,1,0,0,0,208.34,46.1Z"/><path class="cls-4" d="M241.48,61.77a5.87,5.87,0,1,0-5.91-5.86A5.89,5.89,0,0,0,241.48,61.77Zm0-9.73a3.87,3.87,0,1,1-3.91,3.87A3.89,3.89,0,0,1,241.48,52Z"/><path class="cls-5" d="M105.87,110a5.87,5.87,0,1,0-5.91-5.87A5.89,5.89,0,0,0,105.87,110Zm0-9.73a3.87,3.87,0,1,1-3.91,3.86A3.89,3.89,0,0,1,105.87,100.28Z"/><path class="cls-4" d="M101.64,140.15a1,1,0,0,0,1-1V137h2.23a1,1,0,0,0,0-2h-2.23v-2.2a1,1,0,0,0-2,0V135H98.41a1,1,0,0,0,0,2h2.23v2.2A1,1,0,0,0,101.64,140.15Z"/><path class="cls-4" d="M99.86,87.44a1,1,0,0,0,1-1v-2.2h2.22a1,1,0,0,0,0-2h-2.22V80a1,1,0,0,0-2,0v2.2H96.63a1,1,0,0,0,0,2h2.23v2.2A1,1,0,0,0,99.86,87.44Z"/><path class="cls-4" d="M82.16,104.78l-2.43-1.33a13.54,13.54,0,0,1-5.35-5.34l-1.33-2.44a1,1,0,0,0-.87-.52,1,1,0,0,0-.88.52L70,98.11a13.41,13.41,0,0,1-5.35,5.34l-2.43,1.33a1,1,0,0,0-.52.88,1,1,0,0,0,.52.87l2.44,1.34A13.39,13.39,0,0,1,70,113.21l1.33,2.43a1,1,0,0,0,.88.52,1,1,0,0,0,.87-.52l1.33-2.43a13.41,13.41,0,0,1,5.35-5.34l2.43-1.34a1,1,0,0,0,.52-.87A1,1,0,0,0,82.16,104.78Zm-3.39,1.33a15.37,15.37,0,0,0-6.14,6.14l-.45.83-.46-.83a15.41,15.41,0,0,0-6.13-6.14l-.83-.45.82-.46a15.41,15.41,0,0,0,6.14-6.13l.46-.83.45.82a15.37,15.37,0,0,0,6.14,6.14l.83.46Z"/></g></g></svg>