<?xml version="1.0" encoding="UTF-8" standalone="no"?>
<svg
   xmlns:dc="http://purl.org/dc/elements/1.1/"
   xmlns:cc="http://creativecommons.org/ns#"
   xmlns:rdf="http://www.w3.org/1999/02/22-rdf-syntax-ns#"
   xmlns:svg="http://www.w3.org/2000/svg"
   xmlns="http://www.w3.org/2000/svg"
   xmlns:sodipodi="http://sodipodi.sourceforge.net/DTD/sodipodi-0.dtd"
   xmlns:inkscape="http://www.inkscape.org/namespaces/inkscape"
   id="icon"
   version="1.1"
   viewBox="0 0 24.11 24"
   sodipodi:docname="ajustes.svg"
   inkscape:version="0.92.3 (2405546, 2018-03-11)">
  <metadata
     id="metadata15">
    <rdf:RDF>
      <cc:Work
         rdf:about="">
        <dc:format>image/svg+xml</dc:format>
        <dc:type
           rdf:resource="http://purl.org/dc/dcmitype/StillImage" />
        <dc:title>icons</dc:title>
      </cc:Work>
    </rdf:RDF>
  </metadata>
  <sodipodi:namedview
     pagecolor="#ffffff"
     bordercolor="#666666"
     borderopacity="1"
     objecttolerance="10"
     gridtolerance="10"
     guidetolerance="10"
     inkscape:pageopacity="0"
     inkscape:pageshadow="2"
     inkscape:window-width="1920"
     inkscape:window-height="1030"
     id="namedview13"
     showgrid="false"
     inkscape:zoom="13.906433"
     inkscape:cx="-24.758559"
     inkscape:cy="12"
     inkscape:window-x="0"
     inkscape:window-y="24"
     inkscape:window-maximized="1"
     inkscape:current-layer="icon" />
  <defs
     id="defs4">
    <style
       id="style2">.cls-1{fill:#fff;}.cls-2{fill:#081A2B;}.cls-3{fill:#ebbd41;}</style>
  </defs>
  <title
     id="title6">icons</title>
  <path
     style="fill:#4e4f77;fill-opacity:1;stroke-width:0.04130662"
     d="m 11.244141,1.2714844 c -0.902848,0 -1.6406254,0.7377772 -1.6406254,1.640625 V 3.4667969 C 8.9413995,3.6568265 8.307548,3.9220661 7.7089844,4.2597656 L 7.3242188,3.875 C 7.0154814,3.5663083 6.5998081,3.3945312 6.1621094,3.3945312 5.7241025,3.3945312 5.3111902,3.5668524 5.0039062,3.875 L 3.8984375,4.9785156 c -0.63848,0.6384345 -0.6384674,1.6817996 0,2.3203125 L 4.2949219,7.6972656 C 3.9641155,8.2940567 3.705492,8.9236772 3.5214844,9.578125 H 2.9667969 c -0.902885,0 -1.640625,0.737783 -1.640625,1.640625 v 1.5625 c 0,0.902842 0.73774,1.640625 1.640625,1.640625 h 0.5585937 c 0.1874347,0.660524 0.4520518,1.293648 0.7871094,1.892578 l -0.3925781,0.392578 c -0.6377058,0.637707 -0.637665,1.680828 0,2.320313 l 1.1035156,1.103515 c 0.3081555,0.308202 0.7225623,0.478516 1.1601563,0.478516 0.4375832,0 0.8519636,-0.170278 1.1601562,-0.478516 l 0.3925781,-0.392578 c 0.6010964,0.336171 1.235221,0.60169 1.8964844,0.789063 v 0.560547 c 0,0.903441 0.7378595,1.640625 1.6406255,1.640625 h 1.5625 c 0.902764,0 1.640624,-0.737184 1.640624,-1.640625 v -0.560547 c 0.663768,-0.187623 1.300194,-0.452361 1.902344,-0.789063 l 0.392578,0.392578 c 0.308192,0.308192 0.722849,0.478516 1.160157,0.478516 0.437254,0 0.851996,-0.170402 1.160156,-0.478516 l 1.105469,-1.103515 c 0.637252,-0.639119 0.637723,-1.682589 0,-2.320313 l -0.392578,-0.392578 c 0.33577,-0.600459 0.599813,-1.233231 0.787109,-1.892578 h 0.550781 c 0.903479,0 1.640625,-0.737865 1.640625,-1.640625 v -1.5625 c 9e-5,-0.902742 -0.737142,-1.640625 -1.640625,-1.640625 H 20.595703 C 20.407823,8.9121568 20.142205,8.273734 19.804688,7.6699219 l 0.392578,-0.3925781 c 0.637688,-0.6376879 0.637767,-1.6806795 0,-2.3203126 L 19.091797,3.8535156 C 18.783557,3.5452759 18.368863,3.375 17.931641,3.375 c -0.43736,0 -0.85218,0.1704943 -1.160157,0.4785156 L 16.378906,4.2460938 C 15.766484,3.903615 15.119361,3.6353767 14.445312,3.4472656 V 2.9121094 c 0,-0.9026086 -0.735861,-1.640625 -1.638671,-1.640625 z m 0,1.140625 h 1.5625 c 0.276031,0 0.498047,0.2233327 0.498047,0.5 v 0.9726562 c 0,0.2664539 0.187579,0.4986634 0.447265,0.5566406 0.858547,0.1917332 1.671843,0.5274693 2.419922,0.9980469 0.223955,0.1409767 0.519198,0.1094257 0.707031,-0.078125 l 0.701172,-0.7011719 c 0.09382,-0.093821 0.215797,-0.1445312 0.351563,-0.1445312 0.134617,0 0.256984,0.051905 0.351562,0.1464844 l 1.105469,1.1035156 c 0.195715,0.1962543 0.195236,0.5098423 0,0.7050781 l -0.699219,0.6992188 c -0.18779,0.1878469 -0.219067,0.4831149 -0.07813,0.7070312 0.465193,0.7393032 0.798877,1.5459581 0.992188,2.3984379 0.05879,0.258958 0.291177,0.445312 0.55664,0.445312 h 0.982422 c 0.277492,0 0.5,0.221776 0.5,0.498047 v 1.5625 c 0,0.276272 -0.222507,0.498047 -0.5,0.498047 H 20.15625 c -0.265463,0 -0.497613,0.1847 -0.556641,0.443359 -0.192583,0.843911 -0.526311,1.646582 -0.990234,2.384766 -0.141139,0.224648 -0.107149,0.519698 0.08008,0.707031 l 0.699219,0.699219 c 0.195065,0.195066 0.194973,0.509534 0,0.705078 l -1.105469,1.105469 c -0.09388,0.09384 -0.215846,0.144531 -0.351562,0.144531 -0.134742,0 -0.256777,-0.05176 -0.351563,-0.146484 l -0.701172,-0.699219 c -0.187944,-0.187606 -0.48318,-0.219162 -0.707031,-0.07813 -0.7376,0.464453 -1.542285,0.796995 -2.392578,0.990234 -0.258906,0.05886 -0.445313,0.291213 -0.445313,0.556641 v 0.996094 c 0,0.277504 -0.221724,0.5 -0.498046,0.5 h -1.5625 c -0.276312,0 -0.498047,-0.222548 -0.498047,-0.5 v -0.996094 c 0,-0.265472 -0.186532,-0.497723 -0.445313,-0.556641 -0.8468014,-0.192698 -1.6485464,-0.525828 -2.3867186,-0.990234 -0.093473,-0.05885 -0.1995303,-0.08789 -0.3046875,-0.08789 -0.1463959,0 -0.2929651,0.05658 -0.4023438,0.166016 l -0.7011719,0.701172 c -0.093997,0.09397 -0.2153415,0.144531 -0.3515624,0.144531 -0.1361485,0 -0.2576293,-0.05063 -0.3515626,-0.144531 L 4.7265625,18.21875 c -0.1957399,-0.196311 -0.1952619,-0.509784 0,-0.705078 l 0.6992187,-0.699219 c 0.1873095,-0.187309 0.221694,-0.48234 0.080078,-0.707031 C 5.0429509,15.372634 4.7089206,14.569626 4.515625,13.722656 4.4568118,13.464993 4.2263961,13.279297 3.9609375,13.279297 H 2.9667969 c -0.2766908,0 -0.4980469,-0.221356 -0.4980469,-0.498047 v -1.5625 c 0,-0.27664 0.2213678,-0.498047 0.4980469,-0.498047 h 0.9902343 c 0.2654602,0 0.4981203,-0.186032 0.5566407,-0.445312 C 4.703072,9.4351771 5.0316318,8.6370313 5.4902344,7.9023438 5.6303552,7.677812 5.5974823,7.3826384 5.4101562,7.1953125 L 4.7050781,6.4921875 c -0.195582,-0.195582 -0.1954255,-0.5096526 0,-0.7050781 L 5.8105469,4.6816406 c 0.09361,-0.093863 0.2158289,-0.1445312 0.3515625,-0.1445312 0.1349874,0 0.2590195,0.051988 0.3535156,0.1464844 L 7.2109375,5.3769531 C 7.3992497,5.5653217 7.6953524,5.5959099 7.9199219,5.453125 8.6525473,4.9874242 9.4554279,4.6540927 10.304688,4.4570312 10.562636,4.3972008 10.746094,4.164821 10.746094,3.9003906 V 2.9121094 c 0,-0.2766906 0.221913,-0.5 0.498047,-0.5 z M 9.0898438,6.296875 c -1.5010927,0 -2.7246093,1.2248997 -2.7246094,2.7265625 0,0.2822091 0.05079,0.5507204 0.1308594,0.8066406 -0.7142665,0.6969839 -1.125,1.6389869 -1.125,2.6484379 v 1.224609 c 0,0.858334 0.7009362,1.558594 1.5585937,1.558594 h 0.9863281 v 0.75 c 0,0.931082 0.7588111,1.691406 1.6894532,1.691406 h 0.5468752 c 0.312966,0 0.572267,-0.256475 0.572265,-0.570313 0,-0.313835 -0.259299,-0.570312 -0.572265,-0.570312 H 9.6054688 c -0.3040918,0 -0.5488282,-0.245584 -0.5488282,-0.550781 v -1.320313 -0.06445 c 0,-0.729237 0.2703866,-1.410028 0.7402344,-1.951172 0.552528,0.633061 1.353835,1.046875 2.257813,1.046875 0.903975,0 1.705284,-0.413813 2.257812,-1.046875 0.469846,0.541147 0.740234,1.221975 0.740234,1.951172 v 0.06445 1.320313 c 0,0.304856 -0.245886,0.550781 -0.550781,0.550781 h -0.541015 c -0.31294,0 -0.570313,0.257328 -0.570313,0.570312 0,0.312984 0.257371,0.570313 0.570313,0.570313 h 0.541015 c 0.931238,0 1.693359,-0.759932 1.693359,-1.691406 v -0.75 h 0.984376 c 0.858284,0 1.560546,-0.700094 1.560546,-1.558594 v -1.224609 c -4.4e-5,-1.008579 -0.410639,-1.949313 -1.125,-2.6464848 0.08024,-0.2564811 0.13086,-0.5261352 0.13086,-0.8085937 0,-1.5017533 -1.22481,-2.7265625 -2.726563,-2.7265625 -1.02098,0 -1.933156,0.5844354 -2.398437,1.4628906 -0.184358,-0.035322 -0.372333,-0.064453 -0.566406,-0.064453 -0.1941,0 -0.380663,0.029155 -0.564454,0.064453 C 11.025485,6.8810419 10.111899,6.296875 9.0898438,6.296875 Z m 0,1.140625 c 0.5564342,0 1.0541382,0.3016892 1.3378902,0.7578125 C 9.6301152,8.7142662 9.0935977,9.5906784 9.0566406,10.601562 8.1980071,10.582926 7.5058594,9.8871707 7.5058594,9.0234375 7.5058594,8.1479815 8.2152444,7.4375 9.0898438,7.4375 Z m 5.9296872,0 c 0.875318,0 1.583986,0.7104113 1.583985,1.5859375 0,0.8638031 -0.691477,1.5594905 -1.550782,1.5781245 C 15.015793,9.5905462 14.479467,8.7142641 13.681641,8.1953125 13.966046,7.7392427 14.464206,7.4375 15.019531,7.4375 Z m -2.964843,1.3984375 c 1.033712,0 1.873046,0.8393329 1.873046,1.8730465 0,1.033716 -0.839153,1.871094 -1.873046,1.871094 -1.033897,0 -1.871094,-0.837198 -1.871094,-1.871094 0,-1.0338932 0.837377,-1.8730465 1.871094,-1.8730465 z M 7.0996094,10.859375 C 7.5976451,11.399074 8.2998658,11.75 9.0898438,11.75 c 0.00524,0 0.010382,3.2e-5 0.015625,0 -0.6347799,0.649181 -1.0365798,1.472708 -1.1464844,2.371094 H 6.9296875 c -0.2313238,0 -0.4179688,-0.186023 -0.4179687,-0.417969 v -1.224609 c 0,-0.602377 0.2144025,-1.163934 0.5878906,-1.619141 z m 9.9101566,0 c 0.373688,0.455412 0.58789,1.017313 0.58789,1.619141 v 1.224609 c 0,0.232147 -0.185862,0.417969 -0.417968,0.417969 H 16.152344 C 16.042248,13.223166 15.640392,12.399069 15.005859,11.75 c 0.0046,2.5e-5 0.0091,0 0.01367,0 0.79015,0 1.492103,-0.351157 1.990235,-0.890625 z M 12.054688,16.5625 c -0.312967,0 -0.570313,0.257347 -0.570313,0.570312 0,0.313837 0.259299,0.570313 0.572266,0.570313 0.312965,0 0.570312,-0.257346 0.570312,-0.570313 -5.7e-5,-0.312931 -0.257347,-0.570312 -0.570312,-0.570312 z"
     id="path3805" />
</svg>
