<svg id="icon" version="1.1" viewBox="0 0 24.11 24" xmlns="http://www.w3.org/2000/svg">
 <defs>
  <style>.cls-1{fill:#fff;}.cls-2{fill:#081A2B;}.cls-3{fill:#ebbd41;}</style>
 </defs>
 <title>icons</title>
 <g transform="matrix(1.6788 0 0 1.6788 1.0342 -475.35)" style="fill:#808080">
  <path d="m4.1684 285.6c-0.38023 0-0.69157 0.31134-0.69157 0.69157v4.3632c0 0.38023 0.31133 0.69162 0.69157 0.69162h1.8484l1.5934 1.5934a0.1462 0.1462 0 0 0 0.20672 0l1.5934-1.5934h1.8484c0.38024 0 0.69157-0.31139 0.69157-0.69162v-4.3632c0-0.38023-0.31134-0.69157-0.69157-0.69157zm0.14619 0.83774h6.7979v4.0708h-1.9887a0.1462 0.1462 0 0 0-0.10336 0.0429l-1.3069 1.3069-1.3069-1.3069a0.1462 0.1462 0 0 0-0.10336-0.0429h-1.9887zm-2.8732 1.8893c-0.38023 0-0.69157 0.31134-0.69157 0.69157v4.3632c0 0.38023 0.31133 0.6916 0.69157 0.6916h1.8484l1.5934 1.5934a0.1462 0.1462 0 0 0 0.20672 0l1.5934-1.5934h1.8484c0.38024 0 0.69157-0.31137 0.69157-0.6916v-1.1377a0.1462 0.1462 0 0 0-0.24954-0.10336l-0.54539 0.5454a0.1462 0.1462 0 0 0-0.042817 0.10336v0.44611h-1.9887a0.1462 0.1462 0 0 0-0.10336 0.0429l-1.3069 1.3069-1.3069-1.3069a0.1462 0.1462 0 0 0-0.10336-0.0429h-1.9887v-4.0708h1.49a0.1462 0.1462 0 0 0 0.14617-0.14622v-0.54539a0.1462 0.1462 0 0 0-0.14617-0.14623z" style="fill:#808080;stroke-width:.021305"/>
 </g>
 <circle class="cls-2" cx="18.05" cy="6.04" r="4" style="fill:#00ff00"/>
</svg>
