<svg id="icon" xmlns="http://www.w3.org/2000/svg" viewBox="0 0 24 24"><defs><style>.cls-1{fill:#ce426a;}</style></defs><title>icons</title><circle class="cls-1" cx="15" cy="9" r="1"/><path class="cls-1" d="M11,8H7a1,1,0,0,0,0,2h4a1,1,0,0,0,0-2Z"/><path class="cls-1" d="M20,3H4A2,2,0,0,0,2,5v9a2,2,0,0,0,2,2h7v5a1,1,0,0,0,1.74.65l0,0,2.83-2.83h0l1-1h0l1-1h0l.79-.79H20a2,2,0,0,0,2-2V5A2,2,0,0,0,20,3Zm0,4v7H18a1,1,0,0,0-.75.35l-.05,0-1,1-.62.62-.38.38-.83.83-.17.17-.83.83-.37.38V15a1,1,0,0,0-1-1H4V5H20Z"/></svg>