<svg id="icon" xmlns="http://www.w3.org/2000/svg" viewBox="0 0 24.11 24"><defs><style>.cls-1{fill:#fff;}</style></defs><path class="cls-1" d="M16.57,7.29h-9a.48.48,0,0,0-.48.48v5.8a.47.47,0,0,0,.48.48H12v2.14a.6.6,0,0,0,.35.48s.13,0,.18,0a.66.66,0,0,0,.39-.17L15,14.1h1.61a.49.49,0,0,0,.48-.48V7.81a.5.5,0,0,0-.47-.52Zm-.52,5.81H14.7a.61.61,0,0,0-.39.17L13,14.84V13.57a.49.49,0,0,0-.44-.52H8.06V8.29h8ZM9.36,10.58a.5.5,0,0,1,.48-.48h1.61a.48.48,0,0,1,0,1H9.84a.42.42,0,0,1-.47-.38.17.17,0,0,1,0-.1Zm3.48.39a.51.51,0,1,1,.35.14.56.56,0,0,1-.35-.13Z"/><path class="cls-1" d="M16.11,4.55h0a.58.58,0,0,1,.59.59h0a.59.59,0,0,1-.59.6h0a.6.6,0,0,1-.6-.6h0A.59.59,0,0,1,16.11,4.55Z"/><path class="cls-1" d="M16.11,2.17h0a.58.58,0,0,1,.59.59v.6a.59.59,0,0,1-.59.59h0a.6.6,0,0,1-.6-.59v-.6A.59.59,0,0,1,16.11,2.17Z"/><path class="cls-1" d="M20.57,8.41h0A.6.6,0,0,1,20,9h-.59a.6.6,0,0,1-.6-.6h0a.59.59,0,0,1,.6-.59H20A.59.59,0,0,1,20.57,8.41Z"/><path class="cls-1" d="M18.87,5.65h0a.6.6,0,0,1,0,.84l-.42.42a.6.6,0,0,1-.84,0h0a.6.6,0,0,1,0-.84L18,5.65A.6.6,0,0,1,18.87,5.65Z"/><path class="cls-1" d="M20.24,4.28h0a.61.61,0,0,1,0,.85h0a.61.61,0,0,1-.85,0h0a.61.61,0,0,1,0-.85h0A.61.61,0,0,1,20.24,4.28Z"/></svg>