<?xml version="1.0" encoding="utf-8"?>
<!-- Generator: Adobe Illustrator 23.1.0, SVG Export Plug-In . SVG Version: 6.00 Build 0)  -->
<svg version="1.1" id="Capa_1" xmlns="http://www.w3.org/2000/svg" xmlns:xlink="http://www.w3.org/1999/xlink" x="0px" y="0px"
	 viewBox="0 0 70.9 70.5" style="enable-background:new 0 0 70.9 70.5;" xml:space="preserve">
<style type="text/css">
	.st0{fill:#FFFFFF;}
	.st1{fill:#4F4F77;}
</style>
<g>
	<circle class="st0" cx="35.5" cy="35.3" r="34.3"/>
	<path class="st1" d="M29.8,43.5c0,0-4.2-1.4-4.2-8.4c-2.3,0-2.3-5.6,0-5.6c0-0.9-4.2-11.3,2.8-9.9c1.4-5.6,16.9-5.6,18.3,0
		c1,3.9-1.4,9.2-1.4,9.9c2.3,0,2.3,5.6,0,5.6c0,7-4.2,8.4-4.2,8.4v7c7,2.6,13.9,4.8,17.4,7.2c5.8-5.8,9.3-13.9,9.3-22.7
		c0-17.9-14.5-32.4-32.4-32.4S3.1,17.2,3.1,35.1c0,8.9,3.6,16.9,9.4,22.8c3.7-2.6,11.1-4.9,17.4-7.3V43.5z"/>
</g>
</svg>
