<svg id="icon" xmlns="http://www.w3.org/2000/svg" viewBox="0 0 24.11 24"><defs><style>.cls-1{fill:#fff;}</style></defs><path class="cls-1" d="M16.09,7.1H8A1.15,1.15,0,0,0,6.87,8.25v7.5A1.15,1.15,0,0,0,8,16.9h8.07a1.16,1.16,0,0,0,1.15-1.15V8.25A1.16,1.16,0,0,0,16.09,7.1Zm0,8.65H8V8.25h8.07Z"/><path class="cls-1" d="M9.17,14.59h2.88a.57.57,0,0,0,.58-.57.58.58,0,0,0-.58-.58H9.17A.57.57,0,0,0,8.6,14,.56.56,0,0,0,9.17,14.59Z"/><path class="cls-1" d="M13.78,11.14h1.16a.58.58,0,0,0,0-1.16H13.78a.58.58,0,0,0,0,1.16Z"/><path class="cls-1" d="M13.78,12.86h1.16a.57.57,0,0,0,.57-.57.58.58,0,0,0-.57-.58H13.78a.57.57,0,0,0-.57.58A.56.56,0,0,0,13.78,12.86Z"/><path class="cls-1" d="M13.78,14.59h1.16a.57.57,0,0,0,.57-.57.58.58,0,0,0-.57-.58H13.78a.57.57,0,0,0-.57.58A.56.56,0,0,0,13.78,14.59Z"/><path class="cls-1" d="M9.17,12.86h2.88a.57.57,0,0,0,.58-.57V10a.57.57,0,0,0-.58-.57H9.17A.56.56,0,0,0,8.6,10v2.31A.56.56,0,0,0,9.17,12.86Zm.58-2.3h1.73v1.15H9.75Z"/></svg>