<?xml version="1.0" encoding="utf-8"?>
<!-- Generator: Adobe Illustrator 23.0.0, SVG Export Plug-In . SVG Version: 6.00 Build 0)  -->
<svg version="1.1" id="Capa_1" xmlns="http://www.w3.org/2000/svg" xmlns:xlink="http://www.w3.org/1999/xlink" x="0px" y="0px"
	 viewBox="0 0 14 17" style="enable-background:new 0 0 14 17;" xml:space="preserve">
<style type="text/css">
	.st0{opacity:0.75;}
	.st1{fill:#FFFFFF;}
</style>
<g class="st0">
	<path class="st1" d="M11.4,6.8v7.8H2.7V2.4h5.2v2.1c0,0.7,0.6,1.3,1.3,1.3c0,0,0,0,0,0h3.9V5.4c0-0.3-0.1-0.5-0.3-0.7L8.4,1.1
		C8.1,0.8,7.7,0.7,7.3,0.7H2.7c-1,0-1.7,0.8-1.7,1.7v12.1c0,1,0.8,1.7,1.7,1.7h8.6c1,0,1.7-0.8,1.7-1.7V6.8H11.4z"/>
	<path class="st1" d="M4.5,8.5h5.2c0.5,0,0.9,0.4,0.9,0.9v0l0,0c0,0.5-0.4,0.9-0.9,0.9h0H4.5c-0.5,0-0.9-0.4-0.9-0.9v0l0,0
		C3.6,8.9,4,8.5,4.5,8.5L4.5,8.5z"/>
	<path class="st1" d="M4.5,11.1h1.7c0.5,0,0.9,0.4,0.9,0.9v0l0,0c0,0.5-0.4,0.9-0.9,0.9h0H4.5c-0.5,0-0.9-0.4-0.9-0.9v0l0,0
		C3.6,11.5,4,11.1,4.5,11.1L4.5,11.1z"/>
</g>
</svg>
