<svg id="icon" xmlns="http://www.w3.org/2000/svg" viewBox="0 0 24.11 24"><defs><style>.cls-1{fill:#fff;}</style></defs><path class="cls-1" d="M10.73,7.7v2.65a.62.62,0,0,1-.58.66h-.08a.63.63,0,0,1-.66-.59V7.7A.63.63,0,0,1,10,7h.07a.62.62,0,0,1,.66.59Z"/><path class="cls-1" d="M14.7,7.7v2.65a.63.63,0,0,1-.59.66H14a.62.62,0,0,1-.66-.59.09.09,0,0,1,0-.07V7.7A.62.62,0,0,1,14,7H14a.63.63,0,0,1,.66.59Z"/><path class="cls-1" d="M16,8.36H8.09A1.33,1.33,0,0,0,6.77,9.69v6A1.32,1.32,0,0,0,8.09,17H16a1.32,1.32,0,0,0,1.32-1.32v-6A1.33,1.33,0,0,0,16,8.36Zm0,4v3.31H8.09v-6H16Z"/><circle class="cls-1" cx="18.05" cy="7.04" r="1"/></svg>