<?xml version="1.0" encoding="utf-8"?>
<!-- Generator: Adobe Illustrator 23.1.0, SVG Export Plug-In . SVG Version: 6.00 Build 0)  -->
<svg version="1.1" id="Capa_1" xmlns="http://www.w3.org/2000/svg" xmlns:xlink="http://www.w3.org/1999/xlink" x="0px" y="0px"
	 viewBox="0 0 32 32" style="enable-background:new 0 0 32 32;" xml:space="preserve">
<style type="text/css">
	.st0{fill-rule:evenodd;clip-rule:evenodd;fill:#4F4F77;}
</style>
<title>send</title>
<path class="st0" d="M4.5,26.3l23.3-9.9c0.3-0.2,0.3-0.6,0-0.7L4.5,5.7C4.3,5.6,4,5.8,4,6.1l0.5,7.5c0.1,0.2,0.2,0.3,0.3,0.3
	l9.6,1.8c0.2,0,0.3,0.2,0.2,0.4c0,0.1-0.1,0.2-0.2,0.2l-9.6,1.7c-0.2,0.1-0.3,0.2-0.3,0.3L4,26c0,0.2,0.2,0.3,0.4,0.3
	C4.4,26.3,4.5,26.3,4.5,26.3z"/>
</svg>
