<svg id="icon" xmlns="http://www.w3.org/2000/svg" viewBox="0 0 24.11 24"><defs><style>.cls-1{fill:#fff;}</style></defs><path class="cls-1" d="M10.94,7.55V9.78a.52.52,0,0,1-.49.55h-.06a.53.53,0,0,1-.56-.49V7.55A.51.51,0,0,1,10.32,7h.07a.52.52,0,0,1,.55.49Z"/><path class="cls-1" d="M14.28,7.55V9.78a.52.52,0,0,1-.49.55h-.07a.51.51,0,0,1-.55-.49.06.06,0,0,1,0-.06V7.55A.51.51,0,0,1,13.66,7h.06a.53.53,0,0,1,.56.49Z"/><path class="cls-1" d="M15.39,8.11H8.72A1.11,1.11,0,0,0,7.61,9.22v6.67A1.12,1.12,0,0,0,8.72,17h6.67a1.12,1.12,0,0,0,1.11-1.12V9.22A1.11,1.11,0,0,0,15.39,8.11Zm0,3.33v4.45H8.72V9.22h6.67Z"/><path class="cls-1" d="M11.78,15.78v-.56h-.56a.55.55,0,0,1-.56-.55.56.56,0,0,1,.56-.56h1.11v1.67Zm.55-2.22h-.55V12.44h.55a1.42,1.42,0,0,1,0,2.78Zm-1.67-1.39a1.41,1.41,0,0,1,1.12-1.39v-.56h.55v1.67h-.55v1.67A1.43,1.43,0,0,1,10.66,12.17Zm1.67-.28V10.78h.56a.55.55,0,0,1,.55.55.56.56,0,0,1-.55.56Z"/><path class="cls-1" d="M14.86,5h0a.59.59,0,0,1,.59.6h0a.58.58,0,0,1-.59.59h0a.59.59,0,0,1-.6-.59h0A.6.6,0,0,1,14.86,5Z"/><path class="cls-1" d="M14.86,2.62h0a.59.59,0,0,1,.59.6v.59a.59.59,0,0,1-.59.6h0a.6.6,0,0,1-.6-.6V3.22A.6.6,0,0,1,14.86,2.62Z"/><path class="cls-1" d="M19.32,8.87h0a.6.6,0,0,1-.6.6h-.59a.6.6,0,0,1-.6-.6h0a.59.59,0,0,1,.6-.59h.59A.59.59,0,0,1,19.32,8.87Z"/><path class="cls-1" d="M17.62,6.11h0a.6.6,0,0,1,0,.84l-.42.42a.6.6,0,0,1-.84,0h0a.6.6,0,0,1,0-.84l.42-.42A.58.58,0,0,1,17.62,6.11Z"/><path class="cls-1" d="M19,4.74h0a.6.6,0,0,1,0,.84h0a.59.59,0,0,1-.85,0h0a.6.6,0,0,1,0-.84h0A.61.61,0,0,1,19,4.74Z"/></svg>