<?xml version="1.0" encoding="utf-8"?>
<!-- Generator: Adobe Illustrator 23.0.0, SVG Export Plug-In . SVG Version: 6.00 Build 0)  -->
<svg version="1.1" id="Capa_1" xmlns="http://www.w3.org/2000/svg" xmlns:xlink="http://www.w3.org/1999/xlink" x="0px" y="0px"
	 viewBox="0 0 164.6 17.8" style="enable-background:new 0 0 164.6 17.8;" xml:space="preserve">
<style type="text/css">
	.st0{fill:#F2F2F2;}
	.st1{fill:#F4F4F4;}
	.st2{fill:#7A91DB;}
	.st3{fill:#FAFAFA;}
	.st4{opacity:4.000000e-02;}
	.st5{fill:url(#SVGID_1_);}
	.st6{opacity:0.8;}
	.st7{fill:url(#SVGID_2_);}
	.st8{fill:url(#SVGID_3_);}
	.st9{fill:url(#SVGID_4_);}
	.st10{fill:#00263A;}
	.st11{fill:#FFFFFF;}
	.st12{fill:#081A2B;}
	.st13{fill:#172A3C;}
	.st14{fill:#808080;}
	.st15{fill:url(#SVGID_5_);}
	.st16{fill:url(#SVGID_6_);}
	.st17{fill:url(#SVGID_7_);}
	.st18{fill:url(#SVGID_8_);}
	.st19{fill:#4D4D4D;}
	.st20{fill:url(#SVGID_17_);}
	.st21{fill:url(#SVGID_18_);}
	.st22{fill:#E6E6E6;}
	.st23{fill:url(#SVGID_21_);}
	.st24{fill:url(#SVGID_22_);}
	.st25{fill:#666666;}
	.st26{fill:#CE4169;}
	.st27{fill:#999999;}
	.st28{fill:url(#SVGID_25_);}
	.st29{fill:url(#SVGID_26_);}
	.st30{fill:none;}
	.st31{fill:url(#SVGID_27_);}
	.st32{fill:url(#SVGID_28_);}
	.st33{fill:none;stroke:#CE4169;stroke-miterlimit:10;}
	.st34{fill:none;stroke:#FFFFFF;stroke-miterlimit:10;}
	.st35{fill:none;stroke:#CCCCCC;stroke-miterlimit:10;}
	.st36{fill:url(#SVGID_29_);}
	.st37{fill:url(#SVGID_30_);}
	.st38{fill:url(#SVGID_31_);}
	.st39{fill:url(#SVGID_32_);}
	.st40{fill:url(#SVGID_33_);}
	.st41{fill:url(#SVGID_34_);}
	.st42{fill:url(#SVGID_35_);}
	.st43{fill:url(#SVGID_36_);}
	.st44{fill:url(#SVGID_37_);}
	.st45{fill:url(#SVGID_38_);}
	.st46{fill:url(#SVGID_39_);}
	.st47{fill:url(#SVGID_40_);}
	.st48{fill:url(#SVGID_41_);}
	.st49{fill:url(#SVGID_42_);}
	.st50{fill:url(#SVGID_43_);}
	.st51{fill:url(#SVGID_44_);}
	.st52{fill:url(#SVGID_45_);}
	.st53{fill:url(#SVGID_46_);}
	.st54{fill:url(#SVGID_51_);}
	.st55{fill:url(#SVGID_52_);}
	.st56{fill:#274154;}
	.st57{fill:url(#SVGID_57_);}
	.st58{fill:url(#SVGID_58_);}
	.st59{fill:url(#SVGID_59_);}
	.st60{fill:url(#SVGID_60_);}
	.st61{fill:#F2F3F4;}
	.st62{fill:none;stroke:#F2F3F4;stroke-miterlimit:10;}
	.st63{fill:none;stroke:#D1D1D1;stroke-miterlimit:10;}
	.st64{fill:#C9D1D6;}
	.st65{fill:none;stroke:#D1D1D1;stroke-width:2;stroke-miterlimit:10;}
	.st66{fill:url(#SVGID_61_);}
	.st67{fill:url(#SVGID_62_);}
	.st68{fill:url(#SVGID_63_);}
	.st69{fill:url(#SVGID_64_);}
	.st70{fill:url(#SVGID_65_);}
	.st71{fill:url(#SVGID_66_);}
	.st72{fill:url(#SVGID_71_);}
	.st73{fill:url(#SVGID_72_);}
	.st74{fill:url(#SVGID_73_);}
	.st75{fill:url(#SVGID_74_);}
	.st76{fill:url(#SVGID_75_);}
	.st77{fill:url(#SVGID_76_);}
	.st78{fill:url(#SVGID_77_);}
	.st79{fill:url(#SVGID_78_);}
	.st80{fill:url(#SVGID_79_);}
	.st81{fill:url(#SVGID_80_);}
	.st82{fill:url(#SVGID_81_);}
	.st83{fill:url(#SVGID_82_);}
	.st84{fill:url(#SVGID_83_);}
	.st85{fill:url(#SVGID_84_);}
	.st86{fill:url(#SVGID_85_);}
	.st87{fill:url(#SVGID_86_);}
	.st88{fill:url(#SVGID_87_);}
	.st89{fill:url(#SVGID_88_);}
	.st90{fill:url(#SVGID_89_);}
	.st91{fill:url(#SVGID_90_);}
	.st92{fill:#E0EFF7;}
	.st93{fill:url(#SVGID_91_);}
	.st94{fill:url(#SVGID_92_);}
	.st95{fill:url(#SVGID_93_);}
	.st96{fill:url(#SVGID_94_);}
	.st97{fill:url(#SVGID_95_);}
	.st98{fill:url(#SVGID_96_);}
	.st99{fill:url(#SVGID_97_);}
	.st100{fill:url(#SVGID_98_);}
	.st101{fill:url(#SVGID_99_);}
	.st102{fill:url(#SVGID_100_);}
	.st103{fill:url(#SVGID_101_);}
	.st104{fill:url(#SVGID_102_);}
	.st105{fill:url(#SVGID_103_);}
	.st106{fill:url(#SVGID_104_);}
	.st107{fill:url(#SVGID_105_);}
	.st108{fill:url(#SVGID_106_);}
	.st109{fill:#A1ABB4;}
	.st110{fill:#EEEEEE;}
	.st111{fill:#002234;}
	.st112{fill:url(#SVGID_107_);}
	.st113{fill:url(#SVGID_108_);}
	.st114{fill:url(#SVGID_109_);}
	.st115{fill:url(#SVGID_110_);}
	.st116{fill:url(#SVGID_111_);}
	.st117{fill:url(#SVGID_112_);}
	.st118{fill:url(#SVGID_113_);}
	.st119{fill:url(#SVGID_114_);}
	.st120{fill:url(#SVGID_115_);}
	.st121{fill:url(#SVGID_116_);}
	.st122{fill:url(#SVGID_117_);}
	.st123{fill:url(#SVGID_118_);}
	.st124{fill:url(#SVGID_119_);}
	.st125{fill:url(#SVGID_120_);}
	.st126{fill:url(#SVGID_121_);}
	.st127{fill:url(#SVGID_122_);}
	.st128{fill:#FBE5E4;}
	.st129{fill:#CD0D08;}
	.st130{fill:url(#SVGID_123_);}
	.st131{fill:url(#SVGID_124_);}
	.st132{fill:url(#SVGID_125_);}
	.st133{fill:url(#SVGID_126_);}
	.st134{fill:#F6BEBB;}
	.st135{fill:#E3F3F7;}
	.st136{fill:#EEF0F2;}
	.st137{fill:#184657;}
	.st138{fill:#CBC7FF;}
	.st139{fill:#ED6D53;}
	.st140{fill:#BD422A;}
	.st141{fill:#F29D7E;}
	.st142{fill:url(#SVGID_127_);}
	.st143{opacity:0.58;fill:#CBC7FF;}
	.st144{fill:#C3B9DD;}
	.st145{fill:#EC7D7A;}
	.st146{fill:#035E80;}
	.st147{opacity:0.7;}
	.st148{fill:#41B093;}
	.st149{fill:#F6F6EE;}
	.st150{fill:#E6E5CE;}
	.st151{opacity:0.7;fill:#CBC7FF;}
	.st152{opacity:0.47;fill:#CBC7FF;}
	.st153{fill:#0D232B;}
	.st154{fill:#539F7A;}
	.st155{fill:#FAF8DC;}
	.st156{opacity:0.72;fill:url(#SVGID_128_);}
	.st157{opacity:0.72;fill:url(#SVGID_129_);}
	.st158{fill:url(#SVGID_130_);}
	.st159{fill:#69BCCE;}
	.st160{fill:#2B5564;}
	.st161{fill:#2F5868;}
	.st162{fill:#BBD4DD;}
	.st163{fill:#D6B88D;}
	.st164{fill:#FCC14A;}
	.st165{fill:#F65F82;}
	.st166{fill:#B69280;}
	.st167{opacity:0.15;fill:#151A35;}
	.st168{fill:#FFE7CD;}
	.st169{opacity:0.29;fill:url(#SVGID_131_);}
	.st170{opacity:0.51;fill:#E6E5CE;}
	.st171{fill:url(#SVGID_132_);}
	.st172{fill:#1B4E61;}
	.st173{opacity:0.29;fill:url(#SVGID_133_);}
	.st174{fill:#E8A48B;}
	.st175{fill:#2B9947;}
	.st176{fill:#299246;}
	.st177{fill:#248743;}
	.st178{fill:#264758;}
	.st179{fill:none;stroke:#BFBFBF;stroke-linecap:round;stroke-miterlimit:10;}
	.st180{fill:#9EB1B8;}
	.st181{fill:#FFC700;}
	.st182{opacity:0.2;fill:#242526;}
	.st183{fill:#FFDD00;}
	.st184{opacity:0.5;fill:#FFC700;}
	.st185{fill:#FFCE47;}
	.st186{opacity:0.5;}
	.st187{fill:#BF8D35;}
	.st188{fill:none;stroke:#FFDD00;stroke-width:2;stroke-linecap:round;stroke-miterlimit:10;}
	.st189{fill:#007CBA;}
	.st190{opacity:0.29;fill:url(#SVGID_134_);}
	.st191{fill:url(#SVGID_135_);}
	.st192{opacity:0.29;fill:url(#SVGID_136_);}
	.st193{fill:url(#SVGID_137_);}
	.st194{fill:url(#SVGID_138_);}
	.st195{fill:#858786;}
	.st196{fill:url(#SVGID_139_);}
	.st197{fill:url(#SVGID_140_);}
	.st198{fill:url(#SVGID_141_);}
	.st199{fill:url(#SVGID_142_);}
	.st200{fill:url(#SVGID_143_);}
	.st201{fill:url(#SVGID_144_);}
	.st202{fill:#EFEEEC;}
	.st203{fill:url(#SVGID_145_);}
	.st204{fill:url(#SVGID_146_);}
	.st205{fill:url(#SVGID_147_);}
	.st206{fill:url(#SVGID_148_);}
	.st207{fill:url(#SVGID_149_);}
	.st208{fill:url(#SVGID_150_);}
	.st209{fill:url(#SVGID_151_);}
	.st210{fill:url(#SVGID_152_);}
	.st211{fill:url(#SVGID_153_);}
	.st212{fill:url(#SVGID_154_);}
	.st213{fill:url(#SVGID_155_);}
	.st214{fill:url(#SVGID_156_);}
	.st215{fill:url(#SVGID_157_);}
	.st216{fill:url(#SVGID_158_);}
	.st217{fill:url(#SVGID_159_);}
	.st218{fill:url(#SVGID_160_);}
	.st219{fill:url(#SVGID_161_);}
	.st220{fill:url(#SVGID_162_);}
	.st221{fill:#D6DADE;}
	.st222{fill:url(#SVGID_163_);}
	.st223{fill:url(#SVGID_164_);}
	.st224{fill:#B3BEC4;}
	.st225{fill:#FFFFFF;stroke:#00263A;stroke-miterlimit:10;}
	.st226{fill:#FF0000;}
	.st227{fill:url(#SVGID_165_);}
	.st228{fill:url(#SVGID_166_);}
	.st229{fill:url(#SVGID_167_);}
	.st230{fill:url(#SVGID_168_);}
	.st231{fill:url(#SVGID_169_);}
	.st232{fill:url(#SVGID_170_);}
	.st233{fill:url(#SVGID_171_);}
	.st234{fill:url(#SVGID_172_);}
	.st235{fill:url(#SVGID_173_);}
	.st236{fill:url(#SVGID_174_);}
	.st237{fill:url(#SVGID_175_);}
	.st238{fill:url(#SVGID_176_);}
	.st239{fill:url(#SVGID_177_);}
	.st240{fill:url(#SVGID_178_);}
	.st241{fill:url(#SVGID_179_);}
	.st242{fill:url(#SVGID_180_);}
	.st243{fill:url(#SVGID_181_);}
	.st244{fill:url(#SVGID_182_);}
	.st245{fill:url(#SVGID_183_);}
	.st246{fill:url(#SVGID_184_);}
	.st247{fill:url(#SVGID_185_);}
	.st248{fill:url(#SVGID_186_);}
	.st249{fill:url(#SVGID_187_);}
	.st250{fill:url(#SVGID_188_);}
	.st251{fill:#FF772B;}
	.st252{fill:#DE0482;}
	.st253{fill:url(#SVGID_189_);}
	.st254{fill:url(#SVGID_190_);}
	.st255{fill:#006837;}
	.st256{fill:#9E005D;}
	.st257{fill:url(#SVGID_191_);}
	.st258{fill:url(#SVGID_192_);}
	.st259{fill:none;stroke:#007CBA;stroke-width:0.5;stroke-miterlimit:10;}
	.st260{fill:none;stroke:#007CBA;stroke-width:0.5;stroke-miterlimit:10;stroke-dasharray:1.8571,1.8571;}
	.st261{fill:none;stroke:#007CBA;stroke-width:0.5;stroke-miterlimit:10;stroke-dasharray:2.0909,2.0909;}
	.st262{fill:none;stroke:#C1272D;stroke-width:0.5;stroke-miterlimit:10;}
	.st263{fill:none;stroke:#C1272D;stroke-width:0.5;stroke-miterlimit:10;stroke-dasharray:2,2;}
	.st264{fill:none;stroke:#007CBA;stroke-width:0.5;stroke-miterlimit:10;stroke-dasharray:2,2;}
	.st265{fill:#C1272D;}
	.st266{fill:none;stroke:#C1272D;stroke-width:0.5;stroke-miterlimit:10;stroke-dasharray:2.1111,2.1111;}
	.st267{fill:none;stroke:#C1272D;stroke-width:0.5;stroke-miterlimit:10;stroke-dasharray:1.9333,1.9333;}
	.st268{opacity:0.8;fill:#FFFFFF;stroke:#FF0000;stroke-miterlimit:10;}
	.st269{fill:url(#SVGID_195_);}
	.st270{fill:url(#SVGID_196_);}
</style>
<g>
	<g>
		<path class="st11" d="M1.9,2.2c0.5-0.5,1.3-0.5,1.8,0c0.5,0.5,0.5,1.3,0,1.8c-0.5,0.5-1.3,0.5-1.8,0C1.4,3.4,1.4,2.7,1.9,2.2z
			 M1.7,13.5v-8h2.1v8H1.7z"/>
		<path class="st11" d="M13,2.2v7.9c0,2.4-1.5,3.5-3.8,3.5c-2.5,0-3.8-1.2-3.8-3.5V8.9c0-2.3,1.2-3.6,3.4-3.6c1,0,1.7,0.3,2.2,0.9
			V2.2H13z M7.5,10.1c0,1.1,0.3,1.6,1.7,1.6c1.4,0,1.7-0.5,1.7-1.6V8.8c0-1.1-0.4-1.6-1.7-1.6c-1.4,0-1.7,0.5-1.7,1.6V10.1z"/>
		<path class="st11" d="M21.1,11.1c0,1.7-1.1,2.6-3.5,2.6c-2.4,0-3.5-0.8-3.5-2.5c0-1.7,1.1-2.5,3.3-2.5H19V8c0-0.8-0.6-1-1.7-1
			c-1,0-1.7,0.1-2.3,0.3V5.5c0.5-0.2,1.2-0.3,2.2-0.3c2.5,0,3.9,0.8,3.9,2.8V11.1z M19,10.2h-1.6c-0.8,0-1.2,0.3-1.1,0.9
			c0,0.8,0.6,0.8,1.4,0.8c0.8,0,1.3-0.1,1.4-0.9V10.2z"/>
		<path class="st11" d="M22,7.4V5.8l1.4-0.3l0.3-2.1h1.8v2.1h2.7v2h-2.7v3.2c0,0.7,0.3,1.1,1,1.1c0.8,0,1.5-0.1,2-0.3v2
			c-0.6,0.2-1.2,0.3-2,0.3c-2.1,0-3.1-1-3.1-3.1V7.4H22z"/>
		<path class="st11" d="M36.3,11.1c0,1.7-1.1,2.6-3.5,2.6c-2.4,0-3.5-0.8-3.5-2.5c0-1.7,1.1-2.5,3.3-2.5h1.6V8c0-0.8-0.6-1-1.7-1
			c-1,0-1.7,0.1-2.3,0.3V5.5c0.5-0.2,1.2-0.3,2.2-0.3c2.5,0,3.9,0.8,3.9,2.8V11.1z M34.2,10.2h-1.6c-0.8,0-1.2,0.3-1.1,0.9
			c0,0.8,0.6,0.8,1.4,0.8c0.8,0,1.3-0.1,1.4-0.9V10.2z"/>
	</g>
</g>
<g>
	<g>
		<linearGradient id="SVGID_1_" gradientUnits="userSpaceOnUse" x1="49.4077" y1="1.5913" x2="49.4077" y2="17.2766">
			<stop  offset="0" style="stop-color:#F05E3C"/>
			<stop  offset="1" style="stop-color:#DC168C"/>
		</linearGradient>
		<path class="st5" d="M42.5,14.1L42.5,14.1c-0.6,0-1.1-0.5-1.1-1.1V5.9c0-0.6,0.5-1.1,1.1-1.1l0,0c0.6,0,1.1,0.5,1.1,1.1V13
			C43.6,13.6,43.1,14.1,42.5,14.1z"/>
		<linearGradient id="SVGID_2_" gradientUnits="userSpaceOnUse" x1="49.4077" y1="1.5913" x2="49.4077" y2="17.2766">
			<stop  offset="0" style="stop-color:#F05E3C"/>
			<stop  offset="1" style="stop-color:#DC168C"/>
		</linearGradient>
		<path class="st7" d="M46.9,17.3L46.9,17.3c-0.9,0-1.6-0.7-1.6-1.6V3.2c0-0.9,0.7-1.6,1.6-1.6l0,0c0.9,0,1.6,0.7,1.6,1.6v12.5
			C48.5,16.6,47.8,17.3,46.9,17.3z"/>
		<linearGradient id="SVGID_3_" gradientUnits="userSpaceOnUse" x1="49.4077" y1="1.5913" x2="49.4077" y2="17.2766">
			<stop  offset="0" style="stop-color:#F05E3C"/>
			<stop  offset="1" style="stop-color:#DC168C"/>
		</linearGradient>
		<path class="st8" d="M56.3,4.8L56.3,4.8c0.6,0,1.1,0.5,1.1,1.1V13c0,0.6-0.5,1.1-1.1,1.1l0,0c-0.6,0-1.1-0.5-1.1-1.1V5.9
			C55.2,5.3,55.7,4.8,56.3,4.8z"/>
		<linearGradient id="SVGID_4_" gradientUnits="userSpaceOnUse" x1="49.4077" y1="1.5913" x2="49.4077" y2="17.2766">
			<stop  offset="0" style="stop-color:#F05E3C"/>
			<stop  offset="1" style="stop-color:#DC168C"/>
		</linearGradient>
		<path class="st9" d="M51.9,1.6L51.9,1.6c0.9,0,1.6,0.7,1.6,1.6v12.5c0,0.9-0.7,1.6-1.6,1.6l0,0c-0.9,0-1.6-0.7-1.6-1.6V3.2
			C50.3,2.3,51,1.6,51.9,1.6z"/>
	</g>
</g>
<linearGradient id="SVGID_5_" gradientUnits="userSpaceOnUse" x1="42.5301" y1="4.8083" x2="42.5301" y2="14.0596">
	<stop  offset="0" style="stop-color:#F05E3C"/>
	<stop  offset="1" style="stop-color:#DC168C"/>
</linearGradient>
<path class="st15" d="M42.5,14.1L42.5,14.1c-0.6,0-1.1-0.5-1.1-1.1V5.9c0-0.6,0.5-1.1,1.1-1.1l0,0c0.6,0,1.1,0.5,1.1,1.1V13
	C43.6,13.6,43.1,14.1,42.5,14.1z"/>
<linearGradient id="SVGID_6_" gradientUnits="userSpaceOnUse" x1="46.9394" y1="1.5913" x2="46.9394" y2="17.2766">
	<stop  offset="0" style="stop-color:#F05E3C"/>
	<stop  offset="1" style="stop-color:#DC168C"/>
</linearGradient>
<path class="st16" d="M46.9,17.3L46.9,17.3c-0.9,0-1.6-0.7-1.6-1.6V3.2c0-0.9,0.7-1.6,1.6-1.6l0,0c0.9,0,1.6,0.7,1.6,1.6v12.5
	C48.5,16.6,47.8,17.3,46.9,17.3z"/>
<linearGradient id="SVGID_7_" gradientUnits="userSpaceOnUse" x1="56.2853" y1="4.8083" x2="56.2853" y2="14.0596">
	<stop  offset="0" style="stop-color:#F05E3C"/>
	<stop  offset="1" style="stop-color:#DC168C"/>
</linearGradient>
<path class="st17" d="M56.3,4.8L56.3,4.8c0.6,0,1.1,0.5,1.1,1.1V13c0,0.6-0.5,1.1-1.1,1.1l0,0c-0.6,0-1.1-0.5-1.1-1.1V5.9
	C55.2,5.3,55.7,4.8,56.3,4.8z"/>
<linearGradient id="SVGID_8_" gradientUnits="userSpaceOnUse" x1="51.876" y1="1.5913" x2="51.876" y2="17.2766">
	<stop  offset="0" style="stop-color:#F05E3C"/>
	<stop  offset="1" style="stop-color:#DC168C"/>
</linearGradient>
<path class="st18" d="M51.9,1.6L51.9,1.6c0.9,0,1.6,0.7,1.6,1.6v12.5c0,0.9-0.7,1.6-1.6,1.6l0,0c-0.9,0-1.6-0.7-1.6-1.6V3.2
	C50.3,2.3,51,1.6,51.9,1.6z"/>
<g>
	<g>
		<path class="st109" d="M62.3,8.7c0-2.1,1.3-3.4,3.8-3.4c0.6,0,1.3,0.1,1.9,0.4v2c-0.7-0.3-1.3-0.4-1.8-0.4c-1.3,0-1.7,0.3-1.7,1.5
			v1.4c0,1.1,0.5,1.5,1.9,1.5c0.5,0,1.2-0.1,1.8-0.3v1.9c-0.7,0.2-1.4,0.3-1.9,0.3c-2.6,0-3.9-1.1-3.9-3.4V8.7z"/>
		<path class="st109" d="M69.2,10.1V8.8c0-2.3,1.3-3.5,3.8-3.5c2.6,0,3.8,1.2,3.8,3.5v1.3c0,2.3-1.3,3.5-3.8,3.5
			C70.4,13.6,69.2,12.5,69.2,10.1z M74.7,8.8c0-1.1-0.3-1.6-1.7-1.6c-1.3,0-1.7,0.5-1.7,1.6v1.3c0,1.1,0.4,1.6,1.7,1.6
			c1.4,0,1.7-0.5,1.7-1.6V8.8z"/>
		<path class="st109" d="M78.3,16.6V8.8c0-2.4,1.5-3.5,3.8-3.5c2.5,0,3.8,1.2,3.8,3.5v1.3c0,2.3-1.2,3.6-3.3,3.6
			c-1,0-1.7-0.3-2.2-0.9v3.9H78.3z M83.8,8.8c0-1.1-0.3-1.6-1.7-1.6c-1.4,0-1.7,0.5-1.7,1.6v1.3c0,1.1,0.4,1.6,1.7,1.6
			c1.3,0,1.7-0.5,1.7-1.6V8.8z"/>
		<path class="st109" d="M89.4,13.5h-2.1V8.2c0-1.9,1.1-2.9,3.3-2.9c0.3,0,0.7,0,1,0.1v2c-0.3-0.1-0.6-0.1-1-0.1
			c-1,0-1.2,0.3-1.2,1.1V13.5z"/>
		<path class="st109" d="M92.3,10.1V8.8c0-2.3,1.3-3.5,3.8-3.5c2.6,0,3.8,1.2,3.8,3.5v1.3c0,2.3-1.3,3.5-3.8,3.5
			C93.5,13.6,92.3,12.5,92.3,10.1z M97.8,8.8c0-1.1-0.3-1.6-1.7-1.6c-1.3,0-1.7,0.5-1.7,1.6v1.3c0,1.1,0.4,1.6,1.7,1.6
			c1.4,0,1.7-0.5,1.7-1.6V8.8z"/>
		<path class="st109" d="M101.3,16.6V8.8c0-2.4,1.5-3.5,3.8-3.5c2.5,0,3.8,1.2,3.8,3.5v1.3c0,2.3-1.2,3.6-3.3,3.6
			c-1,0-1.7-0.3-2.2-0.9v3.9H101.3z M106.8,8.8c0-1.1-0.3-1.6-1.7-1.6c-1.4,0-1.7,0.5-1.7,1.6v1.3c0,1.1,0.4,1.6,1.7,1.6
			c1.3,0,1.7-0.5,1.7-1.6V8.8z"/>
		<path class="st109" d="M110.7,2.3c0.5-0.5,1.3-0.5,1.7,0c0.5,0.5,0.5,1.3,0,1.7c-0.5,0.5-1.3,0.5-1.7,0
			C110.2,3.5,110.2,2.7,110.7,2.3z M110.5,13.5V5.5h2.1v7.9H110.5z"/>
		<path class="st109" d="M121.2,10.2h-4.9v0.2c0,0.8,0.6,1.2,2.1,1.2c0.4,0,0.9,0,1.5-0.1s1-0.2,1.3-0.3v2c-0.7,0.3-1.7,0.5-2.8,0.5
			c-2.8,0-4.1-1-4.1-3.5V8.9c0-2.4,1.2-3.6,3.7-3.6c2.3,0,3.5,1.1,3.5,3.4C121.4,9.3,121.4,9.8,121.2,10.2z M116.3,8.6h3.1V8.3
			c0-0.8-0.5-1.2-1.6-1.2c-1,0-1.6,0.4-1.6,1.2V8.6z"/>
		<path class="st109" d="M122.2,7.5V5.8l1.4-0.3l0.3-2.1h1.7v2.1h2.7v2h-2.7v3.1c0,0.7,0.3,1.1,1,1.1c0.8,0,1.4-0.1,2-0.3v2
			c-0.6,0.2-1.2,0.3-2,0.3c-2,0-3.1-1-3.1-3V7.5H122.2z"/>
		<path class="st109" d="M136.5,11.1c0,1.7-1,2.6-3.4,2.6s-3.4-0.8-3.4-2.5c0-1.7,1.1-2.5,3.2-2.5h1.6V8.1c0-0.8-0.6-1-1.7-1
			c-1,0-1.7,0.1-2.3,0.3V5.6c0.5-0.2,1.2-0.3,2.1-0.3c2.5,0,3.8,0.8,3.8,2.7V11.1z M134.4,10.2h-1.6c-0.7,0-1.2,0.3-1.1,0.9
			c0,0.8,0.6,0.8,1.3,0.8c0.8,0,1.3-0.1,1.4-0.9V10.2z"/>
		<path class="st109" d="M140,13.5H138V8.2c0-1.9,1.1-2.9,3.3-2.9c0.3,0,0.7,0,1,0.1v2c-0.3-0.1-0.6-0.1-1-0.1c-1,0-1.2,0.3-1.2,1.1
			V13.5z"/>
		<path class="st109" d="M143.8,2.3c0.5-0.5,1.3-0.5,1.7,0c0.5,0.5,0.5,1.3,0,1.7c-0.5,0.5-1.3,0.5-1.7,0
			C143.3,3.5,143.3,2.7,143.8,2.3z M143.6,13.5V5.5h2.1v7.9H143.6z"/>
		<path class="st109" d="M147.3,10.1V8.8c0-2.3,1.3-3.5,3.8-3.5c2.6,0,3.8,1.2,3.8,3.5v1.3c0,2.3-1.3,3.5-3.8,3.5
			C148.5,13.6,147.3,12.5,147.3,10.1z M152.8,8.8c0-1.1-0.3-1.6-1.7-1.6c-1.3,0-1.7,0.5-1.7,1.6v1.3c0,1.1,0.4,1.6,1.7,1.6
			c1.4,0,1.7-0.5,1.7-1.6V8.8z"/>
		<path class="st109" d="M156.1,11.2c1,0.3,2,0.5,3,0.5c0.9,0,1.2-0.1,1.2-0.5c0-0.3-0.2-0.4-1-0.7l-1.5-0.6c-1.1-0.5-1.7-1-1.7-2.3
			c0-1.6,0.9-2.3,3.2-2.3c0.9,0,1.7,0.2,2.6,0.5v1.9c-0.8-0.3-1.7-0.5-2.6-0.5c-0.9,0-1.2,0.1-1.2,0.4c0,0.2,0.1,0.3,0.7,0.5
			l1.7,0.7c1.3,0.5,1.8,1.1,1.8,2.4c0,1.7-1,2.4-3.4,2.4c-1.1,0-2-0.2-2.9-0.5V11.2z"/>
	</g>
</g>
</svg>
