<?xml version="1.0" encoding="UTF-8" standalone="no"?>
<!-- Created with Inkscape (http://www.inkscape.org/) -->

<svg
   xmlns:dc="http://purl.org/dc/elements/1.1/"
   xmlns:cc="http://creativecommons.org/ns#"
   xmlns:rdf="http://www.w3.org/1999/02/22-rdf-syntax-ns#"
   xmlns:svg="http://www.w3.org/2000/svg"
   xmlns="http://www.w3.org/2000/svg"
   xmlns:xlink="http://www.w3.org/1999/xlink"
   xmlns:sodipodi="http://sodipodi.sourceforge.net/DTD/sodipodi-0.dtd"
   xmlns:inkscape="http://www.inkscape.org/namespaces/inkscape"
   width="210mm"
   height="210mm"
   viewBox="0 0 210 210"
   version="1.1"
   id="svg6985"
   inkscape:version="0.92.1 r15371"
   sodipodi:docname="logo.svg">
  <defs
     id="defs6979">
    <radialGradient
       inkscape:collect="always"
       xlink:href="#linearGradient6483"
       id="radialGradient6485"
       cx="-1254.0225"
       cy="-1219.934"
       fx="-1254.0225"
       fy="-1219.934"
       r="400.63193"
       gradientTransform="matrix(1.7856309,0,0,2.0135185,984.19779,1221.538)"
       gradientUnits="userSpaceOnUse" />
    <linearGradient
       inkscape:collect="always"
       id="linearGradient6483">
      <stop
         style="stop-color:#ffffff;stop-opacity:1"
         offset="0"
         id="stop6479" />
      <stop
         style="stop-color:#cccccc;stop-opacity:1"
         offset="1"
         id="stop6481" />
    </linearGradient>
  </defs>
  <sodipodi:namedview
     id="base"
     pagecolor="#ffffff"
     bordercolor="#666666"
     borderopacity="1.0"
     inkscape:pageopacity="0.0"
     inkscape:pageshadow="2"
     inkscape:zoom="0.42384393"
     inkscape:cx="544.28571"
     inkscape:cy="441.42857"
     inkscape:document-units="mm"
     inkscape:current-layer="layer1"
     showgrid="false"
     inkscape:window-width="1920"
     inkscape:window-height="1029"
     inkscape:window-x="0"
     inkscape:window-y="23"
     inkscape:window-maximized="1" />
  <metadata
     id="metadata6982">
    <rdf:RDF>
      <cc:Work
         rdf:about="">
        <dc:format>image/svg+xml</dc:format>
        <dc:type
           rdf:resource="http://purl.org/dc/dcmitype/StillImage" />
        <dc:title></dc:title>
      </cc:Work>
    </rdf:RDF>
  </metadata>
  <g
     inkscape:label="Capa 1"
     inkscape:groupmode="layer"
     id="layer1"
     transform="translate(0,-87)">
    <g
       transform="matrix(0.22128049,0,0,0.22128049,402.40734,397.23188)"
       style="display:inline"
       id="g6933">
      <g
         transform="matrix(1.0022136,0,0,1.0022136,-88.50737,280.43897)"
         id="g6490">
        <path
           style="color:#000000;font-style:normal;font-variant:normal;font-weight:normal;font-stretch:normal;font-size:medium;line-height:normal;font-family:sans-serif;font-variant-ligatures:normal;font-variant-position:normal;font-variant-caps:normal;font-variant-numeric:normal;font-variant-alternates:normal;font-feature-settings:normal;text-indent:0;text-align:start;text-decoration:none;text-decoration-line:none;text-decoration-style:solid;text-decoration-color:#000000;letter-spacing:normal;word-spacing:normal;text-transform:none;writing-mode:lr-tb;direction:ltr;text-orientation:mixed;dominant-baseline:auto;baseline-shift:baseline;text-anchor:start;white-space:normal;shape-padding:0;clip-rule:nonzero;display:inline;overflow:visible;visibility:visible;opacity:1;isolation:auto;mix-blend-mode:normal;color-interpolation:sRGB;color-interpolation-filters:linearRGB;solid-color:#000000;solid-opacity:1;vector-effect:none;fill:url(#radialGradient6485);fill-opacity:1;fill-rule:nonzero;stroke:none;stroke-width:37.79527664;stroke-linecap:butt;stroke-linejoin:miter;stroke-miterlimit:4;stroke-dasharray:none;stroke-dashoffset:0;stroke-opacity:1;color-rendering:auto;image-rendering:auto;shape-rendering:auto;text-rendering:auto;enable-background:accumulate"
           d="m -1257.2269,-1657.0067 c -26.2195,0 -42.865,2.0287 -63.5645,9.0801 -20.6994,7.0515 -45.5616,18.3977 -95.5156,38.086 -94.1429,37.1043 -215.7441,24.3457 -215.7441,24.3457 l -20.2051,-2.2872 -0.8027,20.3184 c 0,0 -6.4754,161.1415 38.7089,342.6074 45.1843,181.466 143.0152,386.64637 354.0489,468.71098 l 6.8496,2.66211 6.8476,-2.66211 c 211.0316,-82.06381 309.21614,-287.32048 354.76754,-468.87888 45.5514,-181.5585 39.4473,-342.7989 39.4473,-342.7989 l -0.7969,-21.3515 -21.0938,3.3984 c 0,0 -116.7546,18.1516 -223.86704,-24.0644 -43.6039,-17.1855 -68.6241,-28.5818 -90.7207,-36.1993 -22.0967,-7.6174 -41.5246,-10.9668 -68.3594,-10.9668 z"
           id="path6469"
           inkscape:connector-curvature="0" />
        <path
           style="color:#000000;font-style:normal;font-variant:normal;font-weight:normal;font-stretch:normal;font-size:medium;line-height:normal;font-family:sans-serif;font-variant-ligatures:normal;font-variant-position:normal;font-variant-caps:normal;font-variant-numeric:normal;font-variant-alternates:normal;font-feature-settings:normal;text-indent:0;text-align:start;text-decoration:none;text-decoration-line:none;text-decoration-style:solid;text-decoration-color:#000000;letter-spacing:normal;word-spacing:normal;text-transform:none;writing-mode:lr-tb;direction:ltr;text-orientation:mixed;dominant-baseline:auto;baseline-shift:baseline;text-anchor:start;white-space:normal;shape-padding:0;clip-rule:nonzero;display:inline;overflow:visible;visibility:visible;opacity:1;isolation:auto;mix-blend-mode:normal;color-interpolation:sRGB;color-interpolation-filters:linearRGB;solid-color:#000000;solid-opacity:1;vector-effect:none;fill:#485a80;fill-opacity:1;fill-rule:nonzero;stroke:none;stroke-width:18.89763832;stroke-linecap:butt;stroke-linejoin:miter;stroke-miterlimit:4;stroke-dasharray:none;stroke-dashoffset:0;stroke-opacity:1;color-rendering:auto;image-rendering:auto;shape-rendering:auto;text-rendering:auto;enable-background:accumulate"
           d="m -1257.2266,-1645.2812 c -25.8336,0 -40.6117,1.7931 -60.5175,8.5742 -19.9059,6.7811 -44.9937,18.1862 -95.0977,37.9336 -97.3253,38.3586 -220.2715,24.9433 -220.2715,24.9433 l -10.1035,-1.1445 -0.4023,10.1601 c 0,0 -6.379,159.9607 38.4375,339.9493 44.8164,179.9886 141.3227,381.69845 348.3046,462.18747 l 3.4239,1.33203 3.4258,-1.33203 c 206.9809,-80.48862 303.84558,-282.28597 349.0273,-462.37107 45.18172,-180.0851 39.16797,-340.1465 39.16797,-340.1465 l -0.39844,-10.6758 -10.54687,1.6992 c 0,0 -118.71668,18.7987 -228.83396,-24.6015 -43.7754,-17.2531 -68.9431,-28.6838 -90.336,-36.0586 -21.3928,-7.3749 -39.1381,-10.4493 -65.2793,-10.4492 z m 0,18.8964 c 24.754,0 39.136,2.5285 59.1211,9.418 19.9851,6.8895 45.4462,18.3852 89.5645,35.7734 96.5781,38.0641 196.60986,30.6233 227.90623,27.0235 0.54369,25.7889 1.56301,164.06 -38.69531,324.5215 -44.18311,176.1048 -137.61612,369.69534 -334.12302,447.94137 -196.5006,-78.24477 -289.5672,-271.72217 -333.3907,-447.72267 -40.126,-161.1513 -38.5893,-300.0792 -37.9921,-324.8086 25.0498,2.2393 127.9245,8.9103 218.9238,-26.9551 50.4038,-19.8655 75.9431,-31.3846 94.2617,-37.625 18.3186,-6.2403 29.3621,-7.5664 54.4238,-7.5664 z"
           id="path6455"
           inkscape:connector-curvature="0" />
        <path
           style="color:#000000;font-style:normal;font-variant:normal;font-weight:normal;font-stretch:normal;font-size:medium;line-height:normal;font-family:sans-serif;font-variant-ligatures:normal;font-variant-position:normal;font-variant-caps:normal;font-variant-numeric:normal;font-variant-alternates:normal;font-feature-settings:normal;text-indent:0;text-align:start;text-decoration:none;text-decoration-line:none;text-decoration-style:solid;text-decoration-color:#000000;letter-spacing:normal;word-spacing:normal;text-transform:none;writing-mode:lr-tb;direction:ltr;text-orientation:mixed;dominant-baseline:auto;baseline-shift:baseline;text-anchor:start;white-space:normal;shape-padding:0;clip-rule:nonzero;display:inline;overflow:visible;visibility:visible;opacity:1;isolation:auto;mix-blend-mode:normal;color-interpolation:sRGB;color-interpolation-filters:linearRGB;solid-color:#000000;solid-opacity:1;vector-effect:none;fill:#c9262b;fill-opacity:1;fill-rule:nonzero;stroke:none;stroke-width:18.89763832;stroke-linecap:butt;stroke-linejoin:miter;stroke-miterlimit:4;stroke-dasharray:none;stroke-dashoffset:0;stroke-opacity:1;color-rendering:auto;image-rendering:auto;shape-rendering:auto;text-rendering:auto;enable-background:accumulate"
           d="m -1256.7207,-1596.4043 c -22.9556,0 -36.2732,1.6173 -54.0176,7.6621 -17.7444,6.0448 -39.9699,16.1527 -84.3906,33.6602 -85.9588,33.8787 -194.8496,22.0547 -194.8496,22.0547 l -10.1016,-1.1426 -0.4023,10.1582 c 0,0 -5.6686,142.0041 34.1211,301.8047 39.7897,159.8005 125.5321,339.0916 309.5644,410.65622 l 3.4239,1.33203 3.4238,-1.33203 c 184.0313,-71.56422 270.09117,-250.93072 310.20506,-410.81642 40.11388,-159.8857 34.77148,-301.9805 34.77148,-301.9805 l -0.39843,-10.6757 -10.54688,1.6992 c 0,0 -105.07033,16.6003 -202.39453,-21.7578 -38.8053,-15.2943 -61.109,-25.4279 -80.1621,-31.9961 -19.0531,-6.5683 -34.9828,-9.3262 -58.2461,-9.3262 z m 0,18.8965 c 21.8761,0 34.4425,2.2119 52.0879,8.2949 17.6454,6.083 40.2424,16.2815 79.3906,31.7109 88.279,34.7932 176.41185,27.1603 201.46486,24.0938 0.47902,25.1254 0.92934,146.0369 -34.29688,286.4414 -39.11486,155.9038 -121.73948,327.06591 -295.29878,396.38672 -173.554,-69.3191 -255.854,-240.38012 -294.6504,-396.19142 -35.0987,-140.9605 -34.212,-262.3671 -33.6758,-286.6601 24.3708,2.0954 113.8977,7.3031 193.5,-24.0704 44.7206,-17.6256 67.3975,-27.8494 83.5547,-33.3535 16.1571,-5.5041 25.74,-6.6523 47.9238,-6.6523 z"
           id="path6461"
           inkscape:connector-curvature="0" />
      </g>
      <g
         id="text6494"
         style="font-style:normal;font-variant:normal;font-weight:normal;font-stretch:normal;font-size:86.72050476px;line-height:1.25;font-family:sans-serif;-inkscape-font-specification:'sans-serif, Normal';font-variant-ligatures:normal;font-variant-caps:normal;font-variant-numeric:normal;font-feature-settings:normal;text-align:start;letter-spacing:0px;word-spacing:0px;writing-mode:lr-tb;text-anchor:start;fill:#485a80;fill-opacity:1;stroke:none;stroke-width:2.16801262"
         transform="matrix(0.80912919,0,0,0.80912919,-178.47306,-950.36786)"
         aria-label=" MARISTAS">
        <path
           inkscape:connector-curvature="0"
           id="path6509"
           style="font-style:normal;font-variant:normal;font-weight:500;font-stretch:normal;font-size:86.72000122px;font-family:'Fibon Sans';-inkscape-font-specification:'Fibon Sans, Medium';font-variant-ligatures:normal;font-variant-caps:normal;font-variant-numeric:normal;font-feature-settings:normal;text-align:start;writing-mode:lr-tb;text-anchor:start;fill:#485a80;fill-opacity:1"
           d="m -1643.4036,-278.30757 -0.5064,-2.7504 c -2.505,-11.94145 -5.0539,-24.59666 -7.45,-36.48158 l -2.1868,-11.22349 27.4075,24.52751 4.7954,-1.51731 3.895,-16.14942 c 1.5283,-6.66866 3.2784,-13.49849 4.9155,-20.11063 l 20.7221,47.38112 6.2837,-1.9882 -25.5159,-58.5074 -5.6223,1.77892 -6.9912,28.49878 -2.8618,11.36561 -30.3294,-27.15035 -5.4569,1.7266 12.7832,62.53613 z" />
        <path
           inkscape:connector-curvature="0"
           id="path6511"
           style="font-style:normal;font-variant:normal;font-weight:500;font-stretch:normal;font-size:86.72000122px;font-family:'Fibon Sans';-inkscape-font-specification:'Fibon Sans, Medium';font-variant-ligatures:normal;font-variant-caps:normal;font-variant-numeric:normal;font-feature-settings:normal;text-align:start;writing-mode:lr-tb;text-anchor:start;fill:#485a80;fill-opacity:1"
           d="m -1519.9541,-310.3053 -38.6852,-57.91928 -4.8451,0.97885 -14.4415,68.65228 6.8852,-1.39099 1.4322,-6.92473 0.9444,-4.08358 0.3374,-1.39525 0.8767,-3.9814 31.2809,-6.31959 9.1598,13.80903 z m -38.935,-46.45592 9.2448,13.79186 c 3.0705,4.68801 6.3959,9.3245 9.7222,14.40318 l -26.3508,5.32357 z" />
        <path
           inkscape:connector-curvature="0"
           id="path6513"
           style="font-style:normal;font-variant:normal;font-weight:500;font-stretch:normal;font-size:86.72000122px;font-family:'Fibon Sans';-inkscape-font-specification:'Fibon Sans, Medium';font-variant-ligatures:normal;font-variant-caps:normal;font-variant-numeric:normal;font-feature-settings:normal;text-align:start;writing-mode:lr-tb;text-anchor:start;fill:#485a80;fill-opacity:1"
           d="m -1506.1378,-311.90262 -1.8568,-19.07496 5.2651,-0.51251 c 1.8988,-0.18484 7.5954,-0.73936 10.5911,-1.29236 4.4065,7.67414 10.0175,13.4013 17.073,17.85517 l 11.2205,-1.09223 c -10.3918,-5.61031 -17.5289,-11.79882 -21.9377,-18.60145 8.674,-3.98102 14.4248,-12.03399 13.4418,-22.1325 -1.4619,-15.01829 -14.0619,-20.93643 -28.1308,-19.56693 l -18.3844,1.78959 6.1585,63.26672 z m -2.4869,-25.54836 -3.0499,-31.33127 11.8248,-1.15105 c 10.7027,-1.04183 20.0801,3.09888 21.1219,13.80158 1.0587,10.87531 -8.4914,16.59709 -19.1078,17.63051 z" />
        <path
           inkscape:connector-curvature="0"
           id="path6515"
           style="font-style:normal;font-variant:normal;font-weight:500;font-stretch:normal;font-size:86.72000122px;font-family:'Fibon Sans';-inkscape-font-specification:'Fibon Sans, Medium';font-variant-ligatures:normal;font-variant-caps:normal;font-variant-numeric:normal;font-feature-settings:normal;text-align:start;writing-mode:lr-tb;text-anchor:start;fill:#485a80;fill-opacity:1"
           d="m -1450.9214,-315.82093 -1.6026,-63.54556 -6.5886,0.16616 1.6025,63.54556 z" />
        <path
           inkscape:connector-curvature="0"
           id="path6517"
           style="font-style:normal;font-variant:normal;font-weight:500;font-stretch:normal;font-size:86.72000122px;font-family:'Fibon Sans';-inkscape-font-specification:'Fibon Sans, Medium';font-variant-ligatures:normal;font-variant-caps:normal;font-variant-numeric:normal;font-feature-settings:normal;text-align:start;writing-mode:lr-tb;text-anchor:start;fill:#485a80;fill-opacity:1"
           d="m -1417.828,-313.67243 c 10.9978,0.5866 22.6237,-4.09074 23.5856,-17.23961 0.7506,-10.81538 -13.1973,-16.33571 -21.1215,-19.18998 -6.7349,-2.35662 -16.3079,-6.86201 -16.8598,-12.79679 1.5276,-7.47389 9.3791,-11.39727 16.5667,-11.0139 8.3999,0.44803 14.2723,4.32183 19.4011,9.11124 l 5.003,-4.249 c -6.4543,-5.98907 -13.6707,-10.71614 -24.0623,-11.27041 -11.171,-0.59584 -22.9159,4.68305 -23.5718,16.97982 -0.6189,11.60398 12.919,16.66823 21.1076,19.44976 7.2453,2.55753 17.3563,6.74425 16.9418,12.88801 -0.5162,8.0489 -8.9415,11.33377 -16.6486,10.92269 -8.5731,-0.45728 -14.4455,-4.33107 -19.5743,-9.12048 l -4.8345,4.34483 c 6.2904,5.80664 13.5022,10.62031 24.067,11.18382 z" />
        <path
           inkscape:connector-curvature="0"
           id="path6519"
           style="font-style:normal;font-variant:normal;font-weight:500;font-stretch:normal;font-size:86.72000122px;font-family:'Fibon Sans';-inkscape-font-specification:'Fibon Sans, Medium';font-variant-ligatures:normal;font-variant-caps:normal;font-variant-numeric:normal;font-feature-settings:normal;text-align:start;writing-mode:lr-tb;text-anchor:start;fill:#485a80;fill-opacity:1"
           d="m -1350.5802,-365.28686 21.8829,3.18612 0.9371,-6.43614 -50.2877,-7.32184 -0.9371,6.43614 21.8829,3.18613 -8.2215,56.46638 6.522,0.94959 z" />
        <path
           inkscape:connector-curvature="0"
           id="path6521"
           style="font-style:normal;font-variant:normal;font-weight:500;font-stretch:normal;font-size:86.72000122px;font-family:'Fibon Sans';-inkscape-font-specification:'Fibon Sans, Medium';font-variant-ligatures:normal;font-variant-caps:normal;font-variant-numeric:normal;font-feature-settings:normal;text-align:start;writing-mode:lr-tb;text-anchor:start;fill:#485a80;fill-opacity:1"
           d="m -1289.4383,-293.81469 -10.9635,-68.78219 -4.8112,-1.13392 -41.7912,56.34885 6.837,1.61136 4.1931,-5.69397 2.5634,-3.31606 0.8893,-1.12686 2.4591,-3.25155 31.062,7.32075 2.5562,16.37244 z m -15.9776,-58.47054 2.6406,16.39233 c 0.8322,5.54188 1.9176,11.14345 2.8191,17.14716 l -26.1663,-6.16694 z" />
        <path
           inkscape:connector-curvature="0"
           id="path6523"
           style="font-style:normal;font-variant:normal;font-weight:500;font-stretch:normal;font-size:86.72000122px;font-family:'Fibon Sans';-inkscape-font-specification:'Fibon Sans, Medium';font-variant-ligatures:normal;font-variant-caps:normal;font-variant-numeric:normal;font-feature-settings:normal;text-align:start;writing-mode:lr-tb;text-anchor:start;fill:#485a80;fill-opacity:1"
           d="m -1260.481,-282.69392 c 10.4536,3.46657 22.9016,2.02127 27.2975,-10.4083 3.5765,-10.23443 -8.4214,-19.23811 -15.3121,-24.08136 -5.8749,-4.04955 -13.9206,-10.92033 -12.8876,-16.79052 3.4448,-6.80632 12.0531,-8.5199 18.885,-6.25435 7.9843,2.64769 12.627,7.9332 16.311,13.90577 l 5.9465,-2.77897 c -4.6461,-7.47936 -10.3602,-13.94241 -20.2376,-17.2179 -10.6183,-3.52116 -23.3396,-1.52697 -27.2156,10.16136 -3.6577,11.02984 8.0652,19.48548 15.2302,24.3283 6.3141,4.37795 14.9628,11.08326 12.9425,16.90013 -2.6208,7.62774 -11.6142,8.57406 -18.9399,6.14474 -8.149,-2.70228 -12.7917,-7.98779 -16.4757,-13.96036 l -5.8092,2.91587 c 4.5361,7.26015 10.2229,13.80551 20.265,17.13559 z" />
      </g>
      <g
         transform="translate(-0.82603,-4.565765)"
         id="g6672">
        <path
           inkscape:connector-curvature="0"
           style="opacity:1;fill:#485a80;fill-opacity:1;stroke:none;stroke-width:24.0678997;stroke-linecap:round;stroke-linejoin:round;stroke-miterlimit:4;stroke-dasharray:none;stroke-dashoffset:0;stroke-opacity:1;paint-order:stroke fill markers"
           d="m -1268.5339,-1100.4737 c 1.7315,0.5404 3.4713,1.0676 5.2203,1.5804 1.4184,-1.1458 2.8212,-2.301 4.2068,-3.4659 0.099,1.8418 0.1945,3.6841 0.2846,5.5271 1.5438,0.9988 3.1019,1.9861 4.6755,2.9614 -1.7275,0.6782 -3.4635,1.3409 -5.207,1.9892 -0.4833,1.7839 -0.9795,3.5672 -1.4881,5.3496 -1.1566,-1.4496 -2.3011,-2.9049 -3.4338,-4.3658 -1.8585,0.071 -3.715,0.1284 -5.5697,0.1706 1.0732,-1.5074 2.1316,-3.0193 3.1739,-4.5357 -0.6258,-1.7356 -1.2466,-3.4727 -1.8625,-5.2109 z"
           id="path6600" />
        <path
           inkscape:connector-curvature="0"
           style="opacity:1;fill:#485a80;fill-opacity:1;stroke:none;stroke-width:24.0678997;stroke-linecap:round;stroke-linejoin:round;stroke-miterlimit:4;stroke-dasharray:none;stroke-dashoffset:0;stroke-opacity:1;paint-order:stroke fill markers"
           d="m -1319.5275,-1094.8169 c 1.678,0.7252 3.3619,1.4436 5.052,2.1551 1.5534,-0.9748 3.0994,-1.9556 4.6377,-2.9424 -0.1311,1.8405 -0.2647,3.6809 -0.4007,5.5215 1.4153,1.1794 2.8387,2.3537 4.2703,3.523 -1.795,0.4508 -3.5935,0.8936 -5.3953,1.3283 -0.69,1.7133 -1.3868,3.4257 -2.0902,5.1369 -0.9716,-1.5751 -1.9365,-3.1524 -2.8947,-4.7319 -1.8484,-0.1381 -3.6951,-0.2846 -5.5399,-0.4389 1.2237,-1.3856 2.439,-2.7745 3.646,-4.1671 -0.4312,-1.7944 -0.8597,-3.5892 -1.2852,-5.3845 z"
           id="path6598" />
        <path
           inkscape:connector-curvature="0"
           style="opacity:1;fill:#485a80;fill-opacity:1;stroke:none;stroke-width:24.0678997;stroke-linecap:round;stroke-linejoin:round;stroke-miterlimit:4;stroke-dasharray:none;stroke-dashoffset:0;stroke-opacity:1;paint-order:stroke fill markers"
           d="m -1373.048,-1095.8975 c 1.6172,0.856 3.2406,1.7063 4.8701,2.5508 1.6282,-0.8475 3.2505,-1.7005 4.8672,-2.5592 -0.2807,1.8239 -0.5633,3.6477 -0.848,5.4714 1.3158,1.2901 2.6391,2.5767 3.9694,3.8595 -1.8252,0.3021 -3.6528,0.5972 -5.4827,0.8852 -0.8257,1.6524 -1.657,3.3034 -2.494,4.9528 -0.8411,-1.6479 -1.6762,-3.2973 -2.5051,-4.9483 -1.8309,-0.2848 -3.6598,-0.5769 -5.4864,-0.8764 1.3289,-1.2848 2.6503,-2.5734 3.9646,-3.8658 -0.2876,-1.8232 -0.5727,-3.6464 -0.8551,-5.47 z"
           id="path6596" />
        <path
           inkscape:connector-curvature="0"
           style="opacity:1;fill:#485a80;fill-opacity:1;stroke:none;stroke-width:24.0678997;stroke-linecap:round;stroke-linejoin:round;stroke-miterlimit:4;stroke-dasharray:none;stroke-dashoffset:0;stroke-opacity:1;paint-order:stroke fill markers"
           d="m -1426.3983,-1097.862 c 1.5294,0.9946 3.0689,1.9823 4.6171,2.9634 1.6922,-0.7048 3.3781,-1.4172 5.0586,-2.1363 -0.4329,1.7939 -0.8682,3.5873 -1.3061,5.3804 0.6932,0.8058 1.3893,1.6104 2.0881,2.4136 0.5127,0.5894 1.0271,1.1781 1.5431,1.766 -0.5711,0.046 -1.1423,0.092 -1.7136,0.1355 -1.2747,0.099 -2.5504,0.1941 -3.8276,0.285 -0.9636,1.5766 -1.9341,3.1509 -2.9119,4.7228 -0.6992,-1.7144 -1.3912,-3.4302 -2.0751,-5.1474 -1.8019,-0.4428 -3.6007,-0.8951 -5.3958,-1.3576 1.4407,-1.1604 2.8713,-2.3275 4.2925,-3.5004 -0.1261,-1.8417 -0.2497,-3.6833 -0.3693,-5.525 z"
           id="path6594" />
        <path
           inkscape:connector-curvature="0"
           style="opacity:1;fill:#485a80;fill-opacity:1;stroke:none;stroke-width:24.0678997;stroke-linecap:round;stroke-linejoin:round;stroke-miterlimit:4;stroke-dasharray:none;stroke-dashoffset:0;stroke-opacity:1;paint-order:stroke fill markers"
           d="m -1466.6823,-1113.0434 c 1.2732,1.2255 2.593,2.4379 3.947,3.6383 1.7556,-0.4478 3.5007,-0.92 5.2412,-1.4054 -0.6742,1.7219 -1.354,3.4424 -2.0395,5.1614 0.9893,1.5545 2.0036,3.1036 3.0316,4.6449 -1.8552,-0.098 -3.7171,-0.2116 -5.5851,-0.352 -1.1904,1.4233 -2.3988,2.8375 -3.6291,4.2392 -0.4541,-1.8124 -0.887,-3.6258 -1.2933,-5.4381 -1.7302,-0.7384 -3.4465,-1.5066 -5.1405,-2.3112 1.6501,-0.8585 3.2665,-1.7519 4.8567,-2.672 0.1915,-1.8381 0.3949,-3.6733 0.611,-5.5051 z"
           id="path6592" />
        <path
           inkscape:connector-curvature="0"
           style="opacity:1;fill:#485a80;fill-opacity:1;stroke:none;stroke-width:26.06653595;stroke-linecap:round;stroke-linejoin:round;stroke-miterlimit:4;stroke-dasharray:none;stroke-dashoffset:0;stroke-opacity:1;paint-order:stroke fill markers"
           d="m -1481.8126,-1124.824 c -1.8087,-0.014 -3.584,-0.036 -5.334,0.071 -0.6897,1.6042 -1.1266,3.1626 -1.1698,4.6207 -1.3059,-1.5002 -2.5468,-3.0542 -3.727,-4.6562 -0.5791,-0.029 -1.1665,-0.034 -1.7632,-0.014 -1.331,0.05 -2.7578,0.2571 -4.1689,0.772 0.4323,-1.0906 1.0071,-2.1272 1.6751,-3.0616 0.6164,-0.903 1.2899,-1.7638 2.0059,-2.5849 -0.4201,-1.9946 -0.6797,-4.0679 -0.8226,-6.1776 1.9591,0.7783 3.8026,1.7079 5.5617,2.7283 1.0595,-0.4596 2.1202,-0.8684 3.1722,-1.2433 0.8885,-0.3214 1.7785,-0.6263 2.6701,-0.9161 -0.4361,1.2359 -0.8395,2.4739 -1.2072,3.7127 -0.1987,0.6705 -0.3866,1.3427 -0.5587,2.0133 1.2497,1.5636 2.47,3.1437 3.6664,4.7314 z"
           id="path6590" />
        <path
           inkscape:connector-curvature="0"
           style="opacity:1;fill:#485a80;fill-opacity:1;stroke:none;stroke-width:26.06653595;stroke-linecap:round;stroke-linejoin:round;stroke-miterlimit:4;stroke-dasharray:none;stroke-dashoffset:0;stroke-opacity:1;paint-order:stroke fill markers"
           d="m -1428.0529,-1139.4827 c -1.8702,-0.6083 -3.749,-1.2032 -5.6374,-1.7835 -1.5539,1.2208 -3.0918,2.4514 -4.6123,3.6918 -0.08,-1.9959 -0.1542,-3.9924 -0.224,-5.9894 -1.6574,-1.1047 -3.3295,-2.1978 -5.0174,-3.2786 1.8805,-0.7071 3.7696,-1.3983 5.6665,-2.0747 0.5493,-1.9245 1.1119,-3.8485 1.687,-5.7714 1.2308,1.5865 2.449,3.1789 3.655,4.7766 2.0129,-0.052 4.0238,-0.088 6.0325,-0.1108 -1.1814,1.6187 -2.3476,3.2422 -3.4977,4.8703 0.6544,1.8884 1.3037,3.778 1.9478,5.6689 z"
           id="path6588" />
        <path
           inkscape:connector-curvature="0"
           style="opacity:1;fill:#485a80;fill-opacity:1;stroke:none;stroke-width:26.06653595;stroke-linecap:round;stroke-linejoin:round;stroke-miterlimit:4;stroke-dasharray:none;stroke-dashoffset:0;stroke-opacity:1;paint-order:stroke fill markers"
           d="m -1370.5612,-1145.1139 c -1.8122,-0.7983 -3.6308,-1.5893 -5.4558,-2.3728 -1.6902,1.0437 -3.3725,2.0938 -5.0468,3.1503 0.1567,-1.9922 0.3159,-3.9845 0.4779,-5.9767 -1.5238,-1.2885 -3.056,-2.5716 -4.5971,-3.8494 1.9477,-0.4739 3.8988,-0.9392 5.8535,-1.3957 0.7607,-1.8503 1.5285,-3.6993 2.3035,-5.5471 1.0399,1.7134 2.0725,3.4291 3.098,5.1471 2.0007,0.1638 3.9995,0.3364 5.9962,0.5176 -1.3356,1.4913 -2.6625,2.9864 -3.9804,4.4852 0.4532,1.9467 0.9036,3.8941 1.351,5.8415 z"
           id="path6586" />
        <path
           inkscape:connector-curvature="0"
           style="opacity:1;fill:#485a80;fill-opacity:1;stroke:none;stroke-width:26.06653595;stroke-linecap:round;stroke-linejoin:round;stroke-miterlimit:4;stroke-dasharray:none;stroke-dashoffset:0;stroke-opacity:1;paint-order:stroke fill markers"
           d="m -1312.5864,-1145.7349 c -1.7451,-0.9384 -3.497,-1.8705 -5.2555,-2.7964 -1.7692,0.9064 -3.5319,1.8193 -5.2882,2.7382 0.3163,-1.9734 0.6348,-3.9467 0.9556,-5.9198 -1.4162,-1.4062 -2.8407,-2.8086 -4.2729,-4.2069 1.9788,-0.3149 3.9602,-0.622 5.9442,-0.9215 0.9057,-1.7839 1.8175,-3.5662 2.7355,-5.3468 0.8998,1.7907 1.7928,3.5829 2.6791,5.3766 1.9811,0.3214 3.9599,0.6506 5.9361,0.988 -1.4485,1.3818 -2.8888,2.7681 -4.3212,4.1586 0.2987,1.9765 0.5944,3.9531 0.8873,5.93 z"
           id="path6584" />
        <path
           inkscape:connector-curvature="0"
           style="opacity:1;fill:#485a80;fill-opacity:1;stroke:none;stroke-width:26.06653595;stroke-linecap:round;stroke-linejoin:round;stroke-miterlimit:4;stroke-dasharray:none;stroke-dashoffset:0;stroke-opacity:1;paint-order:stroke fill markers"
           d="m -1254.8556,-1141.6128 c -1.644,-1.0918 -3.3001,-2.1757 -4.9667,-3.2521 -1.8377,0.7484 -3.6681,1.506 -5.4923,2.2714 0.4835,-1.9394 0.9695,-3.8786 1.4587,-5.8172 -1.2894,-1.5231 -2.5896,-3.0417 -3.899,-4.5564 1.9994,-0.1464 4.0018,-0.2833 6.0069,-0.41 1.0577,-1.6991 2.1234,-3.3955 3.1976,-5.0888 0.743,1.8633 1.4773,3.7282 2.2021,5.5944 1.9482,0.497 3.8925,1.0049 5.8321,1.5245 -1.5727,1.2416 -3.1338,2.4909 -4.684,3.7473 0.1185,1.9959 0.234,3.9914 0.3446,5.9869 z"
           id="path6582" />
        <path
           inkscape:connector-curvature="0"
           style="opacity:1;fill:#485a80;fill-opacity:1;stroke:none;stroke-width:26.06653595;stroke-linecap:round;stroke-linejoin:round;stroke-miterlimit:4;stroke-dasharray:none;stroke-dashoffset:0;stroke-opacity:1;paint-order:stroke fill markers"
           d="m -1201.545,-1127.9399 c -1.3097,-1.3658 -2.6792,-2.7149 -4.095,-4.0481 -1.8997,0.4369 -3.7852,0.9092 -5.6629,1.4052 0.7656,-1.8513 1.5392,-3.6997 2.3209,-5.545 -1.0302,-1.7043 -2.097,-3.4028 -3.1884,-5.0935 2.0143,0.1402 4.0341,0.3067 6.0589,0.5103 1.3283,-1.508 2.681,-3.0013 4.0623,-4.4765 0.4469,1.9779 0.8639,3.9549 1.2452,5.9289 1.8526,0.8597 3.6837,1.7581 5.4851,2.7017 -1.8234,0.8555 -3.6053,1.7563 -5.3532,2.6941 -0.2749,1.9787 -0.5658,3.9532 -0.8729,5.9229 z"
           id="path6526" />
        <path
           id="path6626"
           d="m -1230.2818,-1115.3748 c 1.7315,0.5404 3.4713,1.0675 5.2204,1.5804 1.4184,-1.1459 2.8211,-2.301 4.2068,-3.466 0.099,1.8419 0.1944,3.6842 0.2845,5.5272 1.5438,0.9987 3.1019,1.986 4.6755,2.9613 -1.7275,0.6782 -3.4634,1.341 -5.207,1.9893 -0.4833,1.7839 -0.9795,3.5672 -1.4881,5.3496 -1.1566,-1.4496 -2.3011,-2.905 -3.4338,-4.3658 -1.8584,0.071 -3.715,0.1284 -5.5697,0.1705 1.0733,-1.5074 2.1316,-3.0193 3.1739,-4.5356 -0.6258,-1.7357 -1.2466,-3.4727 -1.8625,-5.2109 z"
           style="opacity:1;fill:#485a80;fill-opacity:1;stroke:none;stroke-width:24.0678997;stroke-linecap:round;stroke-linejoin:round;stroke-miterlimit:4;stroke-dasharray:none;stroke-dashoffset:0;stroke-opacity:1;paint-order:stroke fill markers"
           inkscape:connector-curvature="0" />
      </g>
      <g
         aria-label="MAR DEL PLATA"
         style="font-style:normal;font-variant:normal;font-weight:500;font-stretch:normal;font-size:45.14413452px;line-height:1.25;font-family:'Fibon Sans';-inkscape-font-specification:'Fibon Sans, Medium';font-variant-ligatures:normal;font-variant-caps:normal;font-variant-numeric:normal;font-feature-settings:normal;text-align:start;letter-spacing:0px;word-spacing:0px;writing-mode:lr-tb;text-anchor:start;fill:#485a80;fill-opacity:1;stroke:none;stroke-width:1.12860334"
         id="text6677">
        <path
           d="m -1512.2293,-694.5697 0.1805,-1.44461 c 0.6321,-6.32018 1.3544,-13.00152 2.0315,-19.27655 l 0.6772,-5.91388 9.7511,16.47761 h 2.6184 l 4.4693,-7.40364 c 1.8057,-3.0698 3.7469,-6.18475 5.5978,-9.2094 l 2.8441,26.77047 h 3.431 l -3.4761,-33.04551 h -3.0698 l -7.9454,13.04666 -3.2052,5.19157 -10.7895,-18.23823 h -2.9795 l -3.4761,33.04551 z"
           style="fill:#485a80;fill-opacity:1;stroke-width:1.12860334"
           id="path7606"
           inkscape:connector-curvature="0" />
        <path
           d="m -1445.7814,-694.5697 -13.769,-33.54209 h -2.5732 l -14.4461,33.54209 h 3.6567 l 1.4446,-3.38581 0.9029,-1.98634 0.316,-0.67717 0.8577,-1.94119 h 16.6131 l 3.2503,7.99051 z m -15.0781,-27.7185 3.2955,7.99051 c 1.0834,2.70865 2.3023,5.4173 3.4761,8.35167 h -13.9947 z"
           style="fill:#485a80;fill-opacity:1;stroke-width:1.12860334"
           id="path7608"
           inkscape:connector-curvature="0" />
        <path
           d="m -1438.5626,-694.5697 v -9.97686 h 2.7538 c 0.9932,0 3.9727,0 5.5528,-0.13543 1.896,4.19841 4.5144,7.44878 7.9453,10.11229 h 5.8688 c -5.1013,-3.43096 -8.4871,-6.99734 -10.4283,-10.74431 4.695,-1.62519 8.0808,-5.50758 8.0808,-10.78944 0,-7.85508 -6.2299,-11.5569 -13.5884,-11.5569 h -9.6157 v 33.09065 z m 0,-13.36267 v -16.38732 h 6.1848 c 5.5979,0 10.2477,2.61836 10.2477,8.21624 0,5.68816 -5.2367,8.17108 -10.7894,8.17108 z"
           style="fill:#485a80;fill-opacity:1;stroke-width:1.12860334"
           id="path7610"
           inkscape:connector-curvature="0" />
        <path
           d="m -1394.784,-694.5697 c 11.1957,0 16.929,-8.35167 16.929,-16.65819 0,-8.26137 -5.643,-16.43246 -17.0193,-16.43246 h -8.9837 v 33.09065 z m -5.6882,-3.34067 v -26.36417 h 5.5979 c 9.1191,0 13.5884,6.5459 13.5884,13.04665 0,6.63619 -4.6047,13.31752 -13.4981,13.31752 z"
           style="fill:#485a80;fill-opacity:1;stroke-width:1.12860334"
           id="path7612"
           inkscape:connector-curvature="0" />
        <path
           d="m -1357.0019,-710.46044 h -13.2724 v -13.8141 h 19.728 v -3.38581 h -23.1138 v 33.09065 h 23.1138 v -3.38581 h -19.728 v -9.07397 h 13.2724 z"
           style="fill:#485a80;fill-opacity:1;stroke-width:1.12860334"
           id="path7614"
           inkscape:connector-curvature="0" />
        <path
           d="m -1323.3442,-694.5697 v -3.38581 h -19.7731 v -29.61455 h -3.3858 v 33.00036 z"
           style="fill:#485a80;fill-opacity:1;stroke-width:1.12860334"
           id="path7616"
           inkscape:connector-curvature="0" />
        <path
           d="m -1305.0269,-694.5697 v -9.97686 h 6.4104 c 9.3449,0 13.9496,-6.09445 13.8593,-12.09862 -0.09,-5.50759 -4.3339,-11.01517 -13.2272,-11.01517 h -10.4283 v 33.09065 z m 0,-13.36267 v -16.34217 h 7.0425 c 6.5007,0 9.7511,3.7921 9.7962,7.6745 0.09,4.28869 -3.5212,8.66767 -10.4283,8.66767 z"
           style="fill:#485a80;fill-opacity:1;stroke-width:1.12860334"
           id="path7618"
           inkscape:connector-curvature="0" />
        <path
           d="m -1257.5677,-694.5697 v -3.38581 h -19.7732 v -29.61455 h -3.3858 v 33.00036 z"
           style="fill:#485a80;fill-opacity:1;stroke-width:1.12860334"
           id="path7620"
           inkscape:connector-curvature="0" />
        <path
           d="m -1223.2349,-694.5697 -13.769,-33.54209 h -2.5732 l -14.4461,33.54209 h 3.6566 l 1.4447,-3.38581 0.9028,-1.98634 0.3161,-0.67717 0.8577,-1.94119 h 16.613 l 3.2504,7.99051 z m -15.0782,-27.7185 3.2956,7.99051 c 1.0834,2.70865 2.3023,5.4173 3.4761,8.35167 h -13.9947 z"
           style="fill:#485a80;fill-opacity:1;stroke-width:1.12860334"
           id="path7622"
           inkscape:connector-curvature="0" />
        <path
           d="m -1213.4527,-724.27454 h 11.5117 v -3.38581 h -26.4545 v 3.38581 h 11.5118 v 29.70484 h 3.431 z"
           style="fill:#485a80;fill-opacity:1;stroke-width:1.12860334"
           id="path7624"
           inkscape:connector-curvature="0" />
        <path
           d="m -1176.5037,-694.5697 -13.769,-33.54209 h -2.5732 l -14.4461,33.54209 h 3.6567 l 1.4446,-3.38581 0.9029,-1.98634 0.316,-0.67717 0.8577,-1.94119 h 16.6131 l 3.2503,7.99051 z m -15.0781,-27.7185 3.2955,7.99051 c 1.0834,2.70865 2.3023,5.4173 3.4761,8.35167 h -13.9947 z"
           style="fill:#485a80;fill-opacity:1;stroke-width:1.12860334"
           id="path7626"
           inkscape:connector-curvature="0" />
      </g>
      <g
         aria-label="I.P.R."
         style="font-style:normal;font-variant:normal;font-weight:500;font-stretch:normal;font-size:45.14413452px;line-height:1.25;font-family:'Fibon Sans';-inkscape-font-specification:'Fibon Sans, Medium';font-variant-ligatures:normal;font-variant-caps:normal;font-variant-numeric:normal;font-feature-settings:normal;text-align:start;letter-spacing:0px;word-spacing:0px;writing-mode:lr-tb;text-anchor:start;fill:#485a80;fill-opacity:1;stroke:none;stroke-width:1.12860334"
         id="text6681">
        <path
           d="m -1389.1213,-627.49487 v -33.09065 h -3.431 v 33.09065 z"
           style="fill:#485a80;fill-opacity:1;stroke-width:1.12860334"
           id="path7629"
           inkscape:connector-curvature="0" />
        <path
           d="m -1380.5573,-627.54002 c 1.1286,0 2.1217,-0.85774 2.1217,-2.03148 0,-1.21889 -0.9931,-2.07663 -2.1217,-2.07663 -1.1738,0 -2.0315,0.85774 -2.0315,2.07663 0,1.17374 0.8577,2.03148 2.0315,2.03148 z"
           style="fill:#485a80;fill-opacity:1;stroke-width:1.12860334"
           id="path7631"
           inkscape:connector-curvature="0" />
        <path
           d="m -1370.0261,-627.49487 v -9.97686 h 6.4105 c 9.3449,0 13.9496,-6.09445 13.8593,-12.09862 -0.09,-5.50759 -4.3339,-11.01517 -13.2273,-11.01517 h -10.4283 v 33.09065 z m 0,-13.36267 v -16.34217 h 7.0425 c 6.5008,0 9.7512,3.7921 9.7963,7.6745 0.09,4.28869 -3.5212,8.66767 -10.4283,8.66767 z"
           style="fill:#485a80;fill-opacity:1;stroke-width:1.12860334"
           id="path7633"
           inkscape:connector-curvature="0" />
        <path
           d="m -1342.1143,-627.54002 c 1.1286,0 2.1218,-0.85774 2.1218,-2.03148 0,-1.21889 -0.9932,-2.07663 -2.1218,-2.07663 -1.1737,0 -2.0315,0.85774 -2.0315,2.07663 0,1.17374 0.8578,2.03148 2.0315,2.03148 z"
           style="fill:#485a80;fill-opacity:1;stroke-width:1.12860334"
           id="path7635"
           inkscape:connector-curvature="0" />
        <path
           d="m -1331.5379,-627.49487 v -9.97686 h 2.7538 c 0.9932,0 3.9727,0 5.5528,-0.13543 1.896,4.19841 4.5144,7.44878 7.9453,10.11229 h 5.8688 c -5.1013,-3.43096 -8.4871,-6.99734 -10.4283,-10.74431 4.695,-1.62519 8.0808,-5.50758 8.0808,-10.78945 0,-7.85507 -6.2299,-11.55689 -13.5884,-11.55689 h -9.6157 v 33.09065 z m 0,-13.36267 v -16.38732 h 6.1848 c 5.5979,0 10.2477,2.61836 10.2477,8.21623 0,5.68817 -5.2367,8.17109 -10.7894,8.17109 z"
           style="fill:#485a80;fill-opacity:1;stroke-width:1.12860334"
           id="path7637"
           inkscape:connector-curvature="0" />
        <path
           d="m -1304.1121,-627.54002 c 1.1286,0 2.1218,-0.85774 2.1218,-2.03148 0,-1.21889 -0.9932,-2.07663 -2.1218,-2.07663 -1.1737,0 -2.0315,0.85774 -2.0315,2.07663 0,1.17374 0.8578,2.03148 2.0315,2.03148 z"
           style="fill:#485a80;fill-opacity:1;stroke-width:1.12860334"
           id="path7639"
           inkscape:connector-curvature="0" />
      </g>
      <path
         inkscape:connector-curvature="0"
         id="path6683"
         d="m -1346.793,-1063.6074 c -0.3542,-0.02 -0.6778,0.057 -0.9687,0.2363 -4.862,3.0049 -16.3166,25.3084 -21.2617,41.3984 -2.6572,8.6461 -5.4887,17.6498 -6.2911,20.0079 -0.8773,2.5775 -3.6437,-1.4987 -6.9375,-10.2207 -17.3655,-45.9846 -76.4183,-68.974 -77.5214,-30.1797 0,0.1502 0,0.2891 0,0.4375 a 15.635062,15.394067 0 0 0 -0.291,2.8925 15.635062,15.394067 0 0 0 15.6348,15.3946 15.635062,15.394067 0 0 0 15.6347,-15.3946 15.635062,15.394067 0 0 0 -2.584,-8.4531 c 2.1084,0.039 6.2196,3.8502 9.375,10.0059 3.1943,6.2313 4.3415,18.9307 4.5,49.80857 0.2558,49.84401 0.011,47.89502 6.2188,49.3086 2.751,0.62639 7.3844,-0.0376 10.2969,-1.47657 4.8049,-2.37376 5.1909,-5.70119 4.166,-35.9414 -0.998,-29.4471 -2.0356,-35.0731 -8.916,-48.332 -8.8362,-17.0281 -4.5616,-21.1393 5.623,-5.4082 10.2003,15.7557 15.2695,34.96076 15.2695,57.85738 10e-5,24.83222 3.0586,32.58204 12.8614,32.58204 9.8699,0 11.8789,-5.93675 14.0176,-41.44336 2.0918,-34.73026 6.37,-60.46696 10.4746,-63.00386 5.0085,-3.0954 8.6696,14.0921 11.5019,53.98628 1.5561,21.91723 4.1081,42.23616 5.6699,45.1543 3.7376,6.98371 15.9044,6.84628 19.6875,-0.22266 1.6274,-3.04066 2.959,-15.05561 2.959,-26.69922 0,-23.9302 5.0383,-43.6891 14.7949,-58.0176 10.1281,-14.8744 14.7489,-12.1984 6.5372,3.7852 -8.2877,16.1315 -14.2093,52.53695 -11.4922,70.65623 2.2605,15.07405 9.128,20.71703 17.6328,14.49023 4.8844,-3.57614 5.3965,-8.12021 5.3965,-47.86523 0,-37.21573 0.7715,-45.09493 5.0664,-51.67183 3.7042,-5.6724 6.9265,-8.155 8.5156,-7.3868 a 15.635062,15.394067 0 0 0 -2.4609,8.2871 15.635062,15.394067 0 0 0 15.6347,15.3946 15.635062,15.394067 0 0 0 15.6348,-15.3946 15.635062,15.394067 0 0 0 -1.0859,-5.5957 c -1.5476,-17.437 -16.8049,-22.1161 -38.8477,-11.4453 -15.4611,7.4845 -28.4701,22.2506 -37.4629,42.5254 l -7.0391,15.87307 -6.3632,-21.99607 c -6.239,-21.5676 -18.2679,-43.6304 -23.5821,-43.9336 z m -58.1855,132.42185 a 14.141222,13.923252 0 0 0 -14.1406,13.92188 14.141222,13.923252 0 0 0 14.1406,13.92383 14.141222,13.923252 0 0 0 14.1406,-13.92383 14.141222,13.923252 0 0 0 -14.1406,-13.92188 z m 39.9922,0 a 14.141222,13.923252 0 0 0 -14.1426,13.92188 14.141222,13.923252 0 0 0 14.1426,13.92383 14.141222,13.923252 0 0 0 14.1406,-13.92383 14.141222,13.923252 0 0 0 -14.1406,-13.92188 z m 39.2636,0 a 14.141222,13.923252 0 0 0 -14.1406,13.92188 14.141222,13.923252 0 0 0 14.1406,13.92383 14.141222,13.923252 0 0 0 14.1407,-13.92383 14.141222,13.923252 0 0 0 -14.1407,-13.92188 z m 37.8086,0 a 14.141222,13.923252 0 0 0 -14.1406,13.92188 14.141222,13.923252 0 0 0 14.1406,13.92383 14.141222,13.923252 0 0 0 14.1426,-13.92383 14.141222,13.923252 0 0 0 -14.1426,-13.92188 z m -79.8496,37.83203 c -8.8481,0 -11.3652,9.2529 -11.3652,41.78321 -10e-5,38.08736 -5.33,51.65218 -25.2656,64.29492 -18.6279,11.81345 -22.7508,10.40045 -10.7071,-3.66992 18.5753,-21.70103 28.5114,-60.03572 21.9004,-84.4961 -3.3812,-12.51027 -10.8877,-19.12115 -18.4258,-16.22851 -6.0946,2.3387 -6.4108,6.28552 -3.5449,44.3418 2.7868,37.00526 1.1222,45.28204 -11.6836,58.08789 -11.0409,11.04085 -24.3859,14.38565 -35.7929,8.97265 -10.6568,-5.05693 -14.9225,-10.71603 -17.7364,-23.52734 l -1.6504,-7.51758 a 17.650705,17.378641 0 0 0 13.7071,6.45117 17.650705,17.378641 0 0 0 17.6523,-17.3789 17.650705,17.378641 0 0 0 -12.668,-16.65821 c -4.0222,-1.903 -8.982,-2.2058 -14.2187,-0.21484 -9.0004,3.422 -13.0352,11.21675 -13.0352,25.17969 0,35.42991 49.0266,55.52564 88.0372,36.08593 20.3853,-10.15841 33.7631,-26.67214 41.0527,-50.67187 5.341,-17.58394 6.4105,-19.1637 10.3203,-15.25391 3.9096,3.90971 3.6717,5.93389 -2.2949,19.54883 -8.726,19.91098 -8.6742,39.16487 0.1601,59.33203 l 6.8164,15.56055 6.3789,-14.13086 c 8.3569,-18.5122 8.7278,-43.75275 0.8965,-61.01367 -5.4488,-12.00925 -5.3274,-23.14649 0.2539,-23.14649 1.4361,0 3.3701,3.53829 4.295,7.86133 9.0728,42.40293 38.8435,69.31055 76.6855,69.31055 30.5587,0 52.027,-15.638 55.3359,-40.3086 1.9318,-14.40251 -3.0981,-24.21571 -14.4355,-28.16796 -7.0728,-2.46563 -13.0234,-1.57504 -16.8633,1.90429 a 17.650705,17.378641 0 0 0 -8.414,14.78321 17.650705,17.378641 0 0 0 17.6503,17.3789 17.650705,17.378641 0 0 0 12.9942,-5.64453 c 1.6047,1.72758 0.32,5.24293 -2.6582,12.2793 -11.5913,27.38621 -42.4289,27.41611 -59.3379,0.0566 -5.8434,-9.45503 -6.0635,-12.12166 -4.1836,-50.78711 1.7599,-36.19998 1.4578,-41.00935 -2.666,-42.5918 -13.4084,-5.1453 -22.9316,14.36485 -20.6836,42.3711 1.6141,20.10773 9.8875,40.90415 22.584,56.76562 4.8021,5.99924 8.0789,11.56158 7.2812,12.35938 -1.8057,1.80568 -18.7337,-6.63139 -25.8672,-12.89258 -13.0603,-11.46337 -17.1737,-25.82843 -16.8379,-58.80078 0.3333,-32.72938 -1.854,-41.60743 -10.2539,-41.60743 -7.6659,0 -11.9043,5.83209 -11.9043,16.38282 0,5.23815 -1.9626,14.22503 -4.3632,19.9707 -3.9292,9.40374 -4.8041,10.0084 -8.7637,6.04883 -2.4192,-2.41936 -5.3469,-11.37459 -6.5039,-19.90039 -2.5062,-18.46832 -4.635,-22.50196 -11.877,-22.50196 z m 22.3692,74.14258 c 1.9907,0.12036 3.8385,2.52287 5.0644,8.03125 0.962,4.32304 2.3115,9.96299 3,12.53321 0.6884,2.57022 0.027,10.12039 -1.4687,16.77929 -4.9974,22.24197 -13.0781,20.50539 -16.3711,-3.51953 -2.3379,-17.05669 4.2715,-34.15718 9.7754,-33.82422 z"
         style="opacity:1;fill:#485a80;fill-opacity:1;stroke:none;stroke-width:12.93862343;stroke-linecap:round;stroke-linejoin:round;stroke-miterlimit:4;stroke-dasharray:none;stroke-dashoffset:0;stroke-opacity:1;paint-order:stroke fill markers" />
    </g>
  </g>
</svg>
