<?xml version="1.0" encoding="UTF-8" standalone="no"?>
<svg
   xmlns:dc="http://purl.org/dc/elements/1.1/"
   xmlns:cc="http://creativecommons.org/ns#"
   xmlns:rdf="http://www.w3.org/1999/02/22-rdf-syntax-ns#"
   xmlns:svg="http://www.w3.org/2000/svg"
   xmlns="http://www.w3.org/2000/svg"
   xmlns:sodipodi="http://sodipodi.sourceforge.net/DTD/sodipodi-0.dtd"
   xmlns:inkscape="http://www.inkscape.org/namespaces/inkscape"
   id="icon"
   version="1.1"
   viewBox="0 0 24.11 24"
   sodipodi:docname="service.svg"
   inkscape:version="0.92.3 (2405546, 2018-03-11)">
  <metadata
     id="metadata15">
    <rdf:RDF>
      <cc:Work
         rdf:about="">
        <dc:format>image/svg+xml</dc:format>
        <dc:type
           rdf:resource="http://purl.org/dc/dcmitype/StillImage" />
        <dc:title>icons</dc:title>
      </cc:Work>
    </rdf:RDF>
  </metadata>
  <sodipodi:namedview
     pagecolor="#ffffff"
     bordercolor="#666666"
     borderopacity="1"
     objecttolerance="10"
     gridtolerance="10"
     guidetolerance="10"
     inkscape:pageopacity="0"
     inkscape:pageshadow="2"
     inkscape:window-width="1920"
     inkscape:window-height="1030"
     id="namedview13"
     showgrid="false"
     inkscape:zoom="9.7084879"
     inkscape:cx="9.9575788"
     inkscape:cy="22.191414"
     inkscape:window-x="0"
     inkscape:window-y="24"
     inkscape:window-maximized="1"
     inkscape:current-layer="icon" />
  <defs
     id="defs4">
    <style
       id="style2">.cls-1{fill:#fff;}.cls-2{fill:#081A2B;}.cls-3{fill:#ebbd41;}</style>
  </defs>
  <title
     id="title6">icons</title>
  <path
     style="fill:#4e4f77;fill-opacity:1;stroke-width:0.03923879"
     d="m 2.9725994,2.3073524 a 0.12004304,0.12004304 0 0 0 -0.050073,0.011385 L 2.7040293,2.4211585 C 2.4016492,2.5629552 2.1675783,2.7970266 2.0257771,3.0994056 L 1.9210802,3.317903 a 0.12004304,0.12004304 0 0 0 -0.011385,0.052348 l -0.011385,1.3929211 c -0.00681,0.7527494 -0.00734,1.1582687 0.018208,1.4065771 0.012773,0.1241544 0.031355,0.2113421 0.068281,0.284502 0.036925,0.07316 0.09336,0.1238462 0.1456649,0.159321 0.024422,0.016564 0.065246,0.03224 0.1115246,0.040968 0.04628,0.00872 0.1064275,0.015131 0.2025653,0.020484 0.1922753,0.01071 0.529575,0.017254 1.1493877,0.02276 1.2396251,0.011012 3.6107693,0.015582 8.1982043,0.020484 l 9.365812,0.00911 v 3.0179958 3.138625 a 0.12004304,0.12004304 0 0 0 0.120629,0.120628 h 0.411958 0.41196 a 0.12004304,0.12004304 0 0 0 0.120627,-0.120628 V 9.5154969 c 0,-1.150714 -0.0042,-2.0034007 -0.01142,-2.5787252 -0.0036,-0.2876622 -0.0081,-0.5048161 -0.01365,-0.6577683 -0.0027,-0.076476 -0.0057,-0.1367843 -0.0091,-0.1820812 -0.0033,-0.045297 8.48e-4,-0.061112 -0.01593,-0.1092487 -0.03553,-0.1019218 -0.100874,-0.1913267 -0.191186,-0.2526377 -0.02761,-0.018739 -0.06872,-0.032731 -0.116079,-0.040968 -0.04736,-0.00823 -0.110355,-0.013031 -0.209393,-0.018208 -0.198078,-0.01036 -0.540246,-0.017387 -1.16532,-0.02276 -1.250147,-0.010744 -3.624014,-0.01563 -8.170893,-0.020484 l -9.3658,-0.011385 0.0091,-0.9832384 C 2.969931,4.0434816 2.976993,3.7338107 3.002153,3.5841974 3.014732,3.5093914 3.02845,3.481423 3.040845,3.4658446 c 0.012396,-0.015578 0.033002,-0.030712 0.081936,-0.0569 v 0.00227 c -0.033379,0.01785 -0.020538,0.00634 -0.00683,0.00455 0.01371,-0.00179 0.036279,-0.00477 0.068281,-0.00683 0.064003,-0.00411 0.1634758,-0.00796 0.30271,-0.011385 0.2784683,-0.00683 0.71943,-0.012011 1.386093,-0.015932 1.3333261,-0.00784 3.5679437,-0.0091 7.20814,-0.0091 h 8.86963 l 0.09559,0.09104 0.09332,0.095592 0.01142,0.6577683 0.01142,0.7055646 a 0.12004304,0.12004304 0 0 0 0.120629,0.1183528 h 0.414235 0.411959 A 0.12004304,0.12004304 0 0 0 22.230039,4.9179411 L 22.216385,4.14182 C 22.209944,3.7716625 22.205517,3.5750863 22.189039,3.4339728 22.172539,3.2928664 22.13897,3.2063301 22.088847,3.0994056 21.947093,2.7970274 21.712992,2.5629635 21.410595,2.421153 L 21.189822,2.318732 A 0.12004304,0.12004304 0 0 0 21.139752,2.307347 H 12.056174 Z M 3.6986481,3.9756713 A 0.12004304,0.12004304 0 0 0 3.5780194,4.0963 V 4.5082588 4.9202175 A 0.12004304,0.12004304 0 0 0 3.6986481,5.0408463 H 4.1106069 4.5225656 A 0.12004304,0.12004304 0 0 0 4.6431944,4.9202175 V 4.5082588 4.0963 A 0.12004304,0.12004304 0 0 0 4.5225656,3.9756713 H 4.1106069 Z m 1.6478348,0 A 0.12004304,0.12004304 0 0 0 5.2258542,4.0963 V 4.5082588 4.9202175 A 0.12004304,0.12004304 0 0 0 5.3464829,5.0408463 H 5.7789258 6.2090926 A 0.12004304,0.12004304 0 0 0 6.3297214,4.9202175 V 4.5082588 4.0963 A 0.12004304,0.12004304 0 0 0 6.2090926,3.9756713 H 5.7789258 Z m 1.6865271,0 A 0.12004304,0.12004304 0 0 0 6.9123813,4.0963 V 4.5082588 4.9202175 A 0.12004304,0.12004304 0 0 0 7.03301,5.0408463 H 7.4472448 7.8592034 A 0.12004304,0.12004304 0 0 0 7.9798322,4.9202175 V 4.5082588 4.0963 A 0.12004304,0.12004304 0 0 0 7.8592034,3.9756713 H 7.4472448 Z M 2.012121,7.3100333 A 0.12004304,0.12004304 0 0 0 1.8914923,7.430662 v 6.124756 c 0,2.277766 0.00427,3.820661 0.011385,4.811496 0.00355,0.495418 0.00774,0.851622 0.013656,1.094763 0.00295,0.121571 0.00541,0.216248 0.0091,0.284503 0.0037,0.06825 0.00511,0.102374 0.015933,0.145664 0.1078818,0.431405 0.427014,0.793647 0.8421256,0.955926 0.053553,0.02095 0.1224518,0.03745 0.2640177,0.0478 0.1415659,0.01042 0.3654907,0.01808 0.7556369,0.02276 0.7802928,0.0093 2.2264553,0.01048 4.9867488,0.01142 l 5.7787997,0.0023 a 0.12004304,0.12004304 0 0 0 0.12063,-0.120599 v -0.412055 -0.41196 a 0.12004304,0.12004304 0 0 0 -0.12063,-0.120629 H 8.8811342 c -2.1072139,0 -3.5348463,-0.002 -4.4450572,-0.0091 -0.4551055,-0.0036 -0.7816228,-0.0078 -0.9968945,-0.01365 -0.1076359,-0.0029 -0.1876255,-0.008 -0.2412577,-0.01142 -0.026816,-0.0017 -0.046968,-0.003 -0.059176,-0.0046 -0.022473,-0.01252 -0.093161,-0.07205 -0.1138004,-0.102416 0.00248,0.0036 -0.00883,-0.0098 -0.018208,-0.141113 -0.00937,-0.131301 -0.017501,-0.365392 -0.02276,-0.776122 -0.010523,-0.821419 -0.013355,-2.354593 -0.018207,-5.246175 L 2.9543912,7.430662 A 0.12004304,0.12004304 0 0 0 2.8337624,7.3100333 H 2.4240798 Z m 1.6865271,0 A 0.12004304,0.12004304 0 0 0 3.5780194,7.430662 V 7.8426206 8.2545793 A 0.12004304,0.12004304 0 0 0 3.6986481,8.3752081 H 5.7789258 7.8592034 A 0.12004304,0.12004304 0 0 0 7.9798322,8.2545793 V 7.8426206 7.430662 A 0.12004304,0.12004304 0 0 0 7.8592034,7.3100333 H 5.7789258 Z m 13.0597729,0.0091 c -1.161317,-0.00396 -2.028942,-0.00261 -2.619694,0.00227 -0.295375,0.00245 -0.521234,0.00662 -0.680527,0.011385 -0.07965,0.00238 -0.143541,0.00374 -0.191185,0.00683 -0.04765,0.00309 -0.06977,0.00155 -0.111522,0.013656 -0.112617,0.032659 -0.215001,0.096617 -0.282225,0.1957373 -0.0229,0.033753 -0.04459,0.08437 -0.0569,0.147941 -0.01232,0.063572 -0.02013,0.1454523 -0.02505,0.2753978 -0.0098,0.2598907 -0.01142,0.7147224 -0.01142,1.565898 v 1.8117086 a 0.12004304,0.12004304 0 0 0 0.03415,0.08421 l 0.113805,0.116077 c 0.03758,0.03922 0.08073,0.07523 0.122905,0.104693 0.04218,0.02945 0.077,0.05569 0.134284,0.06827 0.03225,0.007 0.0519,0.0072 0.08876,0.0091 0.03687,0.002 0.08371,0.0011 0.136559,0.0023 0.105707,0.0021 0.23936,0.0042 0.375543,0.0023 0.202171,-0.0028 0.331567,-0.0095 0.430168,-0.02275 0.0986,-0.01334 0.171473,-0.03803 0.229877,-0.07739 0.194123,-0.130857 0.272665,-0.386079 0.198013,-0.612248 -0.03793,-0.114947 -0.113467,-0.213361 -0.220773,-0.273121 -0.107303,-0.05976 -0.236449,-0.08596 -0.402855,-0.09787 l -0.154768,-0.0091 V 9.5041974 8.375294 h 2.801773 2.801775 v 1.1357314 1.1357316 h -0.06601 -0.0023 c -0.221156,5.37e-4 -0.402803,0.0399 -0.539415,0.132008 -0.137123,0.09245 -0.216222,0.246792 -0.216222,0.418787 0,0.238777 0.163007,0.442842 0.396027,0.507552 0.128824,0.03577 0.333915,0.04324 0.550795,0.04324 0.216882,0 0.419696,-0.0075 0.54852,-0.04324 0.113025,-0.03139 0.215374,-0.09358 0.286778,-0.184357 0.02233,-0.02845 0.05351,-0.07744 0.06828,-0.138837 0.01477,-0.06139 0.02211,-0.137931 0.02732,-0.264017 0.01032,-0.252173 0.01142,-0.706795 0.01142,-1.5932114 V 7.7060597 a 0.12004304,0.12004304 0 0 0 -0.03181,-0.07966 L 20.388661,7.4989424 20.274856,7.3714855 a 0.12004304,0.12004304 0 0 0 -0.08876,-0.040967 z M 3.6986481,8.9965602 A 0.12004304,0.12004304 0 0 0 3.5780194,9.117189 V 9.5291478 9.9411067 A 0.12004304,0.12004304 0 0 0 3.6986481,10.061735 H 7.8774115 12.056174 A 0.12004304,0.12004304 0 0 0 12.176803,9.9411067 V 9.5291478 9.117189 A 0.12004304,0.12004304 0 0 0 12.056174,8.9965602 H 7.8774115 Z m 12.8617599,0.00683 c -0.31293,0.022795 -0.621373,0.1547896 -0.867162,0.4005778 -0.219212,0.2192136 -0.327849,0.4421073 -0.380095,0.780674 -0.0093,0.06027 -0.01334,0.155313 -0.01821,0.307261 -0.0049,0.15195 -0.0087,0.354425 -0.01142,0.607697 -0.0055,0.506544 -0.0081,1.212079 -0.0046,2.098485 0.0052,1.284362 0.0091,1.968195 0.02048,2.346572 0.0057,0.189189 0.01334,0.300646 0.02505,0.380094 0.01168,0.07945 0.03407,0.138259 0.05917,0.175253 0.06365,0.09379 0.157779,0.159926 0.266294,0.195738 0.226244,0.07466 0.482631,-0.0014 0.614523,-0.195738 0.02579,-0.038 0.04758,-0.09773 0.05917,-0.179804 0.01154,-0.08208 0.01898,-0.197698 0.02505,-0.396027 0.01211,-0.396656 0.01809,-1.115785 0.02732,-2.462648 0.0053,-0.787345 0.01326,-1.509096 0.02276,-2.039309 0.0048,-0.265107 0.0088,-0.482813 0.01365,-0.635009 0.0024,-0.0761 0.0069,-0.136749 0.0091,-0.177529 8.4e-4,-0.01504 0.0016,-0.02267 0.0023,-0.03186 0.0028,-0.0021 0.004,-0.0031 0.02048,-0.01594 0.02375,-0.01841 0.05759,-0.03864 0.08649,-0.05234 0.13456,-0.06385 0.253701,-0.04237 0.345954,0.05463 l 0.06374,0.06828 0.01821,1.568174 c 0.01049,0.866404 0.01482,1.297333 0.04552,1.545414 0.01534,0.124042 0.03708,0.209185 0.08421,0.277674 0.04712,0.06849 0.11215,0.101113 0.163874,0.127458 0.03427,0.01746 0.06612,0.02613 0.118352,0.04325 0.05223,0.01711 0.117917,0.03835 0.195738,0.06144 0.155642,0.04619 0.353846,0.102176 0.5599,0.157046 0.533276,0.142004 1.044407,0.288428 1.454373,0.414235 0.409965,0.125806 0.725427,0.234253 0.848954,0.291329 0.244107,0.112792 0.479617,0.332695 0.578107,0.52576 0.06033,0.11825 0.09725,0.238926 0.120628,0.493895 0.02338,0.254968 0.02959,0.637663 0.02959,1.251807 v 1.160768 l -0.202565,0.414235 -0.216222,0.439271 a 0.12004304,0.12004304 0 0 0 -0.01365,0.05234 v 0.466582 0.343679 h -1.977857 -1.980132 v -0.364162 c 0,-0.147516 0.0041,-0.257342 -0.0091,-0.364163 -0.01321,-0.106825 -0.04936,-0.207941 -0.118353,-0.314089 -0.137975,-0.212298 -0.397668,-0.456816 -0.946821,-1.001447 -0.222268,-0.220436 -0.432201,-0.435042 -0.589488,-0.600869 -0.07865,-0.08291 -0.143969,-0.153892 -0.191185,-0.207116 -0.02361,-0.02662 -0.0415,-0.04983 -0.05462,-0.066 -0.01311,-0.01618 -0.02146,-0.03093 -0.01593,-0.02049 -0.06179,-0.116654 -0.09734,-0.22049 -0.120629,-0.400578 -0.02328,-0.180089 -0.03168,-0.433285 -0.03186,-0.821642 -1.35e-4,-0.224613 -0.0058,-0.431111 -0.01365,-0.591764 -0.004,-0.08033 -0.0081,-0.149778 -0.01365,-0.204841 -0.0055,-0.05506 -0.0073,-0.08766 -0.02276,-0.132009 -0.123753,-0.354993 -0.595175,-0.444967 -0.864886,-0.175253 a 0.12004304,0.12004304 0 0 0 -0.0023,0 l -0.113805,0.116077 a 0.12004304,0.12004304 0 0 0 -0.03415,0.08421 v 0.87399 c 5.94e-4,0.763401 0.0063,1.180859 0.175254,1.568174 0.168911,0.387316 0.484915,0.713364 1.081106,1.317813 l 0.821641,0.835297 v 0.266294 0.229878 l -0.05234,0.01822 c -0.06958,0.02297 -0.135555,0.04698 -0.195738,0.100144 -0.06018,0.05316 -0.09916,0.130104 -0.120629,0.223051 -0.04292,0.18589 -0.04324,0.462052 -0.04324,0.992342 0,0.521974 0.0024,0.800259 0.03869,0.985514 0.01815,0.09263 0.04739,0.167918 0.09786,0.225326 0.05047,0.0574 0.113047,0.08767 0.172978,0.113805 0.07493,0.03268 0.132298,0.05821 0.202564,0.06144 0.07027,0.0032 0.129165,-0.01607 0.207117,-0.04324 0.06471,-0.02256 0.12781,-0.04898 0.182081,-0.09786 0.05427,-0.04889 0.09273,-0.118499 0.116078,-0.198012 0.04668,-0.159029 0.05421,-0.376424 0.06144,-0.764741 l 0.01142,-0.578109 2.378435,0.0091 2.382988,0.01142 0.01593,0.596315 c 0.0093,0.340988 0.01522,0.520472 0.03186,0.639561 0.01671,0.119511 0.067,0.198182 0.116077,0.250362 0.158221,0.168205 0.405613,0.217215 0.609973,0.111521 0.06076,-0.03141 0.121712,-0.06652 0.170701,-0.125181 0.04899,-0.05866 0.0794,-0.135201 0.09786,-0.227602 0.03693,-0.184801 0.03877,-0.456332 0.03869,-0.962755 -6.4e-5,-0.417141 -0.0023,-0.649056 -0.01365,-0.79888 -0.01142,-0.149825 -0.04111,-0.233478 -0.08193,-0.300434 -0.06235,-0.102249 -0.159914,-0.185838 -0.275399,-0.227601 l -0.06144,-0.02049 v -0.259465 c 0,-0.335701 -0.0091,-0.297438 0.204841,-0.732877 l 0.218499,-0.443823 a 0.12004304,0.12004304 0 0 0 0.01365,-0.05234 l -0.01365,-1.511274 -0.01142,-1.511273 a 0.12004304,0.12004304 0 0 0 -0.0069,-0.04097 l -0.102385,-0.2822 c -0.18896,-0.516897 -0.554403,-0.948179 -1.03103,-1.22222 -0.332488,-0.191164 -1.033367,-0.408933 -2.920128,-0.928614 l -0.116077,-0.03186 -0.01142,-1.388369 -0.01142,-1.481687 A 0.12004304,0.12004304 0 0 0 17.989582,9.945732 L 17.887166,9.747718 a 0.12004304,0.12004304 0 0 0 0,-0.00229 C 17.669272,9.3326339 17.283214,9.0817174 16.872053,9.0170744 16.769225,9.0009067 16.664549,8.99582 16.560239,9.0034179 Z M 3.6986481,10.644396 a 0.12004304,0.12004304 0 0 0 -0.1206287,0.120629 v 0.432442 0.432442 a 0.12004304,0.12004304 0 0 0 0.1206287,0.12063 h 4.1787634 4.1787625 a 0.12004304,0.12004304 0 0 0 0.120629,-0.12063 V 11.197467 10.765025 A 0.12004304,0.12004304 0 0 0 12.056174,10.644396 H 7.8774115 Z m 0,1.688803 a 0.12004304,0.12004304 0 0 0 -0.1206287,0.120627 v 0.41196 0.411959 a 0.12004304,0.12004304 0 0 0 0.1206287,0.120629 h 4.1787634 4.1787625 a 0.12004304,0.12004304 0 0 0 0.120629,-0.120629 v -0.411959 -0.41196 A 0.12004304,0.12004304 0 0 0 12.056174,12.333199 H 7.8774115 Z m 0,1.686526 a 0.12004304,0.12004304 0 0 0 -0.1206287,0.120629 v 0.411959 0.411958 a 0.12004304,0.12004304 0 0 0 0.1206287,0.12063 h 4.1787634 4.1787625 a 0.12004304,0.12004304 0 0 0 0.120629,-0.12063 V 14.552313 14.140354 A 0.12004304,0.12004304 0 0 0 12.056174,14.019725 H 7.8774115 Z m 0,1.647835 a 0.12004304,0.12004304 0 0 0 -0.1206287,0.120628 v 0.432444 0.430167 a 0.12004304,0.12004304 0 0 0 0.1206287,0.120628 h 4.1787634 4.1787625 a 0.12004304,0.12004304 0 0 0 0.120629,-0.120628 V 16.220632 15.788188 A 0.12004304,0.12004304 0 0 0 12.056174,15.66756 H 7.8774115 Z m 0,1.688804 a 0.12004304,0.12004304 0 0 0 -0.1206287,0.120628 v 0.411959 0.411958 a 0.12004304,0.12004304 0 0 0 0.1206287,0.120629 H 5.7789258 7.8592034 A 0.12004304,0.12004304 0 0 0 7.9798322,18.300909 V 17.888951 17.476992 A 0.12004304,0.12004304 0 0 0 7.8592034,17.356364 H 5.7789258 Z"
     id="path826"
     inkscape:connector-curvature="0" />
</svg>
