<svg id="alarma" width="36" height="36" version="1.1" viewBox="0 0 36 36" xmlns="http://www.w3.org/2000/svg">
 <path id="agua" d="m19.84 0.029419a1.0001 1.0001 0 0 0-1 1v1.9336l-7.1426 0.02539a1 1 0 0 0-0.99805 1.0039 1 1 0 0 0 1.0039 0.99609l7.1367-0.025391v1.084c-2.1839 0.42353-3.8534 2.206-4.252 4.416-2.2881 0.07193-5.2701 0.44601-7.9824 1.8926-3.007 1.6038-5.5254 4.6192-5.5254 9.3926v2.9609a1.0001 1.0001 0 0 0 1 1h5.9199a1.0001 1.0001 0 0 0 1-1v-2.9609c0-1.0901 0.86159-1.959 1.9609-1.959h3.6426c0.48761 2.5004 2.599 4.4395 5.2363 4.4395h4.4395c2.6373 0 4.7507-1.9391 5.2383-4.4395h5.123a1.0001 1.0001 0 0 0 1-1v-7.4004a1.0001 1.0001 0 0 0-1-1h-5.123c-0.4242-2.1753-2.0786-3.9253-4.2383-4.3438v-1.0566h7.1504a1 1 0 0 0 1-1 1 1 0 0 0-1-1h-7.1504v-1.959a1.0001 1.0001 0 0 0-1-1zm1 2h2.4395v3.9199h-2.4395zm-1 5.9199h4.4395c1.9085 0 3.4414 1.531 3.4414 3.4395a1.0001 1.0001 0 0 0 0.0098 0.03711v7.3262a1.0001 1.0001 0 0 0-0.0098 0.03711c0 1.9085-1.5329 3.4395-3.4414 3.4395h-4.4395c-1.9085 0-3.4395-1.531-3.4395-3.4395v-7.4004c0-1.9085 1.531-3.4395 3.4395-3.4395zm9.8906 4.4395h3.9102v5.4004h-3.9102zm-15.33 0.0293v5.3711h-3.4395c-2.1806 0-3.9609 1.7891-3.9609 3.959v1.9609h-3.9199v-1.9609c0-4.1067 1.9219-6.2707 4.4648-7.627 2.1692-1.1569 4.8144-1.5977 6.8555-1.7031zm-10.121 14.371a1.0001 1.0001 0 0 0-0.85742 0.48438s-0.57613 0.96117-1.1562 2.0879c-0.29006 0.56336-0.58261 1.169-0.8125 1.7422-0.22989 0.57319-0.42383 1.0634-0.42383 1.6758 0 1.7887 1.4724 3.25 3.25 3.25 1.7776 0 3.25-1.4613 3.25-3.25 0-0.61242-0.19199-1.1026-0.42188-1.6758-0.22989-0.57319-0.52244-1.1788-0.8125-1.7422-0.58012-1.1267-1.1582-2.0879-1.1582-2.0879a1.0001 1.0001 0 0 0-0.85742-0.48438zm0 3.0625c0.11234 0.20722 0.11878 0.19748 0.23633 0.42578 0.27244 0.52914 0.54239 1.0916 0.73438 1.5703 0.19199 0.47868 0.2793 0.92406 0.2793 0.93164 0 0.71133-0.54764 1.25-1.25 1.25-0.70236 0-1.25-0.53867-1.25-1.25 0-0.0076 0.08926-0.45296 0.28125-0.93164 0.19199-0.47868 0.46194-1.0412 0.73437-1.5703 0.11737-0.22796 0.12219-0.21883 0.23438-0.42578z" style="-inkscape-stroke:none;color:black;fill:#4f4f77;solid-color:black;stroke-linecap:round;stroke-linejoin:round"/>
</svg>
