<svg id="alarma" width="36" height="36" version="1.1" viewBox="0 0 36 36" xmlns="http://www.w3.org/2000/svg">
 <path id="path2" d="m26.137-1.848e-4c-0.58479 0-1.0589 0.47414-1.0589 1.0589 0 0.58479 0.4741 1.0589 1.0589 1.0589v3.1761l-6.2128-4.6596c-1.122-0.84032-2.6887-0.84073-3.8111 0l-14.825 11.119c-1.4015 1.0513-1.6867 3.0467-0.6356 4.4479 0.50965 0.67908 1.2535 1.1187 2.0939 1.2385 0.15216 0.02277 0.30433 0.03415 0.45535 0.03415 0.36049 0 0.71464-0.06185 1.0507-0.181v14.829c0 0.58479 0.47414 1.0589 1.0589 1.0589h5.2945v1.9061c0 0.58479 0.47414 1.0589 1.0589 1.0589h12.707c0.58479 0 1.0589-0.47414 1.0589-1.0589v-1.9061h5.2945c0.58479 0 1.0589-0.47414 1.0589-1.0589v-14.829c0.3362 0.11877 0.69168 0.18024 1.057 0.18024 0.99536 0 1.946-0.47489 2.543-1.2705 1.051-1.401 0.76594-3.3958-0.6356-4.4473l-2.2585-1.6939v-7.9412c0.58479 0 1.0589-0.47414 1.0589-1.0589s-0.47414-1.0589-1.0589-1.0589zm2.1178 2.1178h2.1178v6.3528l-2.1178-1.5883zm-10.236 9.865e-4c0.22426 0 0.4481 0.069821 0.63495 0.20984l14.825 11.119c0.4673 0.35062 0.56247 1.0153 0.21212 1.4822-0.20225 0.26942-0.51117 0.42393-0.84851 0.42393-0.22995 0-0.44981-0.07324-0.63434-0.21174l-13.554-10.165c-0.37642-0.28232-0.89408-0.28232-1.2706 0l-13.555 10.166c-0.2254 0.16924-0.50347 0.2402-0.78317 0.20036-0.28042-0.039843-0.52904-0.1867-0.69904-0.41327-0.35024-0.46693-0.255-1.1323 0.21212-1.4829l14.824-11.117c0.18707-0.1404 0.41134-0.2106 0.6356-0.2106zm0 5.0283 11.648 8.7357v15.178h-4.2356v-6.5651c0-0.58482-0.47414-1.0589-1.0589-1.0589h-0.3529v-2.4708c0-3.3086-2.6919-6.0005-6.0005-6.0005-3.3086 0-6.0005 2.6919-6.0005 6.0005v2.4708h-0.3529c-0.58479 0-1.0589 0.4741-1.0589 1.0589v6.5651h-4.2356v-15.178zm0 9.9365c2.1408 0 3.8827 1.7418 3.8827 3.8826v2.4708h-7.7654v-2.4708c0-2.1408 1.7418-3.8826 3.8827-3.8826zm-5.2945 8.4713h10.589v8.4706h-10.589zm3.8826 1.7642c-0.58479 0-1.0589 0.4741-1.0589 1.0589 0 0.58479 0.4741 1.0589 1.0589 1.0589h0.3529v1.7649c0 0.58475 0.47414 1.0589 1.0589 1.0589 0.58479 0 1.0589-0.47414 1.0589-1.0589v-1.7649h0.3529c0.58482 0 1.0589-0.47414 1.0589-1.0589 0-0.58479-0.4741-1.0589-1.0589-1.0589z" style="fill:#4f4f77;stroke-width:.070592"/>
</svg>
