<svg id="svg5" width="38" height="36" version="1.1" viewBox="0 0 38 36" xmlns="http://www.w3.org/2000/svg">
 <style id="style2351" type="text/css">.st0{fill:none;stroke:#4F4F77;stroke-linejoin:round;stroke-miterlimit:10;}</style>
 <style id="style1103" type="text/css">.st0{fill:none;stroke:#4F4F77;stroke-linejoin:round;stroke-miterlimit:10;}</style>
 <path id="path14627" d="m18.489 1.3344a1.0516 1.0516 0 0 0-0.02258 0.00411c-6.7407 0.17919-12.501 4.4098-14.876 10.318l-2.4625-0.02054a1.0242 1.0251 45.488 0 0-1.0331 1.0146l-0.094507 10.382a1.0242 1.0251 45.488 0 0 1.0166 1.0331l2.594 0.02054c2.4614 6.0762 8.4013 10.471 15.319 10.581a1.0517 1.0517 0 0 0 0.01641 0c7.0329 0 13.022-4.2263 15.568-10.331l2.3598 0.01848a1.0242 1.0251 45.488 0 0 1.0331-1.0166l0.09252-10.382a1.0242 1.0251 45.488 0 0-1.0125-1.031l-2.4872-0.02054c-2.2527-5.8747-7.7647-10.041-14.321-10.524a1.0516 1.0516 0 0 0-0.44362-0.028753c-0.18638-0.00892-0.37278-0.015549-0.5607-0.018483-0.22292-0.00348-0.44453-0.00325-0.66544 0.00205a1.0516 1.0516 0 0 0-0.02059-0.00205zm0.50318 2.1031c0.05014 2.711e-4 0.09965-7.856e-4 0.14994 0 0.095 0.00148 0.18887 0.00706 0.28342 0.01027 1.1092 1.2751 2.0362 2.5762 2.7932 3.9166l-6.0691-0.053402c0.78839-1.3418 1.7347-2.6404 2.8425-3.8735zm-2.9657 0.28959c-0.87085 1.1462-1.6279 2.3381-2.2695 3.5613l-4.619-0.041077c1.894-1.7418 4.2618-2.9865 6.8885-3.5203zm6.4161 0.12734c2.5277 0.60837 4.7859 1.8561 6.5928 3.5695l-4.428-0.039022c-0.60337-1.2104-1.3254-2.3864-2.1647-3.5305zm-15.172 5.4796 5.5083 0.049291c-0.31466 0.77177-0.58211 1.5543-0.80921 2.3414l-6.0957-0.049293c0.39038-0.8261 0.85936-1.6094 1.3966-2.3414zm7.7922 0.069831 8.1968 0.071884c0.32374 0.7669 0.59452 1.5488 0.81948 2.3455l-9.9179-0.08009c0.25121-0.78701 0.55223-1.5667 0.90163-2.3373zm10.466 0.090368 5.3399 0.047239c0.51836 0.73323 0.97049 1.5168 1.3453 2.3455l-5.952-0.04723c-0.20163-0.79521-0.44433-1.5773-0.7332-2.3455zm-23.395 4.198 33.81 0.27316-0.076 8.3344-33.808-0.27316zm3.9721 1.0249 0.98584 6.5455h1.4623l0.85234-3.436 0.90984 3.436h1.4726l0.92217-6.5455h-1.3925l-0.44979 4.8039-0.80305-3.1074h-1.3124l-0.69213 3.1074-0.57302-4.8039zm9.1744 0 0.98584 6.5455h1.4623l0.85233-3.436 0.90984 3.436h1.4726l0.92216-6.5455h-1.3925l-0.44978 4.8039-0.80305-3.1074h-1.3124l-0.69214 3.1074-0.57302-4.8039zm9.1744 0 0.98584 6.5455h1.4623l0.85234-3.436 0.90984 3.436h1.4726l0.92217-6.5455h-1.3925l-0.44979 4.8039-0.80511-3.1074h-1.3124l-0.69008 3.1074-0.57302-4.8039zm-18.538 9.388 6.3997 0.05135c0.2304 0.75864 0.498 1.52 0.80099 2.2839l-5.8493-0.0534c-0.51688-0.71712-0.96868-1.48-1.3514-2.2818zm8.6096 0.06983 9.0553 0.07394c-0.25617 0.75593-0.55714 1.515-0.90162 2.2756l-7.2788-0.06573c-0.33054-0.76475-0.62426-1.5268-0.87494-2.2839zm11.261 0.09038 6.4285 0.0534c-0.39204 0.80414-0.85241 1.5661-1.3761 2.2777l-5.8781-0.05135c0.31375-0.75769 0.59112-1.5179 0.82564-2.2797zm-16.665 4.2411 4.9251 0.04517c0.59895 1.2333 1.2941 2.4649 2.0929 3.6866-2.6762-0.57973-5.0899-1.9037-7.0179-3.7318zm7.2911 0.06573 5.2105 0.04517c-0.72491 1.3083-1.5758 2.6237-2.5467 3.9433-0.04049 3.45e-4 -0.08058 2e-3 -0.12118 2e-3 -0.01094-1.81e-4 -0.02189-0.0018-0.03283-2e-3 -0.96739-1.321-1.8033-2.655-2.5098-3.9885zm7.5807 0.06778 4.9764 0.04313c-1.9522 1.8003-4.3968 3.0716-7.1288 3.6024 0.81239-1.211 1.5306-2.4255 2.1524-3.6455z" style="-inkscape-stroke:none;color:black;fill:#4f4f77;solid-color:black;stroke-linecap:round;stroke-linejoin:round;stroke-miterlimit:10;stroke-width:1.0516"/>
</svg>
