<svg id="svg5" width="36" height="36" version="1.1" viewBox="0 0 36 36" xmlns="http://www.w3.org/2000/svg">
 <style id="style2351" type="text/css">.st0{fill:none;stroke:#4F4F77;stroke-linejoin:round;stroke-miterlimit:10;}</style>
 <style id="style1103" type="text/css">.st0{fill:none;stroke:#4F4F77;stroke-linejoin:round;stroke-miterlimit:10;}</style>
 <style id="style14856" type="text/css">.st0{fill:none;stroke:#4F4F77;stroke-linejoin:round;stroke-miterlimit:10;}</style>
 <style id="style15138" type="text/css">.st0{fill:none;stroke:#4F4F77;stroke-linejoin:round;stroke-miterlimit:10;}</style>
 <path id="path15407" d="m18 0c-9.9282 5e-8 -18 8.0718-18 18 5.8e-7 9.9282 8.0718 18 18 18 9.9282 0 18-8.0718 18-18 0-9.9282-8.0718-18-18-18zm0 2.1543c8.7641 5e-7 15.846 7.0816 15.846 15.846 0 8.7641-7.0816 15.846-15.846 15.846-8.7641 0-15.848-7.0816-15.848-15.846 1e-7 -8.7641 7.0835-15.846 15.848-15.846zm-5.6738 8.3789v14.934h3.457v-4.1172h3.0078c1.3227 0 2.4665-0.21396 3.4336-0.64062 0.98133-0.44089 1.7355-1.0663 2.2617-1.877 0.52622-0.82489 0.78906-1.7858 0.78906-2.8809 0-1.1093-0.26284-2.0682-0.78906-2.8789-0.52622-0.81067-1.2804-1.4361-2.2617-1.877-0.96711-0.44089-2.1109-0.66211-3.4336-0.66211h-6.4648zm3.457 2.8164h2.8145c1.0382 0 1.8287 0.22653 2.3691 0.68164 0.54044 0.44089 0.81055 1.0808 0.81055 1.9199 0 0.82489-0.2701 1.4648-0.81055 1.9199-0.54044 0.44089-1.3309 0.66211-2.3691 0.66211h-2.8145v-5.1836z" style="-inkscape-stroke:none;color:black;fill:#c83737;solid-color:black;stroke-linecap:round;stroke-linejoin:round;stroke-miterlimit:10;stroke-width:.97902"/>
</svg>
