<?xml version="1.0" encoding="UTF-8"?>
<svg width="48" height="48" version="1.1" viewBox="0 0 12.7 12.7" xmlns="http://www.w3.org/2000/svg" xmlns:cc="http://creativecommons.org/ns#" xmlns:dc="http://purl.org/dc/elements/1.1/" xmlns:rdf="http://www.w3.org/1999/02/22-rdf-syntax-ns#">
 <metadata>
  <rdf:RDF>
   <cc:Work rdf:about="">
    <dc:format>image/svg+xml</dc:format>
    <dc:type rdf:resource="http://purl.org/dc/dcmitype/StillImage"/>
    <dc:title/>
   </cc:Work>
  </rdf:RDF>
 </metadata>
 <g transform="matrix(.15902 0 0 .15902 -25.463 -13.587)">
  <circle cx="200.05" cy="125.37" r="39.099" style="fill:#2c4b8f;stroke-linecap:round;stroke-linejoin:round;stroke-width:1.1555"/>
  <g style="fill:#fff;stroke-width:1.2682" aria-label="S">
   <path d="m186.53 132.98h1.8769q0.35509 2.2827 1.3189 4.1089 1.0146 1.8262 2.4856 3.0944 1.5218 1.2682 3.4495 1.9784 1.9784 0.65945 4.2611 0.65945 3.7538 0 5.9351-1.7755 2.1813-1.7755 2.1813-4.8191 0-1.2682-0.45655-2.3335-0.40582-1.0653-1.4204-2.0291-1.0146-1.0146-2.7393-1.9784-1.674-0.96382-4.2611-2.0798-3.1451-1.3696-5.2757-2.6378-2.1306-1.2682-3.3988-2.6378-1.2682-1.3696-1.8262-2.8915-0.50727-1.5726-0.50727-3.5509 0-2.3335 0.81164-4.3118 0.86237-1.9784 2.3842-3.3987 1.5218-1.4711 3.6016-2.232 2.0798-0.81164 4.5655-0.81164 2.232 0 4.1596 0.71019 1.9276 0.71018 3.906 2.2827l1.3189-2.2827h1.1667l0.558 10.095h-1.8769q-1.2175-4.1597-3.5509-6.1888-2.2827-2.0291-5.5293-2.0291-3.0944 0-4.9206 1.5218-1.8262 1.5218-1.8262 4.1089 0 1.2175 0.40582 2.232 0.40582 0.96382 1.3189 1.8769 0.91309 0.86237 2.3842 1.7755 1.4711 0.86236 3.6524 1.8262 3.7538 1.674 6.2395 3.1451 2.4856 1.4204 3.9568 2.8915 1.4711 1.4204 2.0798 3.0436 0.60873 1.5726 0.60873 3.5509 0 2.5364-1.0146 4.6669-1.0146 2.1306-2.8407 3.6524-1.8262 1.5218-4.3626 2.3842-2.5364 0.81164-5.58 0.81164-2.8915 0-5.2249-0.81164-2.2827-0.81164-4.6669-2.7393l-1.4204 2.4856h-1.1667z" style="fill:#fff;stroke-width:1.2682"/>
  </g>
 </g>
</svg>
