<svg id="svg5" width="36" height="36" version="1.1" viewBox="0 0 36 36" xmlns="http://www.w3.org/2000/svg">
 <style id="style2351" type="text/css">.st0{fill:none;stroke:#4F4F77;stroke-linejoin:round;stroke-miterlimit:10;}</style>
 <style id="style1103" type="text/css">.st0{fill:none;stroke:#4F4F77;stroke-linejoin:round;stroke-miterlimit:10;}</style>
 <style id="style14856" type="text/css">.st0{fill:none;stroke:#4F4F77;stroke-linejoin:round;stroke-miterlimit:10;}</style>
 <style id="style15138" type="text/css">.st0{fill:none;stroke:#4F4F77;stroke-linejoin:round;stroke-miterlimit:10;}</style>
 <path id="path15140" d="m18.031 0.49462a1 1 0 0 0-1 1 1 1 0 0 0 1 1c8.5579 0 15.5 6.9421 15.5 15.5a1 1 0 0 0 1 1 1 1 0 0 0 1-1c0-9.6421-7.8579-17.5-17.5-17.5zm-11.596 5.6816c-0.9891 0.0013735-1.9681 0.36848-2.7109 1.1113l-1.6992 1.6992c-1.8132 1.8132-2.075 4.6052-0.61328 6.6797 8.691e-4 0.0012 0.00108 0.0027 0.00195 0.0039 4.8768 7.5083 11.462 14.091 18.973 18.963a1.0001 1.0001 0 0 0 2e-3 0c2.0918 1.3535 4.8968 1.1227 6.6504-0.63086l1.6992-1.7012c1.4857-1.4857 1.4678-3.9152 0.03125-5.4824a1.0001 1.0001 0 0 0-0.04301-0.04296l-3.0879-2.9883c-1.4857-1.4857-3.9152-1.4678-5.4824-0.03125a1.0001 1.0001 0 0 0-0.03125 0.03125l-0.32812 0.32812c-2.8034-2.3645-5.5529-5.1164-7.9141-7.9199l0.35547-0.39453c1.4857-1.4857 1.4678-3.9152 0.03125-5.4824a1.0001 1.0001 0 0 0-0.03125-0.03125l-3-3a1.0001 1.0001 0 0 0-0.03125-0.03125c-0.7836-0.7183-1.7824-1.0815-2.7715-1.0801zm11.596 0.017578a1 1 0 0 0-1 1 1 1 0 0 0 1 1c5.4667 0 9.8008 4.3341 9.8008 9.8008a1 1 0 0 0 1 1 1 1 0 0 0 1-1c0-6.5333-5.2675-11.801-11.801-11.801zm-11.578 1.9688c0.4845 0.00137 0.98275 0.18692 1.3984 0.56641 0.0012 0.0011 0.00271 8.579e-4 0.00391 0.00195l2.9414 2.9434c0.76007 0.83258 0.74062 1.9996 0.02734 2.7129a1.0001 1.0001 0 0 0-0.0332 0.03516l-1 1.0996a1.0001 1.0001 0 0 0-0.033203 1.3066c2.746 3.3562 6.0852 6.6935 9.4414 9.4395a1.0001 1.0001 0 0 0 1.3398-0.06641l0.96875-0.9707 0.0039-2e-3c0.83258-0.76007 1.9996-0.74062 2.7129-0.02734a1.0001 1.0001 0 0 0 0.01172 0.01172l3.0605 2.9629c0.75868 0.83248 0.7402 1.9981 0.02734 2.7109l-1.6992 1.6992c-1.046 1.046-2.8404 1.2144-4.1484 0.36914h-2e-3c-7.2779-4.7211-13.683-11.128-18.404-18.406a1.0001 1.0001 0 0 0-0.021484-0.03125c-0.93541-1.3252-0.7951-2.9315 0.39062-4.1172l1.6992-1.6992c0.35715-0.35715 0.82855-0.54044 1.3145-0.53906zm11.578 3.832a1 1 0 0 0-1 1 1 1 0 0 0 1 1c2.2524 0 4 1.8432 4 4a1 1 0 0 0 1 1 1 1 0 0 0 1-1c0-3.2432-2.6524-6-6-6z" style="-inkscape-stroke:none;color:black;fill:#4f4f77;solid-color:black;stroke-linecap:round;stroke-linejoin:round;stroke-miterlimit:10"/>
</svg>
