<?xml version="1.0" encoding="utf-8"?>
<!-- Generator: Adobe Illustrator 23.1.0, SVG Export Plug-In . SVG Version: 6.00 Build 0)  -->
<svg version="1.1" id="Capa_1" xmlns="http://www.w3.org/2000/svg" xmlns:xlink="http://www.w3.org/1999/xlink" x="0px" y="0px"
	 viewBox="0 0 36 36" style="enable-background:new 0 0 36 36;" xml:space="preserve">
<style type="text/css">
	.st0{fill:none;stroke:#4F4F77;stroke-linecap:round;stroke-linejoin:round;stroke-miterlimit:10;}
	.st1{fill:none;stroke:#4F4F77;stroke-linejoin:round;stroke-miterlimit:10;}
	.st2{fill:none;stroke:#020203;stroke-linejoin:round;stroke-miterlimit:10;}
	.st3{fill:none;stroke:#020203;stroke-linecap:round;stroke-linejoin:round;stroke-miterlimit:10;}
	.st4{fill:none;stroke:#020203;stroke-miterlimit:10;}
</style>
<g>
	<g>
		<path class="st1" d="M1.69,32.75C1.69,34,2.7,35,3.94,35s2.25-1,2.25-2.25c0-1.24-2.25-4.99-2.25-4.99S1.69,31.51,1.69,32.75z"/>
		<path class="st1" d="M23.94,23.2c2.45,0,4.44-1.99,4.44-4.44h5.92v-7.4h-5.92c0-2.45-1.99-4.44-4.44-4.44H19.5
			c-2.45,0-4.44,1.99-4.44,4.44c-4.44,0-13.32,1.48-13.32,10.36v2.96h5.92v-2.96c0-1.63,1.32-2.96,2.96-2.96h4.44
			c0,2.45,1.99,4.44,4.44,4.44H23.94z"/>
		<rect x="19.5" y="1" class="st1" width="4.44" height="5.92"/>
		<line class="st0" x1="23.94" y1="3.96" x2="32.09" y2="3.96"/>
		<line class="st0" x1="11.36" y1="3.96" x2="19.5" y2="3.93"/>
	</g>
	<line class="st0" x1="28.39" y1="11.36" x2="28.39" y2="18.76"/>
	<line class="st0" x1="15.06" y1="11.36" x2="15.06" y2="18.76"/>
</g>
</svg>
