<?xml version="1.0" encoding="utf-8"?>
<!-- Generator: Adobe Illustrator 23.1.0, SVG Export Plug-In . SVG Version: 6.00 Build 0)  -->
<svg version="1.1" id="Capa_1" xmlns="http://www.w3.org/2000/svg" xmlns:xlink="http://www.w3.org/1999/xlink" x="0px" y="0px"
	 viewBox="0 0 36 36" style="enable-background:new 0 0 36 36;" xml:space="preserve">
<style type="text/css">
	.st0{fill:none;stroke:#4F4F77;stroke-linejoin:round;stroke-miterlimit:10;}
</style>
<g>
	<path class="st0" d="M27.7,15.9c0-3.1-2.5-5.6-5.6-5.6l-8.3,0c-3.1,0-5.6,2.5-5.6,5.6l0,8.3c0,3.1,2.5,5.6,5.6,5.6l8.3,0
		c3.1,0,5.6-2.5,5.6-5.6L27.7,15.9z"/>
	<line class="st0" x1="12.4" y1="10.5" x2="12.4" y2="2"/>
	<line class="st0" x1="23.6" y1="10.5" x2="23.6" y2="2"/>
	<path class="st0" d="M16.3,13.8c2.1,1.5,1.9,4.5,1.1,5.7c-0.6-0.5-1.1-1-1.1-1.7c-1.9,0.8-2.8,2.2-2.8,4c0,2.5,2,4.5,4.5,4.5
		c2.5,0,4.5-2,4.5-4.5C22.5,18.1,19.9,14.7,16.3,13.8z"/>
	<path class="st0" d="M6.9,34l22.2,0c0-2.3-1.9-4.2-4.2-4.2l-13.9,0C8.8,29.8,6.9,31.7,6.9,34z"/>
	<line class="st0" x1="9" y1="2" x2="27" y2="2"/>
	<line class="st0" x1="18" y1="10.4" x2="18" y2="6.2"/>
	<line class="st0" x1="15.9" y1="6.2" x2="20.1" y2="6.2"/>
</g>
</svg>
