<?xml version="1.0" encoding="utf-8"?>
<!-- Generator: Adobe Illustrator 23.1.0, SVG Export Plug-In . SVG Version: 6.00 Build 0)  -->
<svg version="1.1" id="Capa_1" xmlns="http://www.w3.org/2000/svg" xmlns:xlink="http://www.w3.org/1999/xlink" x="0px" y="0px"
	 viewBox="0 0 36 36" style="enable-background:new 0 0 36 36;" xml:space="preserve">
<style type="text/css">
	.st0{fill:none;stroke:#4F4F77;stroke-linejoin:round;stroke-miterlimit:10;}
</style>
<g>
	<g>
		
			<rect x="12.8" y="0.9" transform="matrix(8.510414e-03 -1 1 8.510414e-03 -0.1526 35.8463)" class="st0" width="10.4" height="34.1"/>
		<path class="st0" d="M23.6,23.2c-0.9,3.2-2.6,6.4-5,9.6"/>
		<path class="st0" d="M18.8,3.2c2.7,3,4.4,6.2,5.2,9.7"/>
		<path class="st0" d="M4.1,12.7c2.1-5.6,7.6-9.6,14-9.5c6.4,0.1,11.8,4.1,13.8,9.8"/>
		<path class="st0" d="M4.1,23.1c2.1,5.6,7.5,9.7,13.8,9.8c6.4,0,11.8-3.9,14-9.5"/>
		<path class="st0" d="M12.4,23.1c0.9,3.2,2.5,6.5,4.9,9.7"/>
		<path class="st0" d="M17.5,3.2c-2.7,2.9-4.5,6.2-5.4,9.6"/>
		<line class="st0" x1="5.6" y1="26.1" x2="30.3" y2="26.3"/>
		<line class="st0" x1="5.6" y1="9.7" x2="30.5" y2="9.9"/>
	</g>
	<polyline class="st0" points="11.3,15 10.4,20.9 9.4,17.9 8.5,20.9 7.6,14.9 	"/>
	<polyline class="st0" points="20.3,15.1 19.3,21 18.4,18 17.4,21 16.5,15 	"/>
	<polyline class="st0" points="29.2,15.1 28.2,21.1 27.3,18.1 26.3,21 25.4,15.1 	"/>
</g>
</svg>
