<?xml version="1.0" encoding="utf-8"?>
<!-- Generator: Adobe Illustrator 23.1.0, SVG Export Plug-In . SVG Version: 6.00 Build 0)  -->
<svg version="1.1" id="Capa_1" xmlns="http://www.w3.org/2000/svg" xmlns:xlink="http://www.w3.org/1999/xlink" x="0px" y="0px"
	 viewBox="0 0 36 36" style="enable-background:new 0 0 36 36;" xml:space="preserve">
<style type="text/css">
	.st0{fill:none;stroke:#4F4F77;stroke-linejoin:round;stroke-miterlimit:10;}
</style>
<g>
	<circle class="st0" cx="17.8" cy="15.9" r="9.8"/>
	<polyline class="st0" points="13.6,25 13.6,28.5 22,28.5 22,25 	"/>
	
		<rect x="16.3" y="27.1" transform="matrix(6.723615e-03 -1 1 6.723615e-03 -12.2915 47.458)" class="st0" width="2.8" height="5.6"/>
	<line class="st0" x1="17.7" y1="31.3" x2="17.7" y2="34.1"/>
	<line class="st0" x1="17.9" y1="1.9" x2="17.9" y2="3.3"/>
	<line class="st0" x1="27.8" y1="6.1" x2="26.8" y2="7.1"/>
	<line class="st0" x1="31.8" y1="16" x2="30.4" y2="16"/>
	<line class="st0" x1="27.7" y1="25.9" x2="26.7" y2="24.9"/>
	<line class="st0" x1="8" y1="6" x2="9" y2="7"/>
	<line class="st0" x1="3.8" y1="15.8" x2="5.2" y2="15.8"/>
	<line class="st0" x1="7.9" y1="25.8" x2="8.9" y2="24.8"/>
	<path class="st0" d="M18.5,25l1.8-7.7c0.2-0.8,0.9-1.4,1.7-1.4c0.8,0,1.4,0.6,1.4,1.4c0,0.8-0.6,1.4-1.4,1.4l-4.2,0l-4.2,0
		c-0.8,0-1.4-0.6-1.4-1.4c0-0.8,0.6-1.4,1.4-1.4c0.8,0,1.5,0.6,1.7,1.4l1.7,7.7"/>
</g>
</svg>
