<?xml version="1.0" encoding="UTF-8"?>
<svg width="48" height="48" version="1.1" viewBox="0 0 12.7 12.7" xmlns="http://www.w3.org/2000/svg" xmlns:cc="http://creativecommons.org/ns#" xmlns:dc="http://purl.org/dc/elements/1.1/" xmlns:rdf="http://www.w3.org/1999/02/22-rdf-syntax-ns#">
 <metadata>
  <rdf:RDF>
   <cc:Work rdf:about="">
    <dc:format>image/svg+xml</dc:format>
    <dc:type rdf:resource="http://purl.org/dc/dcmitype/StillImage"/>
    <dc:title/>
   </cc:Work>
  </rdf:RDF>
 </metadata>
 <g transform="matrix(.15902 0 0 .15902 -7.2811 -13.587)">
  <circle cx="85.717" cy="125.37" r="39.099" style="fill:#c83737;stroke-linecap:round;stroke-linejoin:round;stroke-width:1.1555"/>
  <g style="fill:#fff;stroke-width:1.2682" aria-label="P">
   <path d="m103.12 115.63q0 2.6886-0.86237 4.8191-0.86237 2.1306-2.7393 3.6016-1.8262 1.4711-4.8191 2.2827-2.9422 0.81164-7.2033 0.81164h-4.5655v9.7904q0 1.8769 0.20291 3.0944 0.25364 1.1667 0.96382 1.8262 0.76091 0.65946 2.1306 0.9131 1.4204 0.20291 3.7031 0.20291v1.9276h-17.907v-1.9276q1.7755-0.0507 2.8407-0.30437 1.116-0.25364 1.7247-0.86237t0.81164-1.7247q0.20291-1.116 0.20291-2.8915v-23.639q0-1.7755-0.20291-2.8407-0.15218-1.116-0.71018-1.7247-0.50728-0.65946-1.5218-0.86237-1.0146-0.25363-2.6378-0.35509v-1.9276h15.928q7.0004 0 10.805 2.5871 3.8553 2.5871 3.8553 7.2033zm-20.19 8.9788h3.6017q5.0728 0 7.5077-1.9276 2.4856-1.9784 2.4856-6.4424 0-4.3118-1.9784-6.138-1.9276-1.8769-6.0873-1.8769h-4.6669q-0.86237 0-0.86237 0.86237z" style="fill:#fff;stroke-width:1.2682"/>
  </g>
 </g>
</svg>
