<?xml version="1.0" encoding="utf-8"?>
<!-- Generator: Adobe Illustrator 23.1.0, SVG Export Plug-In . SVG Version: 6.00 Build 0)  -->
<svg version="1.1" id="Capa_1" xmlns="http://www.w3.org/2000/svg" xmlns:xlink="http://www.w3.org/1999/xlink" x="0px" y="0px"
	 viewBox="0 0 36 36" style="enable-background:new 0 0 36 36;" xml:space="preserve">
<style type="text/css">
	.st0{fill:none;stroke:#4F4F77;stroke-linejoin:round;stroke-miterlimit:10;}
</style>
<g>
	<path class="st0" d="M11.5,15.1c1.1-1.1,1.1-2.9,0-4.1L8.5,8C7.3,6.9,5.5,6.9,4.4,8L2.7,9.7c-1.5,1.5-1.7,3.7-0.5,5.4
		C7,22.5,13.5,29,20.9,33.8c1.7,1.1,4,0.9,5.4-0.5l1.7-1.7c1.1-1.1,1.1-2.9,0-4.1l-3.1-3c-1.1-1.1-2.9-1.1-4.1,0l-1,1
		c-3.3-2.7-6.6-6-9.3-9.3L11.5,15.1z"/>
	<path class="st0" d="M18,1.5c9.1,0,16.5,7.4,16.5,16.5"/>
	<path class="st0" d="M18,7.2c6,0,10.8,4.8,10.8,10.8"/>
	<path class="st0" d="M18,13c2.8,0,5,2.3,5,5"/>
</g>
</svg>
