<svg xmlns="http://www.w3.org/2000/svg" width="64" height="64" viewBox="0 0 64 64"><g transform="translate(-206 -3962)"><circle cx="32" cy="32" r="32" transform="translate(206 3962)" fill="#d2752d"/><path d="M52.3,44.887l-7.833-7.833-.66.66a15.521,15.521,0,0,1-4.121-10.55v-3.11a15.419,15.419,0,0,0-15.4-15.4A13.3,13.3,0,0,0,11,21.937a15.442,15.442,0,0,0,4.835,11.2,9.573,9.573,0,1,0,13.353,4.2h.322a15.514,15.514,0,0,1,10.553,4.121l-.66.66,7.83,7.836A3.583,3.583,0,0,0,52.3,44.887ZM12.366,41.5c0-.009,0-.019,0-.029s0-.024,0-.036a8.1,8.1,0,0,1,.064-.979l.006-.04a8.139,8.139,0,0,1,1.49-3.779l.005-.007q.225-.311.478-.6l.071-.078c.15-.166.305-.326.467-.479a8.393,8.393,0,0,1-.009,11.932A8.13,8.13,0,0,1,12.366,41.5Zm10.606,7.77c-.1.031-.2.069-.305.1s-.188.033-.28.054c-.15.034-.3.061-.453.087s-.3.052-.446.068a8.478,8.478,0,0,1-.92.056h-.02A8.12,8.12,0,0,1,15.9,48.186a9.63,9.63,0,0,0,.015-13.481c.1-.068.194-.139.3-.2.037-.024.075-.046.112-.068.189-.115.382-.223.581-.323l.1-.049c.2-.1.405-.187.615-.268l.117-.043c.2-.074.406-.142.615-.2.058-.016.116-.029.175-.045.188-.048.377-.092.57-.127.093-.017.186-.029.28-.043.16-.023.321-.046.484-.06.136-.012.272-.016.408-.021.1,0,.2-.015.3-.015.03,0,.06,0,.09.005.153,0,.306.013.459.023.121.008.243.012.363.026s.259.038.389.059.289.044.43.074c.093.02.186.048.279.072.176.045.352.089.524.145.068.022.135.051.2.075.193.068.383.139.569.221.017.008.034.013.051.02.07.032.136.07.2.1.142.068.285.136.422.213.095.053.185.112.277.168s.209.128.312.195A9.661,9.661,0,0,0,24.993,48.1c.046.049.095.1.142.143a8.122,8.122,0,0,1-2.107,1.011Zm-2.41-33.788v2.732H17.83V15.571l.087-.087Zm-.876-1.37a9.36,9.36,0,0,1,.876-.46l-.007.46Zm.873,5.464v2.736H17.83V19.582Zm0,4.1V26.41H17.83V23.68Zm-.006,4.1V30.51h-1.07c-.014-.014-.029-.025-.043-.039L17.868,28.9c-.014-.014-.025-.029-.038-.042l-.009-1.079ZM24.66,15.484v2.728H21.928V15.484Zm-2.732-1.37v-.982a9.433,9.433,0,0,1,2.629-.38h.1l0,1.362Zm2.732,5.468v2.73H21.928v-2.73Zm0,4.1V26.41H21.928l0-2.732Zm0,4.1V30.51H21.928V27.778Zm0,4.1v.936a9.476,9.476,0,0,0-2.732-.826l0-.11Zm4.095-17.764H26.026V12.876a9.342,9.342,0,0,1,2.732.865Zm0,8.2H26.026v-2.73h2.732Zm0-6.828v2.732l-2.732,0V15.484Zm0,8.2v2.732H26.025V23.68Zm0,4.1V30.51H26.026V27.778Zm0,4.1v.986a9.44,9.44,0,0,1-2.63.38h-.089l-.007.365h-.006V31.876Zm-2.648,15.61a8.455,8.455,0,0,1-.328-11.769c.1-.109.208-.211.315-.314.038.036.079.07.117.107.115.109.224.222.332.338s.216.227.316.347.18.235.268.353c.062.083.128.163.186.249.1.142.185.29.274.438.04.067.083.132.122.2.091.164.173.333.254.5.022.045.047.088.068.134h0a8.137,8.137,0,0,1,.463,1.33h.01c.019.072.028.144.045.216.023.1.045.206.065.311.04.21.072.419.1.629l.007.074A8.157,8.157,0,0,1,26.108,47.486Zm3.4-11.512-.009,0H28.4a9.608,9.608,0,0,0-1.217-1.424,10.824,10.824,0,0,0,6.6-18.426l-1.572-1.574A10.827,10.827,0,0,0,16.9,29.866l1.572,1.572c.2.2.41.381.624.563a9.473,9.473,0,0,0-1.888.494l-.308-.229a14.076,14.076,0,0,1-4.532-10.33A11.93,11.93,0,0,1,24.284,10.02,14.053,14.053,0,0,1,38.32,24.054v3.11a16.884,16.884,0,0,0,4.51,11.53l-1.79,1.79A16.884,16.884,0,0,0,29.51,35.974Zm.615-13.662v-2.73h2.732v2.732Zm2.732,1.368v2.732H30.125V23.68Zm0-5.466H30.124v-2.73H31.2c.014.014.029.025.042.039l1.576,1.571c.014.014.025.029.038.042Zm0,9.564v2.645l-.088.087H30.124V27.778ZM31,31.878a9.442,9.442,0,0,1-.876.469l0-.469Zm3.221-9.564V19.582H34.6a9.342,9.342,0,0,1,.865,2.732Zm1.364,1.366c0,.034,0,.068,0,.1h0a9.44,9.44,0,0,1-.38,2.63h-.986V23.68Zm-.9,4.1a9.686,9.686,0,0,1-.469.876v-.876ZM15.1,22.314v-.1a9.44,9.44,0,0,1,.38-2.63h.986v2.733Zm1.355,1.364V26.41h-.368a9.342,9.342,0,0,1-.865-2.732Zm0-5.464H16a9.686,9.686,0,0,1,.469-.876ZM51.332,48.985a2.216,2.216,0,0,1-3.133,0l-6.864-6.865,3.132-3.132,6.864,6.865A2.214,2.214,0,0,1,51.332,48.985Z" transform="translate(206.023 3962.346)" fill="#fff" opacity="0.75"/></g></svg>