<?xml version="1.0" encoding="utf-8"?>
<!-- Generator: Adobe Illustrator 23.0.0, SVG Export Plug-In . SVG Version: 6.00 Build 0)  -->
<svg version="1.1" id="Capa_1" xmlns="http://www.w3.org/2000/svg" xmlns:xlink="http://www.w3.org/1999/xlink" x="0px" y="0px"
	 viewBox="0 0 64 64" style="enable-background:new 0 0 64 64;" xml:space="preserve">
<style type="text/css">
	.st0{fill:#00263A;}
	.st1{opacity:0.75;}
	.st2{fill-rule:evenodd;clip-rule:evenodd;fill:#FFFFFF;}
</style>
<g transform="translate(-206 -3962)">
	<circle class="st0" cx="238" cy="3994" r="32"/>
	<g transform="translate(214.267 3889.211)" class="st1">
		<path class="st2" d="M9.9,104c0,3.1,1,6.1,2.9,8.5l3.4,0l2.8-3.9l-1.8-5.5l-4.7-1.5l-2.7,2C9.9,103.6,9.9,103.8,9.9,104L9.9,104z
			 M3,119.8c-0.6,0-1-0.5-1-1c0-0.6,0.5-1,1-1h12.8c-7.6-4.3-10.3-14-5.9-21.7c4.3-7.6,14-10.3,21.7-5.9c7.6,4.3,10.3,14,5.9,21.7
			c-1.4,2.5-3.4,4.5-5.9,5.9h12.8c0.6,0,1,0.5,1,1c0,0.6-0.5,1-1,1c0,0,0,0,0,0H3z M13.3,99.5l4.5,1.5l4.8-3.5v-4.8L20,90.7
			c-3.2,0.9-5.9,2.9-7.8,5.6L13.3,99.5z M10.9,98.8c-0.2,0.5-0.4,1.1-0.5,1.7l0.9-0.6L10.9,98.8L10.9,98.8z M14.8,114.5
			c0.5,0.4,1.1,0.8,1.6,1.2l-0.4-1.2L14.8,114.5L14.8,114.5z M19.1,117l-1.1-3.3l2.9-3.9h5.7l2.8,3.9l-1.1,3.4
			C25.3,118,22.1,118,19.1,117L19.1,117z M30.9,115.7c0.6-0.4,1.2-0.8,1.7-1.2h-1.3L30.9,115.7L30.9,115.7z M34.6,112.4
			c1.9-2.4,2.9-5.4,2.9-8.4c0-0.2,0-0.3,0-0.5l-2.8-2l-4.6,1.5l-1.8,5.5l2.8,3.9L34.6,112.4L34.6,112.4z M37.1,100.6
			c-0.2-0.6-0.3-1.2-0.6-1.8l-0.4,1.1L37.1,100.6L37.1,100.6z M35.2,96.3c-1.8-2.7-4.6-4.7-7.7-5.6l-2.7,1.9v4.8l4.8,3.5l4.5-1.5
			L35.2,96.3L35.2,96.3z M24.5,90.2c-0.3,0-0.6,0-0.8,0s-0.6,0-0.8,0l0.8,0.6L24.5,90.2z M19.3,102.4l1.7,5.1h5.4l1.7-5.1l-4.4-3.2
			L19.3,102.4z"/>
	</g>
</g>
</svg>
