<svg xmlns="http://www.w3.org/2000/svg" width="64" height="64" viewBox="0 0 64 64"><g transform="translate(-206 -3962)"><circle cx="32" cy="32" r="32" transform="translate(206 3962)" fill="#2d8d21"/><g transform="translate(214.267 3889.211)" opacity="0.75"><path d="M9.918,103.956a13.735,13.735,0,0,0,2.93,8.5l3.419-.035,2.845-3.916-1.8-5.539L12.6,101.442l-2.675,1.967q-.011.272-.011.547ZM3.042,119.829a1.042,1.042,0,0,1,0-2.084H15.835a15.869,15.869,0,1,1,15.744,0H44.373a1.042,1.042,0,1,1,0,2.084H3.042ZM13.3,99.48l4.545,1.476,4.825-3.506V92.614l-2.674-1.942A13.808,13.808,0,0,0,12.24,96.29L13.3,99.48Zm-2.4-.631a13.689,13.689,0,0,0-.544,1.671l.883-.649-.338-1.022Zm3.941,15.668a13.824,13.824,0,0,0,1.648,1.19l-.4-1.2-1.243.013Zm4.26,2.44-1.123-3.337,2.865-3.944h5.741l2.843,3.913-1.1,3.366a13.88,13.88,0,0,1-9.228,0Zm11.819-1.239a13.814,13.814,0,0,0,1.719-1.246H31.321l-.407,1.247Zm3.7-3.319a13.734,13.734,0,0,0,2.882-8.442q0-.227-.008-.452l-2.767-2.034-4.62,1.5-1.8,5.539,2.822,3.885,3.49,0Zm2.48-11.764a13.7,13.7,0,0,0-.586-1.818l-.369,1.116.955.7Zm-1.936-4.368a13.809,13.809,0,0,0-7.736-5.594l-2.674,1.942V97.45l4.825,3.506,4.519-1.468,1.066-3.222ZM24.544,90.192q-.415-.025-.836-.025t-.837.025l.837.608.836-.608Zm-5.215,12.255L21,107.592h5.414l1.672-5.145-4.379-3.181Z" transform="translate(0 0)" fill="#fff" fill-rule="evenodd"/></g></g></svg>