<?xml version="1.0" encoding="utf-8"?>
<!-- Generator: Adobe Illustrator 23.0.0, SVG Export Plug-In . SVG Version: 6.00 Build 0)  -->
<svg version="1.1" id="Capa_1" xmlns="http://www.w3.org/2000/svg" xmlns:xlink="http://www.w3.org/1999/xlink" x="0px" y="0px"
	 viewBox="0 0 64 64" style="enable-background:new 0 0 64 64;" xml:space="preserve">
<style type="text/css">
	.st0{fill:#00263A;}
	.st1{opacity:0.75;fill:#FFFFFF;enable-background:new    ;}
</style>
<g transform="translate(-206 -3962)">
	<circle class="st0" cx="238" cy="3994" r="32"/>
	<path class="st1" d="M258.3,4007.2l-7.8-7.8l-0.7,0.7c-2.7-2.9-4.1-6.6-4.1-10.6v-3.1c0-8.5-6.9-15.4-15.4-15.4
		c-7.3,0-13.3,5.9-13.3,13.3c0,4.2,1.8,8.3,4.8,11.2c-4.6,2.6-6.2,8.4-3.6,13c2.6,4.6,8.4,6.2,13,3.6c4.4-2.5,6.1-7.9,3.9-12.5h0.3
		c3.9,0,7.7,1.5,10.6,4.1l-0.7,0.7l7.8,7.8c1.4,1.4,3.7,1.4,5.1,0C259.7,4010.9,259.7,4008.6,258.3,4007.2z M218.4,4003.8
		C218.4,4003.8,218.4,4003.8,218.4,4003.8C218.4,4003.8,218.4,4003.8,218.4,4003.8c0-0.4,0-0.7,0.1-1l0,0c0.2-1.4,0.7-2.7,1.5-3.8
		l0,0c0.1-0.2,0.3-0.4,0.5-0.6l0.1-0.1c0.2-0.2,0.3-0.3,0.5-0.5c3.3,3.3,3.3,8.6,0.1,11.9c0,0,0,0-0.1,0.1
		C219.3,4008.2,218.4,4006.1,218.4,4003.8z M229,4011.6c-0.1,0-0.2,0.1-0.3,0.1c-0.1,0-0.2,0-0.3,0.1c-0.1,0-0.3,0.1-0.5,0.1
		c-0.2,0-0.3,0.1-0.4,0.1c-0.3,0-0.6,0.1-0.9,0.1h0c-1.7,0-3.3-0.5-4.6-1.4c3.7-3.7,3.7-9.7,0-13.5c0.1-0.1,0.2-0.1,0.3-0.2
		c0,0,0.1,0,0.1-0.1c0.2-0.1,0.4-0.2,0.6-0.3l0.1,0c0.2-0.1,0.4-0.2,0.6-0.3l0.1,0c0.2-0.1,0.4-0.1,0.6-0.2c0.1,0,0.1,0,0.2,0
		c0.2,0,0.4-0.1,0.6-0.1c0.1,0,0.2,0,0.3,0c0.2,0,0.3,0,0.5-0.1c0.1,0,0.3,0,0.4,0c0.1,0,0.2,0,0.3,0c0,0,0.1,0,0.1,0
		c0.2,0,0.3,0,0.5,0c0.1,0,0.2,0,0.4,0c0.1,0,0.3,0,0.4,0.1s0.3,0,0.4,0.1c0.1,0,0.2,0,0.3,0.1c0.2,0,0.4,0.1,0.5,0.1
		c0.1,0,0.1,0.1,0.2,0.1c0.2,0.1,0.4,0.1,0.6,0.2c0,0,0,0,0.1,0c0.1,0,0.1,0.1,0.2,0.1c0.1,0.1,0.3,0.1,0.4,0.2
		c0.1,0.1,0.2,0.1,0.3,0.2c0.1,0.1,0.2,0.1,0.3,0.2c-3.7,3.7-3.7,9.7-0.1,13.5c0,0,0.1,0.1,0.1,0.1
		C230.5,4011,229.8,4011.4,229,4011.6L229,4011.6z M226.6,3977.8v2.7h-2.7v-2.6l0.1-0.1L226.6,3977.8z M225.7,3976.5
		c0.3-0.2,0.6-0.3,0.9-0.5l0,0.5H225.7z M226.6,3981.9v2.7h-2.7v-2.7L226.6,3981.9z M226.6,3986v2.7h-2.7v-2.7L226.6,3986z
		 M226.6,3990.1v2.7h-1.1c0,0,0,0,0,0l-1.6-1.6c0,0,0,0,0,0l0-1.1L226.6,3990.1z M230.7,3977.8v2.7H228v-2.7H230.7z M228,3976.5v-1
		c0.9-0.3,1.7-0.4,2.6-0.4h0.1v1.4H228z M230.7,3981.9v2.7H228v-2.7H230.7z M230.7,3986v2.7H228v-2.7L230.7,3986z M230.7,3990.1v2.7
		H228v-2.7L230.7,3990.1z M230.7,3994.2v0.9c-0.9-0.4-1.8-0.7-2.7-0.8v-0.1H230.7z M234.8,3976.5H232v-1.2c0.9,0.1,1.9,0.4,2.7,0.9
		L234.8,3976.5z M234.8,3984.7H232v-2.7h2.7L234.8,3984.7z M234.8,3977.8v2.7H232v-2.7L234.8,3977.8z M234.8,3986v2.7H232v-2.7
		L234.8,3986z M234.8,3990.1v2.7H232v-2.7L234.8,3990.1z M234.8,3994.2v1c-0.9,0.3-1.7,0.4-2.6,0.4h-0.1l0,0.4h0v-1.7L234.8,3994.2z
		 M232.1,4009.8c-3.3-3.2-3.4-8.4-0.3-11.8c0.1-0.1,0.2-0.2,0.3-0.3c0,0,0.1,0.1,0.1,0.1c0.1,0.1,0.2,0.2,0.3,0.3s0.2,0.2,0.3,0.3
		c0.1,0.1,0.2,0.2,0.3,0.4c0.1,0.1,0.1,0.2,0.2,0.2c0.1,0.1,0.2,0.3,0.3,0.4c0,0.1,0.1,0.1,0.1,0.2c0.1,0.2,0.2,0.3,0.3,0.5
		c0,0,0,0.1,0.1,0.1l0,0c0.2,0.4,0.3,0.9,0.5,1.3h0c0,0.1,0,0.1,0,0.2c0,0.1,0,0.2,0.1,0.3c0,0.2,0.1,0.4,0.1,0.6l0,0.1
		C235,4005.6,234,4008.1,232.1,4009.8L232.1,4009.8z M235.5,3998.3L235.5,3998.3h-1.1c-0.4-0.5-0.8-1-1.2-1.4
		c5.9-0.6,10.3-5.9,9.7-11.8c-0.2-2.5-1.3-4.8-3.1-6.6l-1.6-1.6c-4.3-4.1-11.2-3.9-15.3,0.4c-4,4.2-4,10.7,0,14.9l1.6,1.6
		c0.2,0.2,0.4,0.4,0.6,0.6c-0.6,0.1-1.3,0.3-1.9,0.5l-0.3-0.2c-2.9-2.7-4.5-6.4-4.5-10.3c0-6.6,5.3-11.9,11.9-11.9
		c7.7,0,14,6.3,14,14v3.1c0,4.3,1.6,8.4,4.5,11.5l-1.8,1.8C243.9,3999.9,239.8,3998.3,235.5,3998.3L235.5,3998.3z M236.1,3984.7
		v-2.7h2.7v2.7L236.1,3984.7z M238.9,3986v2.7h-2.7v-2.7L238.9,3986z M238.9,3980.6h-2.7v-2.7h1.1c0,0,0,0,0,0l1.6,1.6c0,0,0,0,0,0
		L238.9,3980.6z M238.9,3990.1v2.6l-0.1,0.1h-2.6v-2.7L238.9,3990.1z M237,3994.2c-0.3,0.2-0.6,0.3-0.9,0.5v-0.5H237z M240.2,3984.7
		v-2.7h0.4c0.4,0.9,0.7,1.8,0.9,2.7H240.2z M241.6,3986c0,0,0,0.1,0,0.1l0,0c0,0.9-0.1,1.8-0.4,2.6h-1v-2.7H241.6z M240.7,3990.1
		c-0.1,0.3-0.3,0.6-0.5,0.9v-0.9H240.7z M221.1,3984.7L221.1,3984.7c0-1,0.1-1.9,0.4-2.7h1v2.7L221.1,3984.7z M222.5,3986v2.7h-0.4
		c-0.4-0.9-0.7-1.8-0.9-2.7H222.5z M222.5,3980.6H222c0.1-0.3,0.3-0.6,0.5-0.9L222.5,3980.6z M257.4,4011.3c-0.9,0.9-2.3,0.9-3.1,0
		l-6.9-6.9l3.1-3.1l6.9,6.9C258.2,4009.1,258.2,4010.5,257.4,4011.3C257.4,4011.3,257.4,4011.3,257.4,4011.3z"/>
</g>
</svg>
