<?xml version="1.0" encoding="utf-8"?>
<!-- Generator: Adobe Illustrator 23.0.0, SVG Export Plug-In . SVG Version: 6.00 Build 0)  -->
<svg version="1.1" id="Capa_1" xmlns="http://www.w3.org/2000/svg" xmlns:xlink="http://www.w3.org/1999/xlink" x="0px" y="0px"
	 viewBox="0 0 64 64" style="enable-background:new 0 0 64 64;" xml:space="preserve">
<style type="text/css">
	.st0{fill:#00263A;}
	.st1{opacity:0.752;}
	.st2{fill:#FFFFFF;}
</style>
<g transform="translate(-1036 -2842)">
	<circle class="st0" cx="1068" cy="2874" r="32"/>
	<g transform="translate(1045.956 2854.56)" class="st1">
		<g transform="translate(0 0)">
			<rect x="0" y="37" class="st2" width="1.5" height="1.5"/>
			<rect x="42.9" y="37" class="st2" width="1.5" height="1.5"/>
			<path class="st2" d="M27.4,25.9c0,2,1.7,3.7,3.7,3.7s3.7-1.7,3.7-3.7s-1.7-3.7-3.7-3.7S27.4,23.9,27.4,25.9L27.4,25.9z
				 M33.3,25.9c0,1.2-1,2.2-2.2,2.2c-1.2,0-2.2-1-2.2-2.2c0-1.2,1-2.2,2.2-2.2C32.3,23.7,33.3,24.7,33.3,25.9z"/>
			<path class="st2" d="M22.9,29.6h-1.2c0-0.1-0.1-0.1-0.1-0.2L20.2,28c2-2.6,1.5-6.3-1-8.3c-2.6-2-6.3-1.5-8.3,1
				c-2,2.6-1.5,6.3,1,8.3c2.1,1.7,5.1,1.7,7.3,0l0.6,0.6c-0.4,0.1-0.6,0.6-0.4,0.9c0.1,0.3,0.4,0.5,0.7,0.5h3c0.4,0,0.7-0.3,0.7-0.7
				S23.4,29.6,22.9,29.6C23,29.6,23,29.6,22.9,29.6L22.9,29.6z M15.5,28.9c-2.5,0-4.5-2-4.5-4.4c0-2.5,2-4.5,4.4-4.5
				c2.5,0,4.5,2,4.5,4.4c0,0.9-0.3,1.8-0.8,2.6l-1.1-1.1c0.3-0.5,0.4-1,0.4-1.5c0-1.6-1.3-3-3-3c-1.6,0-3,1.3-3,3c0,1.6,1.3,3,3,3h0
				c0.5,0,1-0.1,1.5-0.4l1.1,1.1C17.4,28.6,16.5,28.9,15.5,28.9L15.5,28.9z M16.1,23.9c-0.3-0.3-0.8-0.3-1,0c-0.3,0.3-0.3,0.8,0,1
				l0.9,0.9c-0.1,0-0.3,0.1-0.4,0.1c-0.8,0-1.5-0.7-1.5-1.5c0-0.8,0.7-1.5,1.5-1.5c0.8,0,1.5,0.7,1.5,1.5l0,0c0,0.1,0,0.3-0.1,0.4
				L16.1,23.9z"/>
			<rect x="30.3" y="25.2" class="st2" width="1.5" height="1.5"/>
			<path class="st2" d="M44,0.1c-0.3-0.2-0.8-0.1-1,0.2c0,0,0,0,0,0l-2,3.3h-1.2c-0.3-0.9-1.1-1.5-2.1-1.5h-6c-1.2,0-2.2,1-2.2,2.2
				s1,2.2,2.2,2.2h0.4l-4.5,10.9l-9.5-2l-2.1-3.7h0.2c1.6,0,3-1.3,3-3s-1.3-3-3-3H8.9c-1.6,0-3,1.3-3,3s1.3,3,3,3h1.8l1.6,3.1
				c-4.5,0.8-7.8,4.8-7.8,9.4v0.2C4.4,29.7,8.5,34,13.7,34h2.5v3H3v1.5h38.5V37H26.6v-3h4.2c4.2-0.1,7.6-3.5,7.6-7.8v-0.1
				c0-3.7-2.5-6.8-6.1-7.6l-0.2,0l4.6-11.8h1c0.9,0,1.8-0.6,2.1-1.5h1.6c0.3,0,0.5-0.1,0.6-0.4l2.2-3.7C44.5,0.8,44.4,0.3,44,0.1
				C44,0.1,44,0.1,44,0.1z M7.4,8.9c0-0.8,0.7-1.5,1.5-1.5h7.4c0.8,0,1.5,0.7,1.5,1.5s-0.7,1.5-1.5,1.5H8.9C8,10.4,7.4,9.7,7.4,8.9
				C7.4,8.9,7.4,8.9,7.4,8.9z M14.4,11.8l1.9,3.3L15.6,15c-0.6-0.1-1.2-0.2-1.8-0.2l-1.5-3L14.4,11.8z M25.2,37h-7.4v-3h7.4L25.2,37
				z M37,26.1v0.1c0,3.4-2.7,6.2-6.1,6.3H13.7c-4.4-0.1-7.9-3.7-7.8-8v-0.2c-0.1-4.4,3.4-8,7.8-8c0.5,0,1.1,0.1,1.6,0.2l2,0.4
				c0.1,0.1,0.3,0.1,0.4,0.1c0.1,0,0.1,0,0.2,0l14.2,3C35,20.6,37,23.2,37,26.1z M30.7,18.2l-1.5-0.3l4.6-11.2h1.4L30.7,18.2z
				 M37.8,5.2h-6c-0.4,0-0.7-0.3-0.7-0.7c0-0.4,0.3-0.7,0.7-0.7h6c0.4,0,0.7,0.3,0.7,0.7C38.5,4.8,38.2,5.2,37.8,5.2z"/>
		</g>
	</g>
</g>
</svg>
