<svg xmlns="http://www.w3.org/2000/svg" width="64" height="64" viewBox="0 0 64 64"><g transform="translate(-1036 -2842)"><circle cx="32" cy="32" r="32" transform="translate(1036 2842)" fill="#d25a42"/><g transform="translate(1045.956 2854.56)" opacity="0.752"><g transform="translate(0 0)"><rect width="1.48" height="1.48" transform="translate(0 37.005)" fill="#fff"/><rect width="1.48" height="1.48" transform="translate(42.925 37.005)" fill="#fff"/><path d="M39,39.7A3.7,3.7,0,1,0,42.7,36,3.7,3.7,0,0,0,39,39.7Zm5.921,0a2.22,2.22,0,1,1-2.22-2.22A2.223,2.223,0,0,1,44.921,39.7Z" transform="translate(-11.617 -13.797)" fill="#fff"/><path d="M28.322,42.1H27.1a.691.691,0,0,0-.1-.153l-1.4-1.4a5.94,5.94,0,1,0-1.046,1.046l.561.561a.736.736,0,0,0,.255,1.428h2.96a.74.74,0,1,0,0-1.48Zm-7.4-.74a4.454,4.454,0,1,1,3.615-1.872l-1.075-1.075a2.921,2.921,0,0,0,.42-1.494,2.96,2.96,0,1,0-2.96,2.96,2.921,2.921,0,0,0,1.494-.42l1.075,1.075A4.412,4.412,0,0,1,20.921,41.361Zm.523-4.964A.74.74,0,0,0,20.4,37.444l.9.9a1.45,1.45,0,0,1-.378.056,1.48,1.48,0,1,1,1.48-1.48,1.45,1.45,0,0,1-.056.378Z" transform="translate(-5.379 -12.497)" fill="#fff"/><rect width="1.48" height="1.48" transform="translate(30.343 25.163)" fill="#fff"/><path d="M47.087,6.106a.738.738,0,0,0-1.016.252l-2,3.327h-1.2A2.2,2.2,0,0,0,40.8,8.22h-5.95a2.22,2.22,0,0,0,0,4.441h.39L30.759,23.54l-9.528-2-2.114-3.7h.227a2.96,2.96,0,0,0,0-5.921H11.9a2.96,2.96,0,0,0,0,5.921h1.785l1.55,3.1A9.462,9.462,0,0,0,7.48,30.326v.2a9.423,9.423,0,0,0,9.3,9.52h2.541V43H6v1.48H44.484V43h-14.8v-2.96h4.243a7.7,7.7,0,0,0,7.6-7.775v-.13a7.76,7.76,0,0,0-6.072-7.615l-.237-.05L39.81,12.661H40.8a2.2,2.2,0,0,0,2.073-1.495h1.613a.739.739,0,0,0,.634-.358l2.22-3.686A.739.739,0,0,0,47.087,6.106ZM10.441,14.859A1.46,1.46,0,0,1,11.9,13.4h7.445a1.48,1.48,0,0,1,0,2.96H11.9A1.47,1.47,0,0,1,10.441,14.859Zm6.972,2.983,1.882,3.293L18.649,21A9.266,9.266,0,0,0,16.82,20.8l-1.482-2.963ZM28.2,43H20.8v-2.96h7.4ZM40.044,32.14v.13a6.215,6.215,0,0,1-6.118,6.294H16.781a7.942,7.942,0,0,1-7.82-8.04v-.2a7.935,7.935,0,0,1,7.8-8.044,7.685,7.685,0,0,1,1.582.166l2.02.424a.747.747,0,0,0,.439.15A.738.738,0,0,0,20.977,23l14.172,2.973A6.275,6.275,0,0,1,40.044,32.14Zm-6.3-7.973-1.515-.318,4.607-11.188h1.382ZM40.8,11.18h-5.95a.74.74,0,0,1,0-1.48H40.8a.74.74,0,0,1,0,1.48Z" transform="translate(-3.04 -5.999)" fill="#fff"/></g></g></g></svg>