<?xml version="1.0" encoding="utf-8"?>
<!-- Generator: Adobe Illustrator 23.0.0, SVG Export Plug-In . SVG Version: 6.00 Build 0)  -->
<svg version="1.1" id="Capa_1" xmlns="http://www.w3.org/2000/svg" xmlns:xlink="http://www.w3.org/1999/xlink" x="0px" y="0px"
	 viewBox="0 0 64 64" style="enable-background:new 0 0 64 64;" xml:space="preserve">
<style type="text/css">
	.st0{fill:#00263A;}
	.st1{opacity:0.75;}
	.st2{fill:#FFFFFF;}
</style>
<g transform="translate(-206 -3962)">
	<circle class="st0" cx="238" cy="3994" r="32"/>
	<g transform="translate(227.524 3887.65)" class="st1">
		<g transform="translate(-6.45 89.05)">
			<g transform="translate(0 0)">
				<g transform="translate(0 0)">
					<path class="st2" d="M20.4,28.5c0.1,0.4,0.5,0.7,0.9,0.7h5.9c0.4,0,0.8-0.3,0.9-0.7l1.8-5.6c0.1-0.4,0-0.9-0.4-1.1l-4.8-3.5
						c-0.3-0.3-0.8-0.3-1.2,0l-4.8,3.5c-0.3,0.3-0.5,0.7-0.4,1.1L20.4,28.5z M24.3,20.3l3.6,2.6l-1.4,4.3h-4.5l-1.4-4.3L24.3,20.3z"
						/>
					<path class="st2" d="M4.9,29.1h10.5c0.6,0,1-0.5,1-1c0-0.2,0-0.3-0.1-0.5L11,18.5c-0.3-0.5-0.9-0.6-1.4-0.4
						c-0.1,0.1-0.3,0.2-0.4,0.4L4,27.6c-0.3,0.5-0.1,1.1,0.4,1.4C4.5,29.1,4.7,29.1,4.9,29.1L4.9,29.1z M10.1,21l3.5,6.1h-7L10.1,21
						z"/>
					<path class="st2" d="M24.3,15.7c3,0,5.5-2.5,5.5-5.5c0-3-2.5-5.5-5.5-5.5c-3,0-5.5,2.5-5.5,5.5C18.8,13.2,21.3,15.7,24.3,15.7z
						 M24.3,6.7c1.9,0,3.5,1.6,3.5,3.5s-1.6,3.5-3.5,3.5s-3.5-1.6-3.5-3.5C20.8,8.3,22.4,6.7,24.3,6.7z"/>
					<path class="st2" d="M5.8,15.4h8.6c0.6,0,1-0.4,1-1V5.9c0-0.6-0.4-1-1-1H5.8c-0.6,0-1,0.4-1,1v8.6C4.8,15,5.3,15.4,5.8,15.4z
						 M6.8,6.8h6.6v6.6H6.8V6.8z"/>
					<path class="st2" d="M33.2,0H1C0.4,0,0,0.4,0,1v32.2c0,0.6,0.4,1,1,1h32.2c0.6,0,1-0.4,1-1V1C34.2,0.4,33.8,0,33.2,0z
						 M32.2,32.2H2V2h30.2L32.2,32.2L32.2,32.2z"/>
				</g>
			</g>
		</g>
	</g>
</g>
</svg>
