<svg xmlns="http://www.w3.org/2000/svg" width="64" height="64" viewBox="0 0 64 64"><g transform="translate(-206 -3962)"><circle cx="32" cy="32" r="32" transform="translate(206 3962)" fill="#a958c5"/><g transform="translate(227.524 3887.65)" opacity="0.75"><g transform="translate(-6.45 89.05)"><g transform="translate(0 0)"><g transform="translate(0 0)"><path d="M55.526,62.9a1,1,0,0,0,.947.688h5.942a1,1,0,0,0,.947-.688L65.2,57.251a1,1,0,0,0-.362-1.114l-4.807-3.493a1,1,0,0,0-1.171,0l-4.807,3.493a1,1,0,0,0-.362,1.114Zm3.918-8.222,3.637,2.642L61.691,61.6H57.2l-1.389-4.276Z" transform="translate(-35.143 -34.408)" fill="#fff"/><path d="M16.173,63.522h10.48a1,1,0,0,0,.863-1.493l-5.24-9.076a1,1,0,0,0-1.725,0l-5.24,9.076a1,1,0,0,0,.863,1.493Zm5.24-8.081,3.515,6.089H17.9Z" transform="translate(-11.307 -34.408)" fill="#fff"/><path d="M59.976,28.389A5.476,5.476,0,1,0,54.5,22.912,5.483,5.483,0,0,0,59.976,28.389Zm0-8.961a3.485,3.485,0,1,1-3.485,3.485A3.489,3.489,0,0,1,59.976,19.428Z" transform="translate(-35.675 -12.707)" fill="#fff"/><path d="M18.661,28.343h8.588a1,1,0,0,0,1-1V18.76a1,1,0,0,0-1-1H18.661a1,1,0,0,0-1,1v8.588A1,1,0,0,0,18.661,28.343Zm1-8.588h6.6v6.6h-6.6Z" transform="translate(-12.849 -12.91)" fill="#fff"/><path d="M38.231,5H6A1,1,0,0,0,5,6V38.231a1,1,0,0,0,1,1H38.231a1,1,0,0,0,1-1V6A1,1,0,0,0,38.231,5Zm-1,32.235H6.991V6.991H37.235V37.235Z" transform="translate(-5 -5)" fill="#fff"/></g></g></g></g></g></svg>