<?xml version="1.0" encoding="utf-8"?>
<!-- Generator: Adobe Illustrator 23.0.0, SVG Export Plug-In . SVG Version: 6.00 Build 0)  -->
<svg version="1.1" id="Capa_1" xmlns="http://www.w3.org/2000/svg" xmlns:xlink="http://www.w3.org/1999/xlink" x="0px" y="0px"
	 viewBox="0 0 64 64" style="enable-background:new 0 0 64 64;" xml:space="preserve">
<style type="text/css">
	.st0{fill:#00263A;enable-background:new    ;}
	.st1{opacity:0.75;}
	.st2{fill:#FFFFFF;}
</style>
<circle class="st0" cx="32" cy="32" r="32"/>
<g transform="translate(636.644 3598.899)" class="st1">
	<path class="st2" d="M-613.3-3583.8h-4.2c-0.4,0-0.7,0.2-0.8,0.6c0,0.4,0.2,0.7,0.6,0.8c0.1,0,0.1,0,0.2,0h4.2
		c0.4,0,0.7-0.2,0.8-0.6c0-0.4-0.2-0.7-0.6-0.8C-613.2-3583.8-613.3-3583.8-613.3-3583.8L-613.3-3583.8z"/>
	<path class="st2" d="M-589.7-3588h-30.6c-0.4,0-0.7,0.3-0.7,0.7v40.3c0,0.4,0.3,0.7,0.7,0.7c0,0,0,0,0,0h30.6
		c0.4,0,0.7-0.3,0.7-0.7l0,0v-40.3C-589-3587.7-589.3-3588-589.7-3588C-589.7-3588-589.7-3588-589.7-3588z M-619.6-3578.3h29.2v27.8
		h-29.2L-619.6-3578.3z M-590.4-3579.7h-19.5v-7h19.5V-3579.7z M-619.6-3586.6h8.3v7h-8.3V-3586.6z M-619.6-3547.7v-1.4h29.2v1.4
		H-619.6z"/>
	<path class="st2" d="M-600.1-3581h7.6c0.4,0,0.7-0.3,0.7-0.7c0,0,0,0,0,0v-2.8c0-0.4-0.3-0.7-0.7-0.7l0,0h-7.6
		c-0.4,0-0.7,0.3-0.7,0.7l0,0v2.8C-600.8-3581.4-600.5-3581-600.1-3581z M-599.4-3583.8h6.3v1.4h-6.3L-599.4-3583.8z"/>
	<circle class="st2" cx="-605" cy="-3583.1" r="1.4"/>
	<path class="st2" d="M-605-3574.1c-5.4,0-9.7,4.4-9.7,9.7s4.4,9.7,9.7,9.7c5.4,0,9.7-4.4,9.7-9.7S-599.6-3574.1-605-3574.1
		L-605-3574.1z M-605-3556c-4.6,0-8.3-3.7-8.3-8.3c0-4.6,3.7-8.3,8.3-8.3c4.6,0,8.3,3.7,8.3,8.3C-596.7-3559.7-600.4-3556-605-3556
		L-605-3556z"/>
	<path class="st2" d="M-605-3571.3c-3.8,0-7,3.1-7,7s3.1,7,7,7s7-3.1,7-7l0,0C-598.1-3568.2-601.2-3571.3-605-3571.3z M-605-3569.9
		c3.1,0,5.6,2.5,5.6,5.6c0,0.8-0.6,1.4-1.4,1.4c-0.8,0-1.4-0.6-1.4-1.4c0,0,0,0,0,0c0-0.4-0.2-0.7-0.6-0.8c-0.4,0-0.7,0.2-0.8,0.6
		c0,0.1,0,0.1,0,0.2c0,0.8-0.6,1.4-1.4,1.4c-0.8,0-1.4-0.6-1.4-1.4c0,0,0,0,0,0c0-0.4-0.4-0.7-0.8-0.6c-0.3,0-0.6,0.3-0.6,0.6
		c0,0.8-0.6,1.4-1.4,1.4c-0.8,0-1.4-0.6-1.4-1.4c0,0,0,0,0,0C-610.6-3567.4-608.1-3569.9-605-3569.9z M-605-3558.8
		c-2,0-3.9-1.1-4.9-2.9c1,0.3,2.1-0.1,2.8-0.9c1,1.2,2.7,1.3,3.9,0.3c0.1-0.1,0.2-0.2,0.3-0.3c0.7,0.8,1.8,1.1,2.8,0.9
		C-601.1-3559.9-603-3558.8-605-3558.8z"/>
	<circle class="st2" cx="-607.1" cy="-3567.1" r="0.7"/>
</g>
</svg>
