<svg xmlns="http://www.w3.org/2000/svg" width="64" height="64" viewBox="0 0 64 64"><g transform="translate(-621 -3588)"><circle cx="32" cy="32" r="32" transform="translate(621 3588)" fill="#24b7dc" opacity="0.752"/><g transform="translate(636.644 3598.899)" opacity="0.75"><path d="M17.868,8H13.7a.7.7,0,1,0,0,1.391h4.172a.7.7,0,1,0,0-1.391Z" transform="translate(-10.218 -3.828)" fill="#fff"/><path d="M40.292,2H9.7a.7.7,0,0,0-.7.7V43.028a.7.7,0,0,0,.7.7h30.6a.7.7,0,0,0,.7-.7V2.7A.7.7,0,0,0,40.292,2Zm-29.9,9.735H39.6V39.551H10.391ZM39.6,10.345H20.126V3.391H39.6ZM10.391,3.391h8.345v6.954H10.391Zm0,38.942V40.942H39.6v1.391Z" transform="translate(-9 -2)" fill="#fff"/><path d="M38.7,10.172h7.649a.7.7,0,0,0,.7-.7V6.7a.7.7,0,0,0-.7-.7H38.7a.7.7,0,0,0-.7.7V9.477A.7.7,0,0,0,38.7,10.172Zm.7-2.782h6.258V8.782H39.391Z" transform="translate(-17.834 -3.218)" fill="#fff"/><circle cx="1.391" cy="1.391" r="1.391" transform="translate(14.603 3.477)" fill="#fff"/><path d="M27.735,22a9.735,9.735,0,1,0,9.735,9.735A9.735,9.735,0,0,0,27.735,22Zm0,18.08a8.345,8.345,0,1,1,8.345-8.345,8.345,8.345,0,0,1-8.345,8.345Z" transform="translate(-11.742 -8.092)" fill="#fff"/><path d="M28.954,26a6.954,6.954,0,1,0,6.954,6.954A6.954,6.954,0,0,0,28.954,26Zm0,1.391a5.569,5.569,0,0,1,5.563,5.563,1.391,1.391,0,1,1-2.782,0,.7.7,0,1,0-1.391,0,1.391,1.391,0,1,1-2.782,0,.7.7,0,0,0-1.391,0,1.391,1.391,0,1,1-2.782,0A5.569,5.569,0,0,1,28.954,27.391Zm0,11.126a5.567,5.567,0,0,1-4.868-2.881,2.688,2.688,0,0,0,2.782-.862,2.745,2.745,0,0,0,4.172,0,2.688,2.688,0,0,0,2.785.862A5.567,5.567,0,0,1,28.954,38.517Z" transform="translate(-12.96 -9.311)" fill="#fff"/><circle cx="0.695" cy="0.695" r="0.695" transform="translate(13.212 20.166)" fill="#fff"/></g></g></svg>