<?xml version="1.0" encoding="utf-8"?>
<!-- Generator: Adobe Illustrator 23.0.0, SVG Export Plug-In . SVG Version: 6.00 Build 0)  -->
<svg version="1.1" id="Capa_1" xmlns="http://www.w3.org/2000/svg" xmlns:xlink="http://www.w3.org/1999/xlink" x="0px" y="0px"
	 viewBox="0 0 64 64" style="enable-background:new 0 0 64 64;" xml:space="preserve">
<style type="text/css">
	.st0{fill:#00263A;}
	.st1{opacity:0.75;}
	.st2{fill:#FFFFFF;}
</style>
<g transform="translate(-1036 -3588)">
	<circle class="st0" cx="1068" cy="3620" r="32"/>
	<g transform="translate(1046.667 3602.863)" class="st1">
		<g transform="translate(0 0)">
			<path class="st2" d="M0.9,36.2c0.5,0,0.9-0.4,0.9-0.9c0-1.6,1.3-2.8,2.8-2.8s2.9,1.3,2.9,2.8c0,0.5,0.4,0.9,0.9,0.9
				s0.9-0.4,0.9-0.9c0-2.6-2.1-4.7-4.7-4.7S0,32.6,0,35.2C0,35.8,0.4,36.2,0.9,36.2z"/>
			<path class="st2" d="M11.9,36.2c0.5,0,0.9-0.4,0.9-0.9c0-1.6,1.3-2.8,2.9-2.8c1.6,0,2.8,1.3,2.8,2.8l0,0c0,0.5,0.4,1,1,1
				s1-0.4,1-1c0-2.6-2.1-4.7-4.7-4.7c-2.6,0-4.7,2.1-4.7,4.7C10.9,35.8,11.3,36.2,11.9,36.2z"/>
			<path class="st2" d="M22.8,36.2c0.5,0,0.9-0.4,0.9-0.9c0-1.6,1.3-2.8,2.8-2.8c1.6,0,2.9,1.3,2.9,2.8l0,0c0,0.5,0.4,1,1,1
				s1-0.4,1-1c0-2.6-2.1-4.7-4.7-4.7c-2.6,0-4.7,2.1-4.7,4.7C21.9,35.7,22.3,36.2,22.8,36.2C22.8,36.2,22.8,36.2,22.8,36.2z"/>
			<path class="st2" d="M33.7,36.2c0.5,0,0.9-0.4,0.9-0.9c0-1.6,1.3-2.8,2.8-2.8s2.8,1.3,2.8,2.8c0,0.5,0.4,1,0.9,1c0.5,0,1-0.4,1-1
				c0-2.6-2.1-4.7-4.7-4.7c-2.6,0-4.7,2.1-4.7,4.7C32.8,35.8,33.2,36.2,33.7,36.2z"/>
			<path class="st2" d="M14,29.5c0.5,0,0.9-0.4,0.9-0.9c0-2.6-2.1-4.7-4.7-4.7S5.4,26,5.4,28.6c0,0.5,0.4,0.9,0.9,0.9
				c0.5,0,1-0.4,1-0.9c0-1.6,1.3-2.8,2.9-2.8S13,27,13,28.6C13,29.1,13.4,29.5,14,29.5z"/>
			<path class="st2" d="M24,28.6c0,0.5,0.4,1,1,1s1-0.4,1-1l0,0c0-2.6-2.1-4.7-4.7-4.7c-2.6,0-4.7,2.1-4.7,4.7c0,0.5,0.4,1,1,1
				s1-0.4,1-1l0,0c0-1.6,1.3-2.8,2.9-2.8C22.7,25.7,24,27,24,28.6L24,28.6z"/>
			<path class="st2" d="M34.9,28.6c0,0.5,0.4,1,1,1c0.5,0,0.9-0.4,0.9-1l0,0c0-2.6-2.1-4.7-4.7-4.7c-2.6,0-4.7,2.1-4.7,4.7
				c0,0.5,0.4,0.9,0.9,0.9s1-0.4,1-0.9c0-1.6,1.3-2.8,2.8-2.8S34.9,27,34.9,28.6L34.9,28.6z"/>
			<path class="st2" d="M1.1,22.2c6.6-0.8,13.3-1.1,20-1.1c6.7,0,13.4,0.4,20,1.1h0.1c0.2,0,0.4-0.1,0.6-0.2
				c0.2-0.2,0.3-0.4,0.3-0.7V1c0-0.3-0.1-0.5-0.3-0.7C41.7,0.1,41.4,0,41.1,0c-6.6,0.8-13.3,1.2-20,1.1c-6.7,0-13.4-0.4-20-1.1
				c-0.3,0-0.6,0-0.8,0.2C0.1,0.5,0,0.7,0,1v20.3c0,0.3,0.1,0.5,0.3,0.7C0.5,22.2,0.8,22.2,1.1,22.2z M1.9,2c6.4,0.7,12.8,1,19.2,1
				C27.5,3,34,2.7,40.3,2v18.1c-6.4-0.6-12.8-1-19.2-0.9c-6.4,0-12.8,0.3-19.2,1L1.9,2z"/>
		</g>
	</g>
</g>
</svg>
