<svg xmlns="http://www.w3.org/2000/svg" width="64" height="64" viewBox="0 0 64 64"><g transform="translate(-1036 -3588)"><circle cx="32" cy="32" r="32" transform="translate(1036 3588)" fill="#ec3434"/><g transform="translate(1046.667 3602.863)" opacity="0.75"><g transform="translate(0 0)"><path d="M6.449,81.8a.952.952,0,0,0,.949-.949,2.848,2.848,0,0,1,5.7,0,.949.949,0,1,0,1.9,0,4.746,4.746,0,0,0-9.493,0A.952.952,0,0,0,6.449,81.8Z" transform="translate(-5.5 -45.616)" fill="#fff"/><path d="M29.449,81.8a.952.952,0,0,0,.949-.949,2.848,2.848,0,0,1,5.7,0,.949.949,0,1,0,1.9,0,4.746,4.746,0,0,0-9.493,0A.952.952,0,0,0,29.449,81.8Z" transform="translate(-17.583 -45.616)" fill="#fff"/><path d="M52.549,81.8a.952.952,0,0,0,.949-.949,2.848,2.848,0,0,1,5.7,0,.949.949,0,1,0,1.9,0,4.746,4.746,0,0,0-9.493,0A.923.923,0,0,0,52.549,81.8Z" transform="translate(-29.719 -45.616)" fill="#fff"/><path d="M75.549,81.8a.952.952,0,0,0,.949-.949,2.848,2.848,0,0,1,5.7,0,.949.949,0,0,0,1.9,0,4.746,4.746,0,0,0-9.493,0A.952.952,0,0,0,75.549,81.8Z" transform="translate(-41.802 -45.616)" fill="#fff"/><path d="M25.444,67.8a.952.952,0,0,0,.949-.949,4.746,4.746,0,0,0-9.493,0,.949.949,0,1,0,1.9,0,2.848,2.848,0,0,1,5.7,0A.952.952,0,0,0,25.444,67.8Z" transform="translate(-11.489 -38.261)" fill="#fff"/><path d="M47.594,66.846a.949.949,0,1,0,1.9,0,4.746,4.746,0,0,0-9.493,0,.949.949,0,1,0,1.9,0,2.848,2.848,0,0,1,5.7,0Z" transform="translate(-23.625 -38.261)" fill="#fff"/><path d="M70.594,66.846a.949.949,0,1,0,1.9,0,4.746,4.746,0,0,0-9.493,0,.949.949,0,1,0,1.9,0,2.848,2.848,0,0,1,5.7,0Z" transform="translate(-35.708 -38.261)" fill="#fff"/><path d="M6.592,34.052a167.77,167.77,0,0,1,20.03-1.092,178.321,178.321,0,0,1,20.03,1.092h.095a.9.9,0,0,0,.617-.237A1.009,1.009,0,0,0,47.7,33.1V12.836a.854.854,0,0,0-.332-.712.876.876,0,0,0-.759-.237,166.075,166.075,0,0,1-19.983,1.139,178.32,178.32,0,0,1-20.03-1.092.921.921,0,0,0-.759.237.854.854,0,0,0-.332.712V33.151a.854.854,0,0,0,.332.712A.89.89,0,0,0,6.592,34.052ZM7.4,13.88a176.327,176.327,0,0,0,19.223,1,176.327,176.327,0,0,0,19.223-1V32.012a189.541,189.541,0,0,0-19.223-.949,176.326,176.326,0,0,0-19.223,1Z" transform="translate(-5.5 -11.875)" fill="#fff"/></g></g></g></svg>