<?xml version="1.0" encoding="utf-8"?>
<!-- Generator: Adobe Illustrator 23.0.0, SVG Export Plug-In . SVG Version: 6.00 Build 0)  -->
<svg version="1.1" id="Capa_1" xmlns="http://www.w3.org/2000/svg" xmlns:xlink="http://www.w3.org/1999/xlink" x="0px" y="0px"
	 viewBox="0 0 64 64" style="enable-background:new 0 0 64 64;" xml:space="preserve">
<style type="text/css">
	.st0{fill:#00263A;}
	.st1{opacity:0.75;}
	.st2{fill:#FFFFFF;}
</style>
<g transform="translate(-206 -3962)">
	<circle class="st0" cx="238" cy="3994" r="32"/>
	<g transform="translate(213.111 3971.014)" class="st1">
		<g transform="translate(0 0)">
			<path class="st2" d="M24.4,17.5c-2.9,0-5.9,0.3-8.7,0.9v-6l13.4-5.4c0.5-0.2,0.7-0.7,0.5-1.1c-0.1-0.2-0.3-0.4-0.5-0.5l-14-5.2
				c-0.4-0.2-1,0-1.1,0.5C14,0.7,14,0.8,14,0.9v17.8C5.6,20.7,0,25.2,0,30.5c0,7.3,10.7,13.1,24.4,13.1s24.4-5.7,24.4-13.1
				S38.1,17.5,24.4,17.5z M15.7,2.1l10.7,4l-10.7,4.4V2.1z M24.4,41.9c-12.5,0-22.7-5.1-22.7-11.3c0-4.4,5-8.2,12.2-10.1v4.8
				c-4.5,0.3-7.9,2.6-7.9,5.6c0,3.2,3.8,5.7,8.7,5.7s8.7-2.5,8.7-5.7c0-3-3.4-5.4-7.9-5.6v-5.2c2.9-0.6,5.8-0.9,8.7-0.9
				c12.5,0,22.7,5.1,22.7,11.3S36.9,41.9,24.4,41.9z M14,34.9C10.6,34.7,7.9,33,7.9,31s2.7-3.6,6.1-3.9V34.9z M15.7,27.1
				c3.4,0.3,6.1,1.9,6.1,3.9s-2.7,3.7-6.1,4V27.1z"/>
			<path class="st2" d="M39.3,27.2c-1.9,0-3.5,1.6-3.5,3.5s1.6,3.5,3.5,3.5s3.5-1.6,3.5-3.5v0C42.7,28.8,41.2,27.2,39.3,27.2z
				 M39.3,32.4c-1,0-1.7-0.8-1.7-1.7c0-1,0.8-1.7,1.7-1.7c1,0,1.7,0.8,1.7,1.7c0,0,0,0,0,0C41,31.7,40.2,32.4,39.3,32.4L39.3,32.4z"
				/>
		</g>
	</g>
</g>
</svg>
