<svg xmlns="http://www.w3.org/2000/svg" width="64" height="64" viewBox="0 0 64 64"><g transform="translate(-206 -3962)"><circle cx="32" cy="32" r="32" transform="translate(206 3962)" fill="#47c188"/><g transform="translate(213.111 3971.014)" opacity="0.75"><g transform="translate(0 0)"><path d="M28.425,27.445a45.221,45.221,0,0,0-8.723.872V22.359l13.416-5.443a.872.872,0,0,0,0-1.631L19.161,10.05a.872.872,0,0,0-1.2.82v17.8C9.635,30.733,4,35.209,4,40.53c0,7.336,10.73,13.085,24.425,13.085S52.851,47.866,52.851,40.53,42.121,27.445,28.425,27.445ZM19.7,12.127,30.388,16.1,19.7,20.466ZM28.425,51.87c-12.509,0-22.681-5.086-22.681-11.34,0-4.362,4.964-8.156,12.213-10.058V35.3c-4.466.279-7.851,2.617-7.851,5.644,0,3.175,3.83,5.67,8.723,5.67s8.723-2.495,8.723-5.67c0-2.983-3.385-5.365-7.851-5.644V30.062a43.1,43.1,0,0,1,8.723-.872c12.509,0,22.681,5.086,22.681,11.34S40.935,51.87,28.425,51.87ZM17.957,44.891c-3.385-.253-6.106-1.928-6.106-3.891s2.722-3.638,6.106-3.891ZM19.7,37.04c3.385.253,6.106,1.928,6.106,3.891S23.087,44.6,19.7,44.891Z" transform="translate(-4 -9.985)" fill="#fff"/><path d="M48.489,41.17a3.489,3.489,0,1,0,3.489,3.489A3.489,3.489,0,0,0,48.489,41.17Zm0,5.234a1.745,1.745,0,1,1,1.745-1.745A1.745,1.745,0,0,1,48.489,46.4Z" transform="translate(-9.234 -13.966)" fill="#fff"/></g></g></g></svg>