<?xml version="1.0" encoding="utf-8"?>
<!-- Generator: Adobe Illustrator 23.0.0, SVG Export Plug-In . SVG Version: 6.00 Build 0)  -->
<svg version="1.1" id="Capa_1" xmlns="http://www.w3.org/2000/svg" xmlns:xlink="http://www.w3.org/1999/xlink" x="0px" y="0px"
	 viewBox="0 0 64 64" style="enable-background:new 0 0 64 64;" xml:space="preserve">
<style type="text/css">
	.st0{fill:#00263A;enable-background:new    ;}
	.st1{fill:#FFFFFF;}
</style>
<g transform="translate(-621 -2842)">
	<circle class="st0" cx="653" cy="2874" r="32"/>
	<g transform="translate(631.402 2854.8)">
		<g transform="translate(0 0)">
			<path class="st1" d="M36.8,38.2c-1.2,0-2.4-0.5-3.2-1.3c-2.3-2.2-5.9-2.2-8.3,0c-1.8,1.7-4.6,1.7-6.4,0c-2.3-2.2-5.9-2.2-8.3,0
				c-1.8,1.7-4.6,1.7-6.4,0C3,35.9,1.5,35.3,0,35.3v1.5c1.2,0,2.4,0.5,3.2,1.3c2.3,2.2,5.9,2.2,8.3,0c1.8-1.7,4.6-1.7,6.4,0
				c2.3,2.2,5.9,2.2,8.3,0c1.8-1.7,4.6-1.7,6.4,0c2.3,2.2,5.9,2.2,8.3,0c0.9-0.8,2-1.3,3.2-1.3v-1.5c-1.5,0-3,0.6-4.1,1.6
				C39.1,37.8,38,38.2,36.8,38.2z"/>
			<path class="st1" d="M36.8,32.3c-1.2,0-2.4-0.5-3.2-1.3c-2.3-2.2-5.9-2.2-8.3,0c-1.8,1.7-4.6,1.7-6.4,0c-2.3-2.2-5.9-2.2-8.3,0
				c-1.8,1.7-4.6,1.7-6.4,0C3,30,1.5,29.4,0,29.4v1.5c1.2,0,2.4,0.5,3.2,1.3c2.3,2.2,5.9,2.2,8.3,0c1.8-1.7,4.6-1.7,6.4,0
				c2.3,2.2,5.9,2.2,8.3,0c1.8-1.7,4.6-1.7,6.4,0c2.3,2.2,5.9,2.2,8.3,0c0.9-0.8,2-1.3,3.2-1.3v-1.5c-1.5,0-3,0.6-4.1,1.6
				C39.1,31.9,38,32.3,36.8,32.3z"/>
			<path class="st1" d="M36.8,26.5c-1.2,0-2.4-0.5-3.2-1.3c-2.3-2.2-5.9-2.2-8.3,0c-1.8,1.7-4.6,1.7-6.4,0c-2.3-2.2-5.9-2.2-8.3,0
				c-1.8,1.7-4.6,1.7-6.4,0C3,24.1,1.5,23.5,0,23.5V25c1.2,0,2.4,0.5,3.2,1.3c2.3,2.2,5.9,2.2,8.3,0c1.8-1.7,4.6-1.7,6.4,0
				c2.3,2.2,5.9,2.2,8.3,0c1.8-1.7,4.6-1.7,6.4,0c2.3,2.2,5.9,2.2,8.3,0c0.9-0.8,2-1.3,3.2-1.3v-1.5c-1.5,0-3,0.6-4.1,1.6
				C39.1,26,38,26.5,36.8,26.5z"/>
			<path class="st1" d="M44.1,6.6V5.1h-2.2V4.4c0-2.4-2-4.4-4.5-4.3c-2.4,0-4.3,2-4.3,4.3v0.8h-1.5V4.4c0-2.4-2-4.4-4.5-4.3
				c-2.4,0-4.3,2-4.3,4.3v0.8H12.5v1.5h10.3v13.9c-0.2,0-0.5,0.1-0.7,0.1c-1.2,0-2.4-0.5-3.2-1.3c-2.3-2.2-5.9-2.2-8.3,0
				c-1.8,1.7-4.6,1.7-6.4,0C3,18.2,1.5,17.6,0,17.6v1.5c1.2,0,2.4,0.5,3.2,1.3c2.3,2.2,5.9,2.2,8.3,0c1.8-1.7,4.6-1.7,6.4,0
				c2.3,2.2,5.9,2.2,8.3,0c1.8-1.7,4.6-1.7,6.4,0c2.3,2.2,5.9,2.2,8.3,0c0.9-0.8,2-1.3,3.2-1.3v-1.5c-1.5,0-3,0.6-4.1,1.6
				c-0.9,0.8-2,1.3-3.2,1.3c-0.8,0-1.5-0.2-2.2-0.6V6.6L44.1,6.6z M34.5,4.4c0-1.6,1.3-2.9,2.9-2.9c1.6,0,2.9,1.3,2.9,2.9v0.8h-5.9
				V4.4z M24.3,4.4c0-1.6,1.3-2.9,2.9-2.9s2.9,1.3,2.9,2.9v0.8h-5.9V4.4z M33.1,14h-8.8v-1.5h8.8V14z M33.1,11h-8.8V9.6h8.8V11z
				 M29.4,17.6c-1.5,0-3,0.6-4.1,1.6c-0.3,0.3-0.7,0.5-1,0.7v-4.6h8.8v3.5C32.1,18.1,30.7,17.6,29.4,17.6z M33.1,8.1h-8.8V6.6h8.8
				L33.1,8.1z"/>
			<rect x="9.6" y="5.1" class="st1" width="1.5" height="1.5"/>
			<rect x="0" y="5.1" class="st1" width="8.1" height="1.5"/>
		</g>
	</g>
</g>
</svg>
