<svg xmlns="http://www.w3.org/2000/svg" width="64" height="64" viewBox="0 0 64 64"><g transform="translate(-621 -2842)"><circle cx="32" cy="32" r="32" transform="translate(621 2842)" fill="#7479ff" opacity="0.752"/><g transform="translate(631.402 2854.8)"><g transform="translate(0 0)"><path d="M38.75,55.94a4.538,4.538,0,0,1-3.218-1.309,6.057,6.057,0,0,0-8.27,0,4.6,4.6,0,0,1-6.432,0,6.055,6.055,0,0,0-8.269,0,4.6,4.6,0,0,1-6.428,0A5.946,5.946,0,0,0,2,53v1.47a4.531,4.531,0,0,1,3.214,1.309,6.052,6.052,0,0,0,8.266,0,4.6,4.6,0,0,1,6.431,0,6.055,6.055,0,0,0,8.269,0,4.606,4.606,0,0,1,6.433,0,6.059,6.059,0,0,0,8.272,0A4.538,4.538,0,0,1,46.1,54.47V53a5.952,5.952,0,0,0-4.136,1.631A4.537,4.537,0,0,1,38.75,55.94Z" transform="translate(-2 -17.717)" fill="#fff"/><path d="M38.75,47.94a4.538,4.538,0,0,1-3.218-1.309,6.057,6.057,0,0,0-8.27,0,4.6,4.6,0,0,1-6.432,0,6.055,6.055,0,0,0-8.269,0,4.6,4.6,0,0,1-6.428,0A5.946,5.946,0,0,0,2,45v1.47a4.531,4.531,0,0,1,3.214,1.309,6.052,6.052,0,0,0,8.266,0,4.6,4.6,0,0,1,6.431,0,6.055,6.055,0,0,0,8.269,0,4.606,4.606,0,0,1,6.433,0,6.059,6.059,0,0,0,8.272,0A4.538,4.538,0,0,1,46.1,46.47V45a5.952,5.952,0,0,0-4.136,1.631A4.537,4.537,0,0,1,38.75,47.94Z" transform="translate(-2 -15.598)" fill="#fff"/><path d="M38.75,39.94a4.538,4.538,0,0,1-3.218-1.309,6.057,6.057,0,0,0-8.27,0,4.6,4.6,0,0,1-6.432,0,6.055,6.055,0,0,0-8.269,0,4.6,4.6,0,0,1-6.428,0A5.946,5.946,0,0,0,2,37v1.47a4.531,4.531,0,0,1,3.214,1.309,6.052,6.052,0,0,0,8.266,0,4.6,4.6,0,0,1,6.431,0,6.055,6.055,0,0,0,8.269,0,4.606,4.606,0,0,1,6.433,0,6.059,6.059,0,0,0,8.272,0A4.538,4.538,0,0,1,46.1,38.47V37a5.952,5.952,0,0,0-4.136,1.631A4.537,4.537,0,0,1,38.75,39.94Z" transform="translate(-2 -13.478)" fill="#fff"/><path d="M46.1,11.616v-1.47H43.9V9.374a4.411,4.411,0,0,0-8.821,0v.772h-1.47V9.374a4.411,4.411,0,0,0-8.821,0v.772H14.5v1.47H24.787v13.91a5.052,5.052,0,0,1-.74.057,4.536,4.536,0,0,1-3.217-1.309,6.055,6.055,0,0,0-8.269,0,4.6,4.6,0,0,1-6.428,0A5.946,5.946,0,0,0,2,22.641v1.47a4.531,4.531,0,0,1,3.214,1.309,6.052,6.052,0,0,0,8.266,0,4.6,4.6,0,0,1,6.431,0,6.055,6.055,0,0,0,8.269,0,4.606,4.606,0,0,1,6.433,0,6.059,6.059,0,0,0,8.272,0A4.538,4.538,0,0,1,46.1,24.112v-1.47a5.952,5.952,0,0,0-4.136,1.631,4.537,4.537,0,0,1-3.217,1.309,4.056,4.056,0,0,1-2.2-.57v-13.4ZM36.548,9.374a2.94,2.94,0,0,1,5.88,0v.772h-5.88Zm-10.291,0a2.94,2.94,0,0,1,5.88,0v.772h-5.88Zm8.821,9.593H26.257V17.5h8.821Zm0-2.94H26.257v-1.47h8.821ZM31.4,22.641a5.949,5.949,0,0,0-4.134,1.631,9.2,9.2,0,0,1-1,.733V20.436h8.821v3.481A5.606,5.606,0,0,0,31.4,22.641Zm3.682-9.556H26.257v-1.47h8.821Z" transform="translate(-2 -5)" fill="#fff"/><rect width="1.47" height="1.47" transform="translate(9.556 5.145)" fill="#fff"/><rect width="8.086" height="1.47" transform="translate(0 5.145)" fill="#fff"/></g></g></g></svg>