<svg xmlns="http://www.w3.org/2000/svg" width="64" height="64" viewBox="0 0 64 64"><g transform="translate(-621 -3215)"><circle cx="32" cy="32" r="32" transform="translate(621 3215)" fill="#ddd521" opacity="0.752"/><g transform="translate(629.455 3228.739)" opacity="0.75"><g transform="translate(0 0)"><path d="M41.244,1.978a7.844,7.844,0,0,0-6.118,12.764,7.643,7.643,0,0,0-3.469,0,7.853,7.853,0,1,0-12.236,0,7.643,7.643,0,0,0-3.469,0,7.893,7.893,0,1,0-4.383,2.742,7.838,7.838,0,0,0,7.853,12.564,7.853,7.853,0,1,0,12.236,0A7.842,7.842,0,0,0,39.51,17.484,7.853,7.853,0,1,0,41.244,1.978Zm0,1.571a6.26,6.26,0,0,1,4.526,1.937,24.913,24.913,0,0,1-9.053,0A6.26,6.26,0,0,1,41.244,3.549Zm6.282,6.282a6.248,6.248,0,0,1-.743,2.959,26.418,26.418,0,0,0-11.078,0,6.259,6.259,0,0,1,0-5.917,26.331,26.331,0,0,0,5.538.6,26.331,26.331,0,0,0,5.539-.6,6.243,6.243,0,0,1,.743,2.958ZM37.918,18.05a24.913,24.913,0,0,1-9.053,0,6.256,6.256,0,0,1,9.053,0ZM25.539,22.395a7.81,7.81,0,0,0,1.735,4.911,7.643,7.643,0,0,0-3.469,0,7.819,7.819,0,0,0,0-9.822,7.643,7.643,0,0,0,3.469,0A7.81,7.81,0,0,0,25.539,22.395Zm1.571,0a6.243,6.243,0,0,1,.743-2.958,26.33,26.33,0,0,0,5.539.6,26.33,26.33,0,0,0,5.539-.6,6.262,6.262,0,0,1,0,5.917,26.418,26.418,0,0,0-11.078,0,6.24,6.24,0,0,1-.744-2.959ZM25.539,3.549a6.282,6.282,0,1,1-6.282,6.282,6.282,6.282,0,0,1,6.282-6.282ZM3.551,9.831a6.243,6.243,0,0,1,.743-2.958,26.331,26.331,0,0,0,5.539.6,26.331,26.331,0,0,0,5.539-.6,6.263,6.263,0,0,1,0,5.917,26.418,26.418,0,0,0-11.078,0A6.24,6.24,0,0,1,3.551,9.831ZM9.834,3.549A6.26,6.26,0,0,1,14.36,5.486a24.913,24.913,0,0,1-9.053,0A6.26,6.26,0,0,1,9.834,3.549ZM5.307,14.176a24.913,24.913,0,0,1,9.053,0,6.256,6.256,0,0,1-9.053,0Zm6.1,8.219a6.282,6.282,0,1,1,6.282,6.282A6.282,6.282,0,0,1,11.4,22.395ZM25.539,41.241a6.282,6.282,0,1,1,6.282-6.282,6.282,6.282,0,0,1-6.282,6.282Zm7.853-12.564a6.26,6.26,0,0,1-4.526-1.937,24.913,24.913,0,0,1,9.053,0A6.26,6.26,0,0,1,33.392,28.677Zm7.853-12.564a6.26,6.26,0,0,1-4.526-1.937,24.913,24.913,0,0,1,9.053,0,6.26,6.26,0,0,1-4.526,1.937Z" transform="translate(-1.911 -1.898)" fill="#fff"/></g></g></g></svg>