<?xml version="1.0" encoding="utf-8"?>
<!-- Generator: Adobe Illustrator 23.0.0, SVG Export Plug-In . SVG Version: 6.00 Build 0)  -->
<svg version="1.1" id="Capa_1" xmlns="http://www.w3.org/2000/svg" xmlns:xlink="http://www.w3.org/1999/xlink" x="0px" y="0px"
	 viewBox="0 0 64 64" style="enable-background:new 0 0 64 64;" xml:space="preserve">
<style type="text/css">
	.st0{fill:#00263A;enable-background:new    ;}
	.st1{opacity:0.75;}
	.st2{fill:#FFFFFF;}
</style>
<g transform="translate(-621 -3215)">
	<circle class="st0" cx="653" cy="3247" r="32"/>
	<g transform="translate(629.455 3228.739)" class="st1">
		<g transform="translate(0 0)">
			<path class="st2" d="M39.3,0.1c-4.3,0-7.8,3.5-7.9,7.8c0,1.8,0.6,3.5,1.7,4.9c-1.1-0.3-2.3-0.3-3.5,0c2.7-3.4,2.2-8.3-1.2-11
				s-8.3-2.2-11,1.2c-2.3,2.9-2.3,7,0,9.8c-1.1-0.3-2.3-0.3-3.5,0c2.7-3.4,2.2-8.4-1.2-11.1S4.5-0.5,1.7,2.9S-0.5,11.3,2.9,14
				c1.9,1.5,4.4,2.1,6.7,1.5c-2.7,3.4-2.2,8.3,1.2,11c1.9,1.5,4.3,2.1,6.7,1.5c-2.7,3.4-2.2,8.3,1.2,11s8.3,2.2,11-1.2
				c2.3-2.9,2.3-7,0-9.8c4.2,1,8.4-1.7,9.4-5.9c0.5-2.3,0-4.8-1.5-6.7c4.2,1,8.4-1.7,9.4-5.9c1-4.2-1.7-8.4-5.9-9.4
				C40.5,0.1,39.9,0.1,39.3,0.1z M39.3,1.7c1.7,0,3.3,0.7,4.5,1.9c-3,0.6-6.1,0.6-9.1,0C36,2.4,37.6,1.7,39.3,1.7z M45.6,7.9
				c0,1-0.3,2-0.7,3c-3.7-0.8-7.4-0.8-11.1,0c-1-1.8-1-4.1,0-5.9c1.8,0.4,3.7,0.6,5.5,0.6c1.9,0,3.7-0.2,5.5-0.6
				C45.4,5.9,45.6,6.9,45.6,7.9L45.6,7.9z M36,16.2c-3,0.6-6.1,0.6-9.1,0c2.4-2.5,6.3-2.6,8.8-0.2C35.9,16,35.9,16.1,36,16.2z
				 M23.6,20.5c0,1.8,0.6,3.5,1.7,4.9c-1.1-0.3-2.3-0.3-3.5,0c2.3-2.9,2.3-7,0-9.8c1.1,0.3,2.3,0.3,3.5,0
				C24.2,17,23.6,18.7,23.6,20.5z M25.2,20.5c0-1,0.3-2,0.7-3c1.8,0.4,3.7,0.6,5.5,0.6c1.9,0,3.7-0.2,5.5-0.6c1,1.8,1,4.1,0,5.9
				c-3.7-0.8-7.4-0.8-11.1,0C25.5,22.5,25.2,21.5,25.2,20.5L25.2,20.5z M23.6,1.7c3.5,0,6.3,2.8,6.3,6.3s-2.8,6.3-6.3,6.3
				s-6.3-2.8-6.3-6.3l0,0C17.3,4.5,20.2,1.7,23.6,1.7z M1.6,7.9c0-1,0.3-2,0.7-3c1.8,0.4,3.7,0.6,5.5,0.6c1.9,0,3.7-0.2,5.5-0.6
				c1,1.8,1,4.1,0,5.9c-3.7-0.8-7.4-0.8-11.1,0C1.9,10,1.6,9,1.6,7.9z M7.9,1.7c1.7,0,3.3,0.7,4.5,1.9c-3,0.6-6.1,0.6-9.1,0
				C4.6,2.4,6.2,1.7,7.9,1.7z M3.4,12.3c3-0.6,6.1-0.6,9.1,0c-2.4,2.5-6.3,2.6-8.8,0.2C3.5,12.4,3.5,12.3,3.4,12.3z M9.5,20.5
				c0-3.5,2.8-6.3,6.3-6.3s6.3,2.8,6.3,6.3s-2.8,6.3-6.3,6.3l0,0C12.3,26.8,9.5,24,9.5,20.5C9.5,20.5,9.5,20.5,9.5,20.5L9.5,20.5z
				 M23.6,39.3c-3.5,0-6.3-2.8-6.3-6.3s2.8-6.3,6.3-6.3s6.3,2.8,6.3,6.3S27.1,39.3,23.6,39.3C23.6,39.3,23.6,39.3,23.6,39.3z
				 M31.5,26.8c-1.7,0-3.3-0.7-4.5-1.9c3-0.6,6.1-0.6,9.1,0C34.8,26.1,33.2,26.8,31.5,26.8z M39.3,14.2c-1.7,0-3.3-0.7-4.5-1.9
				c3-0.6,6.1-0.6,9.1,0C42.7,13.5,41,14.2,39.3,14.2L39.3,14.2z"/>
		</g>
	</g>
</g>
</svg>
