<svg xmlns="http://www.w3.org/2000/svg" width="64" height="64" viewBox="0 0 64 64"><g transform="translate(-206 -2843)"><circle cx="32" cy="32" r="32" transform="translate(206 2843)" fill="#bf0987"/><g transform="translate(218.596 2862.702)" opacity="0.752"><g transform="translate(0 0)"><path d="M46.624,20.35,44.373,18.6a.226.226,0,0,0-.367.23l.184,1.516a3.089,3.089,0,0,0-.505-.322A4.966,4.966,0,0,0,36.978,22a11.193,11.193,0,0,1-4.364,4.41V22.876a.919.919,0,1,0-1.837,0v4.318a11.2,11.2,0,0,1-3.537.6,11.718,11.718,0,0,1-3.583-.6V22.876a.919.919,0,1,0-1.837,0v3.491A10.965,10.965,0,0,1,17.5,22,4.966,4.966,0,0,0,10.8,20.028l-.276.138.184-1.378c.046-.23-.23-.322-.367-.23L8.085,20.3a.227.227,0,0,0,.138.413L9.6,20.9a5.543,5.543,0,0,0-1.148,2.113,4.885,4.885,0,0,0,.413,3.767,21.014,21.014,0,0,0,13,10.243v2.251a5.422,5.422,0,0,0,4.5,5.328l-.046,9.568a.919.919,0,1,0,1.837,0L28.2,44.6a5.425,5.425,0,0,0,4.456-5.328V37.024A20.9,20.9,0,0,0,45.705,26.735a4.924,4.924,0,0,0-.781-5.742l1.608-.184A.282.282,0,0,0,46.624,20.35ZM30.776,39.275a3.56,3.56,0,1,1-7.12,0V37.392a23.6,23.6,0,0,0,3.583.322,18.1,18.1,0,0,0,3.537-.322ZM44.051,25.862a19.12,19.12,0,0,1-33.624,0,2.805,2.805,0,0,1-.23-2.343,3.179,3.179,0,0,1,1.516-1.837,2.8,2.8,0,0,1,1.47-.367,3.093,3.093,0,0,1,2.71,1.608,12.908,12.908,0,0,0,22.691,0,3.1,3.1,0,0,1,5.466,2.94Z" transform="translate(-7.987 -18.523)" fill="#fff"/><path d="M21.037,30.954a.912.912,0,0,0-1.148.6l-.735,2.3a.893.893,0,0,0,.6,1.148.583.583,0,0,0,.276.046A.922.922,0,0,0,20.9,34.4l.735-2.3A.951.951,0,0,0,21.037,30.954Z" transform="translate(-14.003 -25.223)" fill="#fff"/><path d="M30.453,39.132a.956.956,0,0,0-1.194.551l-.827,2.3a.956.956,0,0,0,.551,1.194h.367a.942.942,0,0,0,.873-.6l.827-2.3A.912.912,0,0,0,30.453,39.132Z" transform="translate(-19.01 -29.635)" fill="#fff"/><path d="M40.053,44.132a.956.956,0,0,0-1.194.551l-.827,2.3a.956.956,0,0,0,.551,1.194h.322a.942.942,0,0,0,.873-.6l.827-2.3A.854.854,0,0,0,40.053,44.132Z" transform="translate(-24.2 -32.338)" fill="#fff"/><path d="M49.653,45.032a.956.956,0,0,0-1.194.551l-.827,2.3a.956.956,0,0,0,.551,1.194.782.782,0,0,0,.322.046.942.942,0,0,0,.873-.6l.827-2.3A.9.9,0,0,0,49.653,45.032Z" transform="translate(-29.391 -32.825)" fill="#fff"/><path d="M59.253,42.832a.956.956,0,0,0-1.194.551l-.827,2.3a.956.956,0,0,0,.551,1.194.782.782,0,0,0,.322.046.942.942,0,0,0,.873-.6l.827-2.3A.917.917,0,0,0,59.253,42.832Z" transform="translate(-34.581 -31.635)" fill="#fff"/><path d="M68.853,36.932a.956.956,0,0,0-1.194.551l-.827,2.3a.956.956,0,0,0,.551,1.194.782.782,0,0,0,.322.046.942.942,0,0,0,.873-.6l.827-2.3A.937.937,0,0,0,68.853,36.932Z" transform="translate(-39.771 -28.445)" fill="#fff"/><path d="M78.453,29.532a.956.956,0,0,0-1.194.551l-.827,2.3a.956.956,0,0,0,.551,1.194.782.782,0,0,0,.322.046.942.942,0,0,0,.873-.6l.827-2.3A.919.919,0,0,0,78.453,29.532Z" transform="translate(-44.961 -24.444)" fill="#fff"/></g></g></g></svg>