<?xml version="1.0" encoding="utf-8"?>
<!-- Generator: Adobe Illustrator 23.0.0, SVG Export Plug-In . SVG Version: 6.00 Build 0)  -->
<svg version="1.1" id="Capa_1" xmlns="http://www.w3.org/2000/svg" xmlns:xlink="http://www.w3.org/1999/xlink" x="0px" y="0px"
	 viewBox="0 0 64 64" style="enable-background:new 0 0 64 64;" xml:space="preserve">
<style type="text/css">
	.st0{fill:#00263A;}
	.st1{opacity:0.752;}
	.st2{fill:#FFFFFF;}
</style>
<circle class="st0" cx="32" cy="32" r="32"/>
<g transform="translate(218.596 2862.702)" class="st1">
	<g transform="translate(0 0)">
		<path class="st2" d="M-167.4-2841.2l-2.3-1.8c-0.1-0.1-0.2-0.1-0.3,0c-0.1,0.1-0.1,0.1,0,0.2l0.2,1.5c-0.2-0.1-0.3-0.2-0.5-0.3
			c-2.4-1.3-5.4-0.4-6.7,2c-1,1.9-2.5,3.4-4.4,4.4v-3.5c0-0.5-0.4-0.9-0.9-0.9c-0.5,0-0.9,0.4-0.9,0.9c0,0,0,0,0,0.1v4.3
			c-1.1,0.4-2.3,0.6-3.5,0.6c-1.2,0-2.4-0.2-3.6-0.6v-4.3c0-0.5-0.4-0.9-0.9-0.9c-0.5,0-0.9,0.4-0.9,0.9c0,0,0,0,0,0.1v3.5
			c-1.8-1-3.3-2.5-4.3-4.4c-1.3-2.4-4.3-3.3-6.7-2l-0.3,0.1l0.2-1.4c0-0.2-0.2-0.3-0.4-0.2l-2.3,1.7c-0.1,0.1-0.1,0.2-0.1,0.3
			c0,0.1,0.1,0.1,0.2,0.1l1.4,0.2c-0.5,0.6-0.9,1.3-1.1,2.1c-0.4,1.3-0.2,2.6,0.4,3.8c2.7,5,7.4,8.8,13,10.2v2.3
			c0,2.6,1.9,4.9,4.5,5.3l0,9.6c0,0.5,0.4,0.9,0.9,0.9c0.5,0,0.9-0.4,0.9-0.9c0,0,0,0,0-0.1l0-9.6c2.6-0.5,4.5-2.7,4.5-5.3v-2.2
			c5.6-1.5,10.3-5.2,13-10.3c1-1.9,0.7-4.2-0.8-5.7l1.6-0.2C-167.3-2840.8-167.2-2840.9-167.4-2841.2
			C-167.3-2841.1-167.3-2841.1-167.4-2841.2z M-183.2-2822.2c0,2-1.6,3.6-3.6,3.6c-2,0-3.6-1.6-3.6-3.6v-1.9
			c1.2,0.2,2.4,0.3,3.6,0.3c1.2,0,2.4-0.1,3.5-0.3V-2822.2z M-169.9-2835.7c-5,9.3-16.6,12.7-25.9,7.7c-3.3-1.8-5.9-4.4-7.7-7.7
			c-0.4-0.7-0.5-1.6-0.2-2.3c0.2-0.8,0.8-1.4,1.5-1.8c0.4-0.3,1-0.4,1.5-0.4c1.1,0,2.2,0.6,2.7,1.6c3.4,6.3,11.2,8.6,17.5,5.2
			c2.2-1.2,4-3,5.2-5.2c0.8-1.5,2.7-2.1,4.2-1.3C-169.7-2839.1-169.1-2837.2-169.9-2835.7L-169.9-2835.7z"/>
		<path class="st2" d="M-199-2837.3c-0.5-0.2-1,0.1-1.1,0.6c0,0,0,0,0,0l-0.7,2.3c-0.2,0.5,0.1,1,0.6,1.1c0,0,0,0,0,0
			c0.1,0,0.2,0.1,0.3,0c0.4,0,0.8-0.3,0.9-0.6l0.7-2.3C-198.2-2836.6-198.5-2837.1-199-2837.3z"/>
		<path class="st2" d="M-194.6-2833.5c-0.5-0.2-1,0.1-1.2,0.6l-0.8,2.3c-0.2,0.5,0.1,1,0.6,1.2h0.4c0.4,0,0.7-0.2,0.9-0.6l0.8-2.3
			C-193.8-2832.8-194.1-2833.4-194.6-2833.5C-194.6-2833.5-194.6-2833.5-194.6-2833.5z"/>
		<path class="st2" d="M-190.1-2831.2c-0.5-0.2-1,0.1-1.2,0.6l-0.8,2.3c-0.2,0.5,0.1,1,0.6,1.2h0.3c0.4,0,0.7-0.2,0.9-0.6l0.8-2.3
			C-189.4-2830.5-189.6-2831-190.1-2831.2C-190.1-2831.2-190.1-2831.2-190.1-2831.2z"/>
		<path class="st2" d="M-185.7-2830.8c-0.5-0.2-1,0.1-1.2,0.6l-0.8,2.3c-0.2,0.5,0.1,1,0.6,1.2c0.1,0,0.2,0.1,0.3,0
			c0.4,0,0.7-0.2,0.9-0.6l0.8-2.3C-185-2830.1-185.2-2830.6-185.7-2830.8C-185.7-2830.8-185.7-2830.8-185.7-2830.8z"/>
		<path class="st2" d="M-181.3-2831.8c-0.5-0.2-1,0.1-1.2,0.6l-0.8,2.3c-0.2,0.5,0.1,1,0.6,1.2c0.1,0,0.2,0.1,0.3,0
			c0.4,0,0.7-0.2,0.9-0.6l0.8-2.3C-180.6-2831.1-180.8-2831.6-181.3-2831.8C-181.3-2831.8-181.3-2831.8-181.3-2831.8z"/>
		<path class="st2" d="M-176.9-2834.5c-0.5-0.2-1,0.1-1.2,0.6l-0.8,2.3c-0.2,0.5,0.1,1,0.6,1.2c0.1,0,0.2,0.1,0.3,0
			c0.4,0,0.7-0.2,0.9-0.6l0.8-2.3C-176.2-2833.8-176.4-2834.3-176.9-2834.5z"/>
		<path class="st2" d="M-172.5-2837.9c-0.5-0.2-1,0.1-1.2,0.6l-0.8,2.3c-0.2,0.5,0.1,1,0.6,1.2c0.1,0,0.2,0.1,0.3,0
			c0.4,0,0.7-0.2,0.9-0.6l0.8-2.3C-171.8-2837.2-172-2837.7-172.5-2837.9C-172.5-2837.9-172.5-2837.9-172.5-2837.9z"/>
	</g>
</g>
</svg>
