<?xml version="1.0" encoding="utf-8"?>
<!-- Generator: Adobe Illustrator 23.0.0, SVG Export Plug-In . SVG Version: 6.00 Build 0)  -->
<svg version="1.1" id="Capa_1" xmlns="http://www.w3.org/2000/svg" xmlns:xlink="http://www.w3.org/1999/xlink" x="0px" y="0px"
	 viewBox="0 0 64 64" style="enable-background:new 0 0 64 64;" xml:space="preserve">
<style type="text/css">
	.st0{fill:#00263A;}
	.st1{opacity:0.75;}
	.st2{fill:#FFFFFF;}
</style>
<g transform="translate(-1036 -3215)">
	<circle class="st0" cx="1068" cy="3247" r="32"/>
	<g transform="translate(1048.63 3224.666)" class="st1">
		<g transform="translate(0 0)">
			<path class="st2" d="M16.8,17.6c0.1,0,0.2,0,0.3-0.1c2.5-1,4.1-3.4,4.1-6.1V11c0-2.3,1.5-4.3,3.6-4.9l3.2-1
				c0.4-0.1,0.6-0.5,0.5-0.9S28,3.6,27.6,3.7l0,0l-3.2,1c-2.8,0.8-4.7,3.4-4.7,6.3v0.5c0,2.1-1.3,4-3.2,4.7c-0.4,0.2-0.6,0.6-0.4,1
				C16.3,17.4,16.5,17.6,16.8,17.6L16.8,17.6z"/>
			<path class="st2" d="M13.1,11.1l0.9,3.1c0.1,0.3,0.4,0.5,0.7,0.5c0.1,0,0.1,0,0.2,0c0.4-0.1,0.6-0.5,0.5-0.9c0,0,0,0,0,0
				l-0.9-3.1c-0.3-1.2-0.2-2.4,0.3-3.5c0.9-1.8,0.9-3.8,0-5.6l-0.2-0.5c-0.2-0.4-0.6-0.5-1-0.3c-0.4,0.2-0.5,0.6-0.3,1c0,0,0,0,0,0
				l0.2,0.5c0.7,1.4,0.7,2.9,0,4.3C12.8,8,12.6,9.6,13.1,11.1L13.1,11.1z"/>
			<path class="st2" d="M36.7,12.6c0.1-0.4-0.1-0.8-0.4-0.9c-0.4-0.1-0.8,0-0.9,0.4l-1.2,3.1c-0.8,2.1-2.9,3.4-5.2,3.2l-0.5,0
				c-2.7-0.2-5.2,1.2-6.4,3.6c-0.2,0.4,0,0.8,0.3,1c0,0,0,0,0,0c0.1,0.1,0.2,0.1,0.3,0.1c0.3,0,0.5-0.2,0.7-0.4c0.9-1.9,2.9-3,5-2.8
				l0.5,0c2.9,0.2,5.6-1.4,6.7-4.2L36.7,12.6z"/>
			<path class="st2" d="M37,26.8l0.4,0.3c0.3,0.2,0.8,0.1,1-0.2c0.2-0.3,0.1-0.8-0.2-1c0,0,0,0,0,0l-0.4-0.3c-1.7-1-3.8-1.2-5.6-0.5
				c-1.1,0.4-2.4,0.5-3.5,0l-3-1.1c-0.4-0.1-0.8,0-0.9,0.4c-0.1,0.4,0,0.8,0.4,0.9l3,1.1c1.5,0.6,3.1,0.5,4.6,0
				C34.2,25.9,35.7,26,37,26.8z"/>
			<path class="st2" d="M26.4,11.8c0,1.6,1.3,2.9,2.9,2.9s2.9-1.3,2.9-2.9S31,8.8,29.3,8.8l0,0C27.7,8.8,26.4,10.1,26.4,11.8z
				 M29.3,10.3c0.8,0,1.5,0.7,1.5,1.5s-0.7,1.5-1.5,1.5c-0.8,0-1.5-0.7-1.5-1.5S28.5,10.3,29.3,10.3L29.3,10.3z"/>
			<path class="st2" d="M35.9,31.6c-1.6,0-2.9,1.3-2.9,2.9s1.3,2.9,2.9,2.9s2.9-1.3,2.9-2.9l0,0C38.9,32.9,37.6,31.6,35.9,31.6z
				 M35.9,36c-0.8,0-1.5-0.7-1.5-1.5s0.7-1.5,1.5-1.5s1.5,0.7,1.5,1.5S36.7,36,35.9,36L35.9,36z"/>
			<path class="st2" d="M8,16.9c1.6,0,2.9-1.3,2.9-2.9S9.7,11,8,11S5.1,12.3,5.1,14c0,0,0,0,0,0C5.1,15.6,6.4,16.9,8,16.9z M8,12.5
				c0.8,0,1.5,0.7,1.5,1.5S8.8,15.4,8,15.4S6.6,14.8,6.6,14l0,0C6.6,13.1,7.2,12.5,8,12.5L8,12.5z"/>
			<path class="st2" d="M34.1,20.6l-1.5,0.7c-0.4,0.2-0.5,0.6-0.3,1c0.2,0.4,0.6,0.5,1,0.3l1.5-0.7c0.4-0.2,0.5-0.6,0.3-1
				S34.5,20.5,34.1,20.6C34.1,20.6,34.1,20.6,34.1,20.6z"/>
			<path class="st2" d="M19,3.7c0.4,0,0.7-0.3,0.7-0.7V0.7C19.8,0.3,19.5,0,19,0c-0.4,0-0.7,0.3-0.7,0.7v2.2
				C18.3,3.3,18.6,3.7,19,3.7C19,3.7,19,3.7,19,3.7z"/>
			<path class="st2" d="M29.3,33.8h-2.9c-0.4,0-0.7,0.3-0.7,0.7s0.3,0.7,0.7,0.7h2.9c0.4,0,0.7-0.3,0.7-0.7S29.7,33.8,29.3,33.8z"/>
			<path class="st2" d="M22.5,16.9c0.4,0.1,0.8-0.1,0.9-0.5l0.7-2.2c0.1-0.4-0.1-0.8-0.5-0.9c-0.4-0.1-0.8,0.1-0.9,0.5L22,15.9
				C21.9,16.3,22.1,16.7,22.5,16.9C22.5,16.9,22.5,16.9,22.5,16.9L22.5,16.9z"/>
			<path class="st2" d="M39.6,4.1c-0.1-0.2-0.3-0.4-0.5-0.5l-1.3-0.4L37,2.1c-0.2-0.3-0.7-0.4-1.1-0.2c-0.1,0-0.1,0.1-0.2,0.2
				L35,3.3l-1.3,0.3c-0.4,0.1-0.6,0.5-0.5,0.9c0,0.1,0.1,0.2,0.1,0.3l0.9,1.1L34,7.3c0,0.4,0.3,0.8,0.7,0.8c0,0,0,0,0,0
				c0.1,0,0.2,0,0.3-0.1l1.3-0.5L37.6,8c0.4,0.1,0.8,0,1-0.4c0-0.1,0.1-0.2,0-0.3l-0.1-1.4l0.9-1.1C39.6,4.6,39.6,4.4,39.6,4.1z
				 M37.2,5.2c-0.1,0.1-0.2,0.3-0.2,0.5l0,0.5L36.6,6C36.4,6,36.2,6,36.1,6l-0.5,0.2l0-0.5c0-0.2,0-0.4-0.2-0.5l-0.3-0.4l0.5-0.1
				c0.2,0,0.3-0.2,0.4-0.3l0.3-0.4l0.3,0.4c0.1,0.2,0.3,0.3,0.4,0.3l0.5,0.1L37.2,5.2z"/>
			<path class="st2" d="M24.3,38.2l-0.1-1.4c0-0.4-0.4-0.7-0.8-0.7c-0.1,0-0.2,0-0.3,0.1l-1.2,0.7l-1.4-0.3
				c-0.4-0.1-0.8,0.1-0.9,0.5c0,0.1,0,0.2,0,0.3l0.3,1.4L19.2,40c-0.2,0.3-0.1,0.8,0.2,1c0.1,0.1,0.2,0.1,0.3,0.1l1.4,0.2l0.9,1.1
				c0.1,0.2,0.3,0.3,0.6,0.3c0,0,0.1,0,0.1,0c0.2,0,0.5-0.2,0.6-0.4l0.6-1.3l1.3-0.5c0.4-0.1,0.6-0.6,0.4-1c0-0.1-0.1-0.2-0.2-0.3
				L24.3,38.2z M23,39.7c-0.2,0.1-0.3,0.2-0.4,0.4l-0.2,0.5L22,40.1c-0.1-0.1-0.3-0.2-0.5-0.3L21,39.8l0.3-0.4
				c0.1-0.2,0.1-0.3,0.1-0.5l-0.1-0.5l0.5,0.1c0.2,0,0.4,0,0.5-0.1l0.5-0.3l0,0.5c0,0.2,0.1,0.4,0.2,0.5l0.4,0.4L23,39.7z"/>
			<path class="st2" d="M2.1,27c0.2,0.1,0.5,0.1,0.7-0.1l1.2-0.8l1.4,0.2c0.4,0.1,0.8-0.2,0.8-0.6c0-0.1,0-0.2,0-0.3L5.7,24l0.6-1.2
				c0.2-0.4,0-0.8-0.3-1c-0.1,0-0.2-0.1-0.3-0.1l-1.4,0l-1-1c-0.3-0.3-0.8-0.3-1,0c-0.1,0.1-0.1,0.2-0.2,0.3l-0.5,1.3L0.4,23
				c-0.4,0.2-0.5,0.6-0.3,1c0.1,0.1,0.1,0.2,0.2,0.2L1.4,25l0.2,1.4C1.7,26.7,1.8,26.9,2.1,27z M2.6,23.5c0.2-0.1,0.3-0.2,0.4-0.4
				l0.2-0.5l0.4,0.4c0.1,0.1,0.3,0.2,0.5,0.2l0.5,0l-0.2,0.5c-0.1,0.2-0.1,0.4,0,0.5l0.2,0.5l-0.5-0.1c-0.2,0-0.4,0-0.5,0.1L2.9,25
				l-0.1-0.5c0-0.2-0.1-0.3-0.3-0.5l-0.4-0.3L2.6,23.5z"/>
			<path class="st2" d="M26.8,31.3c0-0.2,0-0.5-0.2-0.6L14.1,18.2c-0.3-0.3-0.8-0.3-1,0c-0.1,0.1-0.1,0.1-0.1,0.2L1.5,42.3
				c-0.2,0.4,0,0.8,0.3,1c0.2,0.1,0.4,0.1,0.6,0l10.3-4.9l0,0l4.7-2.2l0,0l8.9-4.3C26.6,31.7,26.7,31.5,26.8,31.3z M13.8,20l4.6,4.6
				c-2.1,0.3-4.3-0.3-5.9-1.8L13.8,20z M11.8,24.1c1.5,1.3,3.5,2,5.5,2c0.8,0,1.6-0.1,2.3-0.3l1.4,1.4c-3.4,1-7.1,0.7-10.2-1
				L11.8,24.1z M10.2,27.5c3.6,1.9,7.8,2.2,11.7,1l0.3-0.1l1.2,1.2l-3.2,1.3c-3.6,1.4-7.8,1-11-1.2L10.2,27.5z M3.7,41L5,38.3
				c1,0.3,2.1,0.5,3.2,0.6L3.7,41z M12.2,37c-0.2,0-0.3,0.1-0.5,0.1c-0.1,0-0.3,0.1-0.4,0.1c-0.2,0-0.4,0.1-0.6,0.1
				c-0.1,0-0.2,0-0.4,0.1c-0.2,0-0.4,0-0.6,0c-0.1,0-0.2,0-0.3,0c-0.2,0-0.4,0-0.6,0c-0.1,0-0.2,0-0.4,0c-0.2,0-0.3,0-0.5,0
				c-0.1,0-0.3,0-0.4,0s-0.3,0-0.4-0.1c-0.2,0-0.3,0-0.5-0.1c-0.1,0-0.2-0.1-0.4-0.1C6.2,37.1,6,37,5.8,37c0,0-0.1,0-0.1,0L6.6,35
				l0.1,0.1c0.1,0.1,0.2,0.1,0.3,0.2c0.2,0.1,0.4,0.2,0.5,0.3c0.1,0.1,0.2,0.1,0.4,0.2c0.2,0.1,0.3,0.1,0.5,0.2
				c0.1,0,0.3,0.1,0.4,0.1c0.2,0.1,0.3,0.1,0.5,0.2c0.1,0,0.3,0.1,0.4,0.1c0.2,0,0.3,0.1,0.5,0.1c0.1,0,0.3,0.1,0.4,0.1
				c0.2,0,0.3,0.1,0.5,0.1c0.1,0,0.3,0,0.4,0.1c0.2,0,0.4,0,0.5,0.1c0.1,0,0.3,0,0.4,0c0.1,0,0.1,0,0.2,0L12.2,37z M16.8,34.8
				c-3.2,1.1-6.7,0.7-9.6-1.1L8.5,31c2.2,1.4,4.7,2.2,7.3,2.2c1.7,0,3.3-0.3,4.9-0.9l3.5-1.4c0.1,0,0.2-0.1,0.2-0.2l0.3,0.3
				L16.8,34.8z"/>
		</g>
	</g>
</g>
</svg>
