<svg xmlns="http://www.w3.org/2000/svg" width="64" height="64" viewBox="0 0 64 64"><g transform="translate(-1036 -3215)"><circle cx="32" cy="32" r="32" transform="translate(1036 3215)" fill="#6060a8"/><g transform="translate(1048.63 3224.666)" opacity="0.75"><g transform="translate(0 0)"><path d="M25.736,21.953a.724.724,0,0,0,.272-.052A6.545,6.545,0,0,0,30.143,15.8v-.514a5.074,5.074,0,0,1,3.64-4.891l3.181-.955a.734.734,0,1,0-.422-1.407l-3.181.955a6.536,6.536,0,0,0-4.687,6.3V15.8a5.082,5.082,0,0,1-3.21,4.741.734.734,0,0,0,.272,1.415Z" transform="translate(-8.894 -4.327)" fill="#fff"/><path d="M20.758,14.355l.876,3.068a.734.734,0,0,0,.707.531.761.761,0,0,0,.2-.028.734.734,0,0,0,.505-.908l-.876-3.068a4.794,4.794,0,0,1,.322-3.471,6.309,6.309,0,0,0,0-5.614l-.226-.459a.735.735,0,1,0-1.315.657l.23.459a4.83,4.83,0,0,1,0,4.3,6.266,6.266,0,0,0-.424,4.533Z" transform="translate(-7.702 -3.265)" fill="#fff"/><path d="M47.761,19.737a.735.735,0,0,0-1.368-.537l-1.211,3.092a5.089,5.089,0,0,1-5.173,3.228l-.514-.043A6.541,6.541,0,0,0,33.072,29.1a.734.734,0,0,0,.33.985.726.726,0,0,0,.327.077.734.734,0,0,0,.661-.407,5.1,5.1,0,0,1,4.989-2.811l.514.043a6.547,6.547,0,0,0,6.661-4.155Z" transform="translate(-11.016 -7.179)" fill="#fff"/><path d="M49.044,38.463l.441.267a.734.734,0,1,0,.763-1.254l-.441-.267a6.3,6.3,0,0,0-5.594-.46,4.8,4.8,0,0,1-3.486.037L37.741,35.66a.734.734,0,0,0-.518,1.374l2.986,1.124a6.253,6.253,0,0,0,4.553-.048A4.835,4.835,0,0,1,49.044,38.463Z" transform="translate(-12.016 -11.663)" fill="#fff"/><path d="M39,17.938A2.938,2.938,0,1,0,41.938,15,2.938,2.938,0,0,0,39,17.938Zm2.938-1.469a1.469,1.469,0,1,1-1.469,1.469A1.469,1.469,0,0,1,41.938,16.469Z" transform="translate(-12.61 -6.187)" fill="#fff"/><path d="M50.938,46a2.938,2.938,0,1,0,2.938,2.938A2.938,2.938,0,0,0,50.938,46Zm0,4.407a1.469,1.469,0,1,1,1.469-1.469A1.469,1.469,0,0,1,50.938,50.407Z" transform="translate(-15 -14.42)" fill="#fff"/><path d="M12.938,23.875A2.938,2.938,0,1,0,10,20.938,2.938,2.938,0,0,0,12.938,23.875Zm0-4.407a1.469,1.469,0,1,1-1.469,1.469A1.469,1.469,0,0,1,12.938,19.469Z" transform="translate(-4.909 -6.984)" fill="#fff"/><path d="M48.875,31.077l-1.469.734a.735.735,0,0,0,.657,1.315l1.469-.734a.735.735,0,1,0-.657-1.315Z" transform="translate(-14.735 -10.436)" fill="#fff"/><path d="M28.734,6.672a.734.734,0,0,0,.734-.734v-2.2a.734.734,0,1,0-1.469,0v2.2A.734.734,0,0,0,28.734,6.672Z" transform="translate(-9.689 -3)" fill="#fff"/><path d="M41.672,49H38.734a.734.734,0,1,0,0,1.469h2.938a.734.734,0,1,0,0-1.469Z" transform="translate(-12.345 -15.216)" fill="#fff"/><path d="M33.5,24.634a.734.734,0,0,0,.928-.464l.734-2.2a.735.735,0,0,0-1.4-.464l-.734,2.2a.734.734,0,0,0,.467.928Z" transform="translate(-11.016 -7.78)" fill="#fff"/><path d="M54.6,7.8a.734.734,0,0,0-.514-.484L52.739,6.96l-.745-1.175a.764.764,0,0,0-1.24,0L50,6.96l-1.348.348a.734.734,0,0,0-.383,1.175l.886,1.075-.085,1.39a.734.734,0,0,0,.734.78.724.724,0,0,0,.269-.051l1.3-.514,1.3.514a.734.734,0,0,0,1-.729l-.085-1.39.886-1.075A.734.734,0,0,0,54.6,7.8ZM52.267,8.854a.734.734,0,0,0-.166.514l.032.529L51.64,9.7a.738.738,0,0,0-.538,0l-.492.195.032-.528a.734.734,0,0,0-.167-.514l-.336-.408.514-.131A.734.734,0,0,0,51.09,8l.283-.446L51.657,8a.74.74,0,0,0,.436.317l.514.131Z" transform="translate(-15.029 -3.655)" fill="#fff"/><path d="M34.248,54.3l-.09-1.39a.734.734,0,0,0-1.085-.6l-1.221.67-1.35-.344a.736.736,0,0,0-.9.848l.26,1.368-.745,1.175a.734.734,0,0,0,.528,1.121l1.382.177.889,1.071a.734.734,0,0,0,.565.265.785.785,0,0,0,.093-.006.734.734,0,0,0,.572-.415l.594-1.26,1.294-.514a.734.734,0,0,0,.231-1.217Zm-1.324,1.429a.73.73,0,0,0-.392.367l-.226.478-.337-.406a.734.734,0,0,0-.472-.26l-.524-.067.282-.447a.734.734,0,0,0,.1-.53l-.1-.519.514.131a.734.734,0,0,0,.535-.069l.464-.255.034.528a.734.734,0,0,0,.229.488l.386.362Z" transform="translate(-9.954 -16.073)" fill="#fff"/><path d="M5.148,37.369a.734.734,0,0,0,.7-.073L7,36.5l1.379.2a.734.734,0,0,0,.808-.94l-.4-1.334.614-1.249a.734.734,0,0,0-.644-1.058l-1.4-.029-1-.97a.734.734,0,0,0-1.206.286l-.457,1.316-1.235.65a.734.734,0,0,0-.1,1.235l1.11.842.239,1.372A.734.734,0,0,0,5.148,37.369Zm.486-3.486a.734.734,0,0,0,.351-.409l.173-.5.379.367a.741.741,0,0,0,.5.208l.529.011-.233.474a.739.739,0,0,0-.044.537l.153.507L6.916,35a.734.734,0,0,0-.524.125l-.434.3-.09-.521a.734.734,0,0,0-.281-.459l-.421-.319Z" transform="translate(-3.068 -10.412)" fill="#fff"/><path d="M30.348,40.795a.734.734,0,0,0-.2-.643L17.68,27.688a.734.734,0,0,0-1.182.2L5.074,51.779a.734.734,0,0,0,.978.978l10.3-4.927h0l4.658-2.225h0l8.931-4.271A.734.734,0,0,0,30.348,40.795ZM17.375,29.46l4.564,4.564a7.167,7.167,0,0,1-5.9-1.78Zm-2,4.172a8.635,8.635,0,0,0,5.471,1.957,8.74,8.74,0,0,0,2.328-.324L24.61,36.7a13.533,13.533,0,0,1-10.216-1.009Zm-1.623,3.395a14.982,14.982,0,0,0,11.72.955l.314-.1,1.191,1.19-3.241,1.3a11.829,11.829,0,0,1-11-1.214ZM7.294,50.535l1.329-2.78a13.177,13.177,0,0,0,3.231.6Zm8.492-4.061c-.161.045-.323.079-.485.118-.133.031-.264.068-.4.094-.187.037-.377.062-.566.089-.118.018-.235.041-.353.054-.2.023-.393.033-.588.046-.113.007-.226.021-.339.025-.189.007-.38,0-.569,0-.121,0-.242,0-.362,0-.17-.007-.339-.026-.509-.04-.14-.012-.281-.018-.42-.034s-.287-.046-.431-.068c-.162-.026-.326-.046-.488-.079-.12-.024-.239-.059-.36-.087-.181-.042-.364-.08-.543-.131-.038-.011-.073-.026-.114-.037l.9-1.888.093.054c.1.057.2.106.3.159.177.095.354.189.534.275.118.057.239.106.358.159.166.073.332.147.5.214.126.049.253.093.38.139.166.059.332.119.5.172.129.04.259.073.389.113.17.047.339.093.51.134.13.031.261.059.391.085.174.036.348.068.524.1.129.021.259.041.388.058q.269.035.538.059c.128.012.256.023.384.031.066,0,.131.012.2.015Zm4.642-2.22a11.677,11.677,0,0,1-9.621-1.064l1.293-2.7a13.317,13.317,0,0,0,7.3,2.178,13.173,13.173,0,0,0,4.888-.936l3.533-1.414a.711.711,0,0,0,.242-.168l.31.31Z" transform="translate(-3.582 -9.499)" fill="#fff"/></g></g></g></svg>