<svg xmlns="http://www.w3.org/2000/svg" width="64" height="64" viewBox="0 0 64 64"><g transform="translate(-206 -3589)"><circle cx="32" cy="32" r="32" transform="translate(206 3589)" fill="#eca130"/><g transform="translate(221.859 3600.892)" opacity="0.75"><path d="M41.3,33.885V30.127a1.036,1.036,0,0,0-2.073,0v3.757a1.036,1.036,0,0,0,2.073,0Zm3.374,1.848A1.037,1.037,0,0,0,45.715,34.7V30.938a1.036,1.036,0,1,0-2.073,0V34.7A1.036,1.036,0,0,0,44.679,35.732Zm5.445,1.95V33.925a1.036,1.036,0,0,0-2.073,0v3.757a1.036,1.036,0,1,0,2.073,0ZM36.895,34.7V30.938a1.036,1.036,0,1,0-2.073,0V34.7a1.036,1.036,0,1,0,2.073,0Zm-4.409,2.986V33.925a1.036,1.036,0,0,0-2.073,0v3.757a1.036,1.036,0,1,0,2.073,0Zm7.641-17.558A19.837,19.837,0,0,0,26,25.974a3.109,3.109,0,1,0,4.4,4.4A13.754,13.754,0,0,1,53.881,40.1a1.036,1.036,0,0,0,2.073,0,15.826,15.826,0,0,0-27.019-11.19,1.037,1.037,0,0,1-1.465-1.468A17.888,17.888,0,0,1,56.238,47.866a3.088,3.088,0,0,0-2.362-1.11H51.569a3.053,3.053,0,0,0-.8-3.007c-1.112-1.112-3.425-2.051-5.835-2.63a4.8,4.8,0,0,0-9.337,0c-2.409.579-4.721,1.515-5.834,2.628a3.051,3.051,0,0,0-.8,3.007H26.659a3.109,3.109,0,1,0,0,6.218h.891l2.909,3.552v3.846A1.037,1.037,0,0,0,31.5,61.409H49.042a1.037,1.037,0,0,0,1.036-1.036V56.526l2.909-3.552h.89a3.1,3.1,0,0,0,2.521-1.3l.013,0c.015-.02.026-.044.041-.064l0-.007a19.972,19.972,0,0,0-16.33-31.473Zm4.841,23.137a11.2,11.2,0,0,1,4.338,1.954.963.963,0,0,1,.245,1.059.788.788,0,0,1-.793.482H41.93A4.821,4.821,0,0,0,44.967,43.261Zm-4.7-3.746a2.735,2.735,0,1,1-2.735,2.735A2.739,2.739,0,0,1,40.268,39.514Zm-9.037,5.7a11.2,11.2,0,0,1,4.338-1.954,4.822,4.822,0,0,0,3.037,3.5H31.779a.789.789,0,0,1-.793-.482A.963.963,0,0,1,31.231,45.214ZM48.239,55.5a1.034,1.034,0,0,0-.234.656v3.181H32.532V56.155A1.031,1.031,0,0,0,32.3,55.5L30.23,52.974H50.308Zm5.637-4.6H26.659a1.036,1.036,0,1,1,0-2.073H53.877a1.036,1.036,0,1,1,0,2.073Z" transform="translate(-23.55 -20.124)" fill="#fff"/></g></g></svg>