<?xml version="1.0" encoding="utf-8"?>
<!-- Generator: Adobe Illustrator 23.0.0, SVG Export Plug-In . SVG Version: 6.00 Build 0)  -->
<svg version="1.1" id="Capa_1" xmlns="http://www.w3.org/2000/svg" xmlns:xlink="http://www.w3.org/1999/xlink" x="0px" y="0px"
	 viewBox="0 0 64 64" style="enable-background:new 0 0 64 64;" xml:space="preserve">
<style type="text/css">
	.st0{fill:#00263A;}
	.st1{opacity:0.75;}
	.st2{fill:#FFFFFF;}
</style>
<g transform="translate(-206 -3589)">
	<circle class="st0" cx="238" cy="3621" r="32"/>
	<g transform="translate(221.859 3600.892)" class="st1">
		<path class="st2" d="M17.8,13.8V10c0-0.6-0.5-1-1-1c-0.6,0-1,0.5-1,1l0,0v3.8c0,0.6,0.5,1,1,1S17.7,14.3,17.8,13.8L17.8,13.8
			L17.8,13.8z M21.1,15.6c0.6,0,1-0.5,1-1c0,0,0,0,0,0v-3.8c0-0.6-0.5-1-1-1c-0.6,0-1,0.5-1,1l0,0v3.8
			C20.1,15.1,20.6,15.6,21.1,15.6L21.1,15.6z M26.6,17.6v-3.8c0-0.6-0.5-1-1-1c-0.6,0-1,0.5-1,1v3.8c0,0.6,0.5,1,1,1
			S26.6,18.1,26.6,17.6L26.6,17.6z M13.3,14.6v-3.8c0-0.6-0.5-1-1-1c-0.6,0-1,0.5-1,1l0,0v3.8c0,0.6,0.5,1,1,1S13.3,15.1,13.3,14.6
			C13.3,14.6,13.3,14.6,13.3,14.6z M8.9,17.6v-3.8c0-0.6-0.5-1-1-1c-0.6,0-1,0.5-1,1v3.8c0,0.6,0.5,1,1,1
			C8.5,18.6,8.9,18.1,8.9,17.6L8.9,17.6z M16.6,0C11.3,0,6.2,2.1,2.5,5.9c-1.2,1.2-1.2,3.2,0,4.4s3.2,1.2,4.4,0l0,0
			c5.4-5.4,14.1-5.4,19.5,0c2.6,2.6,4,6.1,4,9.7c0,0.6,0.5,1,1,1c0.6,0,1-0.5,1-1c0-8.7-7.1-15.8-15.8-15.8c-4.2,0-8.2,1.7-11.2,4.6
			C5,9.2,4.3,9.2,3.9,8.8c-0.4-0.4-0.4-1.1,0-1.5c7-7,18.3-7,25.3,0c5.4,5.4,6.8,13.6,3.5,20.5c-0.6-0.7-1.4-1.1-2.4-1.1H28
			c0.3-1.1,0-2.2-0.8-3c-1.1-1.1-3.4-2.1-5.8-2.6c-0.6-2.6-3.2-4.2-5.8-3.6c-1.8,0.4-3.1,1.8-3.6,3.6c-2.4,0.6-4.7,1.5-5.8,2.6
			c-0.8,0.8-1.1,1.9-0.8,3H3.1C1.4,26.6,0,28,0,29.7c0,1.7,1.4,3.1,3.1,3.1c0,0,0,0,0,0H4l2.9,3.6v3.8c0,0.6,0.5,1,1,1c0,0,0,0,0,0
			h17.5c0.6,0,1-0.5,1-1v-3.8l2.9-3.6h0.9c1,0,1.9-0.5,2.5-1.3h0c0,0,0,0,0-0.1v0c6.4-9,4.2-21.5-4.8-27.8C24.7,1.3,20.7,0,16.6,0
			L16.6,0z M21.4,23.1c1.6,0.3,3,1,4.3,2c0.3,0.3,0.4,0.7,0.2,1.1c-0.1,0.3-0.5,0.5-0.8,0.5h-6.8C19.9,26.1,21.1,24.7,21.4,23.1
			L21.4,23.1z M16.7,19.4c1.5,0,2.7,1.2,2.7,2.7s-1.2,2.7-2.7,2.7S14,23.6,14,22.1C14,20.6,15.2,19.4,16.7,19.4L16.7,19.4z
			 M7.7,25.1c1.3-1,2.8-1.6,4.3-2c0.3,1.6,1.5,2.9,3,3.5H8.2c-0.3,0-0.7-0.2-0.8-0.5C7.3,25.8,7.4,25.4,7.7,25.1L7.7,25.1z
			 M24.7,35.4c-0.2,0.2-0.2,0.4-0.2,0.7v3.2H9V36c0-0.2-0.1-0.5-0.2-0.7l-2.1-2.5h20.1L24.7,35.4z M30.3,30.8H3.1c-0.6,0-1-0.5-1-1
			s0.5-1,1-1h27.2c0.6,0,1,0.5,1,1S30.9,30.8,30.3,30.8L30.3,30.8L30.3,30.8z"/>
	</g>
</g>
</svg>
