<?xml version="1.0" encoding="utf-8"?>
<!-- Generator: Adobe Illustrator 23.0.0, SVG Export Plug-In . SVG Version: 6.00 Build 0)  -->
<svg version="1.1" id="Capa_1" xmlns="http://www.w3.org/2000/svg" xmlns:xlink="http://www.w3.org/1999/xlink" x="0px" y="0px"
	 viewBox="0 0 64 64" style="enable-background:new 0 0 64 64;" xml:space="preserve">
<style type="text/css">
	.st0{fill:#00263A;}
	.st1{opacity:0.75;}
	.st2{fill:#FFFFFF;}
</style>
<g transform="translate(-206 -3216)">
	<circle class="st0" cx="238" cy="3248" r="32"/>
	<g transform="translate(215.344 3229.268)">
		<g transform="translate(0 0)" class="st1">
			<path class="st2" d="M13.8,0c-3.2,0-5.9,2.6-5.9,5.8c0,0,0,0,0,0c0,0.2,0,0.3,0,0.5H2.5C1.2,6.3,0.1,7.3,0,8.6S1,11,2.3,11
				c0.1,0,0.1,0,0.2,0h5.4c0,6.1,0,12.1,0,18.2c0,0.4,0.4,0.8,0.8,0.8c0,0,0,0,0,0h3.9v7.1c0,1.3,1.1,2.3,2.4,2.3h22.1
				c1.3,0,2.4-1,2.4-2.3V11h3.8c1.3,0.1,2.4-0.9,2.5-2.2c0.1-1.3-0.9-2.4-2.2-2.5c-0.1,0-0.2,0-0.3,0h-3.8c0-0.2,0-0.2,0-0.5
				c0,0,0-0.1,0-0.1c0,0,0,0,0,0C39.4,2.5,36.7,0,33.5,0L13.8,0L13.8,0z M13.8,1.6h19.7c2.4,0,4.3,1.8,4.3,4.2c0,0,0,0,0,0
				c0,0.1,0,0.1,0,0.2c-0.1-0.2-0.1-0.2,0,0.1c0,0.1,0,0.2,0,0.3h-1.5V6c0-1.3-1.1-2.4-2.4-2.4c-1.3,0-2.4,1.1-2.4,2.4l0,11.4H9.5
				c0-3.9,0-7.7-0.1-11.6C9.5,3.4,11.4,1.6,13.8,1.6C13.8,1.6,13.8,1.6,13.8,1.6z M34,5.2c0.4,0,0.8,0.3,0.8,0.7c0,0,0,0,0,0v0.3
				h-1.6V6C33.2,5.6,33.5,5.2,34,5.2C33.9,5.2,34,5.2,34,5.2L34,5.2z M2.5,7.9h5.4c0,0.5,0,1.1,0,1.6H2.5C2.1,9.5,1.6,9.2,1.6,8.8
				C1.5,8.4,1.8,8,2.2,7.9C2.3,7.9,2.4,7.9,2.5,7.9z M33.2,7.9h10.1c0.4-0.1,0.8,0.2,0.9,0.7C44.3,9,44,9.4,43.5,9.5
				c-0.1,0-0.2,0-0.3,0H33.2L33.2,7.9z M33.2,11h4.7v26.1c0,0.4-0.3,0.8-0.8,0.8c0,0,0,0,0,0H15c-0.4,0-0.8-0.3-0.8-0.7c0,0,0,0,0,0
				V30l18.1,0c0.4,0,0.8-0.4,0.8-0.8L33.2,11z M9.5,18.9h3.1v3.1H9.5C9.5,21,9.5,20,9.5,18.9z M14.2,18.9h3.2v3.1h-3.2V18.9z
				 M18.9,18.9h3.2v3.1h-3.2V18.9z M23.7,18.9h3.2v3.1h-3.2L23.7,18.9z M28.4,18.9h3.2l0,3.1h-3.2L28.4,18.9z M9.5,23.7h22.1l0,4.8
				l-22.1,0C9.5,26.9,9.5,25.3,9.5,23.7z"/>
		</g>
	</g>
</g>
</svg>
