<svg xmlns="http://www.w3.org/2000/svg" width="64" height="64" viewBox="0 0 64 64"><g transform="translate(-206 -3216)"><circle cx="32" cy="32" r="32" transform="translate(206 3216)" fill="#82d877"/><g transform="translate(215.344 3229.268)"><g transform="translate(0 0)" opacity="0.75"><path d="M21.022,9.982A5.866,5.866,0,0,0,15.1,15.763q0,.008,0,.015c0,.172,0,.346,0,.518h-5.4a2.37,2.37,0,1,0,0,4.735h5.423c.036,6.051.022,12.14.022,18.2a.789.789,0,0,0,.792.789h3.943v7.094a2.366,2.366,0,0,0,2.368,2.34h22.1a2.367,2.367,0,0,0,2.368-2.34V21.032h3.761a2.371,2.371,0,1,0,0-4.735h-3.8c0-.162,0-.231-.012-.462a.791.791,0,0,0-.009-.093c.006.039-.005-.047,0-.022a5.862,5.862,0,0,0-5.91-5.731H21.019Zm0,1.588H40.753a4.267,4.267,0,0,1,4.341,4.2.789.789,0,0,0,.015.151c-.054-.249-.054-.236-.006.068,0,.082-.009.2-.015.305H43.547v-.324a2.358,2.358,0,1,0-4.717,0L38.8,27.346H16.749c0-3.869-.011-7.735-.068-11.573A4.267,4.267,0,0,1,21.022,11.57Zm20.166,3.622a.761.761,0,0,1,.78.78V16.3h-1.56v-.321A.763.763,0,0,1,41.188,15.193ZM9.711,17.875h5.4c.006.524.008,1.053.012,1.578H9.711a.8.8,0,1,1,0-1.578Zm30.694,0H50.486a.8.8,0,1,1,0,1.578H40.4ZM40.4,21.032h4.745V47.114a.757.757,0,0,1-.789.761h-22.1a.757.757,0,0,1-.789-.761v-7.1l18.1-.034a.789.789,0,0,0,.786-.786ZM16.743,28.924h3.092v3.145h-3.1C16.74,31.02,16.742,29.974,16.743,28.924Zm4.671,0h3.157v3.145H21.414Zm4.735,0h3.157v3.145H26.149Zm4.735,0h3.157v3.145H30.885Zm4.735,0H38.8l-.006,3.145H35.62ZM16.737,33.647H38.79l-.012,4.76-22.053.04C16.725,36.852,16.733,35.248,16.737,33.647Z" transform="translate(-7.223 -9.982)" fill="#fff"/></g></g></g></svg>